<?xml version="1.0" encoding="utf-8"?>
<!-- Generator: Adobe Illustrator 21.1.0, SVG Export Plug-In . SVG Version: 6.00 Build 0)  -->
<svg version="1.1" id="Ebene_1" xmlns="http://www.w3.org/2000/svg" xmlns:xlink="http://www.w3.org/1999/xlink" x="0px" y="0px"
	 viewBox="0 0 33.7 33.7" style="enable-background:new 0 0 33.7 33.7;" xml:space="preserve">
<style type="text/css">
	.st0{fill:#FFFFFF;}
</style>
<g>
	<path class="st0" d="M33.1,30.3c0.8,0.8,0.8,2,0,2.8s-2,0.8-2.8,0L16.8,19.7L3.4,33.1c-0.8,0.8-2,0.8-2.8,0s-0.8-2,0-2.8L14,16.8
		L0.6,3.4c-0.8-0.8-0.8-2,0-2.8s2-0.8,2.8,0L16.8,14L30.3,0.6c0.8-0.8,2-0.8,2.8,0s0.8,2,0,2.8L19.7,16.8L33.1,30.3z"/>
</g>
</svg>
