<?xml version="1.0" encoding="utf-8"?>
<!-- Generator: Adobe Illustrator 21.1.0, SVG Export Plug-In . SVG Version: 6.00 Build 0)  -->
<svg version="1.1" id="Ebene_1" xmlns="http://www.w3.org/2000/svg" xmlns:xlink="http://www.w3.org/1999/xlink" x="0px" y="0px"
	 viewBox="0 0 62 48" style="enable-background:new 0 0 62 48;" xml:space="preserve">
<path d="M59,0H3C1.3,0,0,1.3,0,3v42c0,1.7,1.3,3,3,3h56c1.7,0,3-1.3,3-3V3C62,1.3,60.7,0,59,0z M3,2h56c0.6,0,1,0.4,1,1v6H2V3
	C2,2.4,2.4,2,3,2z M59,46H3c-0.6,0-1-0.4-1-1V11h58v34C60,45.6,59.6,46,59,46z M5,5.5C5,4.7,5.7,4,6.5,4S8,4.7,8,5.5S7.3,7,6.5,7
	S5,6.3,5,5.5z M10,5.5C10,4.7,10.7,4,11.5,4S13,4.7,13,5.5S12.3,7,11.5,7S10,6.3,10,5.5z M15,5.5C15,4.7,15.7,4,16.5,4
	S18,4.7,18,5.5S17.3,7,16.5,7S15,6.3,15,5.5z M23,21v2c-0.6,0-1,0.4-1,1v2c0,0.8-0.3,1.5-0.8,2c0.5,0.5,0.8,1.2,0.8,2v2
	c0,0.6,0.4,1,1,1v2c-1.7,0-3-1.3-3-3v-2c0-0.6-0.4-1-1-1v-2c0.6,0,1-0.4,1-1v-2C20,22.3,21.3,21,23,21z M43,27v2c-0.6,0-1,0.4-1,1v2
	c0,1.7-1.3,3-3,3v-2c0.6,0,1-0.4,1-1v-2c0-0.8,0.3-1.5,0.8-2c-0.5-0.5-0.8-1.2-0.8-2v-2c0-0.6-0.4-1-1-1v-2c1.7,0,3,1.3,3,3v2
	C42,26.6,42.4,27,43,27z M32,31c0,0.6-0.4,1-1,1s-1-0.4-1-1s0.4-1,1-1S32,30.4,32,31z M35,31c0,0.6-0.4,1-1,1s-1-0.4-1-1s0.4-1,1-1
	S35,30.4,35,31z M29,31c0,0.6-0.4,1-1,1s-1-0.4-1-1s0.4-1,1-1S29,30.4,29,31z"/>
</svg>
