<?xml version="1.0" encoding="utf-8"?>
<!-- Generator: Adobe Illustrator 21.1.0, SVG Export Plug-In . SVG Version: 6.00 Build 0)  -->
<svg version="1.1" id="Ebene_1" xmlns="http://www.w3.org/2000/svg" xmlns:xlink="http://www.w3.org/1999/xlink" x="0px" y="0px"
	 viewBox="0 0 42 54" style="enable-background:new 0 0 42 54;" xml:space="preserve">
<style type="text/css">
	.st0{fill:#FFFFFF;}
</style>
<path class="st0" d="M41.4,9.6l-9-9C32,0.2,31.5,0,31,0H4C1.8,0,0,1.8,0,4v46c0,2.2,1.8,4,4,4h34c2.2,0,4-1.8,4-4V11
	C42,10.5,41.8,10,41.4,9.6z M30,3v8c0,0.6,0.4,1,1,1h8v38c0,0.6-0.4,1-1,1H4c-0.6,0-1-0.4-1-1V4c0-0.6,0.4-1,1-1H30z M32,4.4
	l5.6,5.6H32V4.4z"/>
</svg>
