<?xml version="1.0" encoding="utf-8"?>
<!-- Generator: Adobe Illustrator 21.1.0, SVG Export Plug-In . SVG Version: 6.00 Build 0)  -->
<svg version="1.1" id="Ebene_1" xmlns="http://www.w3.org/2000/svg" xmlns:xlink="http://www.w3.org/1999/xlink" x="0px" y="0px"
	 viewBox="0 0 29 29" style="enable-background:new 0 0 29 29;" xml:space="preserve">
<style type="text/css">
	.st0{fill:#FFFFFF;}
</style>
<path class="st0" d="M28.6,26.4l-7.1-7.1c1.6-2,2.5-4.6,2.5-7.3c0-6.6-5.4-12-12-12S0,5.4,0,12s5.4,12,12,12c2.8,0,5.3-1,7.3-2.5
	l7.1,7.1c0.6,0.6,1.5,0.6,2.1,0S29.1,27,28.6,26.4z M12,20c-4.4,0-8-3.6-8-8s3.6-8,8-8s8,3.6,8,8S16.4,20,12,20z"/>
</svg>
