<?xml version="1.0" encoding="utf-8"?>
<!-- Generator: Adobe Illustrator 22.0.1, SVG Export Plug-In . SVG Version: 6.00 Build 0)  -->
<svg version="1.1" id="Ebene_1" xmlns="http://www.w3.org/2000/svg" xmlns:xlink="http://www.w3.org/1999/xlink" x="0px" y="0px"
	 viewBox="0 0 32.7 30" style="enable-background:new 0 0 32.7 30;" xml:space="preserve">
<style type="text/css">
	.st0{fill:#76DB16;}
	.st1{fill:#CDF1AA;}
	.st2{fill:#E6F8D4;}
</style>
<path class="st0" d="M2,19.2c-0.8,0-1.6-0.5-1.9-1.3c-0.4-1,0.1-2.2,1.2-2.6L30,4.4c1-0.4,2.2,0.1,2.6,1.2c0.4,1-0.1,2.2-1.2,2.6
	L2.8,19.1C2.5,19.2,2.3,19.2,2,19.2z"/>
<path class="st1" d="M11,22.7c-0.8,0-1.6-0.5-1.9-1.3c-0.4-1,0.1-2.2,1.2-2.6L30,11.4c1-0.4,2.2,0.1,2.6,1.2c0.4,1-0.1,2.2-1.2,2.6
	l-19.8,7.4C11.5,22.7,11.2,22.7,11,22.7z"/>
<path class="st2" d="M20.2,26.4c-0.8,0-1.6-0.5-1.9-1.3c-0.4-1,0.1-2.2,1.1-2.6L30,18.5c1-0.4,2.2,0.1,2.6,1.1
	c0.4,1-0.1,2.2-1.1,2.6L21,26.2C20.7,26.3,20.5,26.4,20.2,26.4z"/>
</svg>
