<?xml version="1.0" encoding="utf-8"?>
<!-- Generator: Adobe Illustrator 22.0.1, SVG Export Plug-In . SVG Version: 6.00 Build 0)  -->
<svg version="1.1" id="Ebene_1" xmlns="http://www.w3.org/2000/svg" xmlns:xlink="http://www.w3.org/1999/xlink" x="0px" y="0px"
	 viewBox="0 0 31.7 21.1" style="enable-background:new 0 0 31.7 21.1;" xml:space="preserve">
<style type="text/css">
	.st0{fill:#FFFFFF;}
	.st1{opacity:0.3;fill:#FFFFFF;}
	.st2{opacity:0.15;fill:#FFFFFF;}
</style>
<path class="st0" d="M1.5,13.9c-0.6,0-1.2-0.4-1.4-1C-0.2,12.1,0.2,11.3,1,11L29.7,0.1c0.8-0.3,1.6,0.1,1.9,0.9
	c0.3,0.8-0.1,1.6-0.9,1.9L2,13.8C1.9,13.9,1.7,13.9,1.5,13.9z"/>
<path class="st1" d="M10.4,17.4c-0.6,0-1.2-0.4-1.4-1c-0.3-0.8,0.1-1.6,0.9-1.9l19.8-7.4c0.8-0.3,1.6,0.1,1.9,0.9
	c0.3,0.8-0.1,1.6-0.9,1.9L11,17.3C10.8,17.4,10.6,17.4,10.4,17.4z"/>
<path class="st2" d="M19.7,21.1c-0.6,0-1.2-0.4-1.4-1c-0.3-0.8,0.1-1.6,0.9-1.9l10.5-4.1c0.8-0.3,1.6,0.1,1.9,0.9
	c0.3,0.8-0.1,1.6-0.9,1.9L20.2,21C20.1,21,19.9,21.1,19.7,21.1z"/>
</svg>
