<?xml version="1.0" encoding="utf-8"?>
<!-- Generator: Adobe Illustrator 22.0.1, SVG Export Plug-In . SVG Version: 6.00 Build 0)  -->
<svg version="1.1" id="Ebene_1" xmlns="http://www.w3.org/2000/svg" xmlns:xlink="http://www.w3.org/1999/xlink" x="0px" y="0px"
	 viewBox="0 0 31 31" style="enable-background:new 0 0 31 31;" xml:space="preserve">
<style type="text/css">
	.st0{fill:#D5EDFF;}
	.st1{fill:#189EFF;}
</style>
<path class="st0" d="M27,5.9H9.9c-2.2,0-4,1.8-4,4V27c0,2.2,1.8,4,4,4H27c2.2,0,4-1.8,4-4V9.9C31,7.7,29.2,5.9,27,5.9z M27,9.9v3.6
	H9.9V9.9H27z M9.9,27v-9.6H27V27H9.9z"/>
<path class="st1" d="M21.1,0H4C1.8,0,0,1.8,0,4v17.1c0,2.2,1.8,4,4,4h17.1c2.2,0,4-1.8,4-4V4C25.1,1.8,23.3,0,21.1,0z M21.1,4v3.6H4
	V4H21.1z M4,21.1v-9.5h17.1v9.5H4z"/>
</svg>
