<svg version="1.1" xmlns="http://www.w3.org/2000/svg" xmlns:xlink="http://www.w3.org/1999/xlink" width="860" height="384.5"><style xmlns="http://www.w3.org/1999/xhtml"></style><defs/><g transform="translate(0,0)"><g><rect fill="#FFFFFF" stroke="none" x="0" y="0" width="860" height="384.5"/></g><g transform="translate(0,0) matrix(1,0,0,1,160,110)"><g transform="translate(4,4) scale(1.0014705882352941,1.0071428571428571)"><g><g transform="translate(0,0) scale(6.8,1.4)"><g><path fill="#000000" stroke="none" d="M 0 0 L 100 0 Q 100 0 100 0 L 100 100 Q 100 100 100 100 L 0 100 Q 0 100 0 100 L 0 0 Q 0 0 0 0 Z" opacity="0.294117647"/><g transform="scale(0.14705882352941177,0.7142857142857143)"><path fill="none" stroke="none" d="M 0 0 L 680 0 Q 680 0 680 0 L 680 140 Q 680 140 680 140 L 0 140 Q 0 140 0 140 L 0 0 Q 0 0 0 0 Z"/><path fill="none" stroke="rgb(0,0,0)" d="M 0 0 M 0 0 L 680 0 Q 680 0 680 0 L 680 140 Q 680 140 680 140 L 0 140 Q 0 140 0 140 L 0 0 Q 0 0 0 0 Z" stroke-opacity="0" stroke-miterlimit="10" stroke-width="2" opacity="0.294117647"/></g></g></g></g></g><g><g transform="translate(0,0) scale(6.8,1.4)"><g><path fill="#FFFFFF" stroke="none" d="M 0 0 L 100 0 Q 100 0 100 0 L 100 100 Q 100 100 100 100 L 0 100 Q 0 100 0 100 L 0 0 Q 0 0 0 0 Z"/><g transform="scale(0.14705882352941177,0.7142857142857143)"><path fill="none" stroke="none" d="M 0 0 L 680 0 Q 680 0 680 0 L 680 140 Q 680 140 680 140 L 0 140 Q 0 140 0 140 L 0 0 Q 0 0 0 0 Z"/><path fill="none" stroke="#000000" d="M 0 0 M 0 0 L 680 0 Q 680 0 680 0 L 680 140 Q 680 140 680 140 L 0 140 Q 0 140 0 140 L 0 0 Q 0 0 0 0 Z" stroke-miterlimit="10" stroke-width="2"/></g></g></g></g></g><g transform="translate(0,0) matrix(1,0,0,1,10,130)"><g><g transform="translate(0,0) scale(1.3,0.5)"><g><g transform="scale(0.7692307692307692,2)"><path fill="#FFFFFF" stroke="none" d="M 0 15 L 105.00000000000001 15 L 105.00000000000001 0 L 130 25 L 105.00000000000001 50 L 105.00000000000001 35 L 0 35 L 0 15 Z"/><path fill="none" stroke="#333333" d="M 0 15 M 0 15 L 105.00000000000001 15 L 105.00000000000001 0 L 130 25 L 105.00000000000001 50 L 105.00000000000001 35 L 0 35 L 0 15 Z" stroke-miterlimit="10" stroke-width="2"/></g></g></g></g></g><g transform="matrix(1,0,0,1,21,148)"><g><g><rect fill="rgb(0,0,0)" stroke="none" x="0" y="0" width="110" height="14" fill-opacity="0"/></g></g><g><g><rect fill="rgb(0,0,0)" stroke="none" x="0" y="0" width="110" height="14" fill-opacity="0"/></g></g><g><g><rect fill="rgb(0,0,0)" stroke="none" x="15.21875" y="0" width="80" height="14" fill-opacity="0"/></g></g><g><g><rect fill="rgb(0,0,0)" stroke="none" x="15.21875" y="0" width="80" height="14" fill-opacity="0"/></g><text fill="rgb(0, 0, 0)" stroke="none" font-family="Arial" font-size="12px" font-style="normal" font-weight="normal" text-decoration="" line-height="14px" x="15" y="12">HTTP</text><text fill="rgb(0, 0, 0)" stroke="none" font-family="Arial" font-size="12px" font-style="normal" font-weight="normal" text-decoration="" line-height="14px" x="50" y="12">Request</text></g></g><g transform="translate(0,0) matrix(1,0,0,1,310,140)"><g transform="translate(4,4) scale(1.0071428571428571,1.0142857142857142)"><g><g transform="translate(0,0) scale(1.4,0.7)"><g><path fill="#000000" stroke="none" d="M 0 0 L 100 0 Q 100 0 100 0 L 100 100 Q 100 100 100 100 L 0 100 Q 0 100 0 100 L 0 0 Q 0 0 0 0 Z" opacity="0.294117647"/><g transform="scale(0.7142857142857143,1.4285714285714286)"><path fill="none" stroke="none" d="M 0 0 L 140 0 Q 140 0 140 0 L 140 70 Q 140 70 140 70 L 0 70 Q 0 70 0 70 L 0 0 Q 0 0 0 0 Z"/><path fill="none" stroke="rgb(0,0,0)" d="M 0 0 M 0 0 L 140 0 Q 140 0 140 0 L 140 70 Q 140 70 140 70 L 0 70 Q 0 70 0 70 L 0 0 Q 0 0 0 0 Z" stroke-opacity="0" stroke-miterlimit="10" stroke-width="2" opacity="0.294117647"/></g></g></g></g></g><g><g transform="translate(0,0) scale(1.4,0.7)"><g><path fill="#FFFFFF" stroke="none" d="M 0 0 L 100 0 Q 100 0 100 0 L 100 100 Q 100 100 100 100 L 0 100 Q 0 100 0 100 L 0 0 Q 0 0 0 0 Z"/><g transform="scale(0.7142857142857143,1.4285714285714286)"><path fill="none" stroke="none" d="M 0 0 L 140 0 Q 140 0 140 0 L 140 70 Q 140 70 140 70 L 0 70 Q 0 70 0 70 L 0 0 Q 0 0 0 0 Z"/><path fill="none" stroke="#000000" d="M 0 0 M 0 0 L 140 0 Q 140 0 140 0 L 140 70 Q 140 70 140 70 L 0 70 Q 0 70 0 70 L 0 0 Q 0 0 0 0 Z" stroke-miterlimit="10" stroke-width="2"/></g></g></g></g></g><g transform="matrix(1,0,0,1,320,168)"><g><g><rect fill="rgb(0,0,0)" stroke="none" x="0" y="0" width="121" height="14" fill-opacity="0"/></g></g><g><g><rect fill="rgb(0,0,0)" stroke="none" x="0" y="0" width="121" height="14" fill-opacity="0"/></g></g><g><g><rect fill="rgb(0,0,0)" stroke="none" x="19.828125" y="0" width="81" height="14" fill-opacity="0"/></g></g><g><g><rect fill="rgb(0,0,0)" stroke="none" x="19.828125" y="0" width="81" height="14" fill-opacity="0"/></g><text fill="rgb(0, 0, 0)" stroke="none" font-family="Arial" font-size="12px" font-style="normal" font-weight="700" text-decoration="" line-height="14px" x="19.828125" y="12">B2BController</text></g></g><g transform="translate(0,0) matrix(1,0,0,1,490,140)"><g transform="translate(4,4) scale(1.0071428571428571,1.0142857142857142)"><g><g transform="translate(0,0) scale(1.4,0.7)"><g><path fill="#000000" stroke="none" d="M 0 0 L 100 0 Q 100 0 100 0 L 100 100 Q 100 100 100 100 L 0 100 Q 0 100 0 100 L 0 0 Q 0 0 0 0 Z" opacity="0.294117647"/><g transform="scale(0.7142857142857143,1.4285714285714286)"><path fill="none" stroke="none" d="M 0 0 L 140 0 Q 140 0 140 0 L 140 70 Q 140 70 140 70 L 0 70 Q 0 70 0 70 L 0 0 Q 0 0 0 0 Z"/><path fill="none" stroke="rgb(0,0,0)" d="M 0 0 M 0 0 L 140 0 Q 140 0 140 0 L 140 70 Q 140 70 140 70 L 0 70 Q 0 70 0 70 L 0 0 Q 0 0 0 0 Z" stroke-opacity="0" stroke-miterlimit="10" stroke-width="2" opacity="0.294117647"/></g></g></g></g></g><g><g transform="translate(0,0) scale(1.4,0.7)"><g><path fill="#FFFFFF" stroke="none" d="M 0 0 L 100 0 Q 100 0 100 0 L 100 100 Q 100 100 100 100 L 0 100 Q 0 100 0 100 L 0 0 Q 0 0 0 0 Z"/><g transform="scale(0.7142857142857143,1.4285714285714286)"><path fill="none" stroke="none" d="M 0 0 L 140 0 Q 140 0 140 0 L 140 70 Q 140 70 140 70 L 0 70 Q 0 70 0 70 L 0 0 Q 0 0 0 0 Z"/><path fill="none" stroke="#000000" d="M 0 0 M 0 0 L 140 0 Q 140 0 140 0 L 140 70 Q 140 70 140 70 L 0 70 Q 0 70 0 70 L 0 0 Q 0 0 0 0 Z" stroke-miterlimit="10" stroke-width="2"/></g></g></g></g></g><g transform="matrix(1,0,0,1,500,168)"><g><g><rect fill="rgb(0,0,0)" stroke="none" x="0" y="0" width="121" height="14" fill-opacity="0"/></g></g><g><g><rect fill="rgb(0,0,0)" stroke="none" x="0" y="0" width="121" height="14" fill-opacity="0"/></g></g><g><g><rect fill="rgb(0,0,0)" stroke="none" x="27.140625" y="0" width="67" height="14" fill-opacity="0"/></g></g><g><g><rect fill="rgb(0,0,0)" stroke="none" x="27.140625" y="0" width="67" height="14" fill-opacity="0"/></g><text fill="rgb(0, 0, 0)" stroke="none" font-family="Arial" font-size="12px" font-style="normal" font-weight="700" text-decoration="" line-height="14px" x="27.140625" y="12">B2BService</text></g></g><g transform="translate(0,0) matrix(1,0,0,1,670,140)"><g transform="translate(4,4) scale(1.0071428571428571,1.0142857142857142)"><g><g transform="translate(0,0) scale(1.4,0.7)"><g><path fill="#000000" stroke="none" d="M 0 0 L 100 0 Q 100 0 100 0 L 100 100 Q 100 100 100 100 L 0 100 Q 0 100 0 100 L 0 0 Q 0 0 0 0 Z" opacity="0.294117647"/><g transform="scale(0.7142857142857143,1.4285714285714286)"><path fill="none" stroke="none" d="M 0 0 L 140 0 Q 140 0 140 0 L 140 70 Q 140 70 140 70 L 0 70 Q 0 70 0 70 L 0 0 Q 0 0 0 0 Z"/><path fill="none" stroke="rgb(0,0,0)" d="M 0 0 M 0 0 L 140 0 Q 140 0 140 0 L 140 70 Q 140 70 140 70 L 0 70 Q 0 70 0 70 L 0 0 Q 0 0 0 0 Z" stroke-opacity="0" stroke-miterlimit="10" stroke-width="2" opacity="0.294117647"/></g></g></g></g></g><g><g transform="translate(0,0) scale(1.4,0.7)"><g><path fill="#FFFFFF" stroke="none" d="M 0 0 L 100 0 Q 100 0 100 0 L 100 100 Q 100 100 100 100 L 0 100 Q 0 100 0 100 L 0 0 Q 0 0 0 0 Z"/><g transform="scale(0.7142857142857143,1.4285714285714286)"><path fill="none" stroke="none" d="M 0 0 L 140 0 Q 140 0 140 0 L 140 70 Q 140 70 140 70 L 0 70 Q 0 70 0 70 L 0 0 Q 0 0 0 0 Z"/><path fill="none" stroke="#000000" d="M 0 0 M 0 0 L 140 0 Q 140 0 140 0 L 140 70 Q 140 70 140 70 L 0 70 Q 0 70 0 70 L 0 0 Q 0 0 0 0 Z" stroke-miterlimit="10" stroke-width="2"/></g></g></g></g></g><g transform="matrix(1,0,0,1,680,168)"><g><g><rect fill="rgb(0,0,0)" stroke="none" x="0" y="0" width="121" height="14" fill-opacity="0"/></g></g><g><g><rect fill="rgb(0,0,0)" stroke="none" x="0" y="0" width="121" height="14" fill-opacity="0"/></g></g><g><g><rect fill="rgb(0,0,0)" stroke="none" x="17.15625" y="0" width="87" height="14" fill-opacity="0"/></g></g><g><g><rect fill="rgb(0,0,0)" stroke="none" x="17.15625" y="0" width="87" height="14" fill-opacity="0"/></g><text fill="rgb(0, 0, 0)" stroke="none" font-family="Arial" font-size="12px" font-style="normal" font-weight="700" text-decoration="" line-height="14px" x="17.15625" y="12">B2BRepository</text></g></g><g transform="translate(0,0) matrix(6.123233995736766e-17,1,-1,6.123233995736766e-17,392.5,227.5)"><g><g transform="translate(0,0) scale(0.7,0.25)"><g><g transform="scale(1.4285714285714286,4)"><path fill="#FFFFFF" stroke="none" d="M 0 12.5 L 12.5 0 L 12.5 7.5 L 70 7.5 L 70 17.5 L 12.5 17.5 L 12.5 25 L 0 12.5 Z"/><path fill="none" stroke="#333333" d="M 0 12.5 M 0 12.5 L 12.5 0 L 12.5 7.5 L 70 7.5 L 70 17.5 L 12.5 17.5 L 12.5 25 L 0 12.5 Z" stroke-miterlimit="10" stroke-width="2"/></g></g></g></g></g><g transform="translate(0,0) matrix(6.123233995736766e-17,1,-1,6.123233995736766e-17,582.5,227.5)"><g><g transform="translate(0,0) scale(0.7,0.25)"><g><g transform="scale(1.4285714285714286,4)"><path fill="#FFFFFF" stroke="none" d="M 0 12.5 L 12.5 0 L 12.5 7.5 L 70 7.5 L 70 17.5 L 12.5 17.5 L 12.5 25 L 0 12.5 Z"/><path fill="none" stroke="#333333" d="M 0 12.5 M 0 12.5 L 12.5 0 L 12.5 7.5 L 70 7.5 L 70 17.5 L 12.5 17.5 L 12.5 25 L 0 12.5 Z" stroke-miterlimit="10" stroke-width="2"/></g></g></g></g></g><g transform="translate(0,0) matrix(6.123233995736766e-17,1,-1,6.123233995736766e-17,755,227.5)"><g><g transform="translate(0,0) scale(0.7,0.25)"><g><g transform="scale(1.4285714285714286,4)"><path fill="#FFFFFF" stroke="none" d="M 0 12.5 L 12.5 0 L 12.5 7.5 L 70 7.5 L 70 17.5 L 12.5 17.5 L 12.5 25 L 0 12.5 Z"/><path fill="none" stroke="#333333" d="M 0 12.5 M 0 12.5 L 12.5 0 L 12.5 7.5 L 70 7.5 L 70 17.5 L 12.5 17.5 L 12.5 25 L 0 12.5 Z" stroke-miterlimit="10" stroke-width="2"/></g></g></g></g></g><g transform="translate(0,0) matrix(1,0,0,1,200,140)"><g transform="translate(4,4) scale(1.0142857142857142,1.0333333333333334)"><g><g transform="translate(0,0) scale(0.7,0.3)"><g><path fill="#000000" stroke="none" d="M 0 0 L 100 0 Q 100 0 100 0 L 100 100 Q 100 100 100 100 L 0 100 Q 0 100 0 100 L 0 0 Q 0 0 0 0 Z" opacity="0.294117647"/><g transform="scale(1.4285714285714286,3.3333333333333335)"><path fill="none" stroke="none" d="M 0 0 L 70 0 Q 70 0 70 0 L 70 30 Q 70 30 70 30 L 0 30 Q 0 30 0 30 L 0 0 Q 0 0 0 0 Z"/><path fill="none" stroke="rgb(0,0,0)" d="M 0 0 M 0 0 L 70 0 Q 70 0 70 0 L 70 30 Q 70 30 70 30 L 0 30 Q 0 30 0 30 L 0 0 Q 0 0 0 0 Z" stroke-opacity="0" stroke-miterlimit="10" stroke-width="2" opacity="0.294117647"/></g></g></g></g></g><g><g transform="translate(0,0) scale(0.7,0.3)"><g><path fill="#FFFFFF" stroke="none" d="M 0 0 L 100 0 Q 100 0 100 0 L 100 100 Q 100 100 100 100 L 0 100 Q 0 100 0 100 L 0 0 Q 0 0 0 0 Z"/><g transform="scale(1.4285714285714286,3.3333333333333335)"><path fill="none" stroke="none" d="M 0 0 L 70 0 Q 70 0 70 0 L 70 30 Q 70 30 70 30 L 0 30 Q 0 30 0 30 L 0 0 Q 0 0 0 0 Z"/><path fill="none" stroke="#000000" d="M 0 0 M 0 0 L 70 0 Q 70 0 70 0 L 70 30 Q 70 30 70 30 L 0 30 Q 0 30 0 30 L 0 0 Q 0 0 0 0 Z" stroke-miterlimit="10" stroke-width="2"/></g></g></g></g></g><g transform="matrix(1,0,0,1,209,148)"><g><g><rect fill="rgb(0,0,0)" stroke="none" x="0" y="0" width="53" height="14" fill-opacity="0"/></g></g><g><g><rect fill="rgb(0,0,0)" stroke="none" x="0" y="0" width="53" height="14" fill-opacity="0"/></g></g><g><g><rect fill="rgb(0,0,0)" stroke="none" x="4.15625" y="0" width="45" height="14" fill-opacity="0"/></g></g><g><g><rect fill="rgb(0,0,0)" stroke="none" x="4.15625" y="0" width="45" height="14" fill-opacity="0"/></g><text fill="rgb(0, 0, 0)" stroke="none" font-family="Arial" font-size="12px" font-style="normal" font-weight="700" text-decoration="" line-height="14px" x="4.15625" y="12">Firewall</text></g></g><g transform="translate(0,0) matrix(-1.8369701987210297e-16,-1,1,-1.8369701987210297e-16,222.5,127.5)"><g><g transform="translate(0,0) scale(0.7,0.25)"><g><g transform="scale(1.4285714285714286,4)"><path fill="#FFFFFF" stroke="none" d="M 0 12.5 L 12.5 0 L 12.5 7.5 L 70 7.5 L 70 17.5 L 12.5 17.5 L 12.5 25 L 0 12.5 Z"/><path fill="none" stroke="#333333" d="M 0 12.5 M 0 12.5 L 12.5 0 L 12.5 7.5 L 70 7.5 L 70 17.5 L 12.5 17.5 L 12.5 25 L 0 12.5 Z" stroke-miterlimit="10" stroke-width="2"/></g></g></g></g></g><g transform="matrix(1,0,0,1,202,0)"><g><g><rect fill="rgb(0,0,0)" stroke="none" x="0" y="0" width="76" height="42" fill-opacity="0"/></g></g><g><g><rect fill="rgb(0,0,0)" stroke="none" x="0" y="0" width="76" height="42" fill-opacity="0"/></g></g><g><g><rect fill="rgb(0,0,0)" stroke="none" x="9.328125" y="0" width="58" height="42" fill-opacity="0"/></g></g><g><g><rect fill="rgb(0,0,0)" stroke="none" x="9.328125" y="0" width="58" height="42" fill-opacity="0"/></g><text fill="rgb(0, 0, 0)" stroke="none" font-family="Arial" font-size="12px" font-style="normal" font-weight="700" text-decoration="" line-height="14px" x="20.328125" y="12">Guard</text><text fill="rgb(0, 0, 0)" stroke="none" font-family="Arial" font-size="12px" font-style="normal" font-weight="700" text-decoration="" line-height="14px" x="9.328125" y="26">Controller</text><text fill="rgb(0, 0, 0)" stroke="none" font-family="Arial" font-size="12px" font-style="normal" font-weight="700" text-decoration="" line-height="14px" x="16.984375" y="40">Access</text></g></g><g transform="matrix(1,0,0,1,720,309)"><g><g><rect fill="rgb(0,0,0)" stroke="none" x="0" y="0" width="47" height="56" fill-opacity="0"/></g></g><g><g><rect fill="rgb(0,0,0)" stroke="none" x="0" y="0" width="47" height="56" fill-opacity="0"/></g></g><g><g><rect fill="rgb(0,0,0)" stroke="none" x="2.484375" y="0" width="42" height="56" fill-opacity="0"/></g></g><g><g><rect fill="rgb(0,0,0)" stroke="none" x="2.484375" y="0" width="42" height="56" fill-opacity="0"/></g><text fill="rgb(0, 0, 0)" stroke="none" font-family="Arial" font-size="12px" font-style="normal" font-weight="700" text-decoration="" line-height="14px" x="5.828125" y="12">Guard</text><text fill="rgb(0, 0, 0)" stroke="none" font-family="Arial" font-size="12px" font-style="normal" font-weight="700" text-decoration="" line-height="14px" x="6.828125" y="26">Entity</text><text fill="rgb(0, 0, 0)" stroke="none" font-family="Arial" font-size="12px" font-style="normal" font-weight="700" text-decoration="" line-height="14px" x="8.828125" y="40">Read</text><text fill="rgb(0, 0, 0)" stroke="none" font-family="Arial" font-size="12px" font-style="normal" font-weight="700" text-decoration="" line-height="14px" x="2.484375" y="54">Access</text></g></g><g transform="matrix(1,0,0,1,547,309)"><g><g><rect fill="rgb(0,0,0)" stroke="none" x="0" y="0" width="47" height="56" fill-opacity="0"/></g></g><g><g><rect fill="rgb(0,0,0)" stroke="none" x="0" y="0" width="47" height="56" fill-opacity="0"/></g></g><g><g><rect fill="rgb(0,0,0)" stroke="none" x="5.8125" y="0" width="35" height="56" fill-opacity="0"/></g></g><g><g><rect fill="rgb(0,0,0)" stroke="none" x="5.8125" y="0" width="35" height="56" fill-opacity="0"/></g><text fill="rgb(0, 0, 0)" stroke="none" font-family="Arial" font-size="12px" font-style="normal" font-weight="700" text-decoration="" line-height="14px" x="5.828125" y="12">Guard</text><text fill="rgb(0, 0, 0)" stroke="none" font-family="Arial" font-size="12px" font-style="normal" font-weight="700" text-decoration="" line-height="14px" x="6.828125" y="26">Entity</text><text fill="rgb(0, 0, 0)" stroke="none" font-family="Arial" font-size="12px" font-style="normal" font-weight="700" text-decoration="" line-height="14px" x="8.609375" y="40">Write</text><text fill="rgb(0, 0, 0)" stroke="none" font-family="Arial" font-size="12px" font-style="normal" font-weight="700" text-decoration="" line-height="14px" x="5.8125" y="54">Acess</text></g></g><g transform="matrix(1,0,0,1,340,309)"><g><g><rect fill="rgb(0,0,0)" stroke="none" x="0" y="0" width="81" height="56" fill-opacity="0"/></g></g><g><g><rect fill="rgb(0,0,0)" stroke="none" x="0" y="0" width="81" height="14" fill-opacity="0"/></g></g><g><g><rect fill="rgb(0,0,0)" stroke="none" x="18.484375" y="0" width="45" height="14" fill-opacity="0"/></g></g><g><g><rect fill="rgb(0,0,0)" stroke="none" x="18.484375" y="0" width="45" height="14" fill-opacity="0"/></g><text fill="rgb(0, 0, 0)" stroke="none" font-family="Arial" font-size="12px" font-style="normal" font-weight="700" text-decoration="" line-height="14px" x="18.484375" y="12">Provide</text></g><g><g><rect fill="rgb(0,0,0)" stroke="none" x="0" y="14" width="81" height="14" fill-opacity="0"/></g></g><g><g><rect fill="rgb(0,0,0)" stroke="none" x="18.171875" y="14" width="45" height="14" fill-opacity="0"/></g></g><g><g><rect fill="rgb(0,0,0)" stroke="none" x="18.171875" y="14" width="45" height="14" fill-opacity="0"/></g><text fill="rgb(0, 0, 0)" stroke="none" font-family="Arial" font-size="12px" font-style="normal" font-weight="700" text-decoration="" line-height="14px" x="18.171875" y="26">Context</text></g><g><g><rect fill="rgb(0,0,0)" stroke="none" x="0" y="28" width="81" height="14" fill-opacity="0"/></g></g><g><g><rect fill="rgb(0,0,0)" stroke="none" x="32.5" y="28" width="15" height="14" fill-opacity="0"/></g></g><g><g><rect fill="rgb(0,0,0)" stroke="none" x="32.5" y="28" width="15" height="14" fill-opacity="0"/></g><text fill="rgb(0, 0, 0)" stroke="none" font-family="Arial" font-size="12px" font-style="normal" font-weight="700" text-decoration="" line-height="14px" x="32.5" y="40">for</text></g><g><g><rect fill="rgb(0,0,0)" stroke="none" x="0" y="42" width="81" height="14" fill-opacity="0"/></g></g><g><g><rect fill="rgb(0,0,0)" stroke="none" x="28.171875" y="42" width="25" height="14" fill-opacity="0"/></g></g><g><g><rect fill="rgb(0,0,0)" stroke="none" x="28.171875" y="42" width="25" height="14" fill-opacity="0"/></g><text fill="rgb(0, 0, 0)" stroke="none" font-family="Arial" font-size="12px" font-style="normal" font-weight="700" text-decoration="" line-height="14px" x="28.171875" y="54">ACL</text></g></g><g transform="translate(0,0) matrix(1,0,0,1,10,170)"><g><g transform="translate(0,0) scale(1.3,0.5)"><g><g transform="scale(0.7692307692307692,2)"><path fill="#FFFFFF" stroke="none" d="M 0 25 L 25 0 L 25 15 L 130 15 L 130 35 L 25 35 L 25 50 L 0 25 Z"/><path fill="none" stroke="#333333" d="M 0 25 M 0 25 L 25 0 L 25 15 L 130 15 L 130 35 L 25 35 L 25 50 L 0 25 Z" stroke-miterlimit="10" stroke-width="2"/></g></g></g></g></g><g transform="matrix(1,0,0,1,21,188)"><g><g><rect fill="rgb(0,0,0)" stroke="none" x="0" y="0" width="110" height="14" fill-opacity="0"/></g></g><g><g><rect fill="rgb(0,0,0)" stroke="none" x="0" y="0" width="110" height="14" fill-opacity="0"/></g></g><g><g><rect fill="rgb(0,0,0)" stroke="none" x="10.546875" y="0" width="88" height="14" fill-opacity="0"/></g></g><g><g><rect fill="rgb(0,0,0)" stroke="none" x="10.546875" y="0" width="88" height="14" fill-opacity="0"/></g><text fill="rgb(0, 0, 0)" stroke="none" font-family="Arial" font-size="12px" font-style="normal" font-weight="normal" text-decoration="" line-height="14px" x="11" y="12">HTTP</text><text fill="rgb(0, 0, 0)" stroke="none" font-family="Arial" font-size="12px" font-style="normal" font-weight="normal" text-decoration="" line-height="14px" x="45" y="12">Response</text></g></g><g transform="translate(0,0) matrix(1,0,0,1,270,150)"><g><g transform="translate(0,0) scale(0.4,0.2)"><g><g transform="scale(2.5,5)"><path fill="#FFFFFF" stroke="none" d="M 0 6 L 30 6 L 30 0 L 40 10 L 30 20 L 30 14 L 0 14 L 0 6 Z"/><path fill="none" stroke="#333333" d="M 0 6 M 0 6 L 30 6 L 30 0 L 40 10 L 30 20 L 30 14 L 0 14 L 0 6 Z" stroke-miterlimit="10" stroke-width="2"/></g></g></g></g></g><g transform="translate(0,0) matrix(-1,1.2246467991473532e-16,-1.2246467991473532e-16,-1,310,200)"><g><g transform="translate(0,0) scale(0.4,0.2)"><g><g transform="scale(2.5,5)"><path fill="#FFFFFF" stroke="none" d="M 0 6 L 30 6 L 30 0 L 40 10 L 30 20 L 30 14 L 0 14 L 0 6 Z"/><path fill="none" stroke="#333333" d="M 0 6 M 0 6 L 30 6 L 30 0 L 40 10 L 30 20 L 30 14 L 0 14 L 0 6 Z" stroke-miterlimit="10" stroke-width="2"/></g></g></g></g></g><g transform="translate(0,0) matrix(1,0,0,1,450,150)"><g><g transform="translate(0,0) scale(0.4,0.2)"><g><g transform="scale(2.5,5)"><path fill="#FFFFFF" stroke="none" d="M 0 6 L 30 6 L 30 0 L 40 10 L 30 20 L 30 14 L 0 14 L 0 6 Z"/><path fill="none" stroke="#333333" d="M 0 6 M 0 6 L 30 6 L 30 0 L 40 10 L 30 20 L 30 14 L 0 14 L 0 6 Z" stroke-miterlimit="10" stroke-width="2"/></g></g></g></g></g><g transform="translate(0,0) matrix(-1,1.2246467991473532e-16,-1.2246467991473532e-16,-1,490,200)"><g><g transform="translate(0,0) scale(0.4,0.2)"><g><g transform="scale(2.5,5)"><path fill="#FFFFFF" stroke="none" d="M 0 6 L 30 6 L 30 0 L 40 10 L 30 20 L 30 14 L 0 14 L 0 6 Z"/><path fill="none" stroke="#333333" d="M 0 6 M 0 6 L 30 6 L 30 0 L 40 10 L 30 20 L 30 14 L 0 14 L 0 6 Z" stroke-miterlimit="10" stroke-width="2"/></g></g></g></g></g><g transform="translate(0,0) matrix(1,0,0,1,630,150)"><g><g transform="translate(0,0) scale(0.4,0.2)"><g><g transform="scale(2.5,5)"><path fill="#FFFFFF" stroke="none" d="M 0 6 L 30 6 L 30 0 L 40 10 L 30 20 L 30 14 L 0 14 L 0 6 Z"/><path fill="none" stroke="#333333" d="M 0 6 M 0 6 L 30 6 L 30 0 L 40 10 L 30 20 L 30 14 L 0 14 L 0 6 Z" stroke-miterlimit="10" stroke-width="2"/></g></g></g></g></g><g transform="translate(0,0) matrix(-1,1.2246467991473532e-16,-1.2246467991473532e-16,-1,670,200)"><g><g transform="translate(0,0) scale(0.4,0.2)"><g><g transform="scale(2.5,5)"><path fill="#FFFFFF" stroke="none" d="M 0 6 L 30 6 L 30 0 L 40 10 L 30 20 L 30 14 L 0 14 L 0 6 Z"/><path fill="none" stroke="#333333" d="M 0 6 M 0 6 L 30 6 L 30 0 L 40 10 L 30 20 L 30 14 L 0 14 L 0 6 Z" stroke-miterlimit="10" stroke-width="2"/></g></g></g></g></g><g transform="translate(0,0) matrix(1,0,0,1,200,180)"><g transform="translate(4,4) scale(1.0142857142857142,1.0333333333333334)"><g><g transform="translate(0,0) scale(0.7,0.3)"><g><path fill="#000000" stroke="none" d="M 0 0 L 100 0 Q 100 0 100 0 L 100 100 Q 100 100 100 100 L 0 100 Q 0 100 0 100 L 0 0 Q 0 0 0 0 Z" opacity="0.294117647"/><g transform="scale(1.4285714285714286,3.3333333333333335)"><path fill="none" stroke="none" d="M 0 0 L 70 0 Q 70 0 70 0 L 70 30 Q 70 30 70 30 L 0 30 Q 0 30 0 30 L 0 0 Q 0 0 0 0 Z"/><path fill="none" stroke="rgb(0,0,0)" d="M 0 0 M 0 0 L 70 0 Q 70 0 70 0 L 70 30 Q 70 30 70 30 L 0 30 Q 0 30 0 30 L 0 0 Q 0 0 0 0 Z" stroke-opacity="0" stroke-miterlimit="10" stroke-width="2" opacity="0.294117647"/></g></g></g></g></g><g><g transform="translate(0,0) scale(0.7,0.3)"><g><path fill="#FFFFFF" stroke="none" d="M 0 0 L 100 0 Q 100 0 100 0 L 100 100 Q 100 100 100 100 L 0 100 Q 0 100 0 100 L 0 0 Q 0 0 0 0 Z"/><g transform="scale(1.4285714285714286,3.3333333333333335)"><path fill="none" stroke="none" d="M 0 0 L 70 0 Q 70 0 70 0 L 70 30 Q 70 30 70 30 L 0 30 Q 0 30 0 30 L 0 0 Q 0 0 0 0 Z"/><path fill="none" stroke="#000000" d="M 0 0 M 0 0 L 70 0 Q 70 0 70 0 L 70 30 Q 70 30 70 30 L 0 30 Q 0 30 0 30 L 0 0 Q 0 0 0 0 Z" stroke-miterlimit="10" stroke-width="2"/></g></g></g></g></g><g transform="matrix(1,0,0,1,209,188)"><g><g><rect fill="rgb(0,0,0)" stroke="none" x="0" y="0" width="53" height="14" fill-opacity="0"/></g></g><g><g><rect fill="rgb(0,0,0)" stroke="none" x="0" y="0" width="53" height="14" fill-opacity="0"/></g></g><g><g><rect fill="rgb(0,0,0)" stroke="none" x="12.9375" y="0" width="27" height="14" fill-opacity="0"/></g></g><g><g><rect fill="rgb(0,0,0)" stroke="none" x="12.9375" y="0" width="27" height="14" fill-opacity="0"/></g><text fill="rgb(0, 0, 0)" stroke="none" font-family="Arial" font-size="12px" font-style="normal" font-weight="700" text-decoration="" line-height="14px" x="12.9375" y="12">View</text></g></g><g transform="translate(0,0) matrix(6.123233995736766e-17,1,-1,6.123233995736766e-17,247.5,229)"><g><g transform="translate(0,0) scale(0.7,0.25)"><g><g transform="scale(1.4285714285714286,4)"><path fill="#FFFFFF" stroke="none" d="M 0 12.5 L 12.5 0 L 12.5 7.5 L 70 7.5 L 70 17.5 L 12.5 17.5 L 12.5 25 L 0 12.5 Z"/><path fill="none" stroke="#333333" d="M 0 12.5 M 0 12.5 L 12.5 0 L 12.5 7.5 L 70 7.5 L 70 17.5 L 12.5 17.5 L 12.5 25 L 0 12.5 Z" stroke-miterlimit="10" stroke-width="2"/></g></g></g></g></g><g transform="matrix(1,0,0,1,195,309)"><g><g><rect fill="rgb(0,0,0)" stroke="none" x="0" y="0" width="81" height="42" fill-opacity="0"/></g></g><g><g><rect fill="rgb(0,0,0)" stroke="none" x="0" y="0" width="81" height="14" fill-opacity="0"/></g></g><g><g><rect fill="rgb(0,0,0)" stroke="none" x="27.5" y="0" width="26" height="14" fill-opacity="0"/></g><text fill="rgb(0, 0, 0)" stroke="none" font-family="Arial" font-size="12px" font-style="normal" font-weight="700" text-decoration="" line-height="14px" x="27.5" y="12">Hide</text></g><g><g/></g><g><g/></g><g><g><rect fill="rgb(0,0,0)" stroke="none" x="0" y="14" width="81" height="14" fill-opacity="0"/></g></g><g><g><rect fill="rgb(0,0,0)" stroke="none" x="17.84375" y="14" width="45" height="14" fill-opacity="0"/></g><text fill="rgb(0, 0, 0)" stroke="none" font-family="Arial" font-size="12px" font-style="normal" font-weight="700" text-decoration="" line-height="14px" x="17.84375" y="26">Buttons</text></g><g><g><rect fill="rgb(0,0,0)" stroke="none" x="0" y="28" width="81" height="14" fill-opacity="0"/></g></g><g><g><rect fill="rgb(0,0,0)" stroke="none" x="23.171875" y="28" width="32" height="14" fill-opacity="0"/></g><text fill="rgb(0, 0, 0)" stroke="none" font-family="Arial" font-size="12px" font-style="normal" font-weight="700" text-decoration="" line-height="14px" x="23.171875" y="40">Links</text></g><g><g><rect fill="rgb(0,0,0)" stroke="none" x="54.5" y="28" width="3" height="14" fill-opacity="0"/></g></g></g></g></svg>