<svg version="1.1" xmlns="http://www.w3.org/2000/svg" xmlns:xlink="http://www.w3.org/1999/xlink" width="212" height="140"><style xmlns="http://www.w3.org/1999/xhtml"></style><defs/><g transform="translate(0,0)"><g><rect fill="#ffffff" stroke="none" x="0" y="0" width="212" height="140"/></g><g transform="translate(0,0) matrix(1,0,0,1,50,20)"><g><g transform="translate(0,0) scale(0.56,0.1)"><g><path fill="#ffffff" stroke="none" d="M 0 0 L 100 0 Q 100 0 100 0 L 100 100 Q 100 100 100 100 L 0 100 Q 0 100 0 100 L 0 0 Q 0 0 0 0 Z"/><g transform="scale(1.7857142857142856,10)"><path fill="none" stroke="none" d="M 0 0 L 56.00000000000001 0 Q 56.00000000000001 0 56.00000000000001 0 L 56.00000000000001 10 Q 56.00000000000001 10 56.00000000000001 10 L 0 10 Q 0 10 0 10 L 0 0 Q 0 0 0 0 Z"/><path fill="none" stroke="#000000" d="M 0 0 M 0 0 L 56.00000000000001 0 Q 56.00000000000001 0 56.00000000000001 0 L 56.00000000000001 10 Q 56.00000000000001 10 56.00000000000001 10 L 0 10 Q 0 10 0 10 L 0 0 Q 0 0 0 0 Z" stroke-miterlimit="10" stroke-width="2"/></g></g></g></g></g><g transform="translate(0,0) matrix(1,0,0,1,50,30)"><g><g transform="translate(0,0) scale(1.4,0.9)"><g><path fill="#ffffff" stroke="none" d="M 0 0 L 100 0 Q 100 0 100 0 L 100 100 Q 100 100 100 100 L 0 100 Q 0 100 0 100 L 0 0 Q 0 0 0 0 Z"/><g transform="scale(0.7142857142857143,1.1111111111111112)"><path fill="none" stroke="none" d="M 0 0 L 140 0 Q 140 0 140 0 L 140 90 Q 140 90 140 90 L 0 90 Q 0 90 0 90 L 0 0 Q 0 0 0 0 Z"/><path fill="none" stroke="#000000" d="M 0 0 M 0 0 L 140 0 Q 140 0 140 0 L 140 90 Q 140 90 140 90 L 0 90 Q 0 90 0 90 L 0 0 Q 0 0 0 0 Z" stroke-miterlimit="10" stroke-width="2"/></g></g></g></g></g><g transform="matrix(1,0,0,1,52,68)"><g transform="translate(75,-3) matrix(1,0,0,1,0,0) translate(-75,3)"><g><rect fill="rgb(0,0,0)" stroke="none" x="0" y="0" width="137" height="18" fill-opacity="0"/></g></g><g transform="translate(75,-3) matrix(1,0,0,1,0,0) translate(-75,3)"><g><rect fill="rgb(0,0,0)" stroke="none" x="0" y="0" width="137" height="14" fill-opacity="0"/></g></g><g transform="translate(75,-3) matrix(1,0,0,1,0,0) translate(-75,3)"><g><rect fill="rgb(0,0,0)" stroke="none" x="25" y="-1" width="87" height="14" fill-opacity="0"/></g></g><g transform="translate(75,-3) matrix(1,0,0,1,0,0) translate(-75,3)"><g><rect fill="rgb(0,0,0)" stroke="none" x="25" y="-1" width="87" height="16" fill-opacity="0"/></g></g><g transform="translate(75,-3) matrix(1,0,0,1,0,0) translate(-75,3)"><g><rect fill="rgb(0,0,0)" stroke="none" x="25" y="-1" width="87" height="16" fill-opacity="0"/></g><text fill="rgb(0, 0, 0)" stroke="none" font-family="Helvetica" font-size="14px" font-style="normal" font-weight="bold" text-decoration="" line-height="14px" x="25" y="12">Domain</text><text fill="rgb(0, 0, 0)" stroke="none" font-family="Helvetica" font-size="14px" font-style="normal" font-weight="bold" text-decoration="" line-height="14px" x="80" y="12">Core</text></g></g></g></svg>