<svg version="1.1" xmlns="http://www.w3.org/2000/svg" xmlns:xlink="http://www.w3.org/1999/xlink" width="482" height="476"><style xmlns="http://www.w3.org/1999/xhtml"></style><defs/><g transform="translate(0,0)"><g><rect fill="#ffffff" stroke="none" x="0" y="0" width="482" height="476"/></g><g transform="translate(0,0) matrix(1,0,0,1,200,200)"><g transform="translate(4,4) scale(1.025,1.1)"><g><g transform="translate(0,0) scale(0.4,0.1)"><g><path fill="#000000" stroke="none" d="M 0 0 L 100 0 Q 100 0 100 0 L 100 100 Q 100 100 100 100 L 0 100 Q 0 100 0 100 L 0 0 Q 0 0 0 0 Z" opacity="0.294117647"/><g transform="scale(2.5,10)"><path fill="none" stroke="none" d="M 0 0 L 40 0 Q 40 0 40 0 L 40 10 Q 40 10 40 10 L 0 10 Q 0 10 0 10 L 0 0 Q 0 0 0 0 Z"/><path fill="none" stroke="rgb(0,0,0)" d="M 0 0 M 0 0 L 40 0 Q 40 0 40 0 L 40 10 Q 40 10 40 10 L 0 10 Q 0 10 0 10 L 0 0 Q 0 0 0 0 Z" stroke-opacity="0" stroke-miterlimit="10" stroke-width="2" opacity="0.294117647"/></g></g></g></g></g><g><g transform="translate(0,0) scale(0.4,0.1)"><g><path fill="#FFFFFF" stroke="none" d="M 0 0 L 100 0 Q 100 0 100 0 L 100 100 Q 100 100 100 100 L 0 100 Q 0 100 0 100 L 0 0 Q 0 0 0 0 Z"/><g transform="scale(2.5,10)"><path fill="none" stroke="none" d="M 0 0 L 40 0 Q 40 0 40 0 L 40 10 Q 40 10 40 10 L 0 10 Q 0 10 0 10 L 0 0 Q 0 0 0 0 Z"/><path fill="none" stroke="#000000" d="M 0 0 M 0 0 L 40 0 Q 40 0 40 0 L 40 10 Q 40 10 40 10 L 0 10 Q 0 10 0 10 L 0 0 Q 0 0 0 0 Z" stroke-miterlimit="10" stroke-width="2"/></g></g></g></g></g><g transform="translate(0,0) matrix(1,0,0,1,200,210)"><g transform="translate(4,4) scale(1.01,1.0153846153846153)"><g><g transform="translate(0,0) scale(1,0.65)"><g><path fill="#000000" stroke="none" d="M 0 0 L 100 0 Q 100 0 100 0 L 100 100 Q 100 100 100 100 L 0 100 Q 0 100 0 100 L 0 0 Q 0 0 0 0 Z" opacity="0.294117647"/><g transform="scale(1,1.5384615384615383)"><path fill="none" stroke="none" d="M 0 0 L 100 0 Q 100 0 100 0 L 100 65 Q 100 65 100 65 L 0 65 Q 0 65 0 65 L 0 0 Q 0 0 0 0 Z"/><path fill="none" stroke="rgb(0,0,0)" d="M 0 0 M 0 0 L 100 0 Q 100 0 100 0 L 100 65 Q 100 65 100 65 L 0 65 Q 0 65 0 65 L 0 0 Q 0 0 0 0 Z" stroke-opacity="0" stroke-miterlimit="10" stroke-width="2" opacity="0.294117647"/></g></g></g></g></g><g><g transform="translate(0,0) scale(1,0.65)"><g><path fill="#FFFFFF" stroke="none" d="M 0 0 L 100 0 Q 100 0 100 0 L 100 100 Q 100 100 100 100 L 0 100 Q 0 100 0 100 L 0 0 Q 0 0 0 0 Z"/><g transform="scale(1,1.5384615384615383)"><path fill="none" stroke="none" d="M 0 0 L 100 0 Q 100 0 100 0 L 100 65 Q 100 65 100 65 L 0 65 Q 0 65 0 65 L 0 0 Q 0 0 0 0 Z"/><path fill="none" stroke="#000000" d="M 0 0 M 0 0 L 100 0 Q 100 0 100 0 L 100 65 Q 100 65 100 65 L 0 65 Q 0 65 0 65 L 0 0 Q 0 0 0 0 Z" stroke-miterlimit="10" stroke-width="2"/></g></g></g></g></g><g transform="matrix(1,0,0,1,202,236)"><g transform="translate(18,0) matrix(1,0,0,1,0,0) translate(-18,0)"><g><rect fill="rgb(0,0,0)" stroke="none" x="0" y="0" width="97" height="18" fill-opacity="0"/></g></g><g transform="translate(18,0) matrix(1,0,0,1,0,0) translate(-18,0)"><g><rect fill="rgb(0,0,0)" stroke="none" x="0" y="0" width="97" height="14" fill-opacity="0"/></g></g><g transform="translate(18,0) matrix(1,0,0,1,0,0) translate(-18,0)"><g><rect fill="rgb(0,0,0)" stroke="none" x="18" y="0" width="61" height="14" fill-opacity="0"/></g><text fill="rgb(0, 0, 0)" stroke="none" font-family="Arial" font-size="12px" font-style="normal" font-weight="bold" text-decoration="" line-height="14px" x="18" y="11">The</text><text fill="rgb(0, 0, 0)" stroke="none" font-family="Arial" font-size="12px" font-style="normal" font-weight="bold" text-decoration="" line-height="14px" x="43" y="11">Plugin</text></g></g><g transform="translate(0,0) matrix(1,0,0,1,308,350)"><g><g transform="translate(0,0) translate(0,0) scale(1.6666666666666667,1.6)"><g><path fill="#ffffff" stroke="none" d="M 20 5 A 5 5 0 1 0 19.99999750000021 5.004999999166668 Z"/><g transform="scale(0.6,0.625)"><path fill="none" stroke="#999999" d="M 25 0 C 29.6023725 0 33.333333333333336 3.5817224000000003 33.333333333333336 8 C 33.333333333333336 12.4182776 29.6023725 16 25 16 C 20.3976275 16 16.666666666666664 12.4182776 16.666666666666664 8 C 16.666666666666664 3.5817224000000003 20.3976275 0 25 0 Z" stroke-miterlimit="10" stroke-width="2"/></g></g><g><g transform="scale(0.6,0.625)"><path fill="none" stroke="#999999" d="M 25 16 L 25 48" stroke-miterlimit="10" stroke-width="2"/></g></g><g><g transform="scale(0.6,0.625)"><path fill="none" stroke="#999999" d="M 25 48 L 16.666666666666668 80" stroke-miterlimit="10" stroke-width="2"/></g></g><g><g transform="scale(0.6,0.625)"><path fill="none" stroke="#999999" d="M 25 48 L 33.333333333333336 80" stroke-miterlimit="10" stroke-width="2"/></g></g><g><g transform="scale(0.6,0.625)"><path fill="none" stroke="#999999" d="M 25 48 L 33.333333333333336 80" stroke-miterlimit="10" stroke-width="2"/></g></g><g><g transform="scale(0.6,0.625)"><path fill="none" stroke="#999999" d="M 0 24 L 50 24" stroke-miterlimit="10" stroke-width="2"/></g></g></g></g></g><g transform="matrix(1,0,0,1,271,434)"><g transform="translate(3,0) matrix(1,0,0,1,0,0) translate(-3,0)"><g><rect fill="rgb(0,0,0)" stroke="none" x="0" y="0" width="120" height="14" fill-opacity="0"/></g></g><g transform="translate(3,0) matrix(1,0,0,1,0,0) translate(-3,0)"><g><rect fill="rgb(0,0,0)" stroke="none" x="0" y="0" width="120" height="14" fill-opacity="0"/></g></g><g transform="translate(3,0) matrix(1,0,0,1,0,0) translate(-3,0)"><g><rect fill="rgb(0,0,0)" stroke="none" x="3" y="0" width="114" height="14" fill-opacity="0"/></g><text fill="rgb(0, 0, 0)" stroke="none" font-family="Arial" font-size="12px" font-style="normal" font-weight="normal" text-decoration="" line-height="14px" x="3" y="11">Requirement</text><text fill="rgb(0, 0, 0)" stroke="none" font-family="Arial" font-size="12px" font-style="normal" font-weight="normal" text-decoration="" line-height="14px" x="75" y="11">Change</text></g></g><g transform="translate(0,0) matrix(1,0,0,1,130,358)"><g><g transform="translate(0,0) translate(0,0) scale(1.6666666666666667,1.6)"><g><path fill="#ffffff" stroke="none" d="M 20 5 A 5 5 0 1 0 19.99999750000021 5.004999999166668 Z"/><g transform="scale(0.6,0.625)"><path fill="none" stroke="#999999" d="M 25 0 C 29.6023725 0 33.333333333333336 3.5817224000000003 33.333333333333336 8 C 33.333333333333336 12.4182776 29.6023725 16 25 16 C 20.3976275 16 16.666666666666664 12.4182776 16.666666666666664 8 C 16.666666666666664 3.5817224000000003 20.3976275 0 25 0 Z" stroke-miterlimit="10" stroke-width="2"/></g></g><g><g transform="scale(0.6,0.625)"><path fill="none" stroke="#999999" d="M 25 16 L 25 48" stroke-miterlimit="10" stroke-width="2"/></g></g><g><g transform="scale(0.6,0.625)"><path fill="none" stroke="#999999" d="M 25 48 L 16.666666666666668 80" stroke-miterlimit="10" stroke-width="2"/></g></g><g><g transform="scale(0.6,0.625)"><path fill="none" stroke="#999999" d="M 25 48 L 33.333333333333336 80" stroke-miterlimit="10" stroke-width="2"/></g></g><g><g transform="scale(0.6,0.625)"><path fill="none" stroke="#999999" d="M 25 48 L 33.333333333333336 80" stroke-miterlimit="10" stroke-width="2"/></g></g><g><g transform="scale(0.6,0.625)"><path fill="none" stroke="#999999" d="M 0 24 L 50 24" stroke-miterlimit="10" stroke-width="2"/></g></g></g></g></g><g transform="matrix(1,0,0,1,108,442)"><g transform="translate(3,0) matrix(1,0,0,1,0,0) translate(-3,0)"><g><rect fill="rgb(0,0,0)" stroke="none" x="0" y="0" width="89" height="14" fill-opacity="0"/></g></g><g transform="translate(3,0) matrix(1,0,0,1,0,0) translate(-3,0)"><g><rect fill="rgb(0,0,0)" stroke="none" x="0" y="0" width="89" height="14" fill-opacity="0"/></g></g><g transform="translate(3,0) matrix(1,0,0,1,0,0) translate(-3,0)"><g><rect fill="rgb(0,0,0)" stroke="none" x="3" y="0" width="83" height="14" fill-opacity="0"/></g><text fill="rgb(0, 0, 0)" stroke="none" font-family="Arial" font-size="12px" font-style="normal" font-weight="normal" text-decoration="" line-height="14px" x="3" y="11">Shopware</text><text fill="rgb(0, 0, 0)" stroke="none" font-family="Arial" font-size="12px" font-style="normal" font-weight="normal" text-decoration="" line-height="14px" x="60" y="11">Core</text></g></g><g transform="translate(0,0) matrix(1,0,0,1,390,39)"><g><g transform="translate(0,0) translate(0,0) scale(1.6666666666666667,1.6)"><g><path fill="#ffffff" stroke="none" d="M 20 5 A 5 5 0 1 0 19.99999750000021 5.004999999166668 Z"/><g transform="scale(0.6,0.625)"><path fill="none" stroke="#999999" d="M 25 0 C 29.6023725 0 33.333333333333336 3.5817224000000003 33.333333333333336 8 C 33.333333333333336 12.4182776 29.6023725 16 25 16 C 20.3976275 16 16.666666666666664 12.4182776 16.666666666666664 8 C 16.666666666666664 3.5817224000000003 20.3976275 0 25 0 Z" stroke-miterlimit="10" stroke-width="2"/></g></g><g><g transform="scale(0.6,0.625)"><path fill="none" stroke="#999999" d="M 25 16 L 25 48" stroke-miterlimit="10" stroke-width="2"/></g></g><g><g transform="scale(0.6,0.625)"><path fill="none" stroke="#999999" d="M 25 48 L 16.666666666666668 80" stroke-miterlimit="10" stroke-width="2"/></g></g><g><g transform="scale(0.6,0.625)"><path fill="none" stroke="#999999" d="M 25 48 L 33.333333333333336 80" stroke-miterlimit="10" stroke-width="2"/></g></g><g><g transform="scale(0.6,0.625)"><path fill="none" stroke="#999999" d="M 25 48 L 33.333333333333336 80" stroke-miterlimit="10" stroke-width="2"/></g></g><g><g transform="scale(0.6,0.625)"><path fill="none" stroke="#999999" d="M 0 24 L 50 24" stroke-miterlimit="10" stroke-width="2"/></g></g></g></g></g><g transform="matrix(1,0,0,1,362,123)"><g transform="translate(3,0) matrix(1,0,0,1,0,0) translate(-3,0)"><g><rect fill="rgb(0,0,0)" stroke="none" x="0" y="0" width="101" height="14" fill-opacity="0"/></g></g><g transform="translate(3,0) matrix(1,0,0,1,0,0) translate(-3,0)"><g><rect fill="rgb(0,0,0)" stroke="none" x="0" y="0" width="101" height="14" fill-opacity="0"/></g></g><g transform="translate(3,0) matrix(1,0,0,1,0,0) translate(-3,0)"><g><rect fill="rgb(0,0,0)" stroke="none" x="3" y="0" width="95" height="14" fill-opacity="0"/></g><text fill="rgb(0, 0, 0)" stroke="none" font-family="Arial" font-size="12px" font-style="normal" font-weight="normal" text-decoration="" line-height="14px" x="3" y="11">System</text><text fill="rgb(0, 0, 0)" stroke="none" font-family="Arial" font-size="12px" font-style="normal" font-weight="normal" text-decoration="" line-height="14px" x="46" y="11">Integrator</text></g></g><g transform="translate(0,0) matrix(1,0,0,1,230,40)"><g><g transform="translate(0,0) translate(0,0) scale(1.6666666666666667,1.6)"><g><path fill="#ffffff" stroke="none" d="M 20 5 A 5 5 0 1 0 19.99999750000021 5.004999999166668 Z"/><g transform="scale(0.6,0.625)"><path fill="none" stroke="#999999" d="M 25 0 C 29.6023725 0 33.333333333333336 3.5817224000000003 33.333333333333336 8 C 33.333333333333336 12.4182776 29.6023725 16 25 16 C 20.3976275 16 16.666666666666664 12.4182776 16.666666666666664 8 C 16.666666666666664 3.5817224000000003 20.3976275 0 25 0 Z" stroke-miterlimit="10" stroke-width="2"/></g></g><g><g transform="scale(0.6,0.625)"><path fill="none" stroke="#999999" d="M 25 16 L 25 48" stroke-miterlimit="10" stroke-width="2"/></g></g><g><g transform="scale(0.6,0.625)"><path fill="none" stroke="#999999" d="M 25 48 L 16.666666666666668 80" stroke-miterlimit="10" stroke-width="2"/></g></g><g><g transform="scale(0.6,0.625)"><path fill="none" stroke="#999999" d="M 25 48 L 33.333333333333336 80" stroke-miterlimit="10" stroke-width="2"/></g></g><g><g transform="scale(0.6,0.625)"><path fill="none" stroke="#999999" d="M 25 48 L 33.333333333333336 80" stroke-miterlimit="10" stroke-width="2"/></g></g><g><g transform="scale(0.6,0.625)"><path fill="none" stroke="#999999" d="M 0 24 L 50 24" stroke-miterlimit="10" stroke-width="2"/></g></g></g></g></g><g transform="matrix(1,0,0,1,200,124)"><g transform="translate(3,0) matrix(1,0,0,1,0,0) translate(-3,0)"><g><rect fill="rgb(0,0,0)" stroke="none" x="0" y="0" width="105" height="14" fill-opacity="0"/></g></g><g transform="translate(3,0) matrix(1,0,0,1,0,0) translate(-3,0)"><g><rect fill="rgb(0,0,0)" stroke="none" x="0" y="0" width="105" height="14" fill-opacity="0"/></g></g><g transform="translate(3,0) matrix(1,0,0,1,0,0) translate(-3,0)"><g><rect fill="rgb(0,0,0)" stroke="none" x="3" y="0" width="99" height="14" fill-opacity="0"/></g><text fill="rgb(0, 0, 0)" stroke="none" font-family="Arial" font-size="12px" font-style="normal" font-weight="normal" text-decoration="" line-height="14px" x="3" y="11">Foreign</text><text fill="rgb(0, 0, 0)" stroke="none" font-family="Arial" font-size="12px" font-style="normal" font-weight="normal" text-decoration="" line-height="14px" x="47" y="11">Developer</text></g></g><g transform="matrix(1,0,0,1,296,115)"><g transform="translate(0,0)"><g transform="translate(-555,-308) translate(259,193) matrix(1,0,0,1,0,0)"><g><path fill="none" stroke="#000000" d="M 300 221 L 415 221 L 415 119" stroke-miterlimit="10"/></g></g></g></g><g transform="matrix(1,0,0,1,296,262)"><g transform="translate(0,0)"><g transform="translate(-523,-430) translate(227,168) matrix(1,0,0,1,0,0)"><g><path fill="none" stroke="#000000" d="M 300 266 L 333 266 L 333 350" stroke-miterlimit="10"/></g></g></g></g><g transform="matrix(1,0,0,1,151,257)"><g transform="translate(0,0)"><g transform="translate(-145,-583) translate(-6,326) matrix(1,0,0,1,0,0)"><g><path fill="none" stroke="#000000" d="M 155 358 L 155 261 L 200 261" stroke-miterlimit="10"/></g></g></g></g><g transform="matrix(1,0,0,1,112,125)"><g transform="translate(0,0)"><g transform="translate(-85,-199) translate(-27,74) matrix(1,0,0,1,0,0)"><g><path fill="none" stroke="#000000" d="M 116 129 L 116 218 L 200 218" stroke-miterlimit="10"/></g></g></g></g><g transform="translate(0,0) matrix(1,0,0,1,90,40)"><g><g transform="translate(0,0) translate(0,0) scale(1.6666666666666667,1.6)"><g><path fill="#ffffff" stroke="none" d="M 20 5 A 5 5 0 1 0 19.99999750000021 5.004999999166668 Z"/><g transform="scale(0.6,0.625)"><path fill="none" stroke="#999999" d="M 25 0 C 29.6023725 0 33.333333333333336 3.5817224000000003 33.333333333333336 8 C 33.333333333333336 12.4182776 29.6023725 16 25 16 C 20.3976275 16 16.666666666666664 12.4182776 16.666666666666664 8 C 16.666666666666664 3.5817224000000003 20.3976275 0 25 0 Z" stroke-miterlimit="10" stroke-width="2"/></g></g><g><g transform="scale(0.6,0.625)"><path fill="none" stroke="#999999" d="M 25 16 L 25 48" stroke-miterlimit="10" stroke-width="2"/></g></g><g><g transform="scale(0.6,0.625)"><path fill="none" stroke="#999999" d="M 25 48 L 16.666666666666668 80" stroke-miterlimit="10" stroke-width="2"/></g></g><g><g transform="scale(0.6,0.625)"><path fill="none" stroke="#999999" d="M 25 48 L 33.333333333333336 80" stroke-miterlimit="10" stroke-width="2"/></g></g><g><g transform="scale(0.6,0.625)"><path fill="none" stroke="#999999" d="M 25 48 L 33.333333333333336 80" stroke-miterlimit="10" stroke-width="2"/></g></g><g><g transform="scale(0.6,0.625)"><path fill="none" stroke="#999999" d="M 0 24 L 50 24" stroke-miterlimit="10" stroke-width="2"/></g></g></g></g></g><g transform="matrix(1,0,0,1,85,124)"><g transform="translate(3,0) matrix(1,0,0,1,0,0) translate(-3,0)"><g><rect fill="rgb(0,0,0)" stroke="none" x="0" y="0" width="56" height="14" fill-opacity="0"/></g></g><g transform="translate(3,0) matrix(1,0,0,1,0,0) translate(-3,0)"><g><rect fill="rgb(0,0,0)" stroke="none" x="0" y="0" width="56" height="14" fill-opacity="0"/></g></g><g transform="translate(3,0) matrix(1,0,0,1,0,0) translate(-3,0)"><g><rect fill="rgb(0,0,0)" stroke="none" x="3" y="0" width="50" height="14" fill-opacity="0"/></g><text fill="rgb(0, 0, 0)" stroke="none" font-family="Arial" font-size="12px" font-style="normal" font-weight="normal" text-decoration="" line-height="14px" x="3" y="11">End</text><text fill="rgb(0, 0, 0)" stroke="none" font-family="Arial" font-size="12px" font-style="normal" font-weight="normal" text-decoration="" line-height="14px" x="28" y="11">User</text></g></g><g transform="matrix(1,0,0,1,251,116)"><g transform="translate(0,0)"><g transform="translate(-272,-567) translate(21,451) matrix(1,0,0,1,0,0)"><g><path fill="none" stroke="#000000" d="M 255 120 L 255 146.71869923646898 L 255.00000000000003 173.43739847293796 L 255.00000000000003 200.156097709407" stroke-miterlimit="10"/></g></g></g></g></g></svg>