<?xml version="1.0" encoding="UTF-8"?>
<svg width="81px" height="34px" viewBox="0 0 81 34" version="1.1" xmlns="http://www.w3.org/2000/svg" xmlns:xlink="http://www.w3.org/1999/xlink">
    <!-- Generator: Sketch 47.1 (45422) - http://www.bohemiancoding.com/sketch -->
    <title>Styleguide</title>
    <desc>Created with Sketch.</desc>
    <defs>
        <path d="M43.389287,0.985974822 L74.8263443,12.6296114 L74.8263443,12.6296114 C77.2970189,13.5446983 79.0446039,15.769566 79.3484017,18.3866872 L80,24 L38,24 L38,4.7369589 L38,4.7369589 C38,2.5278199 39.790861,0.736958903 42,0.736958903 C42.474195,0.736958903 42.9446125,0.821276568 43.389287,0.985974822 Z" id="path-1"></path>
        <path d="M72,30 L0.99344708,30" id="path-2"></path>
        <filter x="-2.8%" y="-100.0%" width="108.3%" height="400.0%" filterUnits="objectBoundingBox" id="filter-3">
            <feMorphology radius="1" operator="dilate" in="SourceAlpha" result="shadowSpreadOuter1"></feMorphology>
            <feOffset dx="2" dy="2" in="shadowSpreadOuter1" result="shadowOffsetOuter1"></feOffset>
            <feMorphology radius="1" operator="erode" in="SourceAlpha" result="shadowInner"></feMorphology>
            <feOffset dx="2" dy="2" in="shadowInner" result="shadowInner"></feOffset>
            <feComposite in="shadowOffsetOuter1" in2="shadowInner" operator="out" result="shadowOffsetOuter1"></feComposite>
            <feColorMatrix values="0 0 0 0 1   0 0 0 0 1   0 0 0 0 1  0 0 0 1 0" type="matrix" in="shadowOffsetOuter1"></feColorMatrix>
        </filter>
        <rect id="path-4" x="14" y="22" width="67" height="9" rx="4.5"></rect>
        <path d="M49.6845462,1.11179444 L53.5831837,2.5157342 C54.6597627,2.90342145 55.248932,4.18496651 54.8991303,5.3781452 L52.9990142,11.8594686 C52.2994108,14.245826 49.9867907,15.5517856 47.8336327,14.7764111 C45.6804747,14.0010366 44.5021359,11.4379465 45.2017394,9.0515891 L47.1018555,2.5702657 C47.4516572,1.37708701 48.6079672,0.724107185 49.6845462,1.11179444 Z" id="path-5"></path>
    </defs>
    <g id="LESS-Dokumentation" stroke="none" stroke-width="1" fill="none" fill-rule="evenodd">
        <g id="Homepage-two" transform="translate(-1429.000000, -1406.000000)">
            <g id="Link-Liste" transform="translate(639.000000, 1254.000000)">
                <g id="Styleguide" transform="translate(790.000000, 153.000000)">
                    <g id="Rectangle-19">
                        <use fill-opacity="0.44" fill="#189EFF" fill-rule="evenodd" xlink:href="#path-1"></use>
                        <path stroke="#0049FF" stroke-width="2" d="M39,23 L78.8772043,23 L78.3550717,18.5019939 C78.0946737,16.2587471 76.5967436,14.3517176 74.4790226,13.5673575 L43.0419653,1.92372084 C42.7084594,1.80019715 42.3556463,1.7369589 42,1.7369589 C40.3431458,1.7369589 39,3.08010465 39,4.7369589 L39,23 Z"></path>
                    </g>
                    <g id="Path-24" stroke-linecap="round">
                        <use fill="black" fill-opacity="1" filter="url(#filter-3)" xlink:href="#path-2"></use>
                        <use stroke-opacity="0.3" stroke="#189EFF" stroke-width="2" xlink:href="#path-2"></use>
                    </g>
                    <g id="Rectangle-3">
                        <use fill="#92B1FF" fill-rule="evenodd" xlink:href="#path-4"></use>
                        <rect stroke="#0049FF" stroke-width="2" x="15" y="23" width="65" height="7" rx="3.5"></rect>
                    </g>
                    <g id="karomuster" opacity="0.953464674" transform="translate(42.000000, 6.000000)" stroke="#0049FF" stroke-width="2" stroke-linecap="round">
                        <path d="M2.4137931,13.2750674 L11.9480953,3.5" id="Path-27"></path>
                        <path d="M0.137931034,6.27506743 L5.6497064,0.624105815" id="Path-27"></path>
                        <path d="M10.3793103,13.2750674 L17.5003636,5.9741896" id="Path-27"></path>
                        <path d="M18.3448276,13.2750674 L23.0519642,8.44906373" id="Path-27"></path>
                        <path d="M26.3103448,13.2750674 L29.4082039,10.0989795" id="Path-27"></path>
                        <path d="M0.105148842,6.65421549 L7.25034104,13.9798418" id="Path-28"></path>
                        <path d="M4.65687298,3.15421549 L15.0223291,13.7814256" id="Path-28"></path>
                        <path d="M12.6223902,3.15421549 L22.9878464,13.7814256" id="Path-28"></path>
                        <path d="M26.2775626,8.98754883 L31.0088386,13.8383014" id="Path-28"></path>
                    </g>
                    <g id="Rectangle-17" transform="translate(50.000000, 8.000000) rotate(2.000000) translate(-50.000000, -8.000000) ">
                        <use fill="#FFDB47" fill-rule="evenodd" xlink:href="#path-5"></use>
                        <path stroke="#0049FF" stroke-width="2" d="M50.0233576,0.170940128 L53.921995,1.57487988 C55.5129225,2.14778935 56.3527224,3.97449899 55.8587422,5.65947262 L53.958626,12.140796 C53.1023675,15.061506 50.2098112,16.6949615 47.4948213,15.7172654 C44.8273149,14.7566687 43.3983456,11.648414 44.2421275,8.77026168 L46.1422436,2.28893829 C46.6487004,0.561406953 48.3849467,-0.419068643 50.0233576,0.170940128 Z"></path>
                    </g>
                </g>
            </g>
        </g>
    </g>
</svg>