<?xml version="1.0" encoding="utf-8"?>
<!-- Generator: Adobe Illustrator 22.0.1, SVG Export Plug-In . SVG Version: 6.00 Build 0)  -->
<svg version="1.1" id="Ebene_1" xmlns="http://www.w3.org/2000/svg" xmlns:xlink="http://www.w3.org/1999/xlink" x="0px" y="0px"
	 viewBox="0 0 619.6 197.8" style="enable-background:new 0 0 619.6 197.8;" xml:space="preserve">
<style type="text/css">
	.st0{fill:#FFFFFF;}
	.st1{enable-background:new    ;}
	.st2{fill:#FFB71C;}
</style>
<g>
	<g id="XMLID_152_">
		<g id="XMLID_151_">
			<g id="XMLID_235_">
				<path id="XMLID_237_" class="st0" d="M111.3,125.6c-4.8-3.6-11.9-6.4-19.4-9.3c-8.9-3.5-19-7.4-26.6-13.4
					C56.7,96,52.5,87.4,52.5,76.5c0-9.8,4.1-18.2,11.8-24.2c8.6-6.8,21.7-10.4,37.8-10.4c4.4,0,8.7,0.3,12.6,0.8
					c0.3,0,0.7-0.1,0.8-0.5c0.1-0.3,0.1-0.7-0.2-0.9c-10.1-9.1-23.2-14.1-36.9-14.1c-14.8,0-28.6,5.7-39.1,16.2
					c-10.4,10.4-16.1,24.3-16.1,39c0,14.8,5.7,28.6,16.2,39.1c10.4,10.4,24.3,16.2,39.1,16.2c11.9,0,23.3-3.7,32.8-10.8
					c0.2-0.1,0.3-0.4,0.3-0.6C111.6,125.9,111.5,125.7,111.3,125.6z"/>
				<path id="XMLID_236_" class="st0" d="M133.4,77.3c0-0.2-0.1-0.4-0.3-0.5c-11.5-9.6-20.8-13.5-32.2-13.5c-6,0-10.7,1.2-13.8,3.6
					c-2.7,2.1-4.1,5-4.1,8.3C83,84.7,94.6,89,108,94c6.9,2.6,14.1,5.2,20.6,8.9c0.1,0.1,0.3,0.1,0.4,0.1c0.1,0,0.2,0,0.3,0
					c0.2-0.1,0.4-0.2,0.5-0.5c2.5-6.4,3.8-13.2,3.8-20.1C133.6,80.8,133.6,79.1,133.4,77.3z"/>
			</g>
			<g id="XMLID_150_">
				<path id="XMLID_233_" class="st0" d="M260.3,66.7c-0.8-1.4,0-2.7,1.7-2.7h6.2c1.1,0,1.6,0.5,2,1.3l12.6,28.9h0.2l13.2-28.9
					c0.6-1.3,1.8-1.3,3.2-1.3h4.6c1.7,0,2.6,1.2,1.7,2.7l-20.4,44.4c-0.3,0.6-0.9,1.2-1.9,1.2h-0.6c-1,0-1.7-0.6-2-1.2L260.3,66.7z"
					/>
				<path id="XMLID_231_" class="st0" d="M359,47c0-1.1,1-2.2,2.2-2.2h5.7c1.1,0,2.2,1.1,2.2,2.2v63c0,1.2-1.1,2.2-2.2,2.2h-5.7
					c-1.2,0-2.2-1-2.2-2.2V47z"/>
				<path id="XMLID_201_" class="st0" d="M236.7,63c-14.2,0-23.5,11.3-23.5,24.6c0,13.5,9.3,24.7,23.6,24.7c7.9,0,14.1-2.9,17.5-5.8
					c1.4-1.2,1-2.1,0.2-3.2l-2.8-4.3c-0.8-1.2-1.7-0.9-2.8-0.2c-2.9,2-6.1,4-11.5,4c-8.3,0-14-6.5-14.1-12.9h32.6c1,0,2-0.8,2.1-2
					c0.1-0.8,0.2-2.4,0.2-3.3C258.3,72.1,249,63,236.7,63z M223.8,82.4c0.7-5.9,5.2-10.7,12.7-10.7c6.9,0,11.4,5,11.6,10.7H223.8z"
					/>
				<path id="XMLID_198_" class="st0" d="M330.7,63c-14.2,0-23.5,11.3-23.5,24.6c0,13.5,9.3,24.7,23.6,24.7c7.9,0,14.1-2.9,17.5-5.8
					c1.4-1.2,1-2.1,0.2-3.2l-2.8-4.3c-0.8-1.2-1.7-0.9-2.8-0.2c-2.9,2-6.1,4-11.5,4c-8.3,0-14-6.5-14.1-12.9h32.6c1,0,2-0.8,2.1-2
					c0.1-0.8,0.2-2.4,0.2-3.3C352.3,72.1,343,63,330.7,63z M317.8,82.4c0.7-5.9,5.2-10.7,12.7-10.7c6.9,0,11.4,5,11.6,10.7H317.8z"
					/>
				<path id="XMLID_193_" class="st0" d="M499.7,63c-14.2,0-23.5,11.3-23.5,24.6c0,13.5,9.3,24.7,23.6,24.7c7.9,0,14.1-2.9,17.5-5.8
					c1.4-1.2,1-2.1,0.2-3.2l-2.8-4.3c-0.8-1.2-1.7-0.9-2.8-0.2c-2.9,2-6.1,4-11.5,4c-8.3,0-14-6.5-14.1-12.9h32.6c1,0,2-0.8,2.1-2
					c0.1-0.8,0.2-2.4,0.2-3.3C521.2,72.1,511.9,63,499.7,63z M486.8,82.4c0.7-5.9,5.2-10.7,12.7-10.7c6.9,0,11.4,5,11.6,10.7H486.8z
					"/>
				<path id="XMLID_190_" class="st0" d="M551.1,63.6c-0.2,0-0.5,0-0.7,0c-0.4,0-0.8,0-1.2,0c-2.4,0-4.8,0.1-7,0.2l0,0
					c-4.2,0.2-6.7,0.5-8.5,0.7c0,0-1.1,0.1-2.5,0.3c-0.9,0.1-1.5,0.5-1.9,1c-0.3,0.3-0.4,0.7-0.4,1.1V67v0.9v3.4v9.5V110
					c0,1.2,1,2.2,2.2,2.2h4.7c1.9,0,3.3-0.2,3.3-2.2V80.8l0,0v-6.7c0-0.3,0.4-0.6,0.7-0.8c1.2-0.7,3.9-1.2,9.5-1.2
					c0.5,0,0.9,0,1.3,0c1.3,0.1,3.3,0.5,3.9,0.9c1,0.5,2.2,0.2,2.9-1.1l2.5-4C561.2,64.8,555.6,63.6,551.1,63.6z"/>
				<path id="XMLID_187_" class="st0" d="M470.6,85.8c-0.6-16-7.3-22.8-22.7-22.8c-7.4,0-16.3,2.2-17.6,2.8
					c-1.6,0.7-2.8,1.5-2.8,2.6v0.9v3.4v11.1v1.5v43.1c0,1.2,1,2.2,2.2,2.2h4.7c1.5,0,2.5-0.9,2.5-2.2v-17c1.4,0.4,8.8,1,14.9,0.8
					c10.9-0.3,18.3-8.3,18.9-21.7c0.1-1.8,0.1-4.4,0-6L470.6,85.8z M460.7,90.6c-0.2,9.1-2.9,13.1-10.5,13.5
					c-3.8,0.2-12.7-0.8-12.7-0.8c-0.4-0.1-0.6-0.3-0.6-0.6V84.3V73.8c0-0.3,0.2-0.5,0.5-0.5c1.1-0.1,4.9-1.4,10.5-1.4
					c9.3,0,12.6,1.4,12.9,13.2C460.8,86.7,460.8,88.8,460.7,90.6z"/>
				<path id="XMLID_184_" class="st0" d="M163.5,89.5c0.6,16,7.3,22.8,22.7,22.8c7.4,0,16.7-2.2,18-2.8c1.6-0.7,2.8-1.5,2.8-2.6
					V46.8c0-1.2-1-2.2-2.2-2.2h-5.1c-1.5,0-2.5,0.9-2.5,2.2v17.9c-1.4-0.4-8.8-1-14.9-0.8c-10.9,0.3-18.3,7.3-18.9,20.7
					c-0.1,1.8-0.1,4.4,0,6L163.5,89.5z M173.4,84.6c0.2-9.1,2.9-12.2,10.5-12.6c3.8-0.2,12.7,0.8,12.7,0.8c0.4,0.1,0.6,0.3,0.6,0.6
					v17.5v10.4c0,0.3-0.2,0.5-0.5,0.5c-1.5,0.5-4.9,1.4-10.5,1.4c-9.3,0-12.6-1.4-12.9-13.2C173.3,88.6,173.3,86.4,173.4,84.6z"/>
				<g id="XMLID_182_">
					<path id="XMLID_183_" class="st0" d="M580.8,82.9c-4.7-2-8.6-3.9-8.6-6.9c0-2.1,2.4-4.2,6.5-4.2c3.7,0,6.8,0.9,10.1,2.3
						c0.9,0.4,2.3,0.5,3.1-0.9l1.6-3.3c0.6-1.2,0.1-2.7-1-3.5c-2.3-1.5-7.2-3.5-13.8-3.5c-11.4,0-16.1,6.9-16.1,12.9
						c0,7.8,6,11.6,13.3,14.9c6.5,3,10.1,5,10.1,8.2c0,2.7-2.2,4.6-6.2,4.6c-5.6,0-9-1.9-11.7-3.5c-1.2-0.7-2.6-0.4-3.1,0.6
						l-2.1,4.4c-0.5,1,0.1,1.9,0.8,2.4c2.7,1.8,8.1,4.8,15.5,4.8c10.5,0,16.8-6.4,16.8-13.8C596,89.8,589.5,86.6,580.8,82.9z"/>
				</g>
				<path id="XMLID_179_" class="st0" d="M419.4,77.6c-1.1-3-2.6-5.6-4.5-7.8c-1.9-2.2-4.2-3.8-6.9-5c-2.7-1.2-6.4-1.8-9.6-1.8
					c-3.1,0-6.9,0.6-9.6,1.8c-2.7,1.2-5,2.8-6.9,5s-3.4,4.8-4.5,7.8s-1.6,6.4-1.6,10.1s0.5,7.1,1.6,10.1s2.6,5.6,4.5,7.8
					c1.9,2.2,4.2,3.8,6.9,5c2.7,1.2,6.4,1.8,9.6,1.8c3.1,0,6.9-0.6,9.6-1.8c2.7-1.2,4.9-2.8,6.9-5c1.9-2.2,3.4-4.8,4.5-7.8
					s1.6-6.4,1.6-10.1S420.4,80.6,419.4,77.6z M398.2,104.2c-8.5,0-12.8-7.2-12.8-16.1S389.7,72,398.2,72S411,79.2,411,88.1
					S406.7,104.2,398.2,104.2z"/>
			</g>
		</g>
	</g>
	<g class="st1">
		<path class="st2" d="M164,168c-0.4-0.3-0.7-0.8-0.5-1.4l1.2-2.4c0.3-0.6,1-0.7,1.7-0.3c1.5,0.8,3.4,1.9,6.6,1.9
			c2.2,0,3.4-1.1,3.4-2.5c0-1.7-2-2.9-5.7-4.6c-4.1-1.8-7.2-4.1-7.2-8.3c0-3.3,2.3-7.2,8.7-7.2c3.6,0,6.4,1.1,7.7,1.9
			c0.6,0.5,0.9,1.2,0.6,1.9l-0.9,1.8c-0.4,0.8-1.2,0.7-1.7,0.5c-1.8-0.8-3.6-1.3-5.7-1.3c-2.3,0-3.3,1.1-3.3,2.3
			c0,1.7,1.9,2.7,4.6,3.9c4.9,2,8.5,3.9,8.5,8.7c0,4.2-3.5,7.7-9.4,7.7C168.5,170.7,165.4,169,164,168z"/>
		<path class="st2" d="M189.9,148.5h-3c-0.7,0-1.2-0.6-1.2-1.2V145c0-0.7,0.5-1.2,1.2-1.2h3v-7.4c0-0.7,0.6-1.2,1.2-1.2h3.2
			c0.7,0,1.2,0.6,1.2,1.2v7.4h7c0.7,0,1.2,0.5,1.2,1.2v2.3c0,0.6-0.6,1.2-1.2,1.2h-7v14.1c0,2.2,0.8,2.7,2.1,2.7
			c1.6,0,3.2-0.7,4.3-1.2c0.8-0.5,1.3,0,1.5,0.6l1,2.7c0.3,0.7,0,1.1-0.6,1.5c-1.1,0.7-4.2,1.9-7.3,1.9c-5.3,0-6.7-3.2-6.7-7.9
			L189.9,148.5L189.9,148.5z"/>
		<path class="st2" d="M207.3,145.4c-0.3-0.9,0.1-1.7,1.1-1.7h3.7c0.4,0,1,0.3,1.1,0.7l6.1,18.1h0.1l7.4-18.1
			c0.2-0.6,0.7-0.7,1.4-0.7h3.5c1.1,0,1.5,0.8,1.1,1.7l-16.1,37.5c-0.2,0.4-0.6,0.8-1.1,0.8H212c-1,0-1.6-0.8-1.1-1.7l5.3-12.8
			L207.3,145.4z"/>
		<path class="st2" d="M238.5,131.3c0-0.6,0.6-1.2,1.2-1.2h3.2c0.6,0,1.2,0.6,1.2,1.2v37.5c0,0.7-0.6,1.2-1.2,1.2h-3.2
			c-0.7,0-1.2-0.6-1.2-1.2V131.3z"/>
		<path class="st2" d="M263.9,143.1c6.9,0,12.1,5.1,12.1,12.2c0,0.5-0.1,1.4-0.1,1.8c-0.1,0.7-0.6,1.1-1.2,1.1h-18.2
			c0.1,3.5,3.2,7.2,7.9,7.2c3,0,4.9-1.1,6.5-2.2c0.6-0.4,1.1-0.6,1.5,0.1l1.5,2.4c0.5,0.6,0.7,1.1-0.1,1.8c-1.9,1.6-5.4,3.2-9.8,3.2
			c-8,0-13.2-6.3-13.2-13.9C250.9,149.4,256,143.1,263.9,143.1z M270.4,154c-0.1-3.2-2.6-6-6.5-6c-4.2,0-6.7,2.7-7.1,6H270.4z"/>
		<path class="st2" d="M295.2,148.5h-3c-0.7,0-1.2-0.6-1.2-1.2V145c0-0.7,0.5-1.2,1.2-1.2h3v-7.4c0-0.7,0.6-1.2,1.2-1.2h3.2
			c0.7,0,1.2,0.6,1.2,1.2v7.4h7c0.7,0,1.2,0.5,1.2,1.2v2.3c0,0.6-0.6,1.2-1.2,1.2h-7v14.1c0,2.2,0.8,2.7,2.1,2.7
			c1.6,0,3.2-0.7,4.3-1.2c0.8-0.5,1.3,0,1.5,0.6l1,2.7c0.3,0.7,0,1.1-0.6,1.5c-1.1,0.7-4.2,1.9-7.3,1.9c-5.3,0-6.7-3.2-6.7-7.9
			L295.2,148.5L295.2,148.5z"/>
		<path class="st2" d="M314.3,134.1c0-2.1,1.6-3.9,3.7-3.9s3.9,1.7,3.9,3.9s-1.7,3.9-3.9,3.9C316,138,314.3,136.3,314.3,134.1z
			 M315.2,144.9c0-0.6,0.6-1.2,1.2-1.2h3.2c0.6,0,1.2,0.6,1.2,1.2v23.9c0,0.7-0.6,1.2-1.2,1.2h-3.2c-0.7,0-1.2-0.6-1.2-1.2V144.9z"
			/>
		<path class="st2" d="M329.1,131.3c0-0.6,0.6-1.2,1.2-1.2h3.2c0.6,0,1.2,0.6,1.2,1.2v37.5c0,0.7-0.6,1.2-1.2,1.2h-3.2
			c-0.7,0-1.2-0.6-1.2-1.2V131.3z"/>
		<path class="st2" d="M354.6,143.1c6.9,0,12.1,5.1,12.1,12.2c0,0.5-0.1,1.4-0.1,1.8c-0.1,0.7-0.6,1.1-1.2,1.1h-18.2
			c0.1,3.5,3.2,7.2,7.9,7.2c3,0,4.9-1.1,6.5-2.2c0.6-0.4,1.1-0.6,1.5,0.1l1.5,2.4c0.5,0.6,0.7,1.1-0.1,1.8c-1.9,1.6-5.4,3.2-9.8,3.2
			c-8,0-13.2-6.3-13.2-13.9C341.4,149.4,346.6,143.1,354.6,143.1z M361,154c-0.1-3.2-2.6-6-6.5-6c-4.2,0-6.7,2.7-7.1,6H361z"/>
	</g>
</g>
</svg>
