<?xml version="1.0" encoding="UTF-8"?>
<svg width="58px" height="53px" viewBox="0 0 58 53" version="1.1" xmlns="http://www.w3.org/2000/svg" xmlns:xlink="http://www.w3.org/1999/xlink">
    <!-- Generator: Sketch 47.1 (45422) - http://www.bohemiancoding.com/sketch -->
    <title>github</title>
    <desc>Created with Sketch.</desc>
    <defs></defs>
    <g id="LESS-Dokumentation" stroke="none" stroke-width="1" fill="none" fill-rule="evenodd">
        <g id="Homepage-two" transform="translate(-777.000000, -1559.000000)">
            <g id="Link-Liste" transform="translate(639.000000, 1254.000000)">
                <g id="github" transform="translate(138.000000, 305.000000)">
                    <g id="Page-1" fill-opacity="0.44" fill="#189EFF">
                        <path d="M56.3340928,26.1039405 C55.4687344,25.8963177 54.61179,25.6624902 53.7645542,25.3977545 C53.6147183,25.147129 53.4088964,24.9274118 53.1493535,24.7523771 C54.1305678,24.6680514 55.1124293,24.5833897 56.0939672,24.498728 C58.0690169,24.3283968 58.7774199,21.4502355 56.9175788,20.6513248 C56.8858641,20.1517537 56.6725988,19.6730121 56.2790775,19.3115201 C56.6745405,18.885188 56.8502659,18.2626559 56.5803673,17.5057401 C56.1625745,16.333243 55.5075687,15.4355604 54.7218206,14.6631905 C55.7444581,13.731576 55.3114553,11.4877054 53.8800863,11.2350642 C52.7448292,11.0348326 51.616368,10.9602497 50.4840235,10.9192627 C50.49891,9.97017834 49.9157477,9.05435393 49.0060533,8.8642011 C49.3607403,8.34178475 49.3452065,7.69943102 49.0908416,7.1276287 C49.305725,6.97812691 49.518343,6.81485081 49.732579,6.63376887 C51.0946934,5.4821012 49.9183366,3.2096741 48.3594616,3.19287614 C47.6585018,3.18481313 47.0093211,3.08704904 46.38603,2.89891196 C46.4847339,1.80099774 45.7151668,0.688637283 44.4873545,0.660080762 C42.1793004,0.605991353 39.8660683,0.712490376 37.5696645,0.976218241 C37.5528363,0.97319461 37.536008,0.970506937 37.5191798,0.967819265 C37.2551063,0.397360775 36.701717,-0.017884628 35.8366821,0.00059312047 C31.2085999,0.0990291261 26.5805177,0.197129173 21.9524355,0.295229219 C21.0382105,0.314378886 20.4592553,0.855944897 20.2136281,1.53525412 C16.7926465,1.72238332 13.3693997,1.86113442 9.94388746,1.94546014 C7.47564168,2.00593277 7.46399137,5.66654273 9.80634918,5.96117883 C9.24389852,6.62469798 9.16461175,7.68632862 9.58466983,8.44391631 C8.95878976,8.58938658 8.3316152,8.72880959 7.70120445,8.85714596 C6.42711456,9.11684231 6.08763772,10.4707573 6.48471882,11.5344037 C6.45203326,11.6862572 6.43261609,11.8428142 6.42970351,12.0030666 C5.71223912,12.5372415 5.00674865,13.0895582 4.31193763,13.6606886 C3.58929533,14.2546643 3.60062201,15.3972611 4.06469234,16.1783659 C3.44204846,16.3853167 2.81001962,16.5687503 2.16731133,16.7303466 C0.84306041,17.0622742 0.431740049,18.8405055 1.08739312,19.8843303 C0.279315274,20.592532 0.0984119837,22.1073714 0.960857901,22.8565601 C1.36926569,23.2116689 1.78446948,23.5439324 2.20517481,23.8630935 C1.9491918,24.1728478 1.83333602,24.540051 1.83107069,24.9166611 C-0.127150795,25.1551921 -0.870504743,28.5376279 1.40130401,28.865188 C1.79191273,28.9216291 2.18025611,28.9874771 2.56730501,29.0573566 C2.11585583,30.3313133 3.44496104,32.0420169 4.98344805,31.7816486 C5.01969343,31.7756014 5.05496796,31.7658586 5.09088972,31.7584675 C4.942672,32.2553509 4.83264137,32.7508905 4.75141288,33.2521414 C4.00967703,33.4718587 3.26146879,33.6667149 2.5058173,33.8373821 C0.220740148,34.3537512 0.980922309,37.588701 3.02199038,37.7969957 C3.77667101,37.8735943 4.52811544,37.9945396 5.27341111,38.1497527 C5.12745872,38.171926 4.98247719,38.196115 4.83328861,38.2105613 C2.32264868,38.4534597 2.35339253,41.9571767 4.83328861,42.24207 C5.23101695,42.2877605 5.6287453,42.3334509 6.02679726,42.3791413 C5.93747828,43.2324774 6.32582166,44.0753986 7.39376595,44.318297 C8.1588024,44.4919879 8.92772229,44.6330907 9.69890751,44.7590753 C9.39179262,45.4340171 9.45198585,46.2809699 9.97333683,46.9132449 C9.67657777,47.1353138 9.3798187,47.3573827 9.08305964,47.5794517 C7.53712938,48.7354868 8.0490954,51.2303188 10.063303,51.33581 L14.5629083,51.5709813 C14.8052993,51.5834118 15.2861979,51.5551912 15.8140212,51.549144 C16.4683798,51.6445563 17.123062,51.7403047 17.7777442,51.8353811 C17.8547657,51.8844311 17.9201368,51.9398644 17.9612365,52.0067202 C18.431132,52.7696833 19.2968141,53.1674588 20.1540821,52.9329594 C20.8715465,52.7367593 21.5890109,52.5405592 22.3061516,52.344695 C23.6223121,51.9848829 24.0747321,50.0773073 23.3375269,49.0670784 C23.6498197,46.3266603 23.8627613,43.579859 23.9640542,40.8209632 C24.0177751,39.3484546 22.2534017,38.2334065 21.0420939,39.0803593 C20.8631324,39.2053361 20.6838472,39.3306488 20.504562,39.4559615 C20.189033,38.6751927 19.3537711,38.1736058 18.4829111,38.2488606 C18.0036306,37.5685435 17.0929654,37.1831985 16.225018,37.4311362 C16.2195164,37.4217294 16.2136913,37.4129945 16.2085134,37.4039236 C16.5434595,36.9745679 16.7217739,36.3842878 16.6049472,35.6764221 C16.3408737,34.0802805 16.0771239,32.484139 15.813374,30.8879975 C15.710463,30.2661373 15.0897608,29.6540199 14.4506124,29.4635311 C14.4386384,29.1846851 14.4266645,28.905839 14.4182504,28.6259851 C15.013063,28.142876 15.1709893,27.4333305 15.0247133,26.7735069 C15.3797239,26.5887294 15.7357053,26.4059676 16.0900686,26.2205182 C17.3311494,25.5690936 17.3851938,23.3732652 16.0900686,22.7389745 C15.584575,22.4917086 15.1033528,22.2215975 14.6441368,21.9283052 C14.9580477,21.7210185 15.1997915,21.4250386 15.3538343,21.0870638 C16.3020394,21.0712737 17.1871387,20.4225367 17.1699869,19.1559711 C17.152835,17.8971324 16.6894119,16.9302423 15.9887757,16.0960559 C16.5900607,15.8561811 17.0884347,15.3804631 17.21497,14.7626344 C18.0725616,15.0102362 19.0029676,14.7119046 19.4621836,13.9170254 C20.0123368,14.7061933 20.8844913,14.7522196 21.6132823,14.3769534 C22.1951502,15.7476664 23.8685865,15.5894296 24.7455953,14.5916312 C24.7549803,14.8348656 24.7643652,15.077764 24.7737502,15.3206624 C24.8624219,17.613247 27.8970018,18.0308442 28.5879294,15.8565171 C28.6772484,15.5753194 28.761713,15.2921059 28.8494139,15.0102362 C29.4429321,15.1325253 30.0707539,14.9904146 30.5037567,14.4592633 C30.9047213,13.9670833 31.308922,13.4785988 31.7166825,12.993138 C31.7723451,12.9793637 31.8280076,12.9655893 31.8836702,12.9501352 C31.8704018,13.3660526 31.8571334,13.7819699 31.843865,14.1982232 C31.7746104,16.3547444 34.4189052,16.726987 35.4622544,15.2158432 C35.9056131,14.5731535 36.3696834,13.9496134 36.8441096,13.3361522 C36.9589945,15.2810192 39.4553952,15.6875297 40.4518196,14.1632834 C40.5689698,13.9842172 40.6861201,13.8048151 40.8035939,13.625077 C41.2699296,13.7903688 41.8077852,13.7957442 42.2974215,13.6385154 C42.501949,13.7352716 42.7080946,13.8212771 42.9152111,13.9015713 C42.4841499,14.9406927 43.1825207,16.3137574 44.2313715,16.6440051 C44.2336368,16.6446771 44.2359022,16.645013 44.2381675,16.6460209 C44.2501414,17.0810879 44.3821782,17.4943175 44.6514296,17.8084393 C44.3582303,18.7760014 44.668905,19.8658526 45.8908922,20.1359636 C45.848498,20.5609519 45.9255195,20.9889637 46.1310178,21.3531433 C44.2970662,21.7892182 43.7443242,24.7312117 45.9006008,25.2606832 C46.1747065,25.327875 46.4494594,25.3954028 46.7242124,25.4629306 C46.6526924,26.1986809 46.9219439,26.944846 47.6585018,27.2868523 C47.688922,27.3009626 47.7196659,27.314401 47.7500861,27.3281753 C47.1672474,27.6816042 46.8119132,28.2718843 46.7400697,28.8907209 C46.6653136,28.9028154 46.5905575,28.914574 46.5154778,28.9266685 C45.5442957,29.0815456 45.0931702,30.022231 45.1320045,30.9430948 C43.8168149,31.2659515 43.4592154,32.9245814 44.0556461,33.9805007 C44.020048,33.9845322 43.9841262,33.9885637 43.9485281,33.9919233 C42.3608509,34.1622546 41.4780169,36.3648022 42.408423,37.4244171 C42.0851271,37.5856774 41.8278496,37.8195049 41.6356196,38.0939835 C41.3747823,38.1332907 41.113945,38.1725979 40.8531077,38.2115691 C39.827234,38.3654384 39.3731958,39.4452108 39.4806375,40.4312507 C38.0039618,39.3269532 35.6069123,41.4250176 36.7538198,43.1844352 C37.0894132,43.6987885 37.3622244,44.2470737 37.5680464,44.8148445 C37.4201523,44.8662463 37.2712873,44.9146244 37.1233932,44.966698 C35.1994754,45.6460073 35.3454278,48.6595601 37.355752,48.9081698 C37.2347183,49.3059453 37.2421616,49.7342931 37.3602827,50.1317327 C37.0881187,51.3448809 37.6991123,52.9373268 39.159607,52.771363 C41.0738162,52.5536616 42.9378644,52.1965371 44.7828191,51.6186875 C46.1209856,51.1994106 46.4381327,49.718839 45.9171054,48.6914762 C47.2475051,48.9659547 48.582759,48.8856605 49.8837093,48.397512 C51.2743023,47.8761035 51.5555276,46.411322 50.9548898,45.4138596 C51.0694511,45.3923582 51.1840124,45.3681691 51.2985737,45.3470037 C53.3299332,44.9734172 52.9791297,42.0344473 51.2953375,41.478771 C51.2128146,41.2788754 51.0956643,41.0961137 50.9516536,40.9331735 C51.758437,40.6324902 52.5746053,40.3543161 53.4011295,40.100331 C54.951914,39.6232691 55.29042,37.2248574 53.9493409,36.4279625 C54.1150341,36.2092531 54.2609864,35.9599715 54.373606,35.6582803 C54.5344449,35.2295965 54.6130844,34.7995689 54.6234403,34.3776043 C55.2952743,33.9915873 55.9671084,33.6052344 56.639266,33.2192175 C58.0347132,32.4172832 57.7589894,30.5103795 56.6237323,29.767574 C57.9868175,28.9135661 58.3246763,26.5810023 56.3340928,26.1039405" id="Fill-1"></path>
                    </g>
                    <g id="Page-1" transform="translate(4.000000, 3.000000)" fill="#0049FF">
                        <path d="M10.8491822,35.6195 C10.7730555,35.7894628 10.5012672,35.8401647 10.2544225,35.7237736 C10.0023946,35.6124846 9.86180328,35.3806591 9.94311303,35.2106962 C10.01762,35.0359501 10.2890844,34.9874804 10.5404643,35.1041904 C10.7924921,35.2154794 10.9363229,35.4492182 10.8491822,35.6195 M11.5375615,36.4843017 C11.4228856,36.5885754 11.1987169,36.5401057 11.0467876,36.3746071 C10.8893512,36.2100652 10.8601963,35.9887627 10.9764919,35.8828946 C11.0944072,35.7783021 11.3117731,35.8274095 11.4695335,35.9922703 C11.6266459,36.1590444 11.6574205,36.3781148 11.5375615,36.4843017 M12.4857433,37.8468747 C12.3383492,37.9482784 12.0973354,37.8535711 11.9483215,37.6431105 C11.8009274,37.4326499 11.8009274,37.1800972 11.9518849,37.0790123 C12.1008988,36.9779275 12.3383492,37.0691271 12.4889828,37.2776744 C12.636053,37.4916427 12.636053,37.7441954 12.4857433,37.8468747 M32.922025,46.1045833 C32.9229968,45.8501173 32.9252644,45.5152936 32.9281799,45.1125486 C32.9362785,43.8896449 32.9485883,42.0455636 32.9485883,39.9253325 C32.9485883,38.5515988 32.6981802,37.4702777 32.3496173,36.6303486 C36.2673865,35.8510066 42.2959698,33.3656583 42.2959698,23.8655943 C42.2959698,21.3397482 41.524661,19.0996184 40.0018039,17.1952688 C40.3451837,15.9136913 40.6325214,13.5836374 39.4838187,10.7220109 L39.2298472,10.0899914 L38.5725665,9.88303846 C38.1407502,9.74655795 35.819697,9.24177139 31.2624639,12.1257194 C29.4276495,11.6824766 27.4933846,11.4532021 25.4933592,11.4442735 C23.5049957,11.4532021 21.5736463,11.6824766 19.7420713,12.1257194 C15.179979,9.24177139 12.8569822,9.74560131 12.4251659,9.88271958 L11.7665894,10.0899914 L11.5129418,10.7232865 C10.3665068,13.5858695 10.6548163,15.9152857 10.99852,17.1962254 C9.47307143,19.1053582 8.70111475,21.3445314 8.70111475,23.8655943 C8.70111475,28.3866707 10.0445073,31.7923058 12.6943628,33.9877926 C14.5139518,35.494818 16.7070474,36.2365322 18.648439,36.6338563 C18.5123829,36.963259 18.3980309,37.3127512 18.3073268,37.6772307 C15.9114428,38.4444552 14.56967,37.2486563 13.8524597,36.0413778 C13.674291,35.7346155 12.0561946,33.0990748 9.0065932,32.8886142 L8.92366373,32.8851066 C8.90228348,32.8851066 8.88122717,32.8847877 8.86049481,32.8847877 C7.59614444,32.8847877 6.71339918,33.3806456 6.43383619,34.2502305 C5.98614666,35.6427782 7.43935592,36.6217389 7.91684822,36.9428507 L7.97483406,36.9996113 L8.10473529,37.0512698 C8.25763648,37.1399184 9.25991679,37.7776778 10.0441833,39.725395 C10.1562677,40.0292873 10.6804078,41.2729181 12.076927,42.3028995 C13.1977705,43.1297546 15.0970496,43.9626684 18.0630736,43.6887507 C18.066637,44.143792 18.0705243,44.5704531 18.0737638,44.949601 C18.0776511,45.421543 18.0812145,45.819186 18.0831581,46.1045833 C8.99817067,43.0009272 2.91548893,34.5971717 2.91548893,25.101572 C2.91548893,12.8428798 13.046813,2.86991728 25.500162,2.86991728 C37.953187,2.86991728 48.0845111,12.8428798 48.0845111,25.101572 C48.0845111,34.5958961 42.003773,43.0006083 32.922025,46.1045833 M19.3743958,39.7636605 C19.4087338,39.9540317 19.2101566,40.1495049 18.9263823,40.2014823 C18.6471433,40.2518653 18.3889605,40.1341987 18.3533268,39.9454219 C18.3186648,39.7502676 18.5208054,39.5547943 18.7993966,39.5044113 C19.0834948,39.4556227 19.3384381,39.5701005 19.3743958,39.7636605 M17.0335821,40.4310757 C16.7462445,40.4371344 16.5133293,40.279289 16.5100899,40.0873234 C16.5100899,39.8902558 16.7358783,39.7301781 17.0235399,39.7250761 C17.3092578,39.7196551 17.5437927,39.8768628 17.5437927,40.0704228 C17.5502715,40.2652583 17.3193,40.4272492 17.0335821,40.4310757 M15.5758376,39.9288402 C15.5175279,40.1141093 15.2473592,40.1979747 14.9752469,40.1192114 C14.7028107,40.0378971 14.5252898,39.8213777 14.5803601,39.6341954 C14.6364023,39.4473319 14.9081907,39.3596399 15.1822466,39.4438242 C15.454035,39.5245007 15.6322038,39.7400634 15.5758376,39.9288402 M13.7844317,39.1638478 C13.6525868,39.3070248 13.371728,39.2684403 13.166348,39.073286 C12.9561089,38.8825959 12.8977991,38.611867 13.029644,38.4686901 C13.1634325,38.3255131 13.4455871,38.3656919 13.6525868,38.5595708 C13.8612062,38.749942 13.9246991,39.0225841 13.7844317,39.1638478 M20.918957,39.7107265 L21.0300696,38.9234125 C21.2312383,37.4996147 21.8253501,36.8542022 22.071223,36.6427849 L24.5616985,34.5037399 L21.2775622,34.1360716 C16.2600057,33.5738867 11.6166037,31.9405849 11.6166037,23.8655943 C11.6166037,21.7912819 12.3215041,19.9794074 13.7125163,18.4806729 L14.3364309,17.8081556 L13.9839807,16.9663132 C13.8446851,16.6330839 13.2554324,15.0061597 13.9169244,12.6773813 C14.7306698,12.8068464 16.2800902,13.2749618 18.6649601,14.8642582 L19.2231143,15.2360719 L19.8726204,15.058456 C21.6202941,14.5801364 23.5688125,14.3228005 25.4933592,14.3141907 C27.4315114,14.3228005 29.3816496,14.5801364 31.1332105,15.058456 L31.7830406,15.2360719 L32.3408708,14.8636205 C34.7221774,13.2749618 36.2686823,12.8071653 37.0814558,12.6773813 C37.7442437,15.0055219 37.1556388,16.6330839 37.0160193,16.9666321 L36.6635691,17.8091122 L37.2887795,18.4816295 C38.6768762,19.9743054 39.3804808,21.7855421 39.3804808,23.8655943 C39.3804808,31.9437737 34.7273605,33.5665525 29.6991139,34.1163011 L26.384203,34.4791862 L28.9061009,36.6274787 C29.1704386,36.8529266 30.0330994,37.7559939 30.0330994,39.9253325 C30.0330994,42.0382294 30.0207895,43.8752953 30.012691,45.0934158 C30.0084797,45.7034326 30.0055642,46.1597495 30.0055642,46.4199553 C30.0055642,47.2270398 30.3470003,47.9674785 30.9430559,48.451219 C31.2945343,48.7366163 31.8578715,49.0350877 32.6761521,49.0350877 C32.8961095,49.0350877 33.1342078,49.0137228 33.3914187,48.9646153 L33.5754184,48.9171022 C43.9976435,45.4971175 51,35.9262622 51,25.101572 C51,11.2602799 39.5609172,0 25.500162,0 C11.4390828,0 0,11.2602799 0,25.101572 C0,35.9310454 7.00818751,45.5028573 17.439159,48.920291 L17.6338489,48.9697174 C18.8421571,49.1897444 19.624156,48.8029433 20.0679582,48.4397393 C20.6601264,47.9547233 20.9996189,47.2184301 20.9996189,46.4199553 C20.9996189,46.1591117 20.9950837,45.6221183 20.9889288,44.9247284 C20.981802,44.1103097 20.9727316,43.0749073 20.9672246,42.0063414 L20.9578302,40.2356025" id="Fill-1"></path>
                    </g>
                    <circle id="Oval-13" fill="#FFDB47" cx="15" cy="39" r="1"></circle>
                    <circle id="Oval-13" fill="#FFDB47" cx="17" cy="41" r="1"></circle>
                    <circle id="Oval-13" fill="#FFDB47" cx="19" cy="43" r="1"></circle>
                    <circle id="Oval-13" fill="#FFDB47" cx="22" cy="43" r="1"></circle>
                </g>
            </g>
        </g>
    </g>
</svg>