<?xml version="1.0" encoding="UTF-8"?>
<svg width="39px" height="71px" viewBox="0 0 39 71" version="1.1" xmlns="http://www.w3.org/2000/svg" xmlns:xlink="http://www.w3.org/1999/xlink">
    <!-- Generator: Sketch 47.1 (45422) - http://www.bohemiancoding.com/sketch -->
    <title>Issue Tracker</title>
    <desc>Created with Sketch.</desc>
    <defs>
        <circle id="path-1" cx="8" cy="67" r="2"></circle>
        <filter x="-25.0%" y="-25.0%" width="200.0%" height="200.0%" filterUnits="objectBoundingBox" id="filter-2">
            <feOffset dx="2" dy="2" in="SourceAlpha" result="shadowOffsetOuter1"></feOffset>
            <feComposite in="shadowOffsetOuter1" in2="SourceAlpha" operator="out" result="shadowOffsetOuter1"></feComposite>
            <feColorMatrix values="0 0 0 0 1   0 0 0 0 1   0 0 0 0 1  0 0 0 1 0" type="matrix" in="shadowOffsetOuter1"></feColorMatrix>
        </filter>
        <circle id="path-3" cx="18" cy="64" r="2"></circle>
        <filter x="-25.0%" y="-25.0%" width="200.0%" height="200.0%" filterUnits="objectBoundingBox" id="filter-4">
            <feOffset dx="2" dy="2" in="SourceAlpha" result="shadowOffsetOuter1"></feOffset>
            <feComposite in="shadowOffsetOuter1" in2="SourceAlpha" operator="out" result="shadowOffsetOuter1"></feComposite>
            <feColorMatrix values="0 0 0 0 1   0 0 0 0 1   0 0 0 0 1  0 0 0 1 0" type="matrix" in="shadowOffsetOuter1"></feColorMatrix>
        </filter>
        <circle id="path-5" cx="30" cy="64" r="2"></circle>
        <filter x="-25.0%" y="-25.0%" width="200.0%" height="200.0%" filterUnits="objectBoundingBox" id="filter-6">
            <feOffset dx="2" dy="2" in="SourceAlpha" result="shadowOffsetOuter1"></feOffset>
            <feComposite in="shadowOffsetOuter1" in2="SourceAlpha" operator="out" result="shadowOffsetOuter1"></feComposite>
            <feColorMatrix values="0 0 0 0 1   0 0 0 0 1   0 0 0 0 1  0 0 0 1 0" type="matrix" in="shadowOffsetOuter1"></feColorMatrix>
        </filter>
    </defs>
    <g id="LESS-Dokumentation" stroke="none" stroke-width="1" fill="none" fill-rule="evenodd">
        <g id="Homepage-two" transform="translate(-787.000000, -1377.000000)">
            <g id="Link-Liste" transform="translate(639.000000, 1254.000000)">
                <g id="Issue-Tracker" transform="translate(148.000000, 123.000000)">
                    <polygon id="Path-19" fill="#FFDB47" points="25 11.8620792 25 1 31.6401163 1.84480191 37.047093 4.33690795 38 8.99046768 35.5761628 11.8620792 33.2465116 13"></polygon>
                    <polygon id="Path-18" fill-opacity="0.360000014" fill="#189EFF" points="10 5.77190876 16.4616921 2 19 8.1002401 19 12.9897959 16.4616921 15 13.5525528 10.8373349"></polygon>
                    <polygon id="Path-17" fill="#92B1FF" points="1 22.3371475 4.28451785 13 14 18.8708031 12.7056567 24 1 24"></polygon>
                    <polygon id="Path-16" fill="#FFDB47" points="4 33.130284 14.0326575 30 18 35.6627265 7.45783487 39"></polygon>
                    <polygon id="Path-13" fill-opacity="0.50999999" fill="#3C74FF" points="11 46.1044283 12.8706053 51 24 48.5522141 21.0474357 42"></polygon>
                    <path d="M13.0504829,17.3305765 C9.66863819,14.161929 6.83945694,12.897708 5.11423525,12.396044 C5.77150597,11.3658867 6.52928168,10.364409 7.39622268,9.39623687 C7.99537827,8.72758287 8.60524527,8.11721347 9.22286096,7.55819004 C9.56403096,7.80150516 10.0184685,8.16763428 10.5435558,8.69682154 C11.6532129,9.81556227 13.2615206,11.8617684 14.7435704,15.3093494 C14.5986244,15.4596867 14.4539063,15.6146498 14.309872,15.775395 C13.9445443,16.183156 13.4905626,16.6924525 13.0504829,17.3305765 M13.9543441,31.3494131 C14.6961667,32.7614272 15.6048138,34.2497664 16.6764112,35.8176687 C11.7477924,37.6552529 8.31899977,38.306329 7.22666324,38.4830332 C6.26924497,36.9063419 5.44628915,35.3726703 4.75733999,33.8771612 C5.95360005,33.3248451 8.82198052,32.2100363 13.9543441,31.3494131 M19.57214,40.7845814 C14.7586119,42.5550921 11.428729,43.1781824 10.3885821,43.3449411 C10.0599467,42.7984073 9.70327937,42.2449348 9.31538937,41.6870678 C9.01091167,41.2492393 8.71668958,40.8148802 8.43181149,40.3837591 C10.1492845,40.0520919 13.4356381,39.2770454 17.847602,37.5971996 C18.4820825,38.630595 19.0559409,39.7016904 19.57214,40.7845814 M22.2014508,47.8444206 C17.6648242,49.4863351 14.5006263,50.0953168 13.4174059,50.2727148 C13.0131069,48.8570001 12.3938959,47.1385292 11.4524308,45.2729591 C13.0406831,44.9752912 16.1706956,44.2613047 20.4190256,42.6869264 C21.1546947,44.4592874 21.7435947,46.2175398 22.2014508,47.8444206 M14.1669771,54.0526568 C14.1526193,53.869014 14.0931367,53.244536 13.9085357,52.3020369 C15.2011985,52.0843947 18.3122951,51.4525156 22.7231195,49.8663415 C23.0898146,51.436788 23.3188566,52.8027757 23.4280219,53.8241441 L23.0469689,53.9030134 C22.754798,53.9346999 22.4482691,53.9952973 22.1298894,54.0924384 L14.1619633,55.7389786 M2.09566705,24.1188833 C3.20236144,23.9555939 6.34536439,23.7122788 11.6146974,24.970255 C11.8599204,26.3542832 12.3221066,27.8273573 13.0115116,29.4010418 C8.14511019,30.2651343 5.28060406,31.3563518 3.94327237,31.9681089 C2.87076335,29.2368273 2.25838942,26.6309038 2.09566705,24.1188833 M4.05084233,14.2653148 C4.45810405,14.3569049 5.01623719,14.5174188 5.70131201,14.8009781 C7.14165562,15.3974702 9.38512752,16.6473513 12.0404192,19.222976 C11.7195325,20.043355 11.4838814,20.9974186 11.4218919,22.1175471 C11.4095852,22.3379647 11.4057108,22.5616203 11.4068503,22.7871262 C6.59924774,21.7139493 3.51709475,21.83977 2.07082568,22.0208686 C2.1738376,19.2956005 2.83407105,16.7035543 4.05084233,14.2653148 M15.6706776,3.53493287 C15.9286632,3.86914423 16.3131347,4.43556888 16.7188011,5.27537611 C17.3854158,6.65593501 18.2147529,9.01322372 18.5301699,12.5676598 C17.7824219,12.9034902 17.0595153,13.3329923 16.3548408,13.8686556 C14.4135676,9.59190664 12.2598893,7.3269019 10.8619355,6.20700473 C12.4399322,5.02997939 14.0555328,4.1621863 15.6706776,3.53493287 M23.2928757,2.11019793 C23.4375938,2.54247546 23.616953,3.21459879 23.7302205,4.13651332 C23.9171006,5.65399479 23.9544766,8.14658706 23.1456507,11.592549 C22.2317618,11.6108208 21.362086,11.7095808 20.5268234,11.899931 C20.0354657,7.15459224 18.6710136,4.3201561 17.7161023,2.86280954 C19.6195437,2.34842472 21.4992833,2.13471448 23.2928757,2.11019793 M25.4454145,2.16778868 C28.6189564,2.37664187 31.407571,3.08345842 33.4090105,3.59159846 C35.908189,4.22555925 37.4330844,6.80488457 36.8086316,9.3411903 C36.5057492,10.5697929 35.7497967,11.6052699 34.6791109,12.2570399 C33.6088809,12.9085785 32.3531383,13.0986974 31.1427483,12.7910842 C28.9710657,12.2401558 27.0183973,11.8434967 25.2298188,11.6772005 C26.2556078,7.05166901 25.8895964,3.91285769 25.4454145,2.16778868 M15.8279303,17.1753821 C19.6284319,12.9324012 23.6338178,13.0320864 30.6452372,14.8104609 C32.3859563,15.2526838 34.1941345,14.9795325 35.7345273,14.0421217 C37.2746922,13.1042483 38.3626985,11.6142901 38.798676,9.8460923 C39.6972954,6.19613419 37.5028225,2.48442214 33.9067495,1.57199043 C28.0156986,0.0771751953 15.7581922,-3.03341898 5.87839223,7.99624977 C1.74857159,12.6065162 -0.222556861,17.8953821 0.0199313655,23.7155168 C0.26492652,29.5969429 2.75749582,35.8680895 7.63962251,42.8872219 C11.3441771,48.2133252 12.0160336,53.1911085 12.1097015,54.0836494 C12.1081062,54.1160298 12.1069667,54.149104 12.1069667,54.1833346 C12.1067388,54.278394 12.1071946,54.4312755 12.1081062,54.6625636 C12.1092457,55.0162032 12.111069,55.5606555 12.1117527,56.3620689 C11.632018,56.5739288 11.1019168,56.8699776 10.2411292,57.3554514 C9.74407391,57.6357726 9.49064636,57.5321556 8.62279376,56.9678125 C7.83721395,56.4571283 6.7619701,55.7565565 5.27490649,56.0928495 C3.08658699,56.5864184 0.73850785,58.0062962 0.639598179,58.0666624 C0.153938017,58.3622487 -0.0035425888,59.0017604 0.287944669,59.4946354 C0.48006645,59.8198265 0.819869031,60 1.16833191,60 C1.34769115,60 1.52978522,59.9521234 1.69501451,59.851513 C1.71643734,59.8385609 3.85302299,58.5458915 5.71977211,58.1247158 C6.34422488,57.9850177 6.78658357,58.2459108 7.51587147,58.7202827 C8.40309578,59.2973466 9.61781594,60.0881208 11.2372909,59.1749952 C13.148481,58.0974238 13.148481,58.0974238 15.2704809,57.6667653 C16.9280155,57.330241 17.7302322,57.5097206 18.3747404,57.6535818 C19.3296518,57.8668295 20.0922134,57.9431546 21.2064286,56.973826 C21.719437,56.5276712 22.1893719,56.2623837 22.6271726,56.114128 L23.3642092,55.9617091 C23.7436668,55.9332607 24.0994225,55.9788244 24.4401367,56.047517 C24.8745188,56.1358691 25.2528369,56.2723291 25.6534895,56.4166529 C27.0035837,56.9030518 28.3992584,57.4061035 31.253281,55.9582398 C31.7473736,55.7072921 32.9039786,55.1207454 35.379911,57.2143657 C35.8149768,57.5821138 36.4615361,57.5226727 36.824129,57.0811437 C37.1867218,56.6396146 37.127923,55.9832189 36.6928572,55.6152395 C34.333155,53.6194541 32.2537729,53.1233411 30.3359736,54.096139 C28.2636564,55.1480374 27.4983599,54.8721107 26.3397038,54.4550982 C26.089239,54.3646645 25.8159839,54.2684486 25.5197107,54.179634 C25.2457719,50.5220434 23.3250099,41.7754198 18.6247494,35.0181056 C15.0209277,29.8367887 13.2865899,25.5359858 13.4695956,22.2345789 C13.6131741,19.6480836 14.8930744,18.2189542 15.8279303,17.1753821" id="Fill-1" fill="#0049FF"></path>
                    <g id="Oval-7">
                        <use fill="black" fill-opacity="1" filter="url(#filter-2)" xlink:href="#path-1"></use>
                        <use fill-opacity="0.26" fill="#189EFF" fill-rule="evenodd" xlink:href="#path-1"></use>
                    </g>
                    <g id="Oval-7">
                        <use fill="black" fill-opacity="1" filter="url(#filter-4)" xlink:href="#path-3"></use>
                        <use fill-opacity="0.26" fill="#189EFF" fill-rule="evenodd" xlink:href="#path-3"></use>
                    </g>
                    <g id="Oval-7">
                        <use fill="black" fill-opacity="1" filter="url(#filter-6)" xlink:href="#path-5"></use>
                        <use fill-opacity="0.26" fill="#189EFF" fill-rule="evenodd" xlink:href="#path-5"></use>
                    </g>
                </g>
            </g>
        </g>
    </g>
</svg>