<?xml version="1.0" encoding="UTF-8"?>
<svg version="1.1" viewBox="0 0 372 247" xmlns="http://www.w3.org/2000/svg" xmlns:xlink="http://www.w3.org/1999/xlink">
<title>style tile fenster</title>
<desc>Created with Sketch.</desc>
<defs>
<linearGradient id="h" x1="50%" x2="50%" y1="98.392%">
<stop stop-color="#fff" offset="0"/>
<stop stop-color="#EAEEF1" offset="1"/>
</linearGradient>
<path id="a" d="m6 0h337.74c3.3137-6.0872e-16 6 2.6863 6 6v204.68c0 3.3137-2.6863 6-6 6h-337.74c-3.3137 0-6-2.6863-6-6v-204.68c-4.0581e-16 -3.3137 2.6863-6 6-6z"/>
<linearGradient id="g" x1="50%" x2="50%" y1="100%">
<stop stop-color="#35CDFF" offset="0"/>
<stop stop-color="#189EFF" offset="1"/>
</linearGradient>
<polygon id="d" points="19.307 0.070999 19.307 19.131 0.56728 19.131 0.56728 0.070999"/>
<polygon id="c" points="10.047 0 0 0 0 20.08 20.094 20.08 20.094 0"/>
</defs>
<g fill="none" fill-rule="evenodd">
<g transform="translate(-466 -1139)">
<g transform="translate(460 1006)">
<g transform="translate(6 133)">
<path d="m6 0l360-8.8818e-16c3.3137-6.0872e-16 6 2.6863 6 6v206.86c0 3.3137-2.6863 6-6 6h-360c-3.3137 0-6-2.6863-6-6v-206.86c-4.0581e-16 -3.3137 2.6863-6 6-6z" fill="url(#h)"/>
<g transform="translate(17.911 11.012)" fill="#A1ACB6">
<ellipse cx="4.8222" cy="4.8176" rx="4.8222" ry="4.8176"/>
<ellipse cx="18.6" cy="4.8176" rx="4.8222" ry="4.8176"/>
<ellipse cx="32.378" cy="4.8176" rx="4.8222" ry="4.8176"/>
</g>
<g transform="translate(10 30)">
<mask id="b" fill="white">
<use xlink:href="#a"/>
</mask>
<use fill="#FFFFFF" xlink:href="#a"/>
<polygon points="0 0 78.009 0 78.009 230.48 0 230.48" fill="#132533" mask="url(#b)"/>
<polygon points="78.459 -11.038 356.51 -11.038 356.51 34.494 78.459 48.291" fill="url(#g)" mask="url(#b)"/>
</g>
<g transform="translate(30 83)" stroke="#A1ACB6" stroke-width="2">
<path d="m0.38566 1.9745h37.253"/>
<path d="m0.38566 17.298h37.253"/>
<path d="m0.38566 32.621h37.253"/>
<path d="m0.38566 47.944h37.253"/>
<path d="m0.38566 63.267h37.253"/>
</g>
<g transform="translate(128 98)">
<g transform="translate(1.3788 108.84)">
<path d="m1.4665 10.822c-0.21831 0-0.43662-0.073443-0.65492-0.14543-0.72769-0.36358-1.0188-1.2362-0.65492-1.9633 0.072769-0.14616 2.1103-4.0721 5.8943-5.3083 2.1103-0.65517 4.2206-0.4363 6.4765 0.72716 2.1831 1.1627 4.2206 1.018 6.1126-0.50901 1.5282-1.2369 2.4014-2.8359 2.4014-2.8359 0.36385-0.72716 1.2371-1.018 1.9648-0.58246 0.72769 0.36358 1.0188 1.2369 0.65492 1.9641-0.072769 0.072716-1.1643 2.1815-3.1291 3.7812s-5.1666 2.9806-9.3145 0.87259c-1.5282-0.8006-2.9108-0.94531-4.2206-0.50901-2.6197 0.87259-4.1479 3.7812-4.1479 3.854-0.36385 0.36358-0.87323 0.65444-1.3826 0.65444" fill="#F4B62E"/>
<path d="m17.258 13.076c-1.3098 0-2.6925-0.29086-4.1479-1.0907-0.72769-0.36358-1.0188-1.2362-0.65492-1.9633 0.36385-0.72716 1.2371-1.018 1.9648-0.65444 2.1831 1.1635 4.2199 0.94531 6.1126-0.50901 1.5282-1.2362 2.4014-2.8359 2.4014-2.8359 0.36385-0.72716 1.2371-1.018 1.9648-0.58173 0.72769 0.36358 1.018 1.2362 0.6542 1.9633-1.1636 2.2542-4.1471 5.6719-8.295 5.6719" fill="#FDF1D9"/>
</g>
<g transform="translate(4.1364 70.267)">
<g transform="translate(1.4182 5.0309)">
<mask id="f" fill="white">
<use xlink:href="#d"/>
</mask>
<path d="m5.6382 0.070999c-1.3473 0-2.5527 0.92114-2.7655 2.3383l-2.2691 13.463c-0.28364 1.7714 1.1345 3.2587 2.7655 3.2587 0.35455 0 0.70909-0.070149 1.0636-0.21186l13.118-5.2434c1.9855-0.77943 2.4109-3.472 0.63818-4.819l-10.92-8.2187c-0.49636-0.35429-1.0636-0.56686-1.6309-0.56686m0 2.9051l10.778 8.1486-13.047 5.1719 2.2691-13.32" fill="#FCD4E0" mask="url(#f)"/>
</g>
<path d="m5.0711 0c-1.3473 0-2.5527 0.92114-2.7655 2.3383l-2.2691 13.463c-0.28364 1.7714 1.1345 3.2594 2.7655 3.2594 0.35455 0 0.70909-0.070857 1.0636-0.21257l13.118-5.2434c1.9855-0.77943 2.4109-3.472 0.63818-4.8183l-10.92-8.2194c-0.49636-0.35429-1.0636-0.56686-1.6309-0.56686m0 2.9051l10.778 8.1486-13.047 5.1726 2.2691-13.321" fill="#F21458"/>
</g>
<g transform="translate(0 34.444)">
<path d="m14.25 4.2398c-5.524 0-10.007 4.48-10.007 10s4.4833 10 10.007 10c5.524 0 10.007-4.48 10.007-10s-4.4833-10-10.007-10m0 3.2c3.7628 0 6.805 3.04 6.805 6.8s-3.0422 6.8-6.805 6.8-6.805-3.04-6.805-6.8 3.0422-6.8 6.805-6.8" fill="#DCD9EE"/>
<path d="m10.007 0c-5.524 0-10.007 4.48-10.007 10s4.4833 10 10.007 10c5.524 0 10.007-4.48 10.007-10s-4.4833-10-10.007-10m0 3.2c3.7628 0 6.805 3.04 6.805 6.8s-3.0422 6.8-6.805 6.8c-3.7628 0-6.805-3.04-6.805-6.8s3.0422-6.8 6.805-6.8" fill="#4836A3"/>
</g>
<path d="m21.616 4.7199h-13.69c-1.7613 0-3.2023 1.44-3.2023 3.2v13.68c0 1.76 1.4411 3.2 3.2023 3.2h13.69c1.7613 0 3.2023-1.44 3.2023-3.2v-13.68c0-1.76-1.4411-3.2-3.2023-3.2zm-13.69 16.88h13.69v-13.68h-13.69v13.68z" fill="#D5EDFF"/>
<mask id="e" fill="white">
<use xlink:href="#c"/>
</mask>
<path d="m16.892 0h-13.69c-1.7613 0-3.2023 1.44-3.2023 3.2v13.68c0 1.76 1.4411 3.2 3.2023 3.2h13.69c1.7613 0 3.2023-1.44 3.2023-3.2v-13.68c0-1.76-1.4411-3.2-3.2023-3.2zm-13.69 16.88h13.69v-13.68h-13.69v13.68z" fill="#189EFF" mask="url(#e)"/>
<g transform="translate(53.656 4.9215)" stroke-width="2">
<path d="m0.12141 1.9785h64.798" stroke="#607182"/>
<path d="m0.12141 13.001h107.86" stroke="#A1ACB6"/>
<path d="m0.12141 36.423h31.828" stroke="#607182"/>
<path d="m0.12141 47.445h78.586" stroke="#A1ACB6"/>
<path d="m0.12141 70.867h55.147" stroke="#607182"/>
<path d="m0.12141 81.89h125.53" stroke="#A1ACB6"/>
<path d="m0.12141 103.93h39.98" stroke="#607182"/>
<path d="m0.12141 114.96h92.374" stroke="#A1ACB6"/>
</g>
</g>
<text fill="#607182" font-family="BrandonText-Medium, Brandon Text" font-size="14" font-weight="400" letter-spacing=".05555">
<tspan x="287.901476" y="20">style tile</tspan>
</text>
<g transform="translate(41 48)" fill="#fff" fill-rule="nonzero">
<path d="m13.466 14.989c-0.72952-0.55202-1.8059-0.96004-2.954-1.4041-1.3634-0.52802-2.8942-1.116-4.0542-2.0281-1.3155-1.032-1.9494-2.3401-1.9494-3.9962 0-1.4761 0.62189-2.7481 1.7939-3.6601 1.3155-1.032 3.3008-1.5721 5.7644-1.5721 0.68169 0 1.3275 0.036001 1.9255 0.12 0.047838 0.012 0.10763-0.024001 0.13155-0.072003 0.023919-0.048002 0.011959-0.108-0.023919-0.14401-1.5428-1.3801-3.54-2.1361-5.6209-2.1361-2.2484 0-4.3652 0.86403-5.9558 2.4481-1.6145 1.5841-2.4876 3.6841-2.4876 5.9162 0 2.2321 0.87304 4.3322 2.4636 5.9042 1.5906 1.5841 3.7074 2.4481 5.9558 2.4481 1.8178 0 3.5519-0.56402 5.011-1.6321 0.035878-0.024001 0.047838-0.060002 0.047838-0.096004s-0.01196-0.072003-0.047838-0.096004z"/>
<path d="m16.839 7.6923c0-0.036001-0.023919-0.060002-0.047838-0.084003-1.758-1.4521-3.1812-2.0401-4.9034-2.0401-0.92088 0-1.6265 0.18001-2.1049 0.54002-0.40662 0.31201-0.62189 0.74403-0.62189 1.26 0 1.4401 1.77 2.0881 3.8151 2.8441 1.0524 0.39602 2.1407 0.79203 3.1453 1.3441 0.011959 0.012 0.035878 0.012 0.059797 0.012 0.011959 0 0.023919 0 0.035878-0.012 0.035878-0.012 0.059797-0.036001 0.071756-0.072003 0.3827-0.97204 0.57405-1.9921 0.57405-3.0481 0.011959-0.22801 0-0.48002-0.023919-0.74403z"/>
</g>
</g>
</g>
</g>
</g>
</svg>
