<svg version="1.1" viewBox="0 0 270 179" xmlns="http://www.w3.org/2000/svg" xmlns:xlink="http://www.w3.org/1999/xlink">
<defs>
<linearGradient id="h" x1="50%" x2="50%" y1="98.392%">
<stop stop-color="#fff" offset="0"/>
<stop stop-color="#EAEEF1" offset="1"/>
</linearGradient>
<path id="a" d="m6 0h242.08c3.3137-6.0872e-16 6 2.6863 6 6v145.04c0 3.3137-2.6863 6-6 6h-242.08c-3.3137 0-6-2.6863-6-6v-145.04c-4.0581e-16 -3.3137 2.6863-6 6-6z"/>
<linearGradient id="g" x1="50%" x2="50%" y1="100%">
<stop stop-color="#35CDFF" offset="0"/>
<stop stop-color="#189EFF" offset="1"/>
</linearGradient>
<polygon id="d" points="14.003 0.051531 14.003 13.885 0.41144 13.885 0.41144 0.051531"/>
<polygon id="c" points="7.287 0 0 0 0 14.574 14.574 14.574 14.574 0"/>
</defs>
<g fill="none" fill-rule="evenodd">
<g transform="translate(-466 -1139)">
<g transform="translate(460 1006)">
<g transform="translate(6 133)">
<path d="m6 0h258c3.3137-6.0872e-16 6 2.6863 6 6v147c0 3.3137-2.6863 6-6 6h-258c-3.3137 0-6-2.6863-6-6v-147c-4.0581e-16 -3.3137 2.6863-6 6-6z" fill="url(#h)"/>
<g transform="translate(13 8)" fill="#A1ACB6">
<circle cx="3.5" cy="3.5" r="3.5"/>
<circle cx="13.5" cy="3.5" r="3.5"/>
<circle cx="23.5" cy="3.5" r="3.5"/>
</g>
<g transform="translate(7.4576 21.831)">
<mask id="b" fill="white">
<use xlink:href="#a"/>
</mask>
<use fill="#FFFFFF" xlink:href="#a"/>
<polygon points="0 0 56.673 0 56.673 167.04 0 167.04" fill="#132533" mask="url(#b)"/>
<polygon points="57 -8 259 -8 259 25 57 35" fill="url(#g)" mask="url(#b)"/>
</g>
<g transform="translate(20.915 60.572)" stroke="#A1ACB6" stroke-width="2">
<path d="m0.99484 1.436h26.746"/>
<path d="m0.99484 12.58h26.746"/>
<path d="m0.99484 23.724h26.746"/>
<path d="m0.99484 34.868h26.746"/>
<path d="m0.99484 46.012h26.746"/>
</g>
<g transform="translate(93 71)">
<g transform="translate(1 79)">
<path d="m1.0636 7.8545c-0.15833 0-0.31667-0.053306-0.475-0.10556-0.52778-0.26389-0.73889-0.89722-0.475-1.425 0.052778-0.10608 1.5306-2.9556 4.275-3.8528 1.5306-0.47553 3.0611-0.31667 4.6972 0.52778 1.5833 0.84392 3.0611 0.73889 4.4333-0.36944 1.1083-0.89775 1.7417-2.0583 1.7417-2.0583 0.26389-0.52778 0.89722-0.73889 1.425-0.42275 0.52778 0.26389 0.73889 0.89775 0.475 1.4255-0.052778 0.052778-0.84444 1.5833-2.2694 2.7444s-3.7472 2.1634-6.7556 0.63333c-1.1083-0.58108-2.1111-0.68611-3.0611-0.36944-1.9 0.63333-3.0083 2.7444-3.0083 2.7972-0.26389 0.26389-0.63333 0.475-1.0028 0.475" fill="#F4B62E"/>
<path d="m12.517 9.4904c-0.95 0-1.9528-0.21111-3.0083-0.79167-0.52778-0.26389-0.73889-0.89722-0.475-1.425 0.26389-0.52778 0.89722-0.73889 1.425-0.475 1.5833 0.84444 3.0606 0.68611 4.4333-0.36944 1.1083-0.89722 1.7417-2.0583 1.7417-2.0583 0.26389-0.52778 0.89722-0.73889 1.425-0.42222 0.52778 0.26389 0.73836 0.89722 0.47447 1.425-0.84392 1.6361-3.0078 4.1167-6.0161 4.1167" fill="#FDF1D9"/>
</g>
<g transform="translate(3 51)">
<g transform="translate(1.0286 3.6514)">
<mask id="f" fill="white">
<use xlink:href="#d"/>
</mask>
<path d="m4.0892 0.051531c-0.97714 0-1.8514 0.66857-2.0057 1.6971l-1.6457 9.7714c-0.20571 1.2857 0.82286 2.3652 2.0057 2.3652 0.25714 0 0.51429-0.050914 0.77143-0.15377l9.5143-3.8057c1.44-0.56571 1.7486-2.52 0.46286-3.4977l-7.92-5.9652c-0.36-0.25714-0.77143-0.41143-1.1829-0.41143m0 2.1086l7.8171 5.9143-9.4629 3.7538 1.6457-9.6681" fill="#FCD4E0" mask="url(#f)"/>
</g>
<path d="m3.6779 0c-0.97714 0-1.8514 0.66857-2.0057 1.6971l-1.6457 9.7714c-0.20571 1.2857 0.82286 2.3657 2.0057 2.3657 0.25714 0 0.51429-0.051429 0.77143-0.15429l9.5143-3.8057c1.44-0.56571 1.7486-2.52 0.46286-3.4971l-7.92-5.9657c-0.36-0.25714-0.77143-0.41143-1.1829-0.41143m0 2.1086l7.8171 5.9143-9.4629 3.7543 1.6457-9.6686" fill="#F21458"/>
</g>
<g transform="translate(0 25)">
<path d="m10.335 3.0773c-4.0065 0-7.2581 3.2516-7.2581 7.2581 0 4.0065 3.2516 7.2581 7.2581 7.2581 4.0065 0 7.2581-3.2516 7.2581-7.2581 0-4.0065-3.2516-7.2581-7.2581-7.2581m0 2.3226c2.729 0 4.9355 2.2065 4.9355 4.9355 0 2.729-2.2065 4.9355-4.9355 4.9355-2.729 0-4.9355-2.2065-4.9355-4.9355 0-2.729 2.2065-4.9355 4.9355-4.9355" fill="#DCD9EE"/>
<path d="m7.2581 0c-4.0065 0-7.2581 3.2516-7.2581 7.2581 0 4.0065 3.2516 7.2581 7.2581 7.2581 4.0065 0 7.2581-3.2516 7.2581-7.2581 0-4.0065-3.2516-7.2581-7.2581-7.2581m0 2.3226c2.729 0 4.9355 2.2065 4.9355 4.9355 0 2.729-2.2065 4.9355-4.9355 4.9355-2.729 0-4.9355-2.2065-4.9355-4.9355 0-2.729 2.2065-4.9355 4.9355-4.9355" fill="#4836A3"/>
</g>
<path d="m15.677 3.4257h-9.929c-1.2774 0-2.3226 1.0452-2.3226 2.3226v9.929c0 1.2774 1.0452 2.3226 2.3226 2.3226h9.929c1.2774 0 2.3226-1.0452 2.3226-2.3226v-9.929c0-1.2774-1.0452-2.3226-2.3226-2.3226zm-9.929 12.252h9.929v-9.929h-9.929v9.929z" fill="#D5EDFF"/>
<mask id="e" fill="white">
<use xlink:href="#c"/>
</mask>
<path d="m12.251 0h-9.929c-1.2774 0-2.3226 1.0452-2.3226 2.3226v9.929c0 1.2774 1.0452 2.3226 2.3226 2.3226h9.929c1.2774 0 2.3226-1.0452 2.3226-2.3226v-9.929c0-1.2774-1.0452-2.3226-2.3226-2.3226zm-9.929 12.252h9.929v-9.929h-9.929v9.929z" fill="#189EFF" mask="url(#e)"/>
<g transform="translate(38.915 3.572)" stroke-width="2">
<path d="m0.088056 1.436h46.997" stroke="#607182"/>
<path d="m0.088056 9.436h78.228" stroke="#A1ACB6"/>
<path d="m0.088056 26.436h23.084" stroke="#607182"/>
<path d="m0.088056 34.436h56.997" stroke="#A1ACB6"/>
<path d="m0.088056 51.436h39.997" stroke="#607182"/>
<path d="m0.088056 59.436h91.046" stroke="#A1ACB6"/>
<path d="m0.088056 75.436h28.997" stroke="#607182"/>
<path d="m0.088056 83.436h66.997" stroke="#A1ACB6"/>
</g>
</g>
<path d="m207.66 16.154c-1.022 0-1.764-0.406-2.128-0.658-0.098-0.07-0.182-0.196-0.112-0.336l0.294-0.602c0.07-0.14 0.252-0.182 0.42-0.084 0.378 0.21 0.84 0.476 1.61 0.476 0.546 0 0.854-0.266 0.854-0.63 0-0.434-0.49-0.714-1.386-1.12-0.994-0.448-1.75-0.98-1.75-2.044 0-0.812 0.574-1.764 2.142-1.764 0.896 0 1.568 0.266 1.89 0.476 0.154 0.112 0.224 0.308 0.14 0.476l-0.224 0.448c-0.098 0.196-0.294 0.182-0.42 0.126-0.448-0.196-0.882-0.322-1.386-0.322-0.56 0-0.826 0.28-0.826 0.574 0 0.42 0.462 0.672 1.106 0.952 1.19 0.504 2.086 0.938 2.086 2.142 0 1.008-0.868 1.89-2.31 1.89zm4.2835-1.932v-3.5h-0.742c-0.182 0-0.308-0.154-0.308-0.308v-0.574c0-0.182 0.126-0.308 0.308-0.308h0.742v-1.806c0-0.168 0.14-0.308 0.308-0.308h0.798c0.168 0 0.294 0.14 0.294 0.308v1.806h1.708c0.168 0 0.308 0.126 0.308 0.308v0.574c0 0.154-0.14 0.308-0.308 0.308h-1.708v3.444c0 0.546 0.21 0.658 0.518 0.658 0.406 0 0.798-0.168 1.036-0.308 0.196-0.112 0.322 0 0.378 0.14l0.252 0.658c0.07 0.168 0 0.28-0.154 0.378-0.266 0.168-1.022 0.462-1.792 0.462-1.288 0-1.638-0.784-1.638-1.932zm6.5096 1.554l-2.226-5.824c-0.084-0.224 0.028-0.42 0.28-0.42h0.924c0.098 0 0.238 0.07 0.28 0.182l1.498 4.438h0.028l1.82-4.438c0.056-0.154 0.182-0.182 0.336-0.182h0.868c0.266 0 0.378 0.196 0.28 0.42l-3.948 9.184c-0.056 0.098-0.14 0.196-0.266 0.196h-0.896c-0.238 0-0.392-0.21-0.28-0.434l1.302-3.122zm5.4876-0.084v-9.184c0-0.154 0.14-0.308 0.308-0.308h0.784c0.154 0 0.308 0.154 0.308 0.308v9.184c0 0.168-0.154 0.308-0.308 0.308h-0.784c-0.168 0-0.308-0.14-0.308-0.308zm3.0656-2.926c0-1.82 1.274-3.374 3.22-3.374 1.68 0 2.954 1.246 2.954 2.968 0 0.112-0.014 0.336-0.028 0.448-0.014 0.168-0.154 0.28-0.294 0.28h-4.466c0.014 0.868 0.798 1.764 1.932 1.764 0.742 0 1.19-0.266 1.582-0.546 0.14-0.098 0.266-0.14 0.378 0.028l0.378 0.588c0.112 0.14 0.168 0.266-0.028 0.434-0.462 0.406-1.316 0.798-2.394 0.798-1.96 0-3.234-1.54-3.234-3.388zm1.456-0.714h3.332c-0.028-0.784-0.644-1.47-1.596-1.47-1.022 0-1.638 0.658-1.736 1.47zm9.9531 2.17v-3.5h-0.742c-0.182 0-0.308-0.154-0.308-0.308v-0.574c0-0.182 0.126-0.308 0.308-0.308h0.742v-1.806c0-0.168 0.14-0.308 0.308-0.308h0.798c0.168 0 0.294 0.14 0.294 0.308v1.806h1.708c0.168 0 0.308 0.126 0.308 0.308v0.574c0 0.154-0.14 0.308-0.308 0.308h-1.708v3.444c0 0.546 0.21 0.658 0.518 0.658 0.406 0 0.798-0.168 1.036-0.308 0.196-0.112 0.322 0 0.378 0.14l0.252 0.658c0.07 0.168 0 0.28-0.154 0.378-0.266 0.168-1.022 0.462-1.792 0.462-1.288 0-1.638-0.784-1.638-1.932zm4.9416 1.47v-5.852c0-0.154 0.14-0.308 0.308-0.308h0.784c0.154 0 0.308 0.154 0.308 0.308v5.852c0 0.168-0.154 0.308-0.308 0.308h-0.784c-0.168 0-0.308-0.14-0.308-0.308zm0.7-7.546c-0.518 0-0.924-0.42-0.924-0.938 0-0.532 0.406-0.952 0.924-0.952 0.532 0 0.952 0.42 0.952 0.952 0 0.518-0.42 0.938-0.952 0.938zm2.7576 7.546v-9.184c0-0.154 0.14-0.308 0.308-0.308h0.784c0.154 0 0.308 0.154 0.308 0.308v9.184c0 0.168-0.154 0.308-0.308 0.308h-0.784c-0.168 0-0.308-0.14-0.308-0.308zm3.0655-2.926c0-1.82 1.274-3.374 3.22-3.374 1.68 0 2.954 1.246 2.954 2.968 0 0.112-0.014 0.336-0.028 0.448-0.014 0.168-0.154 0.28-0.294 0.28h-4.466c0.014 0.868 0.798 1.764 1.932 1.764 0.742 0 1.19-0.266 1.582-0.546 0.14-0.098 0.266-0.14 0.378 0.028l0.378 0.588c0.112 0.14 0.168 0.266-0.028 0.434-0.462 0.406-1.316 0.798-2.394 0.798-1.96 0-3.234-1.54-3.234-3.388zm1.456-0.714h3.332c-0.028-0.784-0.644-1.47-1.596-1.47-1.022 0-1.638 0.658-1.736 1.47z" fill="#607182"/>
<g transform="translate(30 35)" fill="#fff" fill-rule="nonzero">
<path d="m9.5056 10.58c-0.51496-0.38966-1.2747-0.67767-2.0852-0.9911-0.96238-0.37272-2.0429-0.7878-2.8618-1.4316-0.92861-0.7285-1.376-1.6518-1.376-2.8208 0-1.0419 0.43898-1.9398 1.2663-2.5836 0.92861-0.7285 2.33-1.1097 4.069-1.1097 0.48119 0 0.93706 0.025413 1.3592 0.084709 0.033768 0.0084709 0.075977-0.016942 0.092861-0.050826s0.0084419-0.076238-0.016884-0.10165c-1.089-0.97416-2.4988-1.5078-3.9677-1.5078-1.5871 0-3.0813 0.60991-4.2041 1.7281-1.1397 1.1182-1.7559 2.6006-1.7559 4.1762 0 1.5756 0.61626 3.058 1.739 4.1677 1.1228 1.1182 2.617 1.7281 4.2041 1.7281 1.2832 0 2.5073-0.39813 3.5372-1.152 0.025326-0.016942 0.033768-0.042355 0.033768-0.067767 0-0.025413-0.008442-0.050826-0.033768-0.067767z"/>
<path d="m11.886 5.4299c0-0.025413-0.016884-0.042355-0.033768-0.059296-1.241-1.025-2.2456-1.4401-3.4612-1.4401-0.65003 0-1.1481 0.12706-1.4858 0.38119-0.28703 0.22024-0.43898 0.5252-0.43898 0.88945 0 1.0165 1.2494 1.4739 2.693 2.0076 0.74289 0.27954 1.5111 0.55908 2.2202 0.94874 0.0084419 0.0084709 0.025326 0.0084709 0.04221 0.0084709 0.008442 0 0.016884 0 0.025326-0.0084709 0.025326-0.0084709 0.04221-0.025413 0.050652-0.050825 0.27014-0.68614 0.40521-1.4062 0.40521-2.1516 0.0084419-0.16095 0-0.33884-0.016884-0.5252z"/>
</g>
</g>
</g>
</g>
</g>
</svg>
