<?xml version="1.0" encoding="utf-8"?>
<!-- Generator: Adobe Illustrator 22.0.1, SVG Export Plug-In . SVG Version: 6.00 Build 0)  -->
<svg version="1.1" id="Ebene_1" xmlns="http://www.w3.org/2000/svg" xmlns:xlink="http://www.w3.org/1999/xlink" x="0px" y="0px"
	 viewBox="0 0 283.5 251.3" style="enable-background:new 0 0 283.5 251.3;" xml:space="preserve">
<style type="text/css">
	.st0{fill:#FFFFFF;}
</style>
<g>
	<g id="XMLID_237_">
		<path id="XMLID_239_" class="st0" d="M183.6,146.9c-6.1-4.6-15.1-8-24.7-11.7c-11.4-4.4-24.2-9.3-33.9-16.9
			c-11-8.6-16.3-19.5-16.3-33.3c0-12.3,5.2-22.9,15-30.5c11-8.6,27.6-13.1,48.2-13.1c5.7,0,11.1,0.3,16.1,1c0.4,0.1,0.9-0.2,1.1-0.6
			c0.2-0.4,0.1-0.9-0.2-1.2c-12.9-11.5-29.6-17.8-47-17.8c-18.8,0-36.5,7.2-49.8,20.4C78.6,56.4,71.3,73.9,71.3,92.5
			s7.3,36.1,20.6,49.2c13.3,13.2,31,20.4,49.8,20.4c15.2,0,29.7-4.7,41.9-13.6c0.3-0.2,0.4-0.5,0.4-0.8
			C184,147.4,183.9,147.1,183.6,146.9z"/>
		<path id="XMLID_238_" class="st0" d="M211.8,86.1c0-0.3-0.2-0.5-0.4-0.7c-14.7-12.1-26.6-17-41-17c-7.7,0-13.6,1.5-17.6,4.5
			c-3.4,2.6-5.2,6.2-5.2,10.5c0,12,14.8,17.4,31.9,23.7c8.8,3.3,17.9,6.6,26.3,11.2c0.1,0.1,0.3,0.1,0.5,0.1c0.1,0,0.2,0,0.3-0.1
			c0.3-0.1,0.5-0.3,0.6-0.6c3.2-8.1,4.8-16.6,4.8-25.4C212.1,90.4,212,88.3,211.8,86.1z"/>
	</g>
	<g id="XMLID_122_">
		<path id="XMLID_235_" class="st0" d="M79.2,195.4c-0.4-0.7,0-1.4,0.9-1.4h3.3c0.6,0,0.9,0.3,1.1,0.7l6.6,15h0.1l6.9-15
			c0.3-0.7,1-0.7,1.7-0.7h2.4c0.9,0,1.3,0.6,0.9,1.4l-10.7,23c-0.2,0.3-0.5,0.6-1,0.6H91c-0.5,0-0.9-0.3-1.1-0.6L79.2,195.4z"/>
		<path id="XMLID_233_" class="st0" d="M130.9,185.2c0-0.6,0.5-1.2,1.2-1.2h3c0.6,0,1.2,0.6,1.2,1.2v32.7c0,0.6-0.6,1.2-1.2,1.2h-3
			c-0.6,0-1.2-0.5-1.2-1.2V185.2z"/>
		<path id="XMLID_230_" class="st0" d="M66.9,193.5c-7.4,0-12.3,5.9-12.3,12.7c0,7,4.9,12.8,12.4,12.8c4.1,0,7.4-1.5,9.1-3
			c0.7-0.6,0.5-1.1,0.1-1.6l-1.4-2.2c-0.4-0.6-0.9-0.5-1.4-0.1c-1.5,1.1-3.2,2.1-6,2.1c-4.3,0-7.3-3.4-7.4-6.7h17.1
			c0.5,0,1.1-0.4,1.1-1.1c0.1-0.4,0.1-1.3,0.1-1.7C78.1,198.2,73.3,193.5,66.9,193.5z M60.1,203.5c0.4-3.1,2.7-5.6,6.6-5.6
			c3.6,0,6,2.6,6.1,5.6H60.1z"/>
		<path id="XMLID_227_" class="st0" d="M116.1,193.5c-7.4,0-12.3,5.9-12.3,12.7c0,7,4.9,12.8,12.4,12.8c4.1,0,7.4-1.5,9.1-3
			c0.7-0.6,0.5-1.1,0.1-1.6l-1.4-2.2c-0.4-0.6-0.9-0.5-1.4-0.1c-1.5,1.1-3.2,2.1-6,2.1c-4.3,0-7.3-3.4-7.4-6.7h17.1
			c0.5,0,1.1-0.4,1.1-1.1c0.1-0.4,0.1-1.3,0.1-1.7C127.4,198.2,122.5,193.5,116.1,193.5z M109.3,203.5c0.4-3.1,2.7-5.6,6.6-5.6
			c3.6,0,6,2.6,6.1,5.6H109.3z"/>
		<path id="XMLID_224_" class="st0" d="M204.6,193.5c-7.4,0-12.3,5.9-12.3,12.7c0,7,4.9,12.8,12.4,12.8c4.1,0,7.4-1.5,9.1-3
			c0.7-0.6,0.5-1.1,0.1-1.6l-1.4-2.2c-0.4-0.6-0.9-0.5-1.4-0.1c-1.5,1.1-3.2,2.1-6,2.1c-4.3,0-7.3-3.4-7.4-6.7h17.1
			c0.5,0,1.1-0.4,1.1-1.1c0.1-0.4,0.1-1.3,0.1-1.7C215.8,198.2,211,193.5,204.6,193.5z M197.8,203.5c0.4-3.1,2.7-5.6,6.6-5.6
			c3.6,0,6,2.6,6.1,5.6H197.8z"/>
		<path id="XMLID_223_" class="st0" d="M231.5,193.8c-0.1,0-0.3,0-0.4,0c-0.2,0-0.4,0-0.7,0c-1.3,0-2.5,0-3.7,0.1l0,0
			c-2.2,0.1-3.5,0.3-4.5,0.4c0,0-0.6,0.1-1.3,0.1c-0.5,0.1-0.8,0.3-1,0.5c-0.1,0.2-0.2,0.3-0.2,0.6v0.1v0.5v1.8v4.9v15.1
			c0,0.6,0.5,1.2,1.2,1.2h2.5c1,0,1.7-0.1,1.7-1.2v-15.1l0,0v-3.5c0-0.1,0.2-0.3,0.4-0.4c0.6-0.4,2.1-0.6,5-0.6c0.3,0,0.5,0,0.7,0
			c0.7,0.1,1.7,0.3,2.1,0.5c0.5,0.3,1.2,0.1,1.5-0.6l1.3-2.1C236.7,194.4,233.8,193.8,231.5,193.8z"/>
		<path id="XMLID_181_" class="st0" d="M189.3,205.3c-0.3-8.3-3.8-11.8-11.9-11.8c-3.9,0-8.5,1.2-9.2,1.4c-0.8,0.4-1.5,0.8-1.5,1.4
			v0.5v1.8v5.7v0.8v22.3c0,0.6,0.5,1.2,1.2,1.2h2.5c0.8,0,1.3-0.5,1.3-1.2v-8.8c0.8,0.2,4.6,0.5,7.8,0.4c5.7-0.2,9.6-4.3,9.9-11.2
			c0-0.9,0-2.3,0-3.1L189.3,205.3z M184.2,207.8c-0.1,4.7-1.5,6.8-5.5,7c-2,0.1-6.7-0.4-6.7-0.4c-0.2-0.1-0.3-0.1-0.3-0.3v-9.5v-5.4
			c0-0.1,0.1-0.3,0.3-0.3c0.6-0.1,2.6-0.7,5.5-0.7c4.9,0,6.6,0.7,6.8,6.8C184.2,205.7,184.2,206.9,184.2,207.8z"/>
		<path id="XMLID_178_" class="st0" d="M28.5,207.2c0.3,8.3,3.8,11.8,11.9,11.8c3.9,0,8.7-1.2,9.4-1.4c0.8-0.4,1.5-0.8,1.5-1.4
			v-31.1c0-0.6-0.5-1.2-1.2-1.2h-2.7c-0.8,0-1.3,0.5-1.3,1.2v9.3c-0.8-0.2-4.6-0.5-7.8-0.4c-5.7,0.2-9.6,3.8-9.9,10.7
			c0,0.9,0,2.3,0,3.1L28.5,207.2z M33.7,204.7c0.1-4.7,1.5-6.3,5.5-6.5c2-0.1,6.7,0.4,6.7,0.4c0.2,0.1,0.3,0.1,0.3,0.3v9v5.4
			c0,0.1-0.1,0.2-0.3,0.3c-0.8,0.2-2.6,0.7-5.5,0.7c-4.9,0-6.6-0.7-6.8-6.8C33.7,206.7,33.7,205.6,33.7,204.7z"/>
		<g id="XMLID_176_">
			<path id="XMLID_177_" class="st0" d="M247,203.8c-2.5-1.1-4.5-2-4.5-3.6c0-1.1,1.3-2.2,3.4-2.2c1.9,0,3.6,0.5,5.3,1.2
				c0.5,0.2,1.2,0.3,1.6-0.5l0.9-1.7c0.3-0.6,0.1-1.4-0.5-1.8c-1.2-0.8-3.8-1.8-7.2-1.8c-6,0-8.4,3.6-8.4,6.7c0,4,3.1,6,6.9,7.7
				c3.4,1.5,5.3,2.6,5.3,4.2c0,1.4-1.2,2.4-3.3,2.4c-2.9,0-4.7-1-6.1-1.8c-0.6-0.4-1.3-0.2-1.6,0.3l-1.1,2.3c-0.3,0.5,0.1,1,0.4,1.3
				c1.4,1,4.2,2.5,8.1,2.5c5.5,0,8.8-3.3,8.8-7.1C255,207.3,251.6,205.7,247,203.8z"/>
		</g>
		<path id="XMLID_123_" class="st0" d="M162.5,201c-0.6-1.6-1.3-2.9-2.3-4s-2.2-2-3.6-2.6c-1.4-0.6-3.4-0.9-5-0.9s-3.6,0.3-5,0.9
			c-1.4,0.6-2.6,1.5-3.6,2.6s-1.8,2.5-2.3,4c-0.6,1.6-0.8,3.3-0.8,5.2s0.3,3.7,0.8,5.2c0.6,1.6,1.3,2.9,2.3,4s2.2,2,3.6,2.6
			c1.4,0.6,3.4,0.9,5,0.9s3.6-0.3,5-0.9c1.4-0.6,2.6-1.5,3.6-2.6s1.8-2.5,2.3-4c0.6-1.6,0.8-3.3,0.8-5.2S163.1,202.6,162.5,201z
			 M151.4,214.8c-4.5,0-6.7-3.7-6.7-8.3s2.2-8.3,6.7-8.3s6.7,3.7,6.7,8.3C158.1,211.1,155.9,214.8,151.4,214.8z"/>
	</g>
</g>
</svg>
