<svg version="1.1" viewBox="0 0 88 115" xmlns="http://www.w3.org/2000/svg" xmlns:xlink="http://www.w3.org/1999/xlink">
<defs>
<linearGradient id="d" x1="50%" x2="50%" y1="3.9979%" y2="100%">
<stop stop-color="#fff" offset="0"/>
<stop stop-color="#F8F8FA" offset="1"/>
</linearGradient>
<rect id="a" width="56" height="34" rx="3"/>
<linearGradient id="c" x1="50%" x2="50%" y1="3.9979%" y2="100%">
<stop stop-color="#FA5D27" offset="0"/>
<stop stop-color="#D9400B" offset="1"/>
</linearGradient>
<linearGradient id="b" x1="50%" x2="50%" y1="3.9979%" y2="100%">
<stop stop-color="#5F7285" offset="0"/>
<stop stop-color="#3F4C58" offset="1"/>
</linearGradient>
</defs>
<g fill="none" fill-rule="evenodd">
<g transform="translate(-834 -1140)">
<g transform="translate(460 1006)">
<g transform="translate(374 134)">
<use fill="url(#d)" fill-rule="evenodd" xlink:href="#a"/>
<rect x=".5" y=".5" width="55" height="33" rx="3" stroke="#D2D2E0"/>
<path d="m13.078 12.434h2.666c1.2148 0 2.0967 0.17285 2.6455 0.51855 0.54883 0.3457 0.82324 0.8955 0.82324 1.6494 0 0.51172-0.12012 0.93164-0.36035 1.2598-0.24024 0.32813-0.55957 0.52539-0.95801 0.5918v0.058594c0.54297 0.12109 0.93457 0.34765 1.1748 0.67969 0.24024 0.33203 0.36035 0.77343 0.36035 1.3242 0 0.78125-0.28222 1.3906-0.84668 1.8281-0.56446 0.4375-1.331 0.65625-2.2998 0.65625h-3.2051v-8.5664zm1.8164 3.3926h1.0547c0.49219 0 0.84863-0.076171 1.0693-0.22852 0.2207-0.15234 0.33105-0.4043 0.33105-0.75586 0-0.32813-0.12012-0.56348-0.36035-0.70605-0.24024-0.14258-0.62011-0.21387-1.1396-0.21387h-0.95508v1.9043zm0 1.4414v2.2324h1.1836c0.5 0 0.86914-0.095702 1.1074-0.28711 0.23828-0.19141 0.35742-0.48437 0.35742-0.87891 0-0.71094-0.50781-1.0664-1.5234-1.0664h-1.125zm10.36 3.7324l-0.3457-0.89062h-0.046875c-0.30078 0.37891-0.61035 0.6416-0.92871 0.78809-0.31836 0.14649-0.7334 0.21973-1.2451 0.21973-0.62891 0-1.124-0.17969-1.4854-0.53906-0.36133-0.35938-0.54199-0.87109-0.54199-1.5352 0-0.69532 0.24316-1.208 0.72949-1.5381 0.48633-0.33008 1.2197-0.5127 2.2002-0.54785l1.1367-0.035156v-0.28711c0-0.66407-0.33984-0.99609-1.0195-0.99609-0.52344 0-1.1387 0.1582-1.8457 0.47461l-0.5918-1.207c0.75391-0.39453 1.5898-0.5918 2.5078-0.5918 0.87891 0 1.5527 0.1914 2.0215 0.57422 0.46875 0.38281 0.70312 0.96484 0.70312 1.7461v4.3652h-1.248zm-0.52734-3.0352l-0.69141 0.023437c-0.51953 0.015625-0.90625 0.10937-1.1602 0.28125-0.25391 0.17188-0.38086 0.43359-0.38086 0.78516 0 0.50391 0.28906 0.75586 0.86719 0.75586 0.41406 0 0.74512-0.11914 0.99316-0.35742s0.37207-0.55469 0.37207-0.94922v-0.53906zm8.2804 1.0898c0 0.67188-0.2334 1.1836-0.7002 1.5352-0.4668 0.35156-1.165 0.52734-2.0947 0.52734-0.47656 0-0.88281-0.032226-1.2188-0.09668-0.33594-0.064453-0.65039-0.15918-0.94336-0.28418v-1.4766c0.33203 0.15625 0.70605 0.28711 1.1221 0.39258 0.41602 0.10547 0.78222 0.1582 1.0986 0.1582 0.64844 0 0.97266-0.1875 0.97266-0.5625 0-0.14063-0.042968-0.25488-0.12891-0.34277-0.085938-0.087891-0.23437-0.1875-0.44531-0.29883-0.21094-0.11133-0.49219-0.24121-0.84375-0.38965-0.50391-0.21094-0.87402-0.40625-1.1104-0.58594s-0.4082-0.38574-0.51562-0.61816-0.16113-0.51855-0.16113-0.8584c0-0.58203 0.22558-1.0322 0.67676-1.3506 0.45117-0.31836 1.0908-0.47754 1.9189-0.47754 0.78907 0 1.5566 0.17187 2.3027 0.51562l-0.53906 1.2891c-0.32813-0.14063-0.63476-0.25586-0.91992-0.3457-0.28516-0.089844-0.57617-0.13477-0.87305-0.13477-0.52735 0-0.79102 0.14258-0.79102 0.42773 0 0.16016 0.08496 0.29883 0.25488 0.41602s0.54199 0.29101 1.1162 0.52148c0.51172 0.20703 0.88672 0.40039 1.125 0.58008 0.23828 0.17969 0.41406 0.38672 0.52734 0.62109 0.11328 0.23438 0.16992 0.51367 0.16992 0.83789zm1.4132-6.2988c0-0.58203 0.32422-0.87305 0.97266-0.87305 0.64844 0 0.97266 0.29101 0.97266 0.87305 0 0.27735-0.081054 0.49316-0.24316 0.64746-0.16211 0.1543-0.40527 0.23145-0.72949 0.23145-0.64844 0-0.97266-0.29297-0.97266-0.87891zm1.8633 8.2441h-1.7871v-6.5508h1.7871v6.5508zm4.63 0.11719c-2.0391 0-3.0586-1.1191-3.0586-3.3574 0-1.1133 0.27734-1.9639 0.83203-2.5518s1.3496-0.88184 2.3848-0.88184c0.75782 0 1.4375 0.14844 2.0391 0.44531l-0.52734 1.3828c-0.28125-0.11328-0.54297-0.20605-0.78516-0.27832-0.24219-0.072266-0.48437-0.1084-0.72656-0.1084-0.92969 0-1.3945 0.66015-1.3945 1.9805 0 1.2813 0.46484 1.9219 1.3945 1.9219 0.34375 0 0.66211-0.045898 0.95508-0.1377 0.29297-0.091797 0.58594-0.23535 0.87891-0.43066v1.5293c-0.28906 0.18359-0.58105 0.31055-0.87598 0.38086-0.29492 0.070313-0.66699 0.10547-1.1162 0.10547z" fill="#485E74"/>
<rect y="41" width="75" height="34" rx="3" fill="url(#c)"/>
<path d="m15.895 57.465h0.59766c0.5586 0 0.97656-0.11035 1.2539-0.33105 0.27735-0.2207 0.41602-0.54199 0.41602-0.96387 0-0.42578-0.11621-0.74023-0.34863-0.94336-0.23242-0.20313-0.59668-0.30469-1.0928-0.30469h-0.82617v2.543zm4.1016-1.3594c0 0.92188-0.28808 1.627-0.86426 2.1152-0.57617 0.48828-1.3955 0.73242-2.458 0.73242h-0.7793v3.0469h-1.8164v-8.5664h2.7363c1.0391 0 1.8291 0.22363 2.3701 0.6709 0.54102 0.44727 0.81152 1.1143 0.81152 2.001zm5.2276-0.7793c0.24219 0 0.44336 0.017578 0.60352 0.052734l-0.13477 1.6758c-0.14453-0.039063-0.32031-0.058594-0.52734-0.058594-0.57032 0-1.0146 0.14648-1.333 0.43945-0.31836 0.29297-0.47754 0.70312-0.47754 1.2305v3.334h-1.7871v-6.5508h1.3535l0.26367 1.1016h0.087891c0.20313-0.36719 0.47754-0.66308 0.82324-0.8877 0.3457-0.22461 0.72168-0.33691 1.1279-0.33691zm1.8116-1.5703c0-0.58203 0.32422-0.87305 0.97266-0.87305 0.64844 0 0.97266 0.29101 0.97266 0.87305 0 0.27735-0.081054 0.49316-0.24316 0.64746-0.16211 0.1543-0.40527 0.23145-0.72949 0.23145-0.64844 0-0.97266-0.29297-0.97266-0.87891zm1.8633 8.2441h-1.7871v-6.5508h1.7871v6.5508zm7.8351 0h-1.7871v-3.8262c0-0.47266-0.079101-0.82715-0.2373-1.0635-0.1582-0.23633-0.40722-0.35449-0.74707-0.35449-0.45703 0-0.78906 0.16797-0.99609 0.50391s-0.31055 0.88867-0.31055 1.6582v3.082h-1.7871v-6.5508h1.3652l0.24023 0.83789h0.099609c0.17578-0.30078 0.42969-0.53613 0.76172-0.70605s0.71289-0.25488 1.1426-0.25488c0.98047 0 1.6445 0.32031 1.9922 0.96094h0.1582c0.17578-0.30469 0.43457-0.54101 0.77637-0.70898 0.3418-0.16797 0.72754-0.25195 1.1572-0.25195 0.74219 0 1.3037 0.19043 1.6846 0.57129 0.38086 0.38086 0.57129 0.99121 0.57129 1.8311v4.2715h-1.793v-3.8262c0-0.47266-0.079101-0.82715-0.2373-1.0635-0.1582-0.23633-0.40722-0.35449-0.74707-0.35449-0.4375 0-0.76465 0.15625-0.98145 0.46875-0.2168 0.3125-0.3252 0.80859-0.3252 1.4883v3.2871zm10.173 0l-0.3457-0.89062h-0.046875c-0.30078 0.37891-0.61035 0.6416-0.92871 0.78809-0.31836 0.14649-0.7334 0.21973-1.2451 0.21973-0.62891 0-1.124-0.17969-1.4854-0.53906s-0.54199-0.87109-0.54199-1.5352c0-0.69532 0.24316-1.208 0.72949-1.5381 0.48633-0.33008 1.2197-0.5127 2.2002-0.54785l1.1367-0.035156v-0.28711c0-0.66407-0.33984-0.99609-1.0195-0.99609-0.52344 0-1.1387 0.1582-1.8457 0.47461l-0.5918-1.207c0.75391-0.39453 1.5898-0.5918 2.5078-0.5918 0.87891 0 1.5527 0.1914 2.0215 0.57422s0.70312 0.96484 0.70312 1.7461v4.3652h-1.248zm-0.52734-3.0352l-0.69141 0.023437c-0.51953 0.015625-0.90625 0.10937-1.1602 0.28125-0.25391 0.17188-0.38086 0.43359-0.38086 0.78516 0 0.50391 0.28906 0.75586 0.86719 0.75586 0.41406 0 0.74512-0.11914 0.99316-0.35742 0.24805-0.23828 0.37207-0.55469 0.37207-0.94922v-0.53906zm7.3663-3.6387c0.24219 0 0.44336 0.017578 0.60352 0.052734l-0.13477 1.6758c-0.14453-0.039063-0.32031-0.058594-0.52734-0.058594-0.57032 0-1.0146 0.14648-1.333 0.43945-0.31836 0.29297-0.47754 0.70312-0.47754 1.2305v3.334h-1.7871v-6.5508h1.3535l0.26367 1.1016h0.087891c0.20313-0.36719 0.47754-0.66308 0.82324-0.8877 0.3457-0.22461 0.72168-0.33691 1.1279-0.33691zm0.9503 0.12305h1.957l1.2363 3.6855c0.10547 0.32031 0.17773 0.69922 0.2168 1.1367h0.035156c0.042969-0.40235 0.12695-0.78125 0.25195-1.1367l1.2129-3.6855h1.916l-2.7715 7.3887c-0.25391 0.6836-0.61621 1.1953-1.0869 1.5352-0.47071 0.33985-1.0205 0.50977-1.6494 0.50977-0.3086 0-0.61133-0.033203-0.9082-0.099609v-1.418c0.21484 0.050782 0.44922 0.076172 0.70312 0.076172 0.31641 0 0.59277-0.096679 0.8291-0.29004 0.23633-0.19336 0.4209-0.48535 0.55371-0.87598l0.10547-0.32227-2.6016-6.5039z" fill="#fff"/>
<rect y="81" width="88" height="34" rx="3" fill="url(#b)"/>
<path d="m19.135 99.621c0 0.77344-0.27832 1.3828-0.83496 1.8281-0.55664 0.44531-1.331 0.66797-2.3232 0.66797-0.91407 0-1.7227-0.17187-2.4258-0.51563v-1.6875c0.57813 0.25781 1.0674 0.43945 1.4678 0.54492 0.40039 0.10547 0.7666 0.1582 1.0986 0.1582 0.39844 0 0.7041-0.076172 0.91699-0.22852 0.21289-0.15234 0.31934-0.3789 0.31934-0.67969 0-0.16797-0.046874-0.31738-0.14062-0.44824-0.09375-0.13086-0.23144-0.25684-0.41309-0.37793s-0.55176-0.31445-1.1104-0.58008c-0.52344-0.2461-0.91601-0.48242-1.1777-0.70898-0.26172-0.22656-0.4707-0.49023-0.62695-0.79102-0.15625-0.30078-0.23438-0.65234-0.23438-1.0547 0-0.75782 0.25683-1.3535 0.77051-1.7871 0.51367-0.4336 1.2236-0.65039 2.1299-0.65039 0.44531 0 0.87012 0.052734 1.2744 0.1582s0.82715 0.25391 1.2686 0.44531l-0.58594 1.4121c-0.45703-0.1875-0.83496-0.31836-1.1338-0.39258-0.29883-0.074219-0.59277-0.11133-0.88184-0.11133-0.34375 0-0.60742 0.080077-0.79102 0.24023-0.18359 0.16016-0.27539 0.36914-0.27539 0.62695 0 0.16016 0.037109 0.2998 0.11133 0.41895 0.074219 0.11914 0.19238 0.23437 0.35449 0.3457 0.16211 0.11133 0.5459 0.31152 1.1514 0.60059 0.80079 0.38281 1.3496 0.7666 1.6465 1.1514 0.29688 0.38477 0.44531 0.85644 0.44531 1.415zm4.2198-3.0234c-0.37891 0-0.67578 0.12012-0.89062 0.36035s-0.33789 0.58105-0.36914 1.0225h2.5078c-0.0078125-0.44141-0.12305-0.78223-0.3457-1.0225-0.22266-0.24024-0.52344-0.36035-0.90234-0.36035zm0.25195 5.5195c-1.0547 0-1.8789-0.29101-2.4727-0.87305-0.59375-0.58204-0.89062-1.4062-0.89062-2.4727 0-1.0977 0.27441-1.9463 0.82324-2.5459 0.54883-0.59961 1.3076-0.89941 2.2764-0.89941 0.92579 0 1.6465 0.26367 2.1621 0.79102 0.51563 0.52735 0.77344 1.2559 0.77344 2.1855v0.86719h-4.2246c0.019531 0.50782 0.16992 0.9043 0.45117 1.1895s0.67578 0.42773 1.1836 0.42773c0.39453 0 0.76758-0.041015 1.1191-0.12305 0.35156-0.082031 0.71875-0.21289 1.1016-0.39258v1.3828c-0.3125 0.15625-0.64648 0.27246-1.002 0.34863-0.35547 0.076172-0.78906 0.11426-1.3008 0.11426zm6.88 0c-2.0391 0-3.0586-1.1191-3.0586-3.3574 0-1.1133 0.27734-1.9639 0.83203-2.5518s1.3496-0.88184 2.3848-0.88184c0.75782 0 1.4375 0.14844 2.0391 0.44531l-0.52734 1.3828c-0.28125-0.11328-0.54297-0.20605-0.78516-0.27832-0.24219-0.072266-0.48437-0.1084-0.72656-0.1084-0.92969 0-1.3945 0.66015-1.3945 1.9805 0 1.2813 0.46484 1.9219 1.3945 1.9219 0.34375 0 0.66211-0.045898 0.95508-0.1377 0.29297-0.091798 0.58594-0.23535 0.87891-0.43066v1.5293c-0.28906 0.1836-0.58105 0.31055-0.87598 0.38086-0.29492 0.070313-0.66699 0.10547-1.1162 0.10547zm5.0284-3.4043c0 0.64844 0.10644 1.1387 0.31934 1.4707 0.21289 0.33203 0.55957 0.49805 1.04 0.49805 0.47656 0 0.81933-0.16504 1.0283-0.49512 0.20899-0.33008 0.31348-0.82129 0.31348-1.4736 0-0.64844-0.10547-1.1348-0.31641-1.459-0.21094-0.32422-0.55664-0.48633-1.0371-0.48633-0.47656 0-0.82031 0.16113-1.0312 0.4834-0.21094 0.32227-0.31641 0.80957-0.31641 1.4619zm4.5293 0c0 1.0664-0.28125 1.9004-0.84375 2.502-0.5625 0.60156-1.3457 0.90234-2.3496 0.90234-0.62891 0-1.1836-0.13769-1.6641-0.41309-0.48047-0.27539-0.84961-0.6709-1.1074-1.1865-0.25781-0.51563-0.38672-1.1172-0.38672-1.8047 0-1.0703 0.27929-1.9023 0.83789-2.4961 0.5586-0.59375 1.3437-0.89062 2.3555-0.89062 0.62891 0 1.1836 0.13672 1.6641 0.41016 0.48047 0.27344 0.84961 0.66601 1.1074 1.1777 0.25781 0.51172 0.38672 1.1113 0.38672 1.7988zm7.6183 3.2871h-1.7871v-3.8262c0-0.47266-0.083984-0.82715-0.25195-1.0635s-0.43554-0.35449-0.80273-0.35449c-0.5 0-0.86133 0.16699-1.084 0.50098-0.22266 0.33399-0.33398 0.88769-0.33398 1.6611v3.082h-1.7871v-6.5508h1.3652l0.24023 0.83789h0.099609c0.19922-0.31641 0.47363-0.55566 0.82324-0.71777 0.34961-0.16211 0.74707-0.24316 1.1924-0.24316 0.76172 0 1.3398 0.20605 1.7344 0.61816 0.39453 0.41211 0.5918 1.0068 0.5918 1.7842v4.2715zm4.0089 0.11719c-0.76954 0-1.374-0.29883-1.8135-0.89648s-0.65918-1.4258-0.65918-2.4844c0-1.0742 0.22363-1.9111 0.6709-2.5107 0.44727-0.59961 1.0635-0.89941 1.8486-0.89941 0.82422 0 1.4531 0.32031 1.8867 0.96094h0.058594c-0.089844-0.48828-0.13477-0.92383-0.13477-1.3066v-2.0977h1.793v9.1172h-1.3711l-0.3457-0.84961h-0.076172c-0.40625 0.64453-1.0254 0.9668-1.8574 0.9668zm0.62695-1.4238c0.45703 0 0.79199-0.13281 1.0049-0.39844s0.3291-0.71679 0.34863-1.3535v-0.19336c0-0.70313-0.1084-1.207-0.3252-1.5117-0.2168-0.30469-0.56933-0.45703-1.0576-0.45703-0.39844 0-0.70801 0.16894-0.92871 0.50684s-0.33105 0.8291-0.33105 1.4736c0 0.64453 0.11133 1.1279 0.33398 1.4502 0.22266 0.32227 0.54101 0.4834 0.95508 0.4834zm9.1476 1.3066l-0.3457-0.89062h-0.046875c-0.30078 0.37891-0.61035 0.6416-0.92871 0.78809s-0.7334 0.21973-1.2451 0.21973c-0.62891 0-1.124-0.17969-1.4854-0.53906-0.36133-0.35938-0.54199-0.87109-0.54199-1.5352 0-0.69532 0.24316-1.208 0.72949-1.5381 0.48633-0.33008 1.2197-0.5127 2.2002-0.54785l1.1367-0.035156v-0.28711c0-0.66407-0.33984-0.99609-1.0195-0.99609-0.52344 0-1.1387 0.1582-1.8457 0.47461l-0.5918-1.207c0.75391-0.39453 1.5898-0.5918 2.5078-0.5918 0.87891 0 1.5527 0.1914 2.0215 0.57422 0.46875 0.38281 0.70312 0.96484 0.70312 1.7461v4.3652h-1.248zm-0.52734-3.0352l-0.69141 0.023437c-0.51953 0.015625-0.90625 0.10937-1.1602 0.28125-0.25391 0.17188-0.38086 0.43359-0.38086 0.78516 0 0.50391 0.28906 0.75586 0.86719 0.75586 0.41406 0 0.74512-0.11914 0.99316-0.35742s0.37207-0.55469 0.37207-0.94922v-0.53906zm7.3663-3.6387c0.24219 0 0.44336 0.017578 0.60352 0.052734l-0.13477 1.6758c-0.14453-0.039063-0.32031-0.058594-0.52734-0.058594-0.57032 0-1.0146 0.14648-1.333 0.43945-0.31836 0.29297-0.47754 0.70312-0.47754 1.2305v3.334h-1.7871v-6.5508h1.3535l0.26367 1.1016h0.087891c0.20313-0.36719 0.47754-0.66308 0.82324-0.8877 0.3457-0.22461 0.72168-0.33691 1.1279-0.33691zm0.9503 0.12305h1.957l1.2363 3.6855c0.10547 0.32031 0.17773 0.69922 0.2168 1.1367h0.035156c0.042969-0.40235 0.12695-0.78125 0.25195-1.1367l1.2129-3.6855h1.916l-2.7715 7.3887c-0.25391 0.6836-0.61621 1.1953-1.0869 1.5352-0.47071 0.33984-1.0205 0.50976-1.6494 0.50976-0.3086 0-0.61133-0.033202-0.9082-0.099609v-1.418c0.21484 0.050782 0.44922 0.076172 0.70312 0.076172 0.31641 0 0.59277-0.096678 0.8291-0.29004 0.23633-0.19336 0.4209-0.48535 0.55371-0.87598l0.10547-0.32227-2.6016-6.5039z" fill="#fff"/>
</g>
</g>
</g>
</g>
</svg>
