<svg version="1.1" viewBox="0 0 97 72" xmlns="http://www.w3.org/2000/svg">
<g fill="none" fill-rule="evenodd">
<g transform="translate(-833 -1287)">
<g transform="translate(460 1006)">
<g transform="translate(374 283)">
<path d="m10.546 15.824c0-0.728 0.602-1.344 1.33-1.344s1.344 0.616 1.344 1.344c0 0.714-0.616 1.33-1.344 1.33s-1.33-0.616-1.33-1.33zm4.1715 0.868v-9.184c0-0.154 0.154-0.308 0.308-0.308h1.134c0.168 0 0.308 0.154 0.308 0.308v3.164c0.294-0.126 0.938-0.28 1.582-0.28 1.918 0 3.136 1.484 3.136 3.374 0 1.848-1.274 3.388-3.038 3.388-1.414 0-2.156-0.966-2.156-0.966l-0.154 0.504c-0.07 0.182-0.168 0.308-0.322 0.308h-0.49c-0.154 0-0.308-0.14-0.308-0.308zm1.75-2.03c0.14 0.364 0.588 0.896 1.428 0.896 1.008 0 1.526-0.882 1.526-1.792s-0.546-1.778-1.61-1.778c-0.812 0-1.344 0.364-1.344 0.364v2.31zm6.5655 0.406v-2.968h-0.63c-0.168 0-0.294-0.154-0.294-0.308v-0.952c0-0.182 0.126-0.308 0.294-0.308h0.63v-1.792c0-0.168 0.154-0.308 0.308-0.308h1.148c0.168 0 0.294 0.14 0.294 0.308v1.792h1.512c0.168 0 0.308 0.126 0.308 0.308v0.952c0 0.154-0.14 0.308-0.308 0.308h-1.512v2.912c0 0.434 0.21 0.532 0.532 0.532 0.28 0 0.812-0.154 0.98-0.21 0.182-0.07 0.336 0.014 0.364 0.168l0.182 0.854c0.042 0.168-0.028 0.294-0.182 0.378-0.224 0.126-1.148 0.42-1.82 0.42-1.442 0-1.806-0.966-1.806-2.086zm5.0815 1.624v-5.852c0-0.182 0.154-0.308 0.308-0.308h0.532c0.154 0 0.224 0.07 0.266 0.196l0.238 0.602c0.238-0.266 0.84-0.938 2.086-0.938 2.058 0 2.59 1.386 2.59 2.954v3.346c0 0.168-0.154 0.308-0.308 0.308h-1.134c-0.168 0-0.308-0.14-0.308-0.308v-3.346c0-0.84-0.336-1.358-1.12-1.358-0.84 0-1.246 0.56-1.4 1.008v3.696c0 0.238-0.098 0.308-0.406 0.308h-1.036c-0.154 0-0.308-0.14-0.308-0.308zm-17.471 21.342c0-0.63 0.504-1.134 1.106-1.134 0.63 0 1.134 0.504 1.134 1.134 0 0.616-0.504 1.12-1.134 1.12-0.602 0-1.106-0.504-1.106-1.12zm3.9195 0.658v-5.852c0-0.154 0.14-0.308 0.308-0.308h0.784c0.154 0 0.308 0.154 0.308 0.308v5.852c0 0.168-0.154 0.308-0.308 0.308h-0.784c-0.168 0-0.308-0.14-0.308-0.308zm0.7-7.546c-0.518 0-0.924-0.42-0.924-0.938 0-0.532 0.406-0.952 0.924-0.952 0.532 0 0.952 0.42 0.952 0.952 0 0.518-0.42 0.938-0.952 0.938zm4.5775 8.008c-1.022 0-1.764-0.406-2.128-0.658-0.098-0.07-0.182-0.196-0.112-0.336l0.294-0.602c0.07-0.14 0.252-0.182 0.42-0.084 0.378 0.21 0.84 0.476 1.61 0.476 0.546 0 0.854-0.266 0.854-0.63 0-0.434-0.49-0.714-1.386-1.12-0.994-0.448-1.75-0.98-1.75-2.044 0-0.812 0.574-1.764 2.142-1.764 0.896 0 1.568 0.266 1.89 0.476 0.154 0.112 0.224 0.308 0.14 0.476l-0.224 0.448c-0.098 0.196-0.294 0.182-0.42 0.126-0.448-0.196-0.882-0.322-1.386-0.322-0.56 0-0.826 0.28-0.826 0.574 0 0.42 0.462 0.672 1.106 0.952 1.19 0.504 2.086 0.938 2.086 2.142 0 1.008-0.868 1.89-2.31 1.89zm3.9895-3.038c-0.154 0-0.266-0.112-0.266-0.252v-0.602c0-0.154 0.112-0.266 0.266-0.266h3.024c0.154 0 0.266 0.112 0.266 0.266v0.602c0 0.14-0.112 0.252-0.266 0.252h-3.024zm5.3195 0c-0.154 0-0.266-0.112-0.266-0.252v-0.602c0-0.154 0.112-0.266 0.266-0.266h3.024c0.154 0 0.266 0.112 0.266 0.266v0.602c0 0.14-0.112 0.252-0.266 0.252h-3.024zm6.6075 2.59v3.318c0 0.182-0.126 0.308-0.336 0.308h-0.784c-0.168 0-0.308-0.14-0.308-0.308v-9.184c0-0.154 0.14-0.308 0.308-0.308h0.35c0.14 0 0.224 0.056 0.28 0.21l0.168 0.42c0.112-0.112 0.84-0.77 2.03-0.77 1.778 0 3.052 1.526 3.052 3.374 0 1.89-1.344 3.388-3.108 3.388-0.84 0-1.54-0.378-1.652-0.448zm-0.028-1.358s0.63 0.476 1.498 0.476c1.05 0 1.89-0.896 1.89-2.058 0-1.148-0.728-2.044-1.834-2.044-0.938 0-1.498 0.714-1.554 0.91v2.716zm6.4115 1.344v-5.852c0-0.154 0.14-0.308 0.308-0.308h0.336c0.126 0 0.252 0.098 0.28 0.224l0.182 0.588c0.112-0.168 0.784-0.952 1.96-0.952 0.616 0 1.386 0.168 1.176 0.602l-0.336 0.7c-0.084 0.182-0.252 0.224-0.392 0.154-0.098-0.056-0.392-0.126-0.588-0.126-0.952 0-1.47 0.756-1.526 0.868v4.102c0 0.28-0.182 0.308-0.448 0.308h-0.644c-0.168 0-0.308-0.14-0.308-0.308zm5.4595 0v-5.852c0-0.154 0.14-0.308 0.308-0.308h0.784c0.154 0 0.308 0.154 0.308 0.308v5.852c0 0.168-0.154 0.308-0.308 0.308h-0.784c-0.168 0-0.308-0.14-0.308-0.308zm0.7-7.546c-0.518 0-0.924-0.42-0.924-0.938 0-0.532 0.406-0.952 0.924-0.952 0.532 0 0.952 0.42 0.952 0.952 0 0.518-0.42 0.938-0.952 0.938zm2.7155 7.546v-5.852c0-0.154 0.14-0.308 0.308-0.308h0.322c0.154 0 0.238 0.07 0.28 0.196l0.182 0.56c0.14-0.154 0.826-0.896 2.058-0.896 0.938 0 1.498 0.364 1.974 1.022 0.182-0.182 0.952-1.022 2.184-1.022 1.974 0 2.464 1.372 2.464 3.052v3.248c0 0.168-0.126 0.308-0.308 0.308h-0.784c-0.196 0-0.308-0.14-0.308-0.308v-3.304c0-1.036-0.392-1.666-1.274-1.666-0.98 0-1.442 0.658-1.554 0.756 0.028 0.14 0.056 0.532 0.056 0.868v3.346c0 0.168-0.14 0.308-0.294 0.308h-0.798c-0.182 0-0.308-0.14-0.308-0.308v-3.304c0-1.05-0.378-1.666-1.274-1.666-0.966 0-1.456 0.714-1.526 0.938v4.032c0 0.168-0.154 0.308-0.308 0.308h-0.784c-0.168 0-0.308-0.14-0.308-0.308zm11.228-1.694c0-1.19 0.924-2.086 2.59-2.086 0.672 0 1.302 0.196 1.302 0.196 0.028-1.022-0.224-1.484-1.036-1.484-0.742 0-1.47 0.21-1.806 0.308-0.196 0.042-0.322-0.084-0.364-0.266l-0.126-0.532c-0.042-0.224 0.056-0.322 0.21-0.378 0.112-0.042 1.036-0.364 2.226-0.364 2.072 0 2.268 1.246 2.268 2.856v3.444c0 0.168-0.154 0.308-0.308 0.308h-0.462c-0.126 0-0.196-0.056-0.266-0.224l-0.154-0.434c-0.35 0.336-0.994 0.812-1.988 0.812-1.218 0-2.086-0.812-2.086-2.156zm1.372-0.014c0 0.574 0.336 1.022 1.008 1.022 0.644 0 1.302-0.462 1.498-0.784v-1.078c-0.084-0.056-0.588-0.224-1.176-0.224-0.756 0-1.33 0.392-1.33 1.064zm5.8515 1.708v-5.852c0-0.154 0.14-0.308 0.308-0.308h0.336c0.126 0 0.252 0.098 0.28 0.224l0.182 0.588c0.112-0.168 0.784-0.952 1.96-0.952 0.616 0 1.386 0.168 1.176 0.602l-0.336 0.7c-0.084 0.182-0.252 0.224-0.392 0.154-0.098-0.056-0.392-0.126-0.588-0.126-0.952 0-1.47 0.756-1.526 0.868v4.102c0 0.28-0.182 0.308-0.448 0.308h-0.644c-0.168 0-0.308-0.14-0.308-0.308zm7.0275 0.084l-2.226-5.824c-0.084-0.224 0.028-0.42 0.28-0.42h0.924c0.098 0 0.238 0.07 0.28 0.182l1.498 4.438h0.028l1.82-4.438c0.056-0.154 0.182-0.182 0.336-0.182h0.868c0.266 0 0.378 0.196 0.28 0.42l-3.948 9.184c-0.056 0.098-0.14 0.196-0.266 0.196h-0.896c-0.238 0-0.392-0.21-0.28-0.434l1.302-3.122zm-65.851 21.258c0-0.63 0.504-1.134 1.106-1.134 0.63 0 1.134 0.504 1.134 1.134 0 0.616-0.504 1.12-1.134 1.12-0.602 0-1.106-0.504-1.106-1.12zm3.9195 0.658v-5.852c0-0.154 0.14-0.308 0.308-0.308h0.784c0.154 0 0.308 0.154 0.308 0.308v5.852c0 0.168-0.154 0.308-0.308 0.308h-0.784c-0.168 0-0.308-0.14-0.308-0.308zm0.7-7.546c-0.518 0-0.924-0.42-0.924-0.938 0-0.532 0.406-0.952 0.924-0.952 0.532 0 0.952 0.42 0.952 0.952 0 0.518-0.42 0.938-0.952 0.938zm4.5775 8.008c-1.022 0-1.764-0.406-2.128-0.658-0.098-0.07-0.182-0.196-0.112-0.336l0.294-0.602c0.07-0.14 0.252-0.182 0.42-0.084 0.378 0.21 0.84 0.476 1.61 0.476 0.546 0 0.854-0.266 0.854-0.63 0-0.434-0.49-0.714-1.386-1.12-0.994-0.448-1.75-0.98-1.75-2.044 0-0.812 0.574-1.764 2.142-1.764 0.896 0 1.568 0.266 1.89 0.476 0.154 0.112 0.224 0.308 0.14 0.476l-0.224 0.448c-0.098 0.196-0.294 0.182-0.42 0.126-0.448-0.196-0.882-0.322-1.386-0.322-0.56 0-0.826 0.28-0.826 0.574 0 0.42 0.462 0.672 1.106 0.952 1.19 0.504 2.086 0.938 2.086 2.142 0 1.008-0.868 1.89-2.31 1.89zm3.9895-3.038c-0.154 0-0.266-0.112-0.266-0.252v-0.602c0-0.154 0.112-0.266 0.266-0.266h3.024c0.154 0 0.266 0.112 0.266 0.266v0.602c0 0.14-0.112 0.252-0.266 0.252h-3.024zm5.3195 0c-0.154 0-0.266-0.112-0.266-0.252v-0.602c0-0.154 0.112-0.266 0.266-0.266h3.024c0.154 0 0.266 0.112 0.266 0.266v0.602c0 0.14-0.112 0.252-0.266 0.252h-3.024zm7.0415 3.038c-1.022 0-1.764-0.406-2.128-0.658-0.098-0.07-0.182-0.196-0.112-0.336l0.294-0.602c0.07-0.14 0.252-0.182 0.42-0.084 0.378 0.21 0.84 0.476 1.61 0.476 0.546 0 0.854-0.266 0.854-0.63 0-0.434-0.49-0.714-1.386-1.12-0.994-0.448-1.75-0.98-1.75-2.044 0-0.812 0.574-1.764 2.142-1.764 0.896 0 1.568 0.266 1.89 0.476 0.154 0.112 0.224 0.308 0.14 0.476l-0.224 0.448c-0.098 0.196-0.294 0.182-0.42 0.126-0.448-0.196-0.882-0.322-1.386-0.322-0.56 0-0.826 0.28-0.826 0.574 0 0.42 0.462 0.672 1.106 0.952 1.19 0.504 2.086 0.938 2.086 2.142 0 1.008-0.868 1.89-2.31 1.89zm3.4575-3.388c0-1.82 1.274-3.374 3.22-3.374 1.68 0 2.954 1.246 2.954 2.968 0 0.112-0.014 0.336-0.028 0.448-0.014 0.168-0.154 0.28-0.294 0.28h-4.466c0.014 0.868 0.798 1.764 1.932 1.764 0.742 0 1.19-0.266 1.582-0.546 0.14-0.098 0.266-0.14 0.378 0.028l0.378 0.588c0.112 0.14 0.168 0.266-0.028 0.434-0.462 0.406-1.316 0.798-2.394 0.798-1.96 0-3.234-1.54-3.234-3.388zm1.456-0.714h3.332c-0.028-0.784-0.644-1.47-1.596-1.47-1.022 0-1.638 0.658-1.736 1.47zm5.8375 0.728c0-1.904 1.526-3.388 3.318-3.388 1.008 0 1.75 0.378 2.352 1.12 0.126 0.154 0.084 0.336-0.056 0.462l-0.504 0.462c-0.182 0.168-0.308 0.042-0.42-0.07-0.294-0.322-0.812-0.644-1.33-0.644-1.106 0-1.96 0.896-1.96 2.044 0 1.162 0.84 2.058 1.918 2.058 0.84 0 1.176-0.476 1.526-0.798 0.14-0.14 0.294-0.14 0.434-0.028l0.434 0.35c0.154 0.14 0.224 0.294 0.112 0.462-0.532 0.798-1.4 1.344-2.52 1.344-1.806 0-3.304-1.428-3.304-3.374zm6.8595-0.028c0-1.82 1.484-3.36 3.304-3.36 1.806 0 3.29 1.54 3.29 3.36 0 1.848-1.484 3.402-3.29 3.402-1.82 0-3.304-1.554-3.304-3.402zm1.372 0c0 1.19 0.84 2.072 1.932 2.072 1.078 0 1.918-0.882 1.918-2.072 0-1.162-0.84-2.03-1.918-2.03-1.092 0-1.932 0.868-1.932 2.03zm6.8315 2.94v-5.852c0-0.154 0.14-0.308 0.308-0.308h0.336c0.14 0 0.238 0.07 0.266 0.196l0.196 0.56c0.14-0.168 0.882-0.896 2.17-0.896 1.974 0 2.506 1.372 2.506 3.052v3.248c0 0.168-0.154 0.308-0.308 0.308h-0.784c-0.168 0-0.308-0.14-0.308-0.308v-3.304c0-1.05-0.434-1.666-1.274-1.666-1.022 0-1.61 0.714-1.708 0.938v4.032c0 0.21-0.112 0.308-0.378 0.308h-0.714c-0.168 0-0.308-0.14-0.308-0.308zm7.3355-2.926c0-1.89 1.33-3.374 3.122-3.374 0.826 0 1.484 0.294 1.624 0.336v-3.22c0-0.154 0.154-0.308 0.308-0.308h0.798c0.168 0 0.308 0.154 0.308 0.308v9.184c0 0.168-0.14 0.308-0.308 0.308h-0.336c-0.154 0-0.252-0.112-0.294-0.28l-0.14-0.476s-0.84 0.91-2.128 0.91c-1.708 0-2.954-1.54-2.954-3.388zm1.4 0c0 1.092 0.714 2.058 1.75 2.058 0.994 0 1.54-0.77 1.61-0.952v-2.772s-0.644-0.378-1.484-0.378c-1.064 0-1.876 0.938-1.876 2.044zm6.2855 1.232c0-1.19 0.924-2.086 2.59-2.086 0.672 0 1.302 0.196 1.302 0.196 0.028-1.022-0.224-1.484-1.036-1.484-0.742 0-1.47 0.21-1.806 0.308-0.196 0.042-0.322-0.084-0.364-0.266l-0.126-0.532c-0.042-0.224 0.056-0.322 0.21-0.378 0.112-0.042 1.036-0.364 2.226-0.364 2.072 0 2.268 1.246 2.268 2.856v3.444c0 0.168-0.154 0.308-0.308 0.308h-0.462c-0.126 0-0.196-0.056-0.266-0.224l-0.154-0.434c-0.35 0.336-0.994 0.812-1.988 0.812-1.218 0-2.086-0.812-2.086-2.156zm1.372-0.014c0 0.574 0.336 1.022 1.008 1.022 0.644 0 1.302-0.462 1.498-0.784v-1.078c-0.084-0.056-0.588-0.224-1.176-0.224-0.756 0-1.33 0.392-1.33 1.064zm5.8515 1.708v-5.852c0-0.154 0.14-0.308 0.308-0.308h0.336c0.126 0 0.252 0.098 0.28 0.224l0.182 0.588c0.112-0.168 0.784-0.952 1.96-0.952 0.616 0 1.386 0.168 1.176 0.602l-0.336 0.7c-0.084 0.182-0.252 0.224-0.392 0.154-0.098-0.056-0.392-0.126-0.588-0.126-0.952 0-1.47 0.756-1.526 0.868v4.102c0 0.28-0.182 0.308-0.448 0.308h-0.644c-0.168 0-0.308-0.14-0.308-0.308zm7.0275 0.084l-2.226-5.824c-0.084-0.224 0.028-0.42 0.28-0.42h0.924c0.098 0 0.238 0.07 0.28 0.182l1.498 4.438h0.028l1.82-4.438c0.056-0.154 0.182-0.182 0.336-0.182h0.868c0.266 0 0.378 0.196 0.28 0.42l-3.948 9.184c-0.056 0.098-0.14 0.196-0.266 0.196h-0.896c-0.238 0-0.392-0.21-0.28-0.434l1.302-3.122z" fill="#189EFF"/>
<path d="m1.0449 0.24609v67.98" stroke="#EAEEF1" stroke-linecap="round" stroke-linejoin="round" stroke-width="3"/>
<path d="m1.0449 0.24609v23.98" stroke="#189EFF" stroke-linecap="round" stroke-linejoin="round" stroke-width="3"/>
</g>
</g>
</g>
</g>
</svg>
