<?xml version="1.0" encoding="utf-8"?>
<!-- Generator: Adobe Illustrator 21.1.0, SVG Export Plug-In . SVG Version: 6.00 Build 0)  -->
<svg version="1.1" id="Ebene_1" xmlns="http://www.w3.org/2000/svg" xmlns:xlink="http://www.w3.org/1999/xlink" x="0px" y="0px"
	 viewBox="0 0 66.8 48" style="enable-background:new 0 0 66.8 48;" xml:space="preserve">
<style type="text/css">
	.st0{fill:#FFFFFF;}
</style>
<path class="st0" d="M63.4,15L63.4,15c0-3.9-3.1-7-7-7H38.1c-0.3,0-0.5-0.1-0.7-0.3L31.7,2c-1.3-1.3-3.1-2-5-2H10.4
	c-3.9,0-7,3.1-7,7v8c-2.7,1.8-3.7,4.4-3.3,7L3,42c0.5,3.4,3.5,6,6.9,6H57c3.5,0,6.4-2.6,6.9-6l2.9-20C67.1,19.3,66.1,16.8,63.4,15z
	 M10.4,4h16.3c0.8,0,1.6,0.3,2.1,0.9l5.7,5.7c0.9,0.9,2.2,1.5,3.5,1.5h18.4c1.7,0,3,1.3,3,3v1h-52v-9C7.4,5.3,8.7,4,10.4,4z M7,18
	h52.8c1.8,0,3.2,1.4,3,3.4l-2.9,20c-0.2,1.5-1.5,2.6-3,2.6h-47c-1.5,0-2.8-1.1-3-2.6L4,21.4C3.8,19.7,4.9,18,7,18z"/>
</svg>
