<?xml version="1.0" encoding="utf-8"?>
<!-- Generator: Adobe Illustrator 21.1.0, SVG Export Plug-In . SVG Version: 6.00 Build 0)  -->
<svg version="1.1" id="Ebene_1" xmlns="http://www.w3.org/2000/svg" xmlns:xlink="http://www.w3.org/1999/xlink" x="0px" y="0px"
	 viewBox="0 0 48.7 48.8" style="enable-background:new 0 0 48.7 48.8;" xml:space="preserve">
<style type="text/css">
	.st0{fill:#142432;}
</style>
<path class="st0" d="M24.3,14.3c-5.5,0-10,4.5-10,10s4.5,10,10,10s10-4.5,10-10S29.8,14.3,24.3,14.3z M24.3,30.3c-3.3,0-6-2.7-6-6
	s2.7-6,6-6s6,2.7,6,6S27.6,30.3,24.3,30.3z M47.9,27.1c-0.7-0.9-1.6-1.7-2.7-1.8c-1.2-0.3-1.2-1.8,0-2c1.1-0.2,2.1-0.8,2.7-1.7
	c0.6-0.9,0.8-2.1,0.6-3.2c-0.6-2.5-1.6-4.9-2.9-7.1c-0.8-1.3-2.2-1.9-3.5-1.9c-0.9,0-1.7,0.3-2.4,0.8c-0.6,0.6-2-0.1-1.4-1.4
	c0.7-0.9,0.9-2,0.7-3.2c-0.2-1.1-0.9-2.1-1.8-2.7C35,1.6,32.6,0.6,30.1,0C29,0,28-0.1,27,0.7c-1,0.6-1.6,1.6-1.7,2.7
	c-0.3,1.2-1.8,1.2-2,0c-0.2-1.1-0.8-2.1-1.7-2.7c-1-0.7-2.4-0.8-3.1-0.6C16,0.7,13.6,1.7,11.4,3c-1,0.6-1.6,1.6-1.8,2.7
	S9.7,8,10.3,8.9c0.8,0.8-0.7,2.1-1.4,1.4C7.8,9.5,6.5,9.4,5.7,9.6C4.6,9.8,3.6,10.5,3,11.4c-1.3,2.2-2.3,4.6-2.9,7.1
	c-0.3,1.1-0.1,2.3,0.6,3.2s1.6,1.6,2.7,1.7c1.2,0.3,1.2,1.8,0,2c-1.1,0.2-2.1,0.8-2.7,1.7c-0.6,0.9-0.8,2.1-0.6,3.2
	c0.6,2.5,1.6,4.9,2.9,7.1c0.6,1,1.6,1.6,2.7,1.8c1,0.1,2,0,3.2-0.7c0.6-0.6,2,0.1,1.4,1.4c-0.7,0.9-0.9,2-0.7,3.2
	c0.2,1.1,0.9,2.1,1.8,2.7c2.2,1.3,4.6,2.3,7.1,2.9c0.7,0.2,2.2,0.1,3.1-0.6c0.9-0.6,1.6-1.6,1.7-2.7c0.3-1.2,1.8-1.2,2,0
	c0.2,1.1,0.8,2.1,1.7,2.7c0.7,0.5,1.5,0.7,2.2,0.7c1.7,0,5.6-1.6,8-3c1-0.6,1.6-1.6,1.8-2.7s-0.1-2.3-0.7-3.2
	c-0.8-0.8,0.7-2.1,1.4-1.4c1.1,0.8,2.5,0.9,3.2,0.7c1.1-0.2,2.1-0.9,2.7-1.8c1.3-2.2,2.3-4.6,2.9-7.1C48.8,29.2,48.6,28,47.9,27.1z
	 M42.1,35.1c-1.7-1.4-4.5-1.5-6.5,0.5c-1.8,1.8-1.9,4.6-0.4,6.5c-1.8,1.1-3.8,1.9-5.9,2.5c-0.4-2.4-2.5-4.3-5-4.3s-4.6,1.9-4.9,4.3
	c-2.1-0.5-4.1-1.4-5.9-2.5c1.5-2,1.3-4.7-0.4-6.5c-1.9-1.9-4.7-1.9-6.5-0.5c-1.1-1.8-1.9-3.8-2.5-5.9c2.4-0.3,4.3-2.4,4.3-4.9
	s-1.9-4.6-4.3-4.9c0.5-2.1,1.4-4.1,2.5-5.9c1.7,1.4,4.5,1.5,6.5-0.5c1.8-1.8,1.9-4.6,0.4-6.5c1.8-1.1,3.8-1.9,5.9-2.5
	c0.3,2.4,2.4,4.3,4.9,4.3s4.6-1.9,4.9-4.3c2.1,0.5,4.1,1.4,5.9,2.5c-1.5,2-1.3,4.7,0.4,6.5c1.9,1.9,4.7,1.9,6.5,0.5
	c1.1,1.8,1.9,3.8,2.5,5.9c-2.3,0.3-4.2,2.4-4.2,4.9s1.9,4.6,4.3,4.9C44.1,31.3,43.2,33.3,42.1,35.1z"/>
</svg>
