<svg version="1.1" xmlns="http://www.w3.org/2000/svg" xmlns:xlink="http://www.w3.org/1999/xlink" width="1044" height="775"><style xmlns="http://www.w3.org/1999/xhtml"></style><defs/><g transform="translate(0,0)"><g><rect fill="#FFFFFF" stroke="none" x="0" y="0" width="1044" height="775"/></g><g transform="matrix(1,0,0,1,777,205)"><g transform="translate(0,0)"><g transform="translate(-1101,-378) translate(324,173) matrix(1,0,0,1,0,0)"><g><path fill="none" stroke="#000000" d="M 781 495 L 781 466 L 887 466 L 887 209" stroke-miterlimit="10"/></g></g></g></g><g transform="matrix(1,0,0,1,101,321)"><g transform="translate(0,0)"><g transform="translate(-140,-505) translate(39,184) matrix(1,0,0,1,0,0)"><g><path fill="none" stroke="#000000" d="M 105 325 L 260.5 325 L 260.5 476 L 416 476" stroke-miterlimit="10"/></g></g></g></g><g transform="matrix(1,0,0,1,134,111)"><g transform="translate(0,0)"><g transform="translate(-145,-98) translate(11,-13) matrix(1,0,0,1,0,0)"><g><path fill="none" stroke="#000000" d="M 138 246 L 261 246 L 261 115 L 384 115" stroke-miterlimit="10"/></g></g></g></g><g transform="matrix(1,0,0,1,801,154)"><g transform="translate(0,0)"><g transform="translate(-805,-158) translate(4,4) matrix(1,0,0,1,0,0)"><g><path fill="none" stroke="#000000" d="M 805 158 L 836 158 L 836 158 L 867 158" stroke-miterlimit="10"/></g></g></g></g><g transform="translate(0,0) matrix(1,0,0,1,386,98)"><g><g transform="translate(0,0) scale(1.5,0.3)"><g><path fill="#E5E5E5" stroke="none" d="M 0 0 L 100 0 Q 100 0 100 0 L 100 100 Q 100 100 100 100 L 0 100 Q 0 100 0 100 L 0 0 Q 0 0 0 0 Z"/><g transform="scale(0.6666666666666666,3.3333333333333335)"><path fill="none" stroke="none" d="M 0 0 L 150 0 Q 150 0 150 0 L 150 30 Q 150 30 150 30 L 0 30 Q 0 30 0 30 L 0 0 Q 0 0 0 0 Z"/><path fill="none" stroke="#000000" d="M 0 0 M 0 0 L 150 0 Q 150 0 150 0 L 150 30 Q 150 30 150 30 L 0 30 Q 0 30 0 30 L 0 0 Q 0 0 0 0 Z" stroke-miterlimit="10" stroke-width="2"/></g></g></g></g></g><g transform="translate(0,0) matrix(1,0,0,1,386,218)"><g><g transform="translate(0,0) scale(0.75,0.3)"><g><path fill="#FFFFFF" stroke="none" d="M 0 0 L 100 0 Q 100 0 100 0 L 100 100 Q 100 100 100 100 L 0 100 Q 0 100 0 100 L 0 0 Q 0 0 0 0 Z"/><g transform="scale(1.3333333333333333,3.3333333333333335)"><path fill="none" stroke="none" d="M 0 0 L 75 0 Q 75 0 75 0 L 75 30 Q 75 30 75 30 L 0 30 Q 0 30 0 30 L 0 0 Q 0 0 0 0 Z"/><path fill="none" stroke="#000000" d="M 0 0 M 0 0 L 75 0 Q 75 0 75 0 L 75 30 Q 75 30 75 30 L 0 30 Q 0 30 0 30 L 0 0 Q 0 0 0 0 Z" stroke-miterlimit="10" stroke-width="2"/></g></g></g></g></g><g transform="translate(0,0) matrix(1,0,0,1,461,218)"><g><g transform="translate(0,0) scale(0.75,0.3)"><g><path fill="#FFFFFF" stroke="none" d="M 0 0 L 100 0 Q 100 0 100 0 L 100 100 Q 100 100 100 100 L 0 100 Q 0 100 0 100 L 0 0 Q 0 0 0 0 Z"/><g transform="scale(1.3333333333333333,3.3333333333333335)"><path fill="none" stroke="none" d="M 0 0 L 75 0 Q 75 0 75 0 L 75 30 Q 75 30 75 30 L 0 30 Q 0 30 0 30 L 0 0 Q 0 0 0 0 Z"/><path fill="none" stroke="#000000" d="M 0 0 M 0 0 L 75 0 Q 75 0 75 0 L 75 30 Q 75 30 75 30 L 0 30 Q 0 30 0 30 L 0 0 Q 0 0 0 0 Z" stroke-miterlimit="10" stroke-width="2"/></g></g></g></g></g><g transform="translate(0,0) matrix(1,0,0,1,386,128)"><g><g transform="translate(0,0) scale(0.75,0.3)"><g><path fill="#E5E5E5" stroke="none" d="M 0 0 L 100 0 Q 100 0 100 0 L 100 100 Q 100 100 100 100 L 0 100 Q 0 100 0 100 L 0 0 Q 0 0 0 0 Z"/><g transform="scale(1.3333333333333333,3.3333333333333335)"><path fill="none" stroke="none" d="M 0 0 L 75 0 Q 75 0 75 0 L 75 30 Q 75 30 75 30 L 0 30 Q 0 30 0 30 L 0 0 Q 0 0 0 0 Z"/><path fill="none" stroke="#000000" d="M 0 0 M 0 0 L 75 0 Q 75 0 75 0 L 75 30 Q 75 30 75 30 L 0 30 Q 0 30 0 30 L 0 0 Q 0 0 0 0 Z" stroke-miterlimit="10" stroke-width="2"/></g></g></g></g></g><g transform="translate(0,0) matrix(1,0,0,1,461,128)"><g><g transform="translate(0,0) scale(0.75,0.3)"><g><path fill="#E5E5E5" stroke="none" d="M 0 0 L 100 0 Q 100 0 100 0 L 100 100 Q 100 100 100 100 L 0 100 Q 0 100 0 100 L 0 0 Q 0 0 0 0 Z"/><g transform="scale(1.3333333333333333,3.3333333333333335)"><path fill="none" stroke="none" d="M 0 0 L 75 0 Q 75 0 75 0 L 75 30 Q 75 30 75 30 L 0 30 Q 0 30 0 30 L 0 0 Q 0 0 0 0 Z"/><path fill="none" stroke="#000000" d="M 0 0 M 0 0 L 75 0 Q 75 0 75 0 L 75 30 Q 75 30 75 30 L 0 30 Q 0 30 0 30 L 0 0 Q 0 0 0 0 Z" stroke-miterlimit="10" stroke-width="2"/></g></g></g></g></g><g transform="matrix(1,0,0,1,394,136)"><g><g><rect fill="rgb(0,0,0)" stroke="none" x="0" y="0" width="60" height="20" fill-opacity="0"/></g></g><g><g><rect fill="rgb(0,0,0)" stroke="none" x="0" y="0" width="60" height="14" fill-opacity="0"/></g></g><g><g><rect fill="rgb(0,0,0)" stroke="none" x="0" y="0" width="11" height="14" fill-opacity="0"/></g><text fill="rgb(0, 0, 0)" stroke="none" font-family="Arial" font-size="12px" font-style="normal" font-weight="700" text-decoration="" line-height="14px" x="0" y="12">id</text></g></g><g transform="matrix(1,0,0,1,469,136)"><g><g><rect fill="rgb(0,0,0)" stroke="none" x="0" y="0" width="60" height="20" fill-opacity="0"/></g></g><g><g><rect fill="rgb(0,0,0)" stroke="none" x="0" y="0" width="60" height="14" fill-opacity="0"/></g></g><g><g><rect fill="rgb(0,0,0)" stroke="none" x="0" y="0" width="33" height="14" fill-opacity="0"/></g><text fill="rgb(0, 0, 0)" stroke="none" font-family="Arial" font-size="12px" font-style="normal" font-weight="700" text-decoration="" line-height="14px" x="0" y="12">Name</text></g></g><g transform="translate(0,0) matrix(1,0,0,1,386,158)"><g><g transform="translate(0,0) scale(0.75,0.3)"><g><path fill="#FFFFFF" stroke="none" d="M 0 0 L 100 0 Q 100 0 100 0 L 100 100 Q 100 100 100 100 L 0 100 Q 0 100 0 100 L 0 0 Q 0 0 0 0 Z"/><g transform="scale(1.3333333333333333,3.3333333333333335)"><path fill="none" stroke="none" d="M 0 0 L 75 0 Q 75 0 75 0 L 75 30 Q 75 30 75 30 L 0 30 Q 0 30 0 30 L 0 0 Q 0 0 0 0 Z"/><path fill="none" stroke="#000000" d="M 0 0 M 0 0 L 75 0 Q 75 0 75 0 L 75 30 Q 75 30 75 30 L 0 30 Q 0 30 0 30 L 0 0 Q 0 0 0 0 Z" stroke-miterlimit="10" stroke-width="2"/></g></g></g></g></g><g transform="matrix(1,0,0,1,394,226)"><g><g><rect fill="rgb(0,0,0)" stroke="none" x="0" y="0" width="60" height="20" fill-opacity="0"/></g></g><g><g><rect fill="rgb(0,0,0)" stroke="none" x="0" y="0" width="60" height="14" fill-opacity="0"/></g></g><g><g><rect fill="rgb(0,0,0)" stroke="none" x="0" y="0" width="10" height="14" fill-opacity="0"/></g><text fill="rgb(0, 0, 0)" stroke="none" font-family="Arial" font-size="12px" font-style="normal" font-weight="normal" text-decoration="" line-height="14px" x="3" y="12">3</text></g></g><g transform="matrix(1,0,0,1,469,226)"><g><g><rect fill="rgb(0,0,0)" stroke="none" x="0" y="0" width="60" height="20" fill-opacity="0"/></g></g><g><g><rect fill="rgb(0,0,0)" stroke="none" x="0" y="0" width="60" height="14" fill-opacity="0"/></g></g><g><g><rect fill="rgb(0,0,0)" stroke="none" x="0" y="0" width="39" height="14" fill-opacity="0"/></g><text fill="rgb(0, 0, 0)" stroke="none" font-family="Arial" font-size="12px" font-style="normal" font-weight="normal" text-decoration="" line-height="14px" x="3" y="12">Pascal</text></g></g><g transform="matrix(1,0,0,1,394,166)"><g><g><rect fill="rgb(0,0,0)" stroke="none" x="0" y="0" width="60" height="20" fill-opacity="0"/></g></g><g><g><rect fill="rgb(0,0,0)" stroke="none" x="0" y="0" width="60" height="14" fill-opacity="0"/></g></g><g><g><rect fill="rgb(0,0,0)" stroke="none" x="0" y="0" width="7" height="14" fill-opacity="0"/></g><text fill="rgb(0, 0, 0)" stroke="none" font-family="Arial" font-size="12px" font-style="normal" font-weight="normal" text-decoration="" line-height="14px" x="0" y="12">1</text></g></g><g transform="translate(0,0) matrix(1,0,0,1,461,158)"><g><g transform="translate(0,0) scale(0.75,0.3)"><g><path fill="#FFFFFF" stroke="none" d="M 0 0 L 100 0 Q 100 0 100 0 L 100 100 Q 100 100 100 100 L 0 100 Q 0 100 0 100 L 0 0 Q 0 0 0 0 Z"/><g transform="scale(1.3333333333333333,3.3333333333333335)"><path fill="none" stroke="none" d="M 0 0 L 75 0 Q 75 0 75 0 L 75 30 Q 75 30 75 30 L 0 30 Q 0 30 0 30 L 0 0 Q 0 0 0 0 Z"/><path fill="none" stroke="#000000" d="M 0 0 M 0 0 L 75 0 Q 75 0 75 0 L 75 30 Q 75 30 75 30 L 0 30 Q 0 30 0 30 L 0 0 Q 0 0 0 0 Z" stroke-miterlimit="10" stroke-width="2"/></g></g></g></g></g><g transform="matrix(1,0,0,1,469,166)"><g><g><rect fill="rgb(0,0,0)" stroke="none" x="0" y="0" width="60" height="20" fill-opacity="0"/></g></g><g><g><rect fill="rgb(0,0,0)" stroke="none" x="0" y="0" width="60" height="14" fill-opacity="0"/></g></g><g><g><rect fill="rgb(0,0,0)" stroke="none" x="0" y="0" width="34" height="14" fill-opacity="0"/></g><text fill="rgb(0, 0, 0)" stroke="none" font-family="Arial" font-size="12px" font-style="normal" font-weight="normal" text-decoration="" line-height="14px" x="0" y="12">Daniel</text></g></g><g transform="translate(0,0) matrix(1,0,0,1,386,188)"><g><g transform="translate(0,0) scale(0.75,0.3)"><g><path fill="#FFFFFF" stroke="none" d="M 0 0 L 100 0 Q 100 0 100 0 L 100 100 Q 100 100 100 100 L 0 100 Q 0 100 0 100 L 0 0 Q 0 0 0 0 Z"/><g transform="scale(1.3333333333333333,3.3333333333333335)"><path fill="none" stroke="none" d="M 0 0 L 75 0 Q 75 0 75 0 L 75 30 Q 75 30 75 30 L 0 30 Q 0 30 0 30 L 0 0 Q 0 0 0 0 Z"/><path fill="none" stroke="#000000" d="M 0 0 M 0 0 L 75 0 Q 75 0 75 0 L 75 30 Q 75 30 75 30 L 0 30 Q 0 30 0 30 L 0 0 Q 0 0 0 0 Z" stroke-miterlimit="10" stroke-width="2"/></g></g></g></g></g><g transform="matrix(1,0,0,1,394,196)"><g><g><rect fill="rgb(0,0,0)" stroke="none" x="0" y="0" width="60" height="20" fill-opacity="0"/></g></g><g><g><rect fill="rgb(0,0,0)" stroke="none" x="0" y="0" width="60" height="14" fill-opacity="0"/></g></g><g><g><rect fill="rgb(0,0,0)" stroke="none" x="0" y="0" width="7" height="14" fill-opacity="0"/></g><text fill="rgb(0, 0, 0)" stroke="none" font-family="Arial" font-size="12px" font-style="normal" font-weight="normal" text-decoration="" line-height="14px" x="0" y="12">2</text></g></g><g transform="translate(0,0) matrix(1,0,0,1,461,188)"><g><g transform="translate(0,0) scale(0.75,0.3)"><g><path fill="#FFFFFF" stroke="none" d="M 0 0 L 100 0 Q 100 0 100 0 L 100 100 Q 100 100 100 100 L 0 100 Q 0 100 0 100 L 0 0 Q 0 0 0 0 Z"/><g transform="scale(1.3333333333333333,3.3333333333333335)"><path fill="none" stroke="none" d="M 0 0 L 75 0 Q 75 0 75 0 L 75 30 Q 75 30 75 30 L 0 30 Q 0 30 0 30 L 0 0 Q 0 0 0 0 Z"/><path fill="none" stroke="#000000" d="M 0 0 M 0 0 L 75 0 Q 75 0 75 0 L 75 30 Q 75 30 75 30 L 0 30 Q 0 30 0 30 L 0 0 Q 0 0 0 0 Z" stroke-miterlimit="10" stroke-width="2"/></g></g></g></g></g><g transform="matrix(1,0,0,1,469,196)"><g><g><rect fill="rgb(0,0,0)" stroke="none" x="0" y="0" width="60" height="20" fill-opacity="0"/></g></g><g><g><rect fill="rgb(0,0,0)" stroke="none" x="0" y="0" width="60" height="14" fill-opacity="0"/></g></g><g><g><rect fill="rgb(0,0,0)" stroke="none" x="0" y="0" width="29" height="14" fill-opacity="0"/></g><text fill="rgb(0, 0, 0)" stroke="none" font-family="Arial" font-size="12px" font-style="normal" font-weight="normal" text-decoration="" line-height="14px" x="0" y="12">Linus</text></g></g><g transform="matrix(1,0,0,1,394,103)"><g><g><rect fill="rgb(0,0,0)" stroke="none" x="0" y="0" width="135" height="26" fill-opacity="0"/></g></g><g><g><rect fill="rgb(0,0,0)" stroke="none" x="0" y="0" width="135" height="20" fill-opacity="0"/></g></g><g><g><rect fill="rgb(0,0,0)" stroke="none" x="0" y="0" width="72" height="20" fill-opacity="0"/></g><text fill="rgb(0, 0, 0)" stroke="none" font-family="Arial" font-size="18px" font-style="normal" font-weight="700" text-decoration="" line-height="20.5px" x="5" y="17">Contact</text></g></g><g transform="translate(0,0) matrix(1,0,0,1,386,388)"><g><g transform="translate(0,0) scale(1.5,0.3)"><g><path fill="#E5E5E5" stroke="none" d="M 0 0 L 100 0 Q 100 0 100 0 L 100 100 Q 100 100 100 100 L 0 100 Q 0 100 0 100 L 0 0 Q 0 0 0 0 Z"/><g transform="scale(0.6666666666666666,3.3333333333333335)"><path fill="none" stroke="none" d="M 0 0 L 150 0 Q 150 0 150 0 L 150 30 Q 150 30 150 30 L 0 30 Q 0 30 0 30 L 0 0 Q 0 0 0 0 Z"/><path fill="none" stroke="#000000" d="M 0 0 M 0 0 L 150 0 Q 150 0 150 0 L 150 30 Q 150 30 150 30 L 0 30 Q 0 30 0 30 L 0 0 Q 0 0 0 0 Z" stroke-miterlimit="10" stroke-width="2"/></g></g></g></g></g><g transform="translate(0,0) matrix(1,0,0,1,386,508)"><g><g transform="translate(0,0) scale(0.75,0.3)"><g><path fill="#FFFFFF" stroke="none" d="M 0 0 L 100 0 Q 100 0 100 0 L 100 100 Q 100 100 100 100 L 0 100 Q 0 100 0 100 L 0 0 Q 0 0 0 0 Z"/><g transform="scale(1.3333333333333333,3.3333333333333335)"><path fill="none" stroke="none" d="M 0 0 L 75 0 Q 75 0 75 0 L 75 30 Q 75 30 75 30 L 0 30 Q 0 30 0 30 L 0 0 Q 0 0 0 0 Z"/><path fill="none" stroke="#000000" d="M 0 0 M 0 0 L 75 0 Q 75 0 75 0 L 75 30 Q 75 30 75 30 L 0 30 Q 0 30 0 30 L 0 0 Q 0 0 0 0 Z" stroke-miterlimit="10" stroke-width="2"/></g></g></g></g></g><g transform="translate(0,0) matrix(1,0,0,1,461,508)"><g><g transform="translate(0,0) scale(0.75,0.3)"><g><path fill="#FFFFFF" stroke="none" d="M 0 0 L 100 0 Q 100 0 100 0 L 100 100 Q 100 100 100 100 L 0 100 Q 0 100 0 100 L 0 0 Q 0 0 0 0 Z"/><g transform="scale(1.3333333333333333,3.3333333333333335)"><path fill="none" stroke="none" d="M 0 0 L 75 0 Q 75 0 75 0 L 75 30 Q 75 30 75 30 L 0 30 Q 0 30 0 30 L 0 0 Q 0 0 0 0 Z"/><path fill="none" stroke="#000000" d="M 0 0 M 0 0 L 75 0 Q 75 0 75 0 L 75 30 Q 75 30 75 30 L 0 30 Q 0 30 0 30 L 0 0 Q 0 0 0 0 Z" stroke-miterlimit="10" stroke-width="2"/></g></g></g></g></g><g transform="translate(0,0) matrix(1,0,0,1,386,418)"><g><g transform="translate(0,0) scale(0.75,0.3)"><g><path fill="#E5E5E5" stroke="none" d="M 0 0 L 100 0 Q 100 0 100 0 L 100 100 Q 100 100 100 100 L 0 100 Q 0 100 0 100 L 0 0 Q 0 0 0 0 Z"/><g transform="scale(1.3333333333333333,3.3333333333333335)"><path fill="none" stroke="none" d="M 0 0 L 75 0 Q 75 0 75 0 L 75 30 Q 75 30 75 30 L 0 30 Q 0 30 0 30 L 0 0 Q 0 0 0 0 Z"/><path fill="none" stroke="#000000" d="M 0 0 M 0 0 L 75 0 Q 75 0 75 0 L 75 30 Q 75 30 75 30 L 0 30 Q 0 30 0 30 L 0 0 Q 0 0 0 0 Z" stroke-miterlimit="10" stroke-width="2"/></g></g></g></g></g><g transform="translate(0,0) matrix(1,0,0,1,461,418)"><g><g transform="translate(0,0) scale(0.75,0.3)"><g><path fill="#E5E5E5" stroke="none" d="M 0 0 L 100 0 Q 100 0 100 0 L 100 100 Q 100 100 100 100 L 0 100 Q 0 100 0 100 L 0 0 Q 0 0 0 0 Z"/><g transform="scale(1.3333333333333333,3.3333333333333335)"><path fill="none" stroke="none" d="M 0 0 L 75 0 Q 75 0 75 0 L 75 30 Q 75 30 75 30 L 0 30 Q 0 30 0 30 L 0 0 Q 0 0 0 0 Z"/><path fill="none" stroke="#000000" d="M 0 0 M 0 0 L 75 0 Q 75 0 75 0 L 75 30 Q 75 30 75 30 L 0 30 Q 0 30 0 30 L 0 0 Q 0 0 0 0 Z" stroke-miterlimit="10" stroke-width="2"/></g></g></g></g></g><g transform="matrix(1,0,0,1,394,426)"><g><g><rect fill="rgb(0,0,0)" stroke="none" x="0" y="0" width="60" height="20" fill-opacity="0"/></g></g><g><g><rect fill="rgb(0,0,0)" stroke="none" x="0" y="0" width="60" height="14" fill-opacity="0"/></g></g><g><g><rect fill="rgb(0,0,0)" stroke="none" x="0" y="0" width="11" height="14" fill-opacity="0"/></g><text fill="rgb(0, 0, 0)" stroke="none" font-family="Arial" font-size="12px" font-style="normal" font-weight="700" text-decoration="" line-height="14px" x="0" y="12">id</text></g></g><g transform="matrix(1,0,0,1,469,426)"><g><g><rect fill="rgb(0,0,0)" stroke="none" x="0" y="0" width="60" height="20" fill-opacity="0"/></g></g><g><g><rect fill="rgb(0,0,0)" stroke="none" x="0" y="0" width="60" height="14" fill-opacity="0"/></g></g><g><g><rect fill="rgb(0,0,0)" stroke="none" x="0" y="0" width="33" height="14" fill-opacity="0"/></g><text fill="rgb(0, 0, 0)" stroke="none" font-family="Arial" font-size="12px" font-style="normal" font-weight="700" text-decoration="" line-height="14px" x="0" y="12">Name</text></g></g><g transform="translate(0,0) matrix(1,0,0,1,386,448)"><g><g transform="translate(0,0) scale(0.75,0.3)"><g><path fill="#FFFFFF" stroke="none" d="M 0 0 L 100 0 Q 100 0 100 0 L 100 100 Q 100 100 100 100 L 0 100 Q 0 100 0 100 L 0 0 Q 0 0 0 0 Z"/><g transform="scale(1.3333333333333333,3.3333333333333335)"><path fill="none" stroke="none" d="M 0 0 L 75 0 Q 75 0 75 0 L 75 30 Q 75 30 75 30 L 0 30 Q 0 30 0 30 L 0 0 Q 0 0 0 0 Z"/><path fill="none" stroke="#000000" d="M 0 0 M 0 0 L 75 0 Q 75 0 75 0 L 75 30 Q 75 30 75 30 L 0 30 Q 0 30 0 30 L 0 0 Q 0 0 0 0 Z" stroke-miterlimit="10" stroke-width="2"/></g></g></g></g></g><g transform="matrix(1,0,0,1,394,516)"><g><g><rect fill="rgb(0,0,0)" stroke="none" x="0" y="0" width="60" height="20" fill-opacity="0"/></g></g><g><g><rect fill="rgb(0,0,0)" stroke="none" x="0" y="0" width="60" height="14" fill-opacity="0"/></g></g><g><g><rect fill="rgb(0,0,0)" stroke="none" x="0" y="0" width="10" height="14" fill-opacity="0"/></g><text fill="rgb(0, 0, 0)" stroke="none" font-family="Arial" font-size="12px" font-style="normal" font-weight="normal" text-decoration="" line-height="14px" x="3" y="12">3</text></g></g><g transform="matrix(1,0,0,1,469,516)"><g><g><rect fill="rgb(0,0,0)" stroke="none" x="0" y="0" width="60" height="20" fill-opacity="0"/></g></g><g><g><rect fill="rgb(0,0,0)" stroke="none" x="0" y="0" width="60" height="14" fill-opacity="0"/></g></g><g><g><rect fill="rgb(0,0,0)" stroke="none" x="0" y="0" width="30" height="14" fill-opacity="0"/></g><text fill="rgb(0, 0, 0)" stroke="none" font-family="Arial" font-size="12px" font-style="normal" font-weight="normal" text-decoration="" line-height="14px" x="0" y="12">Azubi</text></g></g><g transform="matrix(1,0,0,1,394,456)"><g><g><rect fill="rgb(0,0,0)" stroke="none" x="0" y="0" width="60" height="20" fill-opacity="0"/></g></g><g><g><rect fill="rgb(0,0,0)" stroke="none" x="0" y="0" width="60" height="14" fill-opacity="0"/></g></g><g><g><rect fill="rgb(0,0,0)" stroke="none" x="0" y="0" width="7" height="14" fill-opacity="0"/></g><text fill="rgb(0, 0, 0)" stroke="none" font-family="Arial" font-size="12px" font-style="normal" font-weight="normal" text-decoration="" line-height="14px" x="0" y="12">1</text></g></g><g transform="translate(0,0) matrix(1,0,0,1,461,448)"><g><g transform="translate(0,0) scale(0.75,0.3)"><g><path fill="#FFFFFF" stroke="none" d="M 0 0 L 100 0 Q 100 0 100 0 L 100 100 Q 100 100 100 100 L 0 100 Q 0 100 0 100 L 0 0 Q 0 0 0 0 Z"/><g transform="scale(1.3333333333333333,3.3333333333333335)"><path fill="none" stroke="none" d="M 0 0 L 75 0 Q 75 0 75 0 L 75 30 Q 75 30 75 30 L 0 30 Q 0 30 0 30 L 0 0 Q 0 0 0 0 Z"/><path fill="none" stroke="#000000" d="M 0 0 M 0 0 L 75 0 Q 75 0 75 0 L 75 30 Q 75 30 75 30 L 0 30 Q 0 30 0 30 L 0 0 Q 0 0 0 0 Z" stroke-miterlimit="10" stroke-width="2"/></g></g></g></g></g><g transform="matrix(1,0,0,1,469,456)"><g><g><rect fill="rgb(0,0,0)" stroke="none" x="0" y="0" width="60" height="20" fill-opacity="0"/></g></g><g><g><rect fill="rgb(0,0,0)" stroke="none" x="0" y="0" width="60" height="14" fill-opacity="0"/></g></g><g><g><rect fill="rgb(0,0,0)" stroke="none" x="0" y="0" width="34" height="14" fill-opacity="0"/></g><text fill="rgb(0, 0, 0)" stroke="none" font-family="Arial" font-size="12px" font-style="normal" font-weight="normal" text-decoration="" line-height="14px" x="0" y="12">Admin</text></g></g><g transform="translate(0,0) matrix(1,0,0,1,386,478)"><g><g transform="translate(0,0) scale(0.75,0.3)"><g><path fill="#FFFFFF" stroke="none" d="M 0 0 L 100 0 Q 100 0 100 0 L 100 100 Q 100 100 100 100 L 0 100 Q 0 100 0 100 L 0 0 Q 0 0 0 0 Z"/><g transform="scale(1.3333333333333333,3.3333333333333335)"><path fill="none" stroke="none" d="M 0 0 L 75 0 Q 75 0 75 0 L 75 30 Q 75 30 75 30 L 0 30 Q 0 30 0 30 L 0 0 Q 0 0 0 0 Z"/><path fill="none" stroke="#000000" d="M 0 0 M 0 0 L 75 0 Q 75 0 75 0 L 75 30 Q 75 30 75 30 L 0 30 Q 0 30 0 30 L 0 0 Q 0 0 0 0 Z" stroke-miterlimit="10" stroke-width="2"/></g></g></g></g></g><g transform="matrix(1,0,0,1,394,486)"><g><g><rect fill="rgb(0,0,0)" stroke="none" x="0" y="0" width="60" height="20" fill-opacity="0"/></g></g><g><g><rect fill="rgb(0,0,0)" stroke="none" x="0" y="0" width="60" height="14" fill-opacity="0"/></g></g><g><g><rect fill="rgb(0,0,0)" stroke="none" x="0" y="0" width="7" height="14" fill-opacity="0"/></g><text fill="rgb(0, 0, 0)" stroke="none" font-family="Arial" font-size="12px" font-style="normal" font-weight="normal" text-decoration="" line-height="14px" x="0" y="12">2</text></g></g><g transform="translate(0,0) matrix(1,0,0,1,461,478)"><g><g transform="translate(0,0) scale(0.75,0.3)"><g><path fill="#FFFFFF" stroke="none" d="M 0 0 L 100 0 Q 100 0 100 0 L 100 100 Q 100 100 100 100 L 0 100 Q 0 100 0 100 L 0 0 Q 0 0 0 0 Z"/><g transform="scale(1.3333333333333333,3.3333333333333335)"><path fill="none" stroke="none" d="M 0 0 L 75 0 Q 75 0 75 0 L 75 30 Q 75 30 75 30 L 0 30 Q 0 30 0 30 L 0 0 Q 0 0 0 0 Z"/><path fill="none" stroke="#000000" d="M 0 0 M 0 0 L 75 0 Q 75 0 75 0 L 75 30 Q 75 30 75 30 L 0 30 Q 0 30 0 30 L 0 0 Q 0 0 0 0 Z" stroke-miterlimit="10" stroke-width="2"/></g></g></g></g></g><g transform="matrix(1,0,0,1,394,393)"><g><g><rect fill="rgb(0,0,0)" stroke="none" x="0" y="0" width="135" height="26" fill-opacity="0"/></g></g><g><g><rect fill="rgb(0,0,0)" stroke="none" x="0" y="0" width="135" height="20" fill-opacity="0"/></g></g><g><g><rect fill="rgb(0,0,0)" stroke="none" x="0" y="0" width="44" height="20" fill-opacity="0"/></g><text fill="rgb(0, 0, 0)" stroke="none" font-family="Arial" font-size="18px" font-style="normal" font-weight="700" text-decoration="" line-height="20.5px" x="5" y="17">Role</text></g></g><g transform="matrix(1,0,0,1,469,486)"><g><g><rect fill="rgb(0,0,0)" stroke="none" x="0" y="0" width="60" height="20" fill-opacity="0"/></g></g><g><g><rect fill="rgb(0,0,0)" stroke="none" x="0" y="0" width="60" height="14" fill-opacity="0"/></g></g><g><g><rect fill="rgb(0,0,0)" stroke="none" x="0" y="0" width="55" height="14" fill-opacity="0"/></g><text fill="rgb(0, 0, 0)" stroke="none" font-family="Arial" font-size="12px" font-style="normal" font-weight="normal" text-decoration="" line-height="14px" x="0" y="12">Entwickler</text></g></g><g transform="translate(0,0) matrix(1,0,0,1,866,98)"><g><g transform="translate(0,0) scale(1.5,0.3)"><g><path fill="#E5E5E5" stroke="none" d="M 0 0 L 100 0 Q 100 0 100 0 L 100 100 Q 100 100 100 100 L 0 100 Q 0 100 0 100 L 0 0 Q 0 0 0 0 Z"/><g transform="scale(0.6666666666666666,3.3333333333333335)"><path fill="none" stroke="none" d="M 0 0 L 150 0 Q 150 0 150 0 L 150 30 Q 150 30 150 30 L 0 30 Q 0 30 0 30 L 0 0 Q 0 0 0 0 Z"/><path fill="none" stroke="#000000" d="M 0 0 M 0 0 L 150 0 Q 150 0 150 0 L 150 30 Q 150 30 150 30 L 0 30 Q 0 30 0 30 L 0 0 Q 0 0 0 0 Z" stroke-miterlimit="10" stroke-width="2"/></g></g></g></g></g><g transform="translate(0,0) matrix(1,0,0,1,866,218)"><g><g transform="translate(0,0) scale(0.75,0.3)"><g><path fill="#FFFFFF" stroke="none" d="M 0 0 L 100 0 Q 100 0 100 0 L 100 100 Q 100 100 100 100 L 0 100 Q 0 100 0 100 L 0 0 Q 0 0 0 0 Z"/><g transform="scale(1.3333333333333333,3.3333333333333335)"><path fill="none" stroke="none" d="M 0 0 L 75 0 Q 75 0 75 0 L 75 30 Q 75 30 75 30 L 0 30 Q 0 30 0 30 L 0 0 Q 0 0 0 0 Z"/><path fill="none" stroke="#000000" d="M 0 0 M 0 0 L 75 0 Q 75 0 75 0 L 75 30 Q 75 30 75 30 L 0 30 Q 0 30 0 30 L 0 0 Q 0 0 0 0 Z" stroke-miterlimit="10" stroke-width="2"/></g></g></g></g></g><g transform="translate(0,0) matrix(1,0,0,1,941,218)"><g><g transform="translate(0,0) scale(0.75,0.3)"><g><path fill="#FFFFFF" stroke="none" d="M 0 0 L 100 0 Q 100 0 100 0 L 100 100 Q 100 100 100 100 L 0 100 Q 0 100 0 100 L 0 0 Q 0 0 0 0 Z"/><g transform="scale(1.3333333333333333,3.3333333333333335)"><path fill="none" stroke="none" d="M 0 0 L 75 0 Q 75 0 75 0 L 75 30 Q 75 30 75 30 L 0 30 Q 0 30 0 30 L 0 0 Q 0 0 0 0 Z"/><path fill="none" stroke="#000000" d="M 0 0 M 0 0 L 75 0 Q 75 0 75 0 L 75 30 Q 75 30 75 30 L 0 30 Q 0 30 0 30 L 0 0 Q 0 0 0 0 Z" stroke-miterlimit="10" stroke-width="2"/></g></g></g></g></g><g transform="translate(0,0) matrix(1,0,0,1,866,128)"><g><g transform="translate(0,0) scale(0.75,0.3)"><g><path fill="#E5E5E5" stroke="none" d="M 0 0 L 100 0 Q 100 0 100 0 L 100 100 Q 100 100 100 100 L 0 100 Q 0 100 0 100 L 0 0 Q 0 0 0 0 Z"/><g transform="scale(1.3333333333333333,3.3333333333333335)"><path fill="none" stroke="none" d="M 0 0 L 75 0 Q 75 0 75 0 L 75 30 Q 75 30 75 30 L 0 30 Q 0 30 0 30 L 0 0 Q 0 0 0 0 Z"/><path fill="none" stroke="#000000" d="M 0 0 M 0 0 L 75 0 Q 75 0 75 0 L 75 30 Q 75 30 75 30 L 0 30 Q 0 30 0 30 L 0 0 Q 0 0 0 0 Z" stroke-miterlimit="10" stroke-width="2"/></g></g></g></g></g><g transform="translate(0,0) matrix(1,0,0,1,941,128)"><g><g transform="translate(0,0) scale(0.75,0.3)"><g><path fill="#E5E5E5" stroke="none" d="M 0 0 L 100 0 Q 100 0 100 0 L 100 100 Q 100 100 100 100 L 0 100 Q 0 100 0 100 L 0 0 Q 0 0 0 0 Z"/><g transform="scale(1.3333333333333333,3.3333333333333335)"><path fill="none" stroke="none" d="M 0 0 L 75 0 Q 75 0 75 0 L 75 30 Q 75 30 75 30 L 0 30 Q 0 30 0 30 L 0 0 Q 0 0 0 0 Z"/><path fill="none" stroke="#000000" d="M 0 0 M 0 0 L 75 0 Q 75 0 75 0 L 75 30 Q 75 30 75 30 L 0 30 Q 0 30 0 30 L 0 0 Q 0 0 0 0 Z" stroke-miterlimit="10" stroke-width="2"/></g></g></g></g></g><g transform="matrix(1,0,0,1,874,136)"><g><g><rect fill="rgb(0,0,0)" stroke="none" x="0" y="0" width="60" height="20" fill-opacity="0"/></g></g><g><g><rect fill="rgb(0,0,0)" stroke="none" x="0" y="0" width="60" height="14" fill-opacity="0"/></g></g><g><g><rect fill="rgb(0,0,0)" stroke="none" x="0" y="0" width="11" height="14" fill-opacity="0"/></g><text fill="rgb(0, 0, 0)" stroke="none" font-family="Arial" font-size="12px" font-style="normal" font-weight="700" text-decoration="" line-height="14px" x="0" y="12">id</text></g></g><g transform="matrix(1,0,0,1,949,136)"><g><g><rect fill="rgb(0,0,0)" stroke="none" x="0" y="0" width="60" height="20" fill-opacity="0"/></g></g><g><g><rect fill="rgb(0,0,0)" stroke="none" x="0" y="0" width="60" height="14" fill-opacity="0"/></g></g><g><g><rect fill="rgb(0,0,0)" stroke="none" x="0" y="0" width="37" height="14" fill-opacity="0"/></g><text fill="rgb(0, 0, 0)" stroke="none" font-family="Arial" font-size="12px" font-style="normal" font-weight="700" text-decoration="" line-height="14px" x="0" y="12">Where</text></g></g><g transform="translate(0,0) matrix(1,0,0,1,866,158)"><g><g transform="translate(0,0) scale(0.75,0.3)"><g><path fill="#FFFFFF" stroke="none" d="M 0 0 L 100 0 Q 100 0 100 0 L 100 100 Q 100 100 100 100 L 0 100 Q 0 100 0 100 L 0 0 Q 0 0 0 0 Z"/><g transform="scale(1.3333333333333333,3.3333333333333335)"><path fill="none" stroke="none" d="M 0 0 L 75 0 Q 75 0 75 0 L 75 30 Q 75 30 75 30 L 0 30 Q 0 30 0 30 L 0 0 Q 0 0 0 0 Z"/><path fill="none" stroke="#000000" d="M 0 0 M 0 0 L 75 0 Q 75 0 75 0 L 75 30 Q 75 30 75 30 L 0 30 Q 0 30 0 30 L 0 0 Q 0 0 0 0 Z" stroke-miterlimit="10" stroke-width="2"/></g></g></g></g></g><g transform="matrix(1,0,0,1,874,226)"><g><g><rect fill="rgb(0,0,0)" stroke="none" x="0" y="0" width="60" height="20" fill-opacity="0"/></g></g><g><g><rect fill="rgb(0,0,0)" stroke="none" x="0" y="0" width="60" height="14" fill-opacity="0"/></g></g><g><g><rect fill="rgb(0,0,0)" stroke="none" x="0" y="0" width="10" height="14" fill-opacity="0"/></g><text fill="rgb(0, 0, 0)" stroke="none" font-family="Arial" font-size="12px" font-style="normal" font-weight="normal" text-decoration="" line-height="14px" x="3" y="12">3</text></g></g><g transform="matrix(1,0,0,1,949,226)"><g><g><rect fill="rgb(0,0,0)" stroke="none" x="0" y="0" width="60" height="20" fill-opacity="0"/></g></g><g><g><rect fill="rgb(0,0,0)" stroke="none" x="0" y="0" width="60" height="14" fill-opacity="0"/></g></g><g><g><rect fill="rgb(0,0,0)" stroke="none" x="0" y="0" width="23" height="14" fill-opacity="0"/></g><text fill="rgb(0, 0, 0)" stroke="none" font-family="Arial" font-size="12px" font-style="normal" font-weight="normal" text-decoration="" line-height="14px" x="0" y="12">Asia</text></g></g><g transform="matrix(1,0,0,1,874,166)"><g><g><rect fill="rgb(0,0,0)" stroke="none" x="0" y="0" width="60" height="20" fill-opacity="0"/></g></g><g><g><rect fill="rgb(0,0,0)" stroke="none" x="0" y="0" width="60" height="14" fill-opacity="0"/></g></g><g><g><rect fill="rgb(0,0,0)" stroke="none" x="0" y="0" width="7" height="14" fill-opacity="0"/></g><text fill="rgb(0, 0, 0)" stroke="none" font-family="Arial" font-size="12px" font-style="normal" font-weight="normal" text-decoration="" line-height="14px" x="0" y="12">1</text></g></g><g transform="translate(0,0) matrix(1,0,0,1,941,158)"><g><g transform="translate(0,0) scale(0.75,0.3)"><g><path fill="#FFFFFF" stroke="none" d="M 0 0 L 100 0 Q 100 0 100 0 L 100 100 Q 100 100 100 100 L 0 100 Q 0 100 0 100 L 0 0 Q 0 0 0 0 Z"/><g transform="scale(1.3333333333333333,3.3333333333333335)"><path fill="none" stroke="none" d="M 0 0 L 75 0 Q 75 0 75 0 L 75 30 Q 75 30 75 30 L 0 30 Q 0 30 0 30 L 0 0 Q 0 0 0 0 Z"/><path fill="none" stroke="#000000" d="M 0 0 M 0 0 L 75 0 Q 75 0 75 0 L 75 30 Q 75 30 75 30 L 0 30 Q 0 30 0 30 L 0 0 Q 0 0 0 0 Z" stroke-miterlimit="10" stroke-width="2"/></g></g></g></g></g><g transform="matrix(1,0,0,1,949,166)"><g><g><rect fill="rgb(0,0,0)" stroke="none" x="0" y="0" width="60" height="20" fill-opacity="0"/></g></g><g><g><rect fill="rgb(0,0,0)" stroke="none" x="0" y="0" width="60" height="14" fill-opacity="0"/></g></g><g><g><rect fill="rgb(0,0,0)" stroke="none" x="0" y="0" width="39" height="14" fill-opacity="0"/></g><text fill="rgb(0, 0, 0)" stroke="none" font-family="Arial" font-size="12px" font-style="normal" font-weight="normal" text-decoration="" line-height="14px" x="0" y="12">Europe</text></g></g><g transform="translate(0,0) matrix(1,0,0,1,866,188)"><g><g transform="translate(0,0) scale(0.75,0.3)"><g><path fill="#FFFFFF" stroke="none" d="M 0 0 L 100 0 Q 100 0 100 0 L 100 100 Q 100 100 100 100 L 0 100 Q 0 100 0 100 L 0 0 Q 0 0 0 0 Z"/><g transform="scale(1.3333333333333333,3.3333333333333335)"><path fill="none" stroke="none" d="M 0 0 L 75 0 Q 75 0 75 0 L 75 30 Q 75 30 75 30 L 0 30 Q 0 30 0 30 L 0 0 Q 0 0 0 0 Z"/><path fill="none" stroke="#000000" d="M 0 0 M 0 0 L 75 0 Q 75 0 75 0 L 75 30 Q 75 30 75 30 L 0 30 Q 0 30 0 30 L 0 0 Q 0 0 0 0 Z" stroke-miterlimit="10" stroke-width="2"/></g></g></g></g></g><g transform="matrix(1,0,0,1,874,196)"><g><g><rect fill="rgb(0,0,0)" stroke="none" x="0" y="0" width="60" height="20" fill-opacity="0"/></g></g><g><g><rect fill="rgb(0,0,0)" stroke="none" x="0" y="0" width="60" height="14" fill-opacity="0"/></g></g><g><g><rect fill="rgb(0,0,0)" stroke="none" x="0" y="0" width="7" height="14" fill-opacity="0"/></g><text fill="rgb(0, 0, 0)" stroke="none" font-family="Arial" font-size="12px" font-style="normal" font-weight="normal" text-decoration="" line-height="14px" x="0" y="12">2</text></g></g><g transform="translate(0,0) matrix(1,0,0,1,941,188)"><g><g transform="translate(0,0) scale(0.75,0.3)"><g><path fill="#FFFFFF" stroke="none" d="M 0 0 L 100 0 Q 100 0 100 0 L 100 100 Q 100 100 100 100 L 0 100 Q 0 100 0 100 L 0 0 Q 0 0 0 0 Z"/><g transform="scale(1.3333333333333333,3.3333333333333335)"><path fill="none" stroke="none" d="M 0 0 L 75 0 Q 75 0 75 0 L 75 30 Q 75 30 75 30 L 0 30 Q 0 30 0 30 L 0 0 Q 0 0 0 0 Z"/><path fill="none" stroke="#000000" d="M 0 0 M 0 0 L 75 0 Q 75 0 75 0 L 75 30 Q 75 30 75 30 L 0 30 Q 0 30 0 30 L 0 0 Q 0 0 0 0 Z" stroke-miterlimit="10" stroke-width="2"/></g></g></g></g></g><g transform="matrix(1,0,0,1,949,196)"><g><g><rect fill="rgb(0,0,0)" stroke="none" x="0" y="0" width="60" height="20" fill-opacity="0"/></g></g><g><g><rect fill="rgb(0,0,0)" stroke="none" x="0" y="0" width="60" height="14" fill-opacity="0"/></g></g><g><g><rect fill="rgb(0,0,0)" stroke="none" x="0" y="0" width="31" height="14" fill-opacity="0"/></g><text fill="rgb(0, 0, 0)" stroke="none" font-family="Arial" font-size="12px" font-style="normal" font-weight="normal" text-decoration="" line-height="14px" x="0" y="12">Africa</text></g></g><g transform="matrix(1,0,0,1,874,103)"><g><g><rect fill="rgb(0,0,0)" stroke="none" x="0" y="0" width="135" height="26" fill-opacity="0"/></g></g><g><g><rect fill="rgb(0,0,0)" stroke="none" x="0" y="0" width="135" height="20" fill-opacity="0"/></g></g><g><g><rect fill="rgb(0,0,0)" stroke="none" x="0" y="0" width="72" height="20" fill-opacity="0"/></g><text fill="rgb(0, 0, 0)" stroke="none" font-family="Arial" font-size="18px" font-style="normal" font-weight="700" text-decoration="" line-height="20.5px" x="0" y="17">Address</text></g></g><g transform="translate(0,0) matrix(1,0,0,1,86,236)"><g><g transform="translate(0,0) scale(2.23,0.375609756097561)"><g><path fill="#E5E5E5" stroke="none" d="M 0 0 L 100 0 Q 100 0 100 0 L 100 100 Q 100 100 100 100 L 0 100 Q 0 100 0 100 L 0 0 Q 0 0 0 0 Z"/><g transform="scale(0.4484304932735426,2.6623376623376624)"><path fill="none" stroke="none" d="M 0 0 L 223 0 Q 223 0 223 0 L 223 37.5609756097561 Q 223 37.5609756097561 223 37.5609756097561 L 0 37.5609756097561 Q 0 37.5609756097561 0 37.5609756097561 L 0 0 Q 0 0 0 0 Z"/><path fill="none" stroke="#000000" d="M 0 0 M 0 0 L 223 0 Q 223 0 223 0 L 223 37.5609756097561 Q 223 37.5609756097561 223 37.5609756097561 L 0 37.5609756097561 Q 0 37.5609756097561 0 37.5609756097561 L 0 0 Q 0 0 0 0 Z" stroke-miterlimit="10" stroke-width="2"/></g></g></g></g></g><g transform="translate(0,0) matrix(1,0,0,1,86,355.39024390243907)"><g><g transform="translate(0,0) scale(1.09,0.32609756097560977)"><g><path fill="#FFFFFF" stroke="none" d="M 0 0 L 100 0 Q 100 0 100 0 L 100 100 Q 100 100 100 100 L 0 100 Q 0 100 0 100 L 0 0 Q 0 0 0 0 Z"/><g transform="scale(0.9174311926605504,3.0665669409124905)"><path fill="none" stroke="none" d="M 0 0 L 109.00000000000001 0 Q 109.00000000000001 0 109.00000000000001 0 L 109.00000000000001 32.609756097560975 Q 109.00000000000001 32.609756097560975 109.00000000000001 32.609756097560975 L 0 32.609756097560975 Q 0 32.609756097560975 0 32.609756097560975 L 0 0 Q 0 0 0 0 Z"/><path fill="none" stroke="#000000" d="M 0 0 M 0 0 L 109.00000000000001 0 Q 109.00000000000001 0 109.00000000000001 0 L 109.00000000000001 32.609756097560975 Q 109.00000000000001 32.609756097560975 109.00000000000001 32.609756097560975 L 0 32.609756097560975 Q 0 32.609756097560975 0 32.609756097560975 L 0 0 Q 0 0 0 0 Z" stroke-miterlimit="10" stroke-width="2"/></g></g></g></g></g><g transform="translate(0,0) matrix(1,0,0,1,195,355.39024390243907)"><g><g transform="translate(0,0) scale(1.14,0.32609756097560977)"><g><path fill="#FFFFFF" stroke="none" d="M 0 0 L 100 0 Q 100 0 100 0 L 100 100 Q 100 100 100 100 L 0 100 Q 0 100 0 100 L 0 0 Q 0 0 0 0 Z"/><g transform="scale(0.8771929824561404,3.0665669409124905)"><path fill="none" stroke="none" d="M 0 0 L 113.99999999999999 0 Q 113.99999999999999 0 113.99999999999999 0 L 113.99999999999999 32.609756097560975 Q 113.99999999999999 32.609756097560975 113.99999999999999 32.609756097560975 L 0 32.609756097560975 Q 0 32.609756097560975 0 32.609756097560975 L 0 0 Q 0 0 0 0 Z"/><path fill="none" stroke="#000000" d="M 0 0 M 0 0 L 113.99999999999999 0 Q 113.99999999999999 0 113.99999999999999 0 L 113.99999999999999 32.609756097560975 Q 113.99999999999999 32.609756097560975 113.99999999999999 32.609756097560975 L 0 32.609756097560975 Q 0 32.609756097560975 0 32.609756097560975 L 0 0 Q 0 0 0 0 Z" stroke-miterlimit="10" stroke-width="2"/></g></g></g></g></g><g transform="translate(0,0) matrix(1,0,0,1,86,273.5609756097561)"><g><g transform="translate(0,0) scale(1.09,0.25609756097560976)"><g><path fill="#E5E5E5" stroke="none" d="M 0 0 L 100 0 Q 100 0 100 0 L 100 100 Q 100 100 100 100 L 0 100 Q 0 100 0 100 L 0 0 Q 0 0 0 0 Z"/><g transform="scale(0.9174311926605504,3.9047619047619047)"><path fill="none" stroke="none" d="M 0 0 L 109.00000000000001 0 Q 109.00000000000001 0 109.00000000000001 0 L 109.00000000000001 25.609756097560975 Q 109.00000000000001 25.609756097560975 109.00000000000001 25.609756097560975 L 0 25.609756097560975 Q 0 25.609756097560975 0 25.609756097560975 L 0 0 Q 0 0 0 0 Z"/><path fill="none" stroke="#000000" d="M 0 0 M 0 0 L 109.00000000000001 0 Q 109.00000000000001 0 109.00000000000001 0 L 109.00000000000001 25.609756097560975 Q 109.00000000000001 25.609756097560975 109.00000000000001 25.609756097560975 L 0 25.609756097560975 Q 0 25.609756097560975 0 25.609756097560975 L 0 0 Q 0 0 0 0 Z" stroke-miterlimit="10" stroke-width="2"/></g></g></g></g></g><g transform="translate(0,0) matrix(1,0,0,1,195,273.5609756097561)"><g><g transform="translate(0,0) scale(1.14,0.25609756097560976)"><g><path fill="#E5E5E5" stroke="none" d="M 0 0 L 100 0 Q 100 0 100 0 L 100 100 Q 100 100 100 100 L 0 100 Q 0 100 0 100 L 0 0 Q 0 0 0 0 Z"/><g transform="scale(0.8771929824561404,3.9047619047619047)"><path fill="none" stroke="none" d="M 0 0 L 113.99999999999999 0 Q 113.99999999999999 0 113.99999999999999 0 L 113.99999999999999 25.609756097560975 Q 113.99999999999999 25.609756097560975 113.99999999999999 25.609756097560975 L 0 25.609756097560975 Q 0 25.609756097560975 0 25.609756097560975 L 0 0 Q 0 0 0 0 Z"/><path fill="none" stroke="#000000" d="M 0 0 M 0 0 L 113.99999999999999 0 Q 113.99999999999999 0 113.99999999999999 0 L 113.99999999999999 25.609756097560975 Q 113.99999999999999 25.609756097560975 113.99999999999999 25.609756097560975 L 0 25.609756097560975 Q 0 25.609756097560975 0 25.609756097560975 L 0 0 Q 0 0 0 0 Z" stroke-miterlimit="10" stroke-width="2"/></g></g></g></g></g><g transform="matrix(1,0,0,1,94,279)"><g><g><rect fill="rgb(0,0,0)" stroke="none" x="0" y="0" width="94" height="20" fill-opacity="0"/></g></g><g><g><rect fill="rgb(0,0,0)" stroke="none" x="0" y="0" width="94" height="14" fill-opacity="0"/></g></g><g><g><rect fill="rgb(0,0,0)" stroke="none" x="0" y="0" width="60" height="14" fill-opacity="0"/></g><text fill="rgb(0, 0, 0)" stroke="none" font-family="Arial" font-size="12px" font-style="normal" font-weight="700" text-decoration="" line-height="14px" x="0" y="12">contact_id</text></g></g><g transform="matrix(1,0,0,1,203,279)"><g><g><rect fill="rgb(0,0,0)" stroke="none" x="0" y="0" width="99" height="20" fill-opacity="0"/></g></g><g><g><rect fill="rgb(0,0,0)" stroke="none" x="0" y="0" width="99" height="14" fill-opacity="0"/></g></g><g><g><rect fill="rgb(0,0,0)" stroke="none" x="0" y="0" width="39" height="14" fill-opacity="0"/></g><text fill="rgb(0, 0, 0)" stroke="none" font-family="Arial" font-size="12px" font-style="normal" font-weight="700" text-decoration="" line-height="14px" x="0" y="12">role_id</text></g></g><g transform="translate(0,0) matrix(1,0,0,1,86,299.1707317073171)"><g><g transform="translate(0,0) scale(1.09,0.2860975609756098)"><g><path fill="#FFFFFF" stroke="none" d="M 0 0 L 100 0 Q 100 0 100 0 L 100 100 Q 100 100 100 100 L 0 100 Q 0 100 0 100 L 0 0 Q 0 0 0 0 Z"/><g transform="scale(0.9174311926605504,3.4953111679454385)"><path fill="none" stroke="none" d="M 0 0 L 109.00000000000001 0 Q 109.00000000000001 0 109.00000000000001 0 L 109.00000000000001 28.60975609756098 Q 109.00000000000001 28.60975609756098 109.00000000000001 28.60975609756098 L 0 28.60975609756098 Q 0 28.60975609756098 0 28.60975609756098 L 0 0 Q 0 0 0 0 Z"/><path fill="none" stroke="#000000" d="M 0 0 M 0 0 L 109.00000000000001 0 Q 109.00000000000001 0 109.00000000000001 0 L 109.00000000000001 28.60975609756098 Q 109.00000000000001 28.60975609756098 109.00000000000001 28.60975609756098 L 0 28.60975609756098 Q 0 28.60975609756098 0 28.60975609756098 L 0 0 Q 0 0 0 0 Z" stroke-miterlimit="10" stroke-width="2"/></g></g></g></g></g><g transform="matrix(1,0,0,1,94,365)"><g><g><rect fill="rgb(0,0,0)" stroke="none" x="0" y="0" width="94" height="20" fill-opacity="0"/></g></g><g><g><rect fill="rgb(0,0,0)" stroke="none" x="0" y="0" width="94" height="14" fill-opacity="0"/></g></g><g><g><rect fill="rgb(0,0,0)" stroke="none" x="0" y="0" width="10" height="14" fill-opacity="0"/></g><text fill="rgb(0, 0, 0)" stroke="none" font-family="Arial" font-size="12px" font-style="normal" font-weight="normal" text-decoration="" line-height="14px" x="3" y="12">3</text></g></g><g transform="matrix(1,0,0,1,203,365)"><g><g><rect fill="rgb(0,0,0)" stroke="none" x="0" y="0" width="99" height="20" fill-opacity="0"/></g></g><g><g><rect fill="rgb(0,0,0)" stroke="none" x="0" y="0" width="99" height="14" fill-opacity="0"/></g></g><g><g><rect fill="rgb(0,0,0)" stroke="none" x="0" y="0" width="7" height="14" fill-opacity="0"/></g><text fill="rgb(0, 0, 0)" stroke="none" font-family="Arial" font-size="12px" font-style="normal" font-weight="normal" text-decoration="" line-height="14px" x="0" y="12">3</text></g></g><g transform="matrix(1,0,0,1,94,306)"><g><g><rect fill="rgb(0,0,0)" stroke="none" x="0" y="0" width="94" height="20" fill-opacity="0"/></g></g><g><g><rect fill="rgb(0,0,0)" stroke="none" x="0" y="0" width="94" height="14" fill-opacity="0"/></g></g><g><g><rect fill="rgb(0,0,0)" stroke="none" x="0" y="0" width="7" height="14" fill-opacity="0"/></g><text fill="rgb(0, 0, 0)" stroke="none" font-family="Arial" font-size="12px" font-style="normal" font-weight="normal" text-decoration="" line-height="14px" x="0" y="12">1</text></g></g><g transform="translate(0,0) matrix(1,0,0,1,195,299.1707317073171)"><g><g transform="translate(0,0) scale(1.14,0.2860975609756098)"><g><path fill="#FFFFFF" stroke="none" d="M 0 0 L 100 0 Q 100 0 100 0 L 100 100 Q 100 100 100 100 L 0 100 Q 0 100 0 100 L 0 0 Q 0 0 0 0 Z"/><g transform="scale(0.8771929824561404,3.4953111679454385)"><path fill="none" stroke="none" d="M 0 0 L 113.99999999999999 0 Q 113.99999999999999 0 113.99999999999999 0 L 113.99999999999999 28.60975609756098 Q 113.99999999999999 28.60975609756098 113.99999999999999 28.60975609756098 L 0 28.60975609756098 Q 0 28.60975609756098 0 28.60975609756098 L 0 0 Q 0 0 0 0 Z"/><path fill="none" stroke="#000000" d="M 0 0 M 0 0 L 113.99999999999999 0 Q 113.99999999999999 0 113.99999999999999 0 L 113.99999999999999 28.60975609756098 Q 113.99999999999999 28.60975609756098 113.99999999999999 28.60975609756098 L 0 28.60975609756098 Q 0 28.60975609756098 0 28.60975609756098 L 0 0 Q 0 0 0 0 Z" stroke-miterlimit="10" stroke-width="2"/></g></g></g></g></g><g transform="matrix(1,0,0,1,203,306)"><g><g><rect fill="rgb(0,0,0)" stroke="none" x="0" y="0" width="99" height="20" fill-opacity="0"/></g></g><g><g><rect fill="rgb(0,0,0)" stroke="none" x="0" y="0" width="99" height="14" fill-opacity="0"/></g></g><g><g><rect fill="rgb(0,0,0)" stroke="none" x="0" y="0" width="7" height="14" fill-opacity="0"/></g><text fill="rgb(0, 0, 0)" stroke="none" font-family="Arial" font-size="12px" font-style="normal" font-weight="normal" text-decoration="" line-height="14px" x="0" y="12">2</text></g></g><g transform="translate(0,0) matrix(1,0,0,1,86,327.7804878048781)"><g><g transform="translate(0,0) scale(1.09,0.2760975609756098)"><g><path fill="#FFFFFF" stroke="none" d="M 0 0 L 100 0 Q 100 0 100 0 L 100 100 Q 100 100 100 100 L 0 100 Q 0 100 0 100 L 0 0 Q 0 0 0 0 Z"/><g transform="scale(0.9174311926605504,3.62190812720848)"><path fill="none" stroke="none" d="M 0 0 L 109.00000000000001 0 Q 109.00000000000001 0 109.00000000000001 0 L 109.00000000000001 27.60975609756098 Q 109.00000000000001 27.60975609756098 109.00000000000001 27.60975609756098 L 0 27.60975609756098 Q 0 27.60975609756098 0 27.60975609756098 L 0 0 Q 0 0 0 0 Z"/><path fill="none" stroke="#000000" d="M 0 0 M 0 0 L 109.00000000000001 0 Q 109.00000000000001 0 109.00000000000001 0 L 109.00000000000001 27.60975609756098 Q 109.00000000000001 27.60975609756098 109.00000000000001 27.60975609756098 L 0 27.60975609756098 Q 0 27.60975609756098 0 27.60975609756098 L 0 0 Q 0 0 0 0 Z" stroke-miterlimit="10" stroke-width="2"/></g></g></g></g></g><g transform="matrix(1,0,0,1,94,335)"><g><g><rect fill="rgb(0,0,0)" stroke="none" x="0" y="0" width="94" height="20" fill-opacity="0"/></g></g><g><g><rect fill="rgb(0,0,0)" stroke="none" x="0" y="0" width="94" height="14" fill-opacity="0"/></g></g><g><g><rect fill="rgb(0,0,0)" stroke="none" x="0" y="0" width="7" height="14" fill-opacity="0"/></g><text fill="rgb(0, 0, 0)" stroke="none" font-family="Arial" font-size="12px" font-style="normal" font-weight="normal" text-decoration="" line-height="14px" x="0" y="12">2</text></g></g><g transform="translate(0,0) matrix(1,0,0,1,195,327.7804878048781)"><g><g transform="translate(0,0) scale(1.14,0.2760975609756098)"><g><path fill="#FFFFFF" stroke="none" d="M 0 0 L 100 0 Q 100 0 100 0 L 100 100 Q 100 100 100 100 L 0 100 Q 0 100 0 100 L 0 0 Q 0 0 0 0 Z"/><g transform="scale(0.8771929824561404,3.62190812720848)"><path fill="none" stroke="none" d="M 0 0 L 113.99999999999999 0 Q 113.99999999999999 0 113.99999999999999 0 L 113.99999999999999 27.60975609756098 Q 113.99999999999999 27.60975609756098 113.99999999999999 27.60975609756098 L 0 27.60975609756098 Q 0 27.60975609756098 0 27.60975609756098 L 0 0 Q 0 0 0 0 Z"/><path fill="none" stroke="#000000" d="M 0 0 M 0 0 L 113.99999999999999 0 Q 113.99999999999999 0 113.99999999999999 0 L 113.99999999999999 27.60975609756098 Q 113.99999999999999 27.60975609756098 113.99999999999999 27.60975609756098 L 0 27.60975609756098 Q 0 27.60975609756098 0 27.60975609756098 L 0 0 Q 0 0 0 0 Z" stroke-miterlimit="10" stroke-width="2"/></g></g></g></g></g><g transform="matrix(1,0,0,1,203,335)"><g><g><rect fill="rgb(0,0,0)" stroke="none" x="0" y="0" width="99" height="20" fill-opacity="0"/></g></g><g><g><rect fill="rgb(0,0,0)" stroke="none" x="0" y="0" width="99" height="14" fill-opacity="0"/></g></g><g><g><rect fill="rgb(0,0,0)" stroke="none" x="0" y="0" width="7" height="14" fill-opacity="0"/></g><text fill="rgb(0, 0, 0)" stroke="none" font-family="Arial" font-size="12px" font-style="normal" font-weight="normal" text-decoration="" line-height="14px" x="0" y="12">1</text></g></g><g transform="matrix(1,0,0,1,94,245)"><g><g><rect fill="rgb(0,0,0)" stroke="none" x="0" y="0" width="208" height="26" fill-opacity="0"/></g></g><g><g><rect fill="rgb(0,0,0)" stroke="none" x="0" y="0" width="208" height="20" fill-opacity="0"/></g></g><g><g><rect fill="rgb(0,0,0)" stroke="none" x="0" y="0" width="106" height="20" fill-opacity="0"/></g><text fill="rgb(0, 0, 0)" stroke="none" font-family="Arial" font-size="18px" font-style="normal" font-weight="700" text-decoration="" line-height="20.5px" x="0" y="17">ContactRole</text></g></g><g transform="translate(0,0) matrix(1,0,0,1,86,655)"><g><g transform="translate(0,0) scale(4.500000000000001,0.5)"><g><g transform="scale(0.22222222222222218,2)"><path fill="#FFFFFF" stroke="none" d="M 0 25 L 25 0 L 25 15 L 450.0000000000001 15 L 450.0000000000001 35 L 25 35 L 25 50 L 0 25 Z"/><path fill="none" stroke="#333333" d="M 0 25 M 0 25 L 25 0 L 25 15 L 450.0000000000001 15 L 450.0000000000001 35 L 25 35 L 25 50 L 0 25 Z" stroke-miterlimit="10" stroke-width="2"/></g></g></g></g></g><g transform="matrix(1,0,0,1,96,673)"><g><g><rect fill="rgb(0,0,0)" stroke="none" x="0" y="0" width="431" height="14" fill-opacity="0"/></g></g><g><g><rect fill="rgb(0,0,0)" stroke="none" x="0" y="0" width="431" height="14" fill-opacity="0"/></g></g><g><g><rect fill="rgb(0,0,0)" stroke="none" x="194.828125" y="0" width="41" height="14" fill-opacity="0"/></g></g><g><g><rect fill="rgb(0,0,0)" stroke="none" x="194.828125" y="0" width="41" height="14" fill-opacity="0"/></g><text fill="rgb(0, 0, 0)" stroke="none" font-family="Arial" font-size="12px" font-style="normal" font-weight="normal" text-decoration="" line-height="14px" x="194.828125" y="12">Context</text></g></g><g transform="translate(0,0) matrix(-1.8369701987210297e-16,-1,1,-1.8369701987210297e-16,906,755)"><g><g transform="translate(0,0) scale(1,0.5)"><g><g transform="scale(1,2)"><path fill="#FFFFFF" stroke="none" d="M 0 15 L 75 15 L 75 0 L 100 25 L 75 50 L 75 35 L 0 35 L 0 15 Z"/><path fill="none" stroke="#333333" d="M 0 15 M 0 15 L 75 15 L 75 0 L 100 25 L 75 50 L 75 35 L 0 35 L 0 15 Z" stroke-miterlimit="10" stroke-width="2"/></g></g></g></g></g><g transform="matrix(-1.8369701987210297e-16,-1,1,-1.8369701987210297e-16,924,745)"><g><g><rect fill="rgb(0,0,0)" stroke="none" x="0" y="0" width="81" height="14" fill-opacity="0"/></g></g><g><g><rect fill="rgb(0,0,0)" stroke="none" x="0" y="0" width="81" height="14" fill-opacity="0"/></g></g><g><g><rect fill="rgb(0,0,0)" stroke="none" x="20.484375" y="0" width="41" height="14" fill-opacity="0"/></g></g><g><g><rect fill="rgb(0,0,0)" stroke="none" x="20.484375" y="0" width="41" height="14" fill-opacity="0"/></g><text fill="rgb(0, 0, 0)" stroke="none" font-family="Arial" font-size="12px" font-style="normal" font-weight="normal" text-decoration="" line-height="14px" x="20.484375" y="12">Subject</text></g></g><g transform="translate(0,0) matrix(-1.8369701987210297e-16,-1,1,-1.8369701987210297e-16,682.5,755)"><g><g transform="translate(0,0) scale(1,0.5)"><g><g transform="scale(1,2)"><path fill="#FFFFFF" stroke="none" d="M 0 15 L 75 15 L 75 0 L 100 25 L 75 50 L 75 35 L 0 35 L 0 15 Z"/><path fill="none" stroke="#333333" d="M 0 15 M 0 15 L 75 15 L 75 0 L 100 25 L 75 50 L 75 35 L 0 35 L 0 15 Z" stroke-miterlimit="10" stroke-width="2"/></g></g></g></g></g><g transform="matrix(-1.8369701987210297e-16,-1,1,-1.8369701987210297e-16,701,745)"><g><g><rect fill="rgb(0,0,0)" stroke="none" x="0" y="0" width="81" height="14" fill-opacity="0"/></g></g><g><g><rect fill="rgb(0,0,0)" stroke="none" x="0" y="0" width="81" height="14" fill-opacity="0"/></g></g><g><g><rect fill="rgb(0,0,0)" stroke="none" x="28.828125" y="0" width="23" height="14" fill-opacity="0"/></g></g><g><g><rect fill="rgb(0,0,0)" stroke="none" x="28.828125" y="0" width="23" height="14" fill-opacity="0"/></g><text fill="rgb(0, 0, 0)" stroke="none" font-family="Arial" font-size="12px" font-style="normal" font-weight="normal" text-decoration="" line-height="14px" x="28.828125" y="12">ACL</text></g></g><g transform="matrix(1,0,0,1,531,444)"><g transform="translate(0,0)"><g transform="translate(-535,-448) translate(4,4) matrix(1,0,0,1,0,0)"><g><path fill="none" stroke="#000000" d="M 535 448 L 566 448 L 566 448 L 597 448" stroke-miterlimit="10"/></g></g></g></g><g transform="matrix(1,0,0,1,531,154)"><g transform="translate(0,0)"><g transform="translate(-535,-158) translate(4,4) matrix(1,0,0,1,0,0)"><g><path fill="none" stroke="#000000" d="M 535 158 L 566 158 L 566 158 L 597 158" stroke-miterlimit="10"/></g></g></g></g><g transform="translate(0,0) matrix(1,0,0,1,380,576)"><g><g transform="translate(0,0) scale(1.68,0.5)"><g><g transform="scale(0.5952380952380952,2)"><path fill="#FFFFFF" stroke="none" d="M 0 25 L 25 0 L 25 15 L 143 15 L 143 0 L 168 25 L 143 50 L 143 35 L 25 35 L 25 50 L 0 25 Z"/><path fill="none" stroke="#333333" d="M 0 25 M 0 25 L 25 0 L 25 15 L 143 15 L 143 0 L 168 25 L 143 50 L 143 35 L 25 35 L 25 50 L 0 25 Z" stroke-miterlimit="10" stroke-width="2"/></g></g></g></g></g><g transform="matrix(1,0,0,1,391,594)"><g><g><rect fill="rgb(0,0,0)" stroke="none" x="0" y="0" width="146" height="14" fill-opacity="0"/></g></g><g><g><rect fill="rgb(0,0,0)" stroke="none" x="0" y="0" width="146" height="14" fill-opacity="0"/></g></g><g><g><rect fill="rgb(0,0,0)" stroke="none" x="7.765625" y="0" width="131" height="14" fill-opacity="0"/></g></g><g><g><rect fill="rgb(0,0,0)" stroke="none" x="7.765625" y="0" width="131" height="14" fill-opacity="0"/></g><text fill="rgb(0, 0, 0)" stroke="none" font-family="Arial" font-size="12px" font-style="normal" font-weight="normal" text-decoration="" line-height="14px" x="8" y="12">Context</text><text fill="rgb(0, 0, 0)" stroke="none" font-family="Arial" font-size="12px" font-style="normal" font-weight="normal" text-decoration="" line-height="14px" x="52" y="12">query</text><text fill="rgb(0, 0, 0)" stroke="none" font-family="Arial" font-size="12px" font-style="normal" font-weight="normal" text-decoration="" line-height="14px" x="86" y="12">start</text><text fill="rgb(0, 0, 0)" stroke="none" font-family="Arial" font-size="12px" font-style="normal" font-weight="normal" text-decoration="" line-height="14px" x="112" y="12">point</text></g></g><g transform="translate(0,0) matrix(1,0,0,1,383,9)"><g><g transform="translate(0,0) scale(1.68,0.5)"><g><g transform="scale(0.5952380952380952,2)"><path fill="#FFFFFF" stroke="none" d="M 0 25 L 25 0 L 25 15 L 143 15 L 143 0 L 168 25 L 143 50 L 143 35 L 25 35 L 25 50 L 0 25 Z"/><path fill="none" stroke="#333333" d="M 0 25 M 0 25 L 25 0 L 25 15 L 143 15 L 143 0 L 168 25 L 143 50 L 143 35 L 25 35 L 25 50 L 0 25 Z" stroke-miterlimit="10" stroke-width="2"/></g></g></g></g></g><g transform="matrix(1,0,0,1,394,27)"><g><g><rect fill="rgb(0,0,0)" stroke="none" x="0" y="0" width="146" height="14" fill-opacity="0"/></g></g><g><g><rect fill="rgb(0,0,0)" stroke="none" x="0" y="0" width="146" height="14" fill-opacity="0"/></g></g><g><g><rect fill="rgb(0,0,0)" stroke="none" x="7.765625" y="0" width="131" height="14" fill-opacity="0"/></g></g><g><g><rect fill="rgb(0,0,0)" stroke="none" x="7.765625" y="0" width="131" height="14" fill-opacity="0"/></g><text fill="rgb(0, 0, 0)" stroke="none" font-family="Arial" font-size="12px" font-style="normal" font-weight="normal" text-decoration="" line-height="14px" x="8" y="12">Context</text><text fill="rgb(0, 0, 0)" stroke="none" font-family="Arial" font-size="12px" font-style="normal" font-weight="normal" text-decoration="" line-height="14px" x="52" y="12">query</text><text fill="rgb(0, 0, 0)" stroke="none" font-family="Arial" font-size="12px" font-style="normal" font-weight="normal" text-decoration="" line-height="14px" x="86" y="12">start</text><text fill="rgb(0, 0, 0)" stroke="none" font-family="Arial" font-size="12px" font-style="normal" font-weight="normal" text-decoration="" line-height="14px" x="112" y="12">point</text></g></g><g transform="matrix(1,0,0,1,20,561)"><g transform="translate(0,0)"><g transform="translate(-222,-566) translate(202,5) matrix(1,0,0,1,0,0)"><g><path fill="none" stroke="#000000" d="M 24 565 L 514.5 565 L 514.5 565 L 1005 565" stroke-miterlimit="10"/></g></g></g></g><g transform="matrix(1,0,0,1,20,67)"><g transform="translate(0,0)"><g transform="translate(-231,-71) translate(211,4) matrix(1,0,0,1,0,0)"><g><path fill="none" stroke="#000000" d="M 24 71 L 521 71 L 521 71 L 1018 71" stroke-miterlimit="10"/></g></g></g></g><g transform="matrix(1,0,0,1,22,68)"><g transform="translate(0,0)"><g transform="translate(-2,-321) translate(-20,253) matrix(1,0,0,1,0,0)"><g><path fill="none" stroke="#000000" d="M 26 569 L 26 320.5 L 26 320.5 L 26 72" stroke-miterlimit="10"/></g></g></g></g><g transform="translate(0,0) matrix(1,0,0,1,15,61)"><g><g transform="translate(0,0) scale(0.39603960396039606,0.39603960396039606)"><g><g><path fill="#FFFFFF" stroke="rgb(0,0,0)" d="M 50.25 25.25 A 25 25 0 1 0 50.24998750000104 25.27499999583334 Z" stroke-opacity="0" stroke-miterlimit="10"/></g></g><g><g><path fill="rgb(0,0,0)" stroke="#000000" d="M 50.25 25.25 A 25 25 0 1 0 50.24998750000104 25.27499999583334 Z" fill-opacity="0" stroke-miterlimit="10"/></g></g></g></g></g><g transform="translate(0,0) matrix(1,0,0,1,17,553)"><g><g transform="translate(0,0) scale(0.39603960396039606,0.39603960396039606)"><g><g><path fill="#FFFFFF" stroke="rgb(0,0,0)" d="M 50.25 25.25 A 25 25 0 1 0 50.24998750000104 25.27499999583334 Z" stroke-opacity="0" stroke-miterlimit="10"/></g></g><g><g><path fill="rgb(0,0,0)" stroke="#000000" d="M 50.25 25.25 A 25 25 0 1 0 50.24998750000104 25.27499999583334 Z" fill-opacity="0" stroke-miterlimit="10"/></g></g></g></g></g><g transform="translate(0,0) matrix(1,0,0,1,563,388)"><g><g transform="translate(0,0) scale(2.78,0.375609756097561)"><g><path fill="#E5E5E5" stroke="none" d="M 0 0 L 100 0 Q 100 0 100 0 L 100 100 Q 100 100 100 100 L 0 100 Q 0 100 0 100 L 0 0 Q 0 0 0 0 Z"/><g transform="scale(0.3597122302158274,2.6623376623376624)"><path fill="none" stroke="none" d="M 0 0 L 278 0 Q 278 0 278 0 L 278 37.5609756097561 Q 278 37.5609756097561 278 37.5609756097561 L 0 37.5609756097561 Q 0 37.5609756097561 0 37.5609756097561 L 0 0 Q 0 0 0 0 Z"/><path fill="none" stroke="#000000" d="M 0 0 M 0 0 L 278 0 Q 278 0 278 0 L 278 37.5609756097561 Q 278 37.5609756097561 278 37.5609756097561 L 0 37.5609756097561 Q 0 37.5609756097561 0 37.5609756097561 L 0 0 Q 0 0 0 0 Z" stroke-miterlimit="10" stroke-width="2"/></g></g></g></g></g><g transform="translate(0,0) matrix(1,0,0,1,563,513.780487804878)"><g><g transform="translate(0,0) scale(1.3588340807174886,0.32609756097560977)"><g><path fill="#FFFFFF" stroke="none" d="M 0 0 L 100 0 Q 100 0 100 0 L 100 100 Q 100 100 100 100 L 0 100 Q 0 100 0 100 L 0 0 Q 0 0 0 0 Z"/><g transform="scale(0.7359250214507295,3.0665669409124905)"><path fill="none" stroke="none" d="M 0 0 L 135.88340807174885 0 Q 135.88340807174885 0 135.88340807174885 0 L 135.88340807174885 32.609756097560975 Q 135.88340807174885 32.609756097560975 135.88340807174885 32.609756097560975 L 0 32.609756097560975 Q 0 32.609756097560975 0 32.609756097560975 L 0 0 Q 0 0 0 0 Z"/><path fill="none" stroke="#000000" d="M 0 0 M 0 0 L 135.88340807174885 0 Q 135.88340807174885 0 135.88340807174885 0 L 135.88340807174885 32.609756097560975 Q 135.88340807174885 32.609756097560975 135.88340807174885 32.609756097560975 L 0 32.609756097560975 Q 0 32.609756097560975 0 32.609756097560975 L 0 0 Q 0 0 0 0 Z" stroke-miterlimit="10" stroke-width="2"/></g></g></g></g></g><g transform="translate(0,0) matrix(1,0,0,1,698.8834080717488,513.780487804878)"><g><g transform="translate(0,0) scale(1.4211659192825112,0.32609756097560977)"><g><path fill="#FFFFFF" stroke="none" d="M 0 0 L 100 0 Q 100 0 100 0 L 100 100 Q 100 100 100 100 L 0 100 Q 0 100 0 100 L 0 0 Q 0 0 0 0 Z"/><g transform="scale(0.7036476082292061,3.0665669409124905)"><path fill="none" stroke="none" d="M 0 0 L 142.11659192825113 0 Q 142.11659192825113 0 142.11659192825113 0 L 142.11659192825113 32.609756097560975 Q 142.11659192825113 32.609756097560975 142.11659192825113 32.609756097560975 L 0 32.609756097560975 Q 0 32.609756097560975 0 32.609756097560975 L 0 0 Q 0 0 0 0 Z"/><path fill="none" stroke="#000000" d="M 0 0 M 0 0 L 142.11659192825113 0 Q 142.11659192825113 0 142.11659192825113 0 L 142.11659192825113 32.609756097560975 Q 142.11659192825113 32.609756097560975 142.11659192825113 32.609756097560975 L 0 32.609756097560975 Q 0 32.609756097560975 0 32.609756097560975 L 0 0 Q 0 0 0 0 Z" stroke-miterlimit="10" stroke-width="2"/></g></g></g></g></g><g transform="translate(0,0) matrix(1,0,0,1,563,425.5609756097561)"><g><g transform="translate(0,0) scale(1.3588340807174886,0.32)"><g><path fill="#E5E5E5" stroke="none" d="M 0 0 L 100 0 Q 100 0 100 0 L 100 100 Q 100 100 100 100 L 0 100 Q 0 100 0 100 L 0 0 Q 0 0 0 0 Z"/><g transform="scale(0.7359250214507295,3.125)"><path fill="none" stroke="none" d="M 0 0 L 135.88340807174885 0 Q 135.88340807174885 0 135.88340807174885 0 L 135.88340807174885 32 Q 135.88340807174885 32 135.88340807174885 32 L 0 32 Q 0 32 0 32 L 0 0 Q 0 0 0 0 Z"/><path fill="none" stroke="#000000" d="M 0 0 M 0 0 L 135.88340807174885 0 Q 135.88340807174885 0 135.88340807174885 0 L 135.88340807174885 32 Q 135.88340807174885 32 135.88340807174885 32 L 0 32 Q 0 32 0 32 L 0 0 Q 0 0 0 0 Z" stroke-miterlimit="10" stroke-width="2"/></g></g></g></g></g><g transform="translate(0,0) matrix(1,0,0,1,698.8834080717488,425.5609756097561)"><g><g transform="translate(0,0) scale(1.4211659192825112,0.32)"><g><path fill="#E5E5E5" stroke="none" d="M 0 0 L 100 0 Q 100 0 100 0 L 100 100 Q 100 100 100 100 L 0 100 Q 0 100 0 100 L 0 0 Q 0 0 0 0 Z"/><g transform="scale(0.7036476082292061,3.125)"><path fill="none" stroke="none" d="M 0 0 L 142.11659192825113 0 Q 142.11659192825113 0 142.11659192825113 0 L 142.11659192825113 32 Q 142.11659192825113 32 142.11659192825113 32 L 0 32 Q 0 32 0 32 L 0 0 Q 0 0 0 0 Z"/><path fill="none" stroke="#000000" d="M 0 0 M 0 0 L 142.11659192825113 0 Q 142.11659192825113 0 142.11659192825113 0 L 142.11659192825113 32 Q 142.11659192825113 32 142.11659192825113 32 L 0 32 Q 0 32 0 32 L 0 0 Q 0 0 0 0 Z" stroke-miterlimit="10" stroke-width="2"/></g></g></g></g></g><g transform="matrix(1,0,0,1,571,435)"><g><g><rect fill="rgb(0,0,0)" stroke="none" x="0" y="0" width="121" height="20" fill-opacity="0"/></g></g><g><g><rect fill="rgb(0,0,0)" stroke="none" x="0" y="0" width="121" height="14" fill-opacity="0"/></g></g><g><g><rect fill="rgb(0,0,0)" stroke="none" x="0" y="0" width="83" height="14" fill-opacity="0"/></g><text fill="rgb(0, 0, 0)" stroke="none" font-family="Arial" font-size="12px" font-style="normal" font-weight="700" text-decoration="" line-height="14px" x="0" y="12">entity_id</text><text fill="rgb(0, 0, 0)" stroke="none" font-family="Arial" font-size="12px" font-style="normal" font-weight="700" text-decoration="" line-height="14px" x="49" y="12"> (</text><text fill="rgb(0, 0, 0)" stroke="none" font-family="Arial" font-size="12px" font-style="normal" font-weight="700" text-decoration="" line-height="14px" x="57" y="12">role</text><text fill="rgb(0, 0, 0)" stroke="none" font-family="Arial" font-size="12px" font-style="normal" font-weight="700" text-decoration="" line-height="14px" x="79" y="12">)</text></g></g><g transform="matrix(1,0,0,1,707,435)"><g><g><rect fill="rgb(0,0,0)" stroke="none" x="0" y="0" width="127" height="20" fill-opacity="0"/></g></g><g><g><rect fill="rgb(0,0,0)" stroke="none" x="0" y="0" width="127" height="14" fill-opacity="0"/></g></g><g><g><rect fill="rgb(0,0,0)" stroke="none" x="4.859375" y="0" width="117" height="14" fill-opacity="0"/></g><text fill="rgb(0, 0, 0)" stroke="none" font-family="Arial" font-size="12px" font-style="normal" font-weight="700" text-decoration="" line-height="14px" x="4.859375" y="12">referenced_entity_id</text></g></g><g transform="translate(0,0) matrix(1,0,0,1,563,457.5609756097561)"><g><g transform="translate(0,0) scale(1.3588340807174886,0.2860975609756098)"><g><path fill="#FFFFFF" stroke="none" d="M 0 0 L 100 0 Q 100 0 100 0 L 100 100 Q 100 100 100 100 L 0 100 Q 0 100 0 100 L 0 0 Q 0 0 0 0 Z"/><g transform="scale(0.7359250214507295,3.4953111679454385)"><path fill="none" stroke="none" d="M 0 0 L 135.88340807174885 0 Q 135.88340807174885 0 135.88340807174885 0 L 135.88340807174885 28.60975609756098 Q 135.88340807174885 28.60975609756098 135.88340807174885 28.60975609756098 L 0 28.60975609756098 Q 0 28.60975609756098 0 28.60975609756098 L 0 0 Q 0 0 0 0 Z"/><path fill="none" stroke="#000000" d="M 0 0 M 0 0 L 135.88340807174885 0 Q 135.88340807174885 0 135.88340807174885 0 L 135.88340807174885 28.60975609756098 Q 135.88340807174885 28.60975609756098 135.88340807174885 28.60975609756098 L 0 28.60975609756098 Q 0 28.60975609756098 0 28.60975609756098 L 0 0 Q 0 0 0 0 Z" stroke-miterlimit="10" stroke-width="2"/></g></g></g></g></g><g transform="matrix(1,0,0,1,571,523)"><g><g><rect fill="rgb(0,0,0)" stroke="none" x="0" y="0" width="121" height="20" fill-opacity="0"/></g></g><g><g><rect fill="rgb(0,0,0)" stroke="none" x="0" y="0" width="121" height="14" fill-opacity="0"/></g></g><g><g><rect fill="rgb(0,0,0)" stroke="none" x="0" y="0" width="10" height="14" fill-opacity="0"/></g><text fill="rgb(0, 0, 0)" stroke="none" font-family="Arial" font-size="12px" font-style="normal" font-weight="normal" text-decoration="" line-height="14px" x="3" y="12">3</text></g></g><g transform="matrix(1,0,0,1,707,523)"><g><g><rect fill="rgb(0,0,0)" stroke="none" x="0" y="0" width="127" height="20" fill-opacity="0"/></g></g><g><g><rect fill="rgb(0,0,0)" stroke="none" x="0" y="0" width="127" height="14" fill-opacity="0"/></g></g><g><g><rect fill="rgb(0,0,0)" stroke="none" x="0" y="0" width="7" height="14" fill-opacity="0"/></g><text fill="rgb(0, 0, 0)" stroke="none" font-family="Arial" font-size="12px" font-style="normal" font-weight="normal" text-decoration="" line-height="14px" x="0" y="12">1</text></g></g><g transform="matrix(1,0,0,1,571,465)"><g><g><rect fill="rgb(0,0,0)" stroke="none" x="0" y="0" width="121" height="20" fill-opacity="0"/></g></g><g><g><rect fill="rgb(0,0,0)" stroke="none" x="0" y="0" width="121" height="14" fill-opacity="0"/></g></g><g><g><rect fill="rgb(0,0,0)" stroke="none" x="0" y="0" width="7" height="14" fill-opacity="0"/></g><text fill="rgb(0, 0, 0)" stroke="none" font-family="Arial" font-size="12px" font-style="normal" font-weight="normal" text-decoration="" line-height="14px" x="0" y="12">1</text></g></g><g transform="translate(0,0) matrix(1,0,0,1,698.8834080717488,457.5609756097561)"><g><g transform="translate(0,0) scale(1.4211659192825112,0.2860975609756098)"><g><path fill="#FFFFFF" stroke="none" d="M 0 0 L 100 0 Q 100 0 100 0 L 100 100 Q 100 100 100 100 L 0 100 Q 0 100 0 100 L 0 0 Q 0 0 0 0 Z"/><g transform="scale(0.7036476082292061,3.4953111679454385)"><path fill="none" stroke="none" d="M 0 0 L 142.11659192825113 0 Q 142.11659192825113 0 142.11659192825113 0 L 142.11659192825113 28.60975609756098 Q 142.11659192825113 28.60975609756098 142.11659192825113 28.60975609756098 L 0 28.60975609756098 Q 0 28.60975609756098 0 28.60975609756098 L 0 0 Q 0 0 0 0 Z"/><path fill="none" stroke="#000000" d="M 0 0 M 0 0 L 142.11659192825113 0 Q 142.11659192825113 0 142.11659192825113 0 L 142.11659192825113 28.60975609756098 Q 142.11659192825113 28.60975609756098 142.11659192825113 28.60975609756098 L 0 28.60975609756098 Q 0 28.60975609756098 0 28.60975609756098 L 0 0 Q 0 0 0 0 Z" stroke-miterlimit="10" stroke-width="2"/></g></g></g></g></g><g transform="matrix(1,0,0,1,707,465)"><g><g><rect fill="rgb(0,0,0)" stroke="none" x="0" y="0" width="127" height="20" fill-opacity="0"/></g></g><g><g><rect fill="rgb(0,0,0)" stroke="none" x="0" y="0" width="127" height="14" fill-opacity="0"/></g></g><g><g><rect fill="rgb(0,0,0)" stroke="none" x="0" y="0" width="7" height="14" fill-opacity="0"/></g><text fill="rgb(0, 0, 0)" stroke="none" font-family="Arial" font-size="12px" font-style="normal" font-weight="normal" text-decoration="" line-height="14px" x="0" y="12">3</text></g></g><g transform="translate(0,0) matrix(1,0,0,1,563,486.1707317073171)"><g><g transform="translate(0,0) scale(1.3588340807174886,0.2760975609756098)"><g><path fill="#FFFFFF" stroke="none" d="M 0 0 L 100 0 Q 100 0 100 0 L 100 100 Q 100 100 100 100 L 0 100 Q 0 100 0 100 L 0 0 Q 0 0 0 0 Z"/><g transform="scale(0.7359250214507295,3.62190812720848)"><path fill="none" stroke="none" d="M 0 0 L 135.88340807174885 0 Q 135.88340807174885 0 135.88340807174885 0 L 135.88340807174885 27.60975609756098 Q 135.88340807174885 27.60975609756098 135.88340807174885 27.60975609756098 L 0 27.60975609756098 Q 0 27.60975609756098 0 27.60975609756098 L 0 0 Q 0 0 0 0 Z"/><path fill="none" stroke="#000000" d="M 0 0 M 0 0 L 135.88340807174885 0 Q 135.88340807174885 0 135.88340807174885 0 L 135.88340807174885 27.60975609756098 Q 135.88340807174885 27.60975609756098 135.88340807174885 27.60975609756098 L 0 27.60975609756098 Q 0 27.60975609756098 0 27.60975609756098 L 0 0 Q 0 0 0 0 Z" stroke-miterlimit="10" stroke-width="2"/></g></g></g></g></g><g transform="matrix(1,0,0,1,571,493)"><g><g><rect fill="rgb(0,0,0)" stroke="none" x="0" y="0" width="121" height="20" fill-opacity="0"/></g></g><g><g><rect fill="rgb(0,0,0)" stroke="none" x="0" y="0" width="121" height="14" fill-opacity="0"/></g></g><g><g><rect fill="rgb(0,0,0)" stroke="none" x="0" y="0" width="7" height="14" fill-opacity="0"/></g><text fill="rgb(0, 0, 0)" stroke="none" font-family="Arial" font-size="12px" font-style="normal" font-weight="normal" text-decoration="" line-height="14px" x="0" y="12">2</text></g></g><g transform="translate(0,0) matrix(1,0,0,1,698.8834080717488,486.1707317073171)"><g><g transform="translate(0,0) scale(1.4211659192825112,0.2760975609756098)"><g><path fill="#FFFFFF" stroke="none" d="M 0 0 L 100 0 Q 100 0 100 0 L 100 100 Q 100 100 100 100 L 0 100 Q 0 100 0 100 L 0 0 Q 0 0 0 0 Z"/><g transform="scale(0.7036476082292061,3.62190812720848)"><path fill="none" stroke="none" d="M 0 0 L 142.11659192825113 0 Q 142.11659192825113 0 142.11659192825113 0 L 142.11659192825113 27.60975609756098 Q 142.11659192825113 27.60975609756098 142.11659192825113 27.60975609756098 L 0 27.60975609756098 Q 0 27.60975609756098 0 27.60975609756098 L 0 0 Q 0 0 0 0 Z"/><path fill="none" stroke="#000000" d="M 0 0 M 0 0 L 142.11659192825113 0 Q 142.11659192825113 0 142.11659192825113 0 L 142.11659192825113 27.60975609756098 Q 142.11659192825113 27.60975609756098 142.11659192825113 27.60975609756098 L 0 27.60975609756098 Q 0 27.60975609756098 0 27.60975609756098 L 0 0 Q 0 0 0 0 Z" stroke-miterlimit="10" stroke-width="2"/></g></g></g></g></g><g transform="matrix(1,0,0,1,707,493)"><g><g><rect fill="rgb(0,0,0)" stroke="none" x="0" y="0" width="127" height="20" fill-opacity="0"/></g></g><g><g><rect fill="rgb(0,0,0)" stroke="none" x="0" y="0" width="127" height="14" fill-opacity="0"/></g></g><g><g><rect fill="rgb(0,0,0)" stroke="none" x="0" y="0" width="7" height="14" fill-opacity="0"/></g><text fill="rgb(0, 0, 0)" stroke="none" font-family="Arial" font-size="12px" font-style="normal" font-weight="normal" text-decoration="" line-height="14px" x="0" y="12">2</text></g></g><g transform="matrix(1,0,0,1,571,397)"><g><g><rect fill="rgb(0,0,0)" stroke="none" x="0" y="0" width="263" height="26" fill-opacity="0"/></g></g><g><g><rect fill="rgb(0,0,0)" stroke="none" x="0" y="0" width="263" height="20" fill-opacity="0"/></g></g><g><g><rect fill="rgb(0,0,0)" stroke="none" x="0" y="0" width="148" height="20" fill-opacity="0"/></g><text fill="rgb(0, 0, 0)" stroke="none" font-family="Arial" font-size="18px" font-style="normal" font-weight="700" text-decoration="" line-height="20.5px" x="0" y="17">ACLRoleAddress</text></g></g><g transform="translate(0,0) matrix(1,0,0,1,563,98)"><g><g transform="translate(0,0) scale(2.7800000000000007,0.4201290322580645)"><g><path fill="#E5E5E5" stroke="none" d="M 0 0 L 100 0 Q 100 0 100 0 L 100 100 Q 100 100 100 100 L 0 100 Q 0 100 0 100 L 0 0 Q 0 0 0 0 Z"/><g transform="scale(0.35971223021582727,2.38022113022113)"><path fill="none" stroke="none" d="M 0 0 L 278.00000000000006 0 Q 278.00000000000006 0 278.00000000000006 0 L 278.00000000000006 42.012903225806454 Q 278.00000000000006 42.012903225806454 278.00000000000006 42.012903225806454 L 0 42.012903225806454 Q 0 42.012903225806454 0 42.012903225806454 L 0 0 Q 0 0 0 0 Z"/><path fill="none" stroke="#000000" d="M 0 0 M 0 0 L 278.00000000000006 0 Q 278.00000000000006 0 278.00000000000006 0 L 278.00000000000006 42.012903225806454 Q 278.00000000000006 42.012903225806454 278.00000000000006 42.012903225806454 L 0 42.012903225806454 Q 0 42.012903225806454 0 42.012903225806454 L 0 0 Q 0 0 0 0 Z" stroke-miterlimit="10" stroke-width="2"/></g></g></g></g></g><g transform="translate(0,0) matrix(1,0,0,1,563,225.9483870967742)"><g><g transform="translate(0,0) scale(1.2368163265306125,0.22051612903225806)"><g><path fill="#FFFFFF" stroke="none" d="M 0 0 L 100 0 Q 100 0 100 0 L 100 100 Q 100 100 100 100 L 0 100 Q 0 100 0 100 L 0 0 Q 0 0 0 0 Z"/><g transform="scale(0.8085274899346576,4.534815681685196)"><path fill="none" stroke="none" d="M 0 0 L 123.68163265306124 0 Q 123.68163265306124 0 123.68163265306124 0 L 123.68163265306124 22.051612903225806 Q 123.68163265306124 22.051612903225806 123.68163265306124 22.051612903225806 L 0 22.051612903225806 Q 0 22.051612903225806 0 22.051612903225806 L 0 0 Q 0 0 0 0 Z"/><path fill="none" stroke="#000000" d="M 0 0 M 0 0 L 123.68163265306124 0 Q 123.68163265306124 0 123.68163265306124 0 L 123.68163265306124 22.051612903225806 Q 123.68163265306124 22.051612903225806 123.68163265306124 22.051612903225806 L 0 22.051612903225806 Q 0 22.051612903225806 0 22.051612903225806 L 0 0 Q 0 0 0 0 Z" stroke-miterlimit="10" stroke-width="2"/></g></g></g></g></g><g transform="translate(0,0) matrix(1,0,0,1,686.6816326530612,225.9483870967742)"><g><g transform="translate(0,0) scale(1.543183673469388,0.22051612903225806)"><g><path fill="#FFFFFF" stroke="none" d="M 0 0 L 100 0 Q 100 0 100 0 L 100 100 Q 100 100 100 100 L 0 100 Q 0 100 0 100 L 0 0 Q 0 0 0 0 Z"/><g transform="scale(0.6480110029623359,4.534815681685196)"><path fill="none" stroke="none" d="M 0 0 L 154.3183673469388 0 Q 154.3183673469388 0 154.3183673469388 0 L 154.3183673469388 22.051612903225806 Q 154.3183673469388 22.051612903225806 154.3183673469388 22.051612903225806 L 0 22.051612903225806 Q 0 22.051612903225806 0 22.051612903225806 L 0 0 Q 0 0 0 0 Z"/><path fill="none" stroke="#000000" d="M 0 0 M 0 0 L 154.3183673469388 0 Q 154.3183673469388 0 154.3183673469388 0 L 154.3183673469388 22.051612903225806 Q 154.3183673469388 22.051612903225806 154.3183673469388 22.051612903225806 L 0 22.051612903225806 Q 0 22.051612903225806 0 22.051612903225806 L 0 0 Q 0 0 0 0 Z" stroke-miterlimit="10" stroke-width="2"/></g></g></g></g></g><g transform="translate(0,0) matrix(1,0,0,1,563,140.01290322580644)"><g><g transform="translate(0,0) scale(1.2368163265306125,0.2864516129032258)"><g><path fill="#E5E5E5" stroke="none" d="M 0 0 L 100 0 Q 100 0 100 0 L 100 100 Q 100 100 100 100 L 0 100 Q 0 100 0 100 L 0 0 Q 0 0 0 0 Z"/><g transform="scale(0.8085274899346576,3.490990990990991)"><path fill="none" stroke="none" d="M 0 0 L 123.68163265306124 0 Q 123.68163265306124 0 123.68163265306124 0 L 123.68163265306124 28.64516129032258 Q 123.68163265306124 28.64516129032258 123.68163265306124 28.64516129032258 L 0 28.64516129032258 Q 0 28.64516129032258 0 28.64516129032258 L 0 0 Q 0 0 0 0 Z"/><path fill="none" stroke="#000000" d="M 0 0 M 0 0 L 123.68163265306124 0 Q 123.68163265306124 0 123.68163265306124 0 L 123.68163265306124 28.64516129032258 Q 123.68163265306124 28.64516129032258 123.68163265306124 28.64516129032258 L 0 28.64516129032258 Q 0 28.64516129032258 0 28.64516129032258 L 0 0 Q 0 0 0 0 Z" stroke-miterlimit="10" stroke-width="2"/></g></g></g></g></g><g transform="translate(0,0) matrix(1,0,0,1,686.6816326530612,140.01290322580644)"><g><g transform="translate(0,0) scale(1.543183673469388,0.2864516129032258)"><g><path fill="#E5E5E5" stroke="none" d="M 0 0 L 100 0 Q 100 0 100 0 L 100 100 Q 100 100 100 100 L 0 100 Q 0 100 0 100 L 0 0 Q 0 0 0 0 Z"/><g transform="scale(0.6480110029623359,3.490990990990991)"><path fill="none" stroke="none" d="M 0 0 L 154.3183673469388 0 Q 154.3183673469388 0 154.3183673469388 0 L 154.3183673469388 28.64516129032258 Q 154.3183673469388 28.64516129032258 154.3183673469388 28.64516129032258 L 0 28.64516129032258 Q 0 28.64516129032258 0 28.64516129032258 L 0 0 Q 0 0 0 0 Z"/><path fill="none" stroke="#000000" d="M 0 0 M 0 0 L 154.3183673469388 0 Q 154.3183673469388 0 154.3183673469388 0 L 154.3183673469388 28.64516129032258 Q 154.3183673469388 28.64516129032258 154.3183673469388 28.64516129032258 L 0 28.64516129032258 Q 0 28.64516129032258 0 28.64516129032258 L 0 0 Q 0 0 0 0 Z" stroke-miterlimit="10" stroke-width="2"/></g></g></g></g></g><g transform="matrix(1,0,0,1,571,147)"><g><g><rect fill="rgb(0,0,0)" stroke="none" x="0" y="0" width="109" height="20" fill-opacity="0"/></g></g><g><g><rect fill="rgb(0,0,0)" stroke="none" x="0" y="0" width="109" height="14" fill-opacity="0"/></g></g><g><g><rect fill="rgb(0,0,0)" stroke="none" x="0" y="0" width="103" height="14" fill-opacity="0"/></g><text fill="rgb(0, 0, 0)" stroke="none" font-family="Arial" font-size="12px" font-style="normal" font-weight="700" text-decoration="" line-height="14px" x="0" y="12">entity_id</text><text fill="rgb(0, 0, 0)" stroke="none" font-family="Arial" font-size="12px" font-style="normal" font-weight="700" text-decoration="" line-height="14px" x="49" y="12"> (</text><text fill="rgb(0, 0, 0)" stroke="none" font-family="Arial" font-size="12px" font-style="normal" font-weight="700" text-decoration="" line-height="14px" x="57" y="12">contact</text><text fill="rgb(0, 0, 0)" stroke="none" font-family="Arial" font-size="12px" font-style="normal" font-weight="700" text-decoration="" line-height="14px" x="99" y="12">)</text></g></g><g transform="matrix(1,0,0,1,695,147)"><g><g><rect fill="rgb(0,0,0)" stroke="none" x="0" y="0" width="139" height="20" fill-opacity="0"/></g></g><g><g><rect fill="rgb(0,0,0)" stroke="none" x="0" y="0" width="139" height="14" fill-opacity="0"/></g></g><g><g><rect fill="rgb(0,0,0)" stroke="none" x="0" y="0" width="117" height="14" fill-opacity="0"/></g><text fill="rgb(0, 0, 0)" stroke="none" font-family="Arial" font-size="12px" font-style="normal" font-weight="700" text-decoration="" line-height="14px" x="0" y="12">referenced_entity_id</text></g></g><g transform="translate(0,0) matrix(1,0,0,1,563,168.65806451612903)"><g><g transform="translate(0,0) scale(1.2368163265306125,0.2864516129032258)"><g><path fill="#FFFFFF" stroke="none" d="M 0 0 L 100 0 Q 100 0 100 0 L 100 100 Q 100 100 100 100 L 0 100 Q 0 100 0 100 L 0 0 Q 0 0 0 0 Z"/><g transform="scale(0.8085274899346576,3.490990990990991)"><path fill="none" stroke="none" d="M 0 0 L 123.68163265306124 0 Q 123.68163265306124 0 123.68163265306124 0 L 123.68163265306124 28.64516129032258 Q 123.68163265306124 28.64516129032258 123.68163265306124 28.64516129032258 L 0 28.64516129032258 Q 0 28.64516129032258 0 28.64516129032258 L 0 0 Q 0 0 0 0 Z"/><path fill="none" stroke="#000000" d="M 0 0 M 0 0 L 123.68163265306124 0 Q 123.68163265306124 0 123.68163265306124 0 L 123.68163265306124 28.64516129032258 Q 123.68163265306124 28.64516129032258 123.68163265306124 28.64516129032258 L 0 28.64516129032258 Q 0 28.64516129032258 0 28.64516129032258 L 0 0 Q 0 0 0 0 Z" stroke-miterlimit="10" stroke-width="2"/></g></g></g></g></g><g transform="matrix(1,0,0,1,571,230)"><g><g><rect fill="rgb(0,0,0)" stroke="none" x="0" y="0" width="109" height="20" fill-opacity="0"/></g></g><g><g><rect fill="rgb(0,0,0)" stroke="none" x="0" y="0" width="109" height="14" fill-opacity="0"/></g></g><g><g><rect fill="rgb(0,0,0)" stroke="none" x="0" y="0" width="10" height="14" fill-opacity="0"/></g><text fill="rgb(0, 0, 0)" stroke="none" font-family="Arial" font-size="12px" font-style="normal" font-weight="normal" text-decoration="" line-height="14px" x="3" y="12">3</text></g></g><g transform="matrix(1,0,0,1,695,230)"><g><g><rect fill="rgb(0,0,0)" stroke="none" x="0" y="0" width="139" height="20" fill-opacity="0"/></g></g><g><g><rect fill="rgb(0,0,0)" stroke="none" x="0" y="0" width="139" height="14" fill-opacity="0"/></g></g><g><g><rect fill="rgb(0,0,0)" stroke="none" x="0" y="0" width="7" height="14" fill-opacity="0"/></g><text fill="rgb(0, 0, 0)" stroke="none" font-family="Arial" font-size="12px" font-style="normal" font-weight="normal" text-decoration="" line-height="14px" x="0" y="12">3</text></g></g><g transform="matrix(1,0,0,1,571,176)"><g><g><rect fill="rgb(0,0,0)" stroke="none" x="0" y="0" width="109" height="20" fill-opacity="0"/></g></g><g><g><rect fill="rgb(0,0,0)" stroke="none" x="0" y="0" width="109" height="14" fill-opacity="0"/></g></g><g><g><rect fill="rgb(0,0,0)" stroke="none" x="0" y="0" width="7" height="14" fill-opacity="0"/></g><text fill="rgb(0, 0, 0)" stroke="none" font-family="Arial" font-size="12px" font-style="normal" font-weight="normal" text-decoration="" line-height="14px" x="0" y="12">1</text></g></g><g transform="translate(0,0) matrix(1,0,0,1,686.6816326530612,168.65806451612903)"><g><g transform="translate(0,0) scale(1.543183673469388,0.2864516129032258)"><g><path fill="#FFFFFF" stroke="none" d="M 0 0 L 100 0 Q 100 0 100 0 L 100 100 Q 100 100 100 100 L 0 100 Q 0 100 0 100 L 0 0 Q 0 0 0 0 Z"/><g transform="scale(0.6480110029623359,3.490990990990991)"><path fill="none" stroke="none" d="M 0 0 L 154.3183673469388 0 Q 154.3183673469388 0 154.3183673469388 0 L 154.3183673469388 28.64516129032258 Q 154.3183673469388 28.64516129032258 154.3183673469388 28.64516129032258 L 0 28.64516129032258 Q 0 28.64516129032258 0 28.64516129032258 L 0 0 Q 0 0 0 0 Z"/><path fill="none" stroke="#000000" d="M 0 0 M 0 0 L 154.3183673469388 0 Q 154.3183673469388 0 154.3183673469388 0 L 154.3183673469388 28.64516129032258 Q 154.3183673469388 28.64516129032258 154.3183673469388 28.64516129032258 L 0 28.64516129032258 Q 0 28.64516129032258 0 28.64516129032258 L 0 0 Q 0 0 0 0 Z" stroke-miterlimit="10" stroke-width="2"/></g></g></g></g></g><g transform="matrix(1,0,0,1,695,176)"><g><g><rect fill="rgb(0,0,0)" stroke="none" x="0" y="0" width="139" height="20" fill-opacity="0"/></g></g><g><g><rect fill="rgb(0,0,0)" stroke="none" x="0" y="0" width="139" height="14" fill-opacity="0"/></g></g><g><g><rect fill="rgb(0,0,0)" stroke="none" x="0" y="0" width="7" height="14" fill-opacity="0"/></g><text fill="rgb(0, 0, 0)" stroke="none" font-family="Arial" font-size="12px" font-style="normal" font-weight="normal" text-decoration="" line-height="14px" x="0" y="12">1</text></g></g><g transform="translate(0,0) matrix(1,0,0,1,563,197.30322580645162)"><g><g transform="translate(0,0) scale(1.2368163265306125,0.2864516129032258)"><g><path fill="#FFFFFF" stroke="none" d="M 0 0 L 100 0 Q 100 0 100 0 L 100 100 Q 100 100 100 100 L 0 100 Q 0 100 0 100 L 0 0 Q 0 0 0 0 Z"/><g transform="scale(0.8085274899346576,3.490990990990991)"><path fill="none" stroke="none" d="M 0 0 L 123.68163265306124 0 Q 123.68163265306124 0 123.68163265306124 0 L 123.68163265306124 28.64516129032258 Q 123.68163265306124 28.64516129032258 123.68163265306124 28.64516129032258 L 0 28.64516129032258 Q 0 28.64516129032258 0 28.64516129032258 L 0 0 Q 0 0 0 0 Z"/><path fill="none" stroke="#000000" d="M 0 0 M 0 0 L 123.68163265306124 0 Q 123.68163265306124 0 123.68163265306124 0 L 123.68163265306124 28.64516129032258 Q 123.68163265306124 28.64516129032258 123.68163265306124 28.64516129032258 L 0 28.64516129032258 Q 0 28.64516129032258 0 28.64516129032258 L 0 0 Q 0 0 0 0 Z" stroke-miterlimit="10" stroke-width="2"/></g></g></g></g></g><g transform="matrix(1,0,0,1,571,205)"><g><g><rect fill="rgb(0,0,0)" stroke="none" x="0" y="0" width="109" height="20" fill-opacity="0"/></g></g><g><g><rect fill="rgb(0,0,0)" stroke="none" x="0" y="0" width="109" height="14" fill-opacity="0"/></g></g><g><g><rect fill="rgb(0,0,0)" stroke="none" x="0" y="0" width="7" height="14" fill-opacity="0"/></g><text fill="rgb(0, 0, 0)" stroke="none" font-family="Arial" font-size="12px" font-style="normal" font-weight="normal" text-decoration="" line-height="14px" x="0" y="12">2</text></g></g><g transform="translate(0,0) matrix(1,0,0,1,686.6816326530612,197.30322580645162)"><g><g transform="translate(0,0) scale(1.543183673469388,0.2864516129032258)"><g><path fill="#FFFFFF" stroke="none" d="M 0 0 L 100 0 Q 100 0 100 0 L 100 100 Q 100 100 100 100 L 0 100 Q 0 100 0 100 L 0 0 Q 0 0 0 0 Z"/><g transform="scale(0.6480110029623359,3.490990990990991)"><path fill="none" stroke="none" d="M 0 0 L 154.3183673469388 0 Q 154.3183673469388 0 154.3183673469388 0 L 154.3183673469388 28.64516129032258 Q 154.3183673469388 28.64516129032258 154.3183673469388 28.64516129032258 L 0 28.64516129032258 Q 0 28.64516129032258 0 28.64516129032258 L 0 0 Q 0 0 0 0 Z"/><path fill="none" stroke="#000000" d="M 0 0 M 0 0 L 154.3183673469388 0 Q 154.3183673469388 0 154.3183673469388 0 L 154.3183673469388 28.64516129032258 Q 154.3183673469388 28.64516129032258 154.3183673469388 28.64516129032258 L 0 28.64516129032258 Q 0 28.64516129032258 0 28.64516129032258 L 0 0 Q 0 0 0 0 Z" stroke-miterlimit="10" stroke-width="2"/></g></g></g></g></g><g transform="matrix(1,0,0,1,695,205)"><g><g><rect fill="rgb(0,0,0)" stroke="none" x="0" y="0" width="139" height="20" fill-opacity="0"/></g></g><g><g><rect fill="rgb(0,0,0)" stroke="none" x="0" y="0" width="139" height="14" fill-opacity="0"/></g></g><g><g><rect fill="rgb(0,0,0)" stroke="none" x="0" y="0" width="7" height="14" fill-opacity="0"/></g><text fill="rgb(0, 0, 0)" stroke="none" font-family="Arial" font-size="12px" font-style="normal" font-weight="normal" text-decoration="" line-height="14px" x="0" y="12">2</text></g></g><g transform="matrix(1,0,0,1,571,109)"><g><g><rect fill="rgb(0,0,0)" stroke="none" x="0" y="0" width="263" height="26" fill-opacity="0"/></g></g><g><g><rect fill="rgb(0,0,0)" stroke="none" x="0" y="0" width="263" height="20" fill-opacity="0"/></g></g><g><g><rect fill="rgb(0,0,0)" stroke="none" x="0" y="0" width="176" height="20" fill-opacity="0"/></g><text fill="rgb(0, 0, 0)" stroke="none" font-family="Arial" font-size="18px" font-style="normal" font-weight="700" text-decoration="" line-height="20.5px" x="0" y="17">ACLContactAddress</text></g></g></g></svg>