<svg version="1.1" xmlns="http://www.w3.org/2000/svg" xmlns:xlink="http://www.w3.org/1999/xlink" width="1288" height="715"><style xmlns="http://www.w3.org/1999/xhtml"></style><defs><linearGradient id="ZBVXUpGFgfEl" x1="0px" x2="0px" y1="100px" y2="-50px" gradientUnits="userSpaceOnUse"><stop offset="0" stop-color="#e6e6e6"/><stop offset="1" stop-color="#FFFFFF"/></linearGradient><linearGradient id="DToFCCNXUqWn" x1="0px" x2="0px" y1="100px" y2="-50px" gradientUnits="userSpaceOnUse"><stop offset="0" stop-color="#e6e6e6"/><stop offset="1" stop-color="#FFFFFF"/></linearGradient><linearGradient id="IXtrdlHcBobg" x1="0px" x2="0px" y1="100px" y2="-50px" gradientUnits="userSpaceOnUse"><stop offset="0" stop-color="#e6e6e6"/><stop offset="1" stop-color="#FFFFFF"/></linearGradient><linearGradient id="oVfddytRiTut" x1="0px" x2="0px" y1="100px" y2="-50px" gradientUnits="userSpaceOnUse"><stop offset="0" stop-color="#e6e6e6"/><stop offset="1" stop-color="#FFFFFF"/></linearGradient><linearGradient id="aCffMRnKnaCh" x1="0px" x2="0px" y1="100px" y2="-50px" gradientUnits="userSpaceOnUse"><stop offset="0" stop-color="#e6e6e6"/><stop offset="1" stop-color="#FFFFFF"/></linearGradient><linearGradient id="XkxuMPaVTzEv" x1="0px" x2="0px" y1="100px" y2="-50px" gradientUnits="userSpaceOnUse"><stop offset="0" stop-color="#e6e6e6"/><stop offset="1" stop-color="#FFFFFF"/></linearGradient><linearGradient id="dJdRVqCINyUm" x1="0px" x2="0px" y1="100px" y2="-50px" gradientUnits="userSpaceOnUse"><stop offset="0" stop-color="#e6e6e6"/><stop offset="1" stop-color="#FFFFFF"/></linearGradient><linearGradient id="kWCpTmrmLtfV" x1="0px" x2="0px" y1="100px" y2="-50px" gradientUnits="userSpaceOnUse"><stop offset="0" stop-color="#e6e6e6"/><stop offset="1" stop-color="#FFFFFF"/></linearGradient><linearGradient id="uOqawTIysvls" x1="0px" x2="0px" y1="100px" y2="-50px" gradientUnits="userSpaceOnUse"><stop offset="0" stop-color="#e6e6e6"/><stop offset="1" stop-color="#FFFFFF"/></linearGradient><linearGradient id="ShFcXcLzHwTb" x1="0px" x2="0px" y1="100px" y2="-50px" gradientUnits="userSpaceOnUse"><stop offset="0" stop-color="#e6e6e6"/><stop offset="1" stop-color="#FFFFFF"/></linearGradient><linearGradient id="ZAqwMdyFWzHv" x1="0px" x2="0px" y1="100px" y2="-50px" gradientUnits="userSpaceOnUse"><stop offset="0" stop-color="#e6e6e6"/><stop offset="1" stop-color="#FFFFFF"/></linearGradient><linearGradient id="FCmLTVSrCiNu" x1="0px" x2="0px" y1="100px" y2="-50px" gradientUnits="userSpaceOnUse"><stop offset="0" stop-color="#e6e6e6"/><stop offset="1" stop-color="#FFFFFF"/></linearGradient><linearGradient id="uWMsRuTtMvsU" x1="0px" x2="0px" y1="100px" y2="-50px" gradientUnits="userSpaceOnUse"><stop offset="0" stop-color="#e6e6e6"/><stop offset="1" stop-color="#FFFFFF"/></linearGradient><linearGradient id="psqyVChDmsOe" x1="0px" x2="0px" y1="100px" y2="-50px" gradientUnits="userSpaceOnUse"><stop offset="0" stop-color="#e6e6e6"/><stop offset="1" stop-color="#FFFFFF"/></linearGradient><linearGradient id="lKATxfZGlyFE" x1="0px" x2="0px" y1="100px" y2="-50px" gradientUnits="userSpaceOnUse"><stop offset="0" stop-color="#e6e6e6"/><stop offset="1" stop-color="#FFFFFF"/></linearGradient><linearGradient id="LHPTyBUzGUJV" x1="0px" x2="0px" y1="100px" y2="-50px" gradientUnits="userSpaceOnUse"><stop offset="0" stop-color="#e6e6e6"/><stop offset="1" stop-color="#FFFFFF"/></linearGradient><linearGradient id="nzELmGDavcFw" x1="0px" x2="0px" y1="100px" y2="-50px" gradientUnits="userSpaceOnUse"><stop offset="0" stop-color="#e6e6e6"/><stop offset="1" stop-color="#FFFFFF"/></linearGradient><linearGradient id="ZOOPrTCohCZN" x1="0px" x2="0px" y1="100px" y2="-50px" gradientUnits="userSpaceOnUse"><stop offset="0" stop-color="#e6e6e6"/><stop offset="1" stop-color="#FFFFFF"/></linearGradient><linearGradient id="RcvMreQSLlFx" x1="0px" x2="0px" y1="100px" y2="-50px" gradientUnits="userSpaceOnUse"><stop offset="0" stop-color="#e6e6e6"/><stop offset="1" stop-color="#FFFFFF"/></linearGradient><linearGradient id="vwpBDISXnyDB" x1="0px" x2="0px" y1="100px" y2="-50px" gradientUnits="userSpaceOnUse"><stop offset="0" stop-color="#e6e6e6"/><stop offset="1" stop-color="#FFFFFF"/></linearGradient></defs><g transform="translate(0,0)"><g><rect fill="#ffffff" stroke="none" x="0" y="0" width="1288" height="715"/></g><g transform="translate(0,0) matrix(1,0,0,1,10,464.25)"><g><g transform="translate(0,0) scale(10.4,1.4)"><g><path fill="none" stroke="none" d="M 10 0 L 90 0 Q 100 0 100 10 L 100 90 Q 100 100 90 100 L 10 100 Q 0 100 0 90 L 0 10 Q 0 0 10 0 Z"/><g transform="scale(0.09615384615384615,0.7142857142857143)"><path fill="#dce2e7" stroke="none" d="M 10 0 L 1030 0 Q 1040 0 1040 10 L 1040 130 Q 1040 140 1030 140 L 10 140 Q 0 140 0 130 L 0 10 Q 0 0 10 0 Z"/><path fill="none" stroke="rgb(0,0,0)" d="M 10 0 M 10 0 L 1030 0 Q 1040 0 1040 10 L 1040 130 Q 1040 140 1030 140 L 10 140 Q 0 140 0 130 L 0 10 Q 0 0 10 0 Z" stroke-opacity="0" stroke-miterlimit="10" stroke-width="0"/></g></g></g></g></g><g transform="translate(0,0) matrix(1,0,0,1,10.000000000000057,10)"><g><g transform="translate(0,0) scale(10.4,4.4)"><g><path fill="none" stroke="none" d="M 10 0 L 90 0 Q 100 0 100 10 L 100 90 Q 100 100 90 100 L 10 100 Q 0 100 0 90 L 0 10 Q 0 0 10 0 Z"/><g transform="scale(0.09615384615384615,0.22727272727272727)"><path fill="#bcd399" stroke="none" d="M 10 0 L 1030 0 Q 1040 0 1040 10 L 1040 430.00000000000006 Q 1040 440.00000000000006 1030 440.00000000000006 L 10 440.00000000000006 Q 0 440.00000000000006 0 430.00000000000006 L 0 10 Q 0 0 10 0 Z"/><path fill="none" stroke="rgb(0,0,0)" d="M 10 0 M 10 0 L 1030 0 Q 1040 0 1040 10 L 1040 430.00000000000006 Q 1040 440.00000000000006 1030 440.00000000000006 L 10 440.00000000000006 Q 0 440.00000000000006 0 430.00000000000006 L 0 10 Q 0 0 10 0 Z" stroke-opacity="0" stroke-miterlimit="10" stroke-width="0"/></g></g></g></g></g><g transform="translate(0,0) matrix(1,0,0,1,587.5,392.5)"><g><g transform="translate(0,0) scale(1.6,0.4)"><g><path fill="none" stroke="none" d="M 10 0 L 90 0 Q 100 0 100 10 L 100 90 Q 100 100 90 100 L 10 100 Q 0 100 0 90 L 0 10 Q 0 0 10 0 Z"/><g transform="scale(0.625,2.5)"><path fill="url(#ZBVXUpGFgfEl)" stroke="none" d="M 10 0 L 150 0 Q 160 0 160 10 L 160 30 Q 160 40 150 40 L 10 40 Q 0 40 0 30 L 0 10 Q 0 0 10 0 Z"/><path fill="url(#ZBVXUpGFgfEl)" stroke="#3e6617" d="M 10 0 M 10 0 L 150 0 Q 160 0 160 10 L 160 30 Q 160 40 150 40 L 10 40 Q 0 40 0 30 L 0 10 Q 0 0 10 0 Z" stroke-miterlimit="10" stroke-width="4"/></g></g></g></g></g><g transform="matrix(1,0,0,1,590,405)"><g transform="translate(11,0) matrix(1,0,0,1,0,0) translate(-11,0)"><g><rect fill="rgb(0,0,0)" stroke="none" x="0" y="0" width="157" height="16" fill-opacity="0"/></g></g><g transform="translate(11,0) matrix(1,0,0,1,0,0) translate(-11,0)"><g><rect fill="rgb(0,0,0)" stroke="none" x="0" y="0" width="157" height="16" fill-opacity="0"/></g></g><g transform="translate(11,0) matrix(1,0,0,1,0,0) translate(-11,0)"><g><rect fill="rgb(0,0,0)" stroke="none" x="11" y="0" width="135" height="16" fill-opacity="0"/></g><text fill="rgb(51, 102, 0)" stroke="none" font-family="Verdana" font-size="13px" font-style="normal" font-weight="bold" text-decoration="" line-height="16.5px" x="11" y="14">ContactContingent</text></g></g><g transform="translate(0,0) matrix(1,0,0,1,350,392.5)"><g><g transform="translate(0,0) scale(1.45,0.4)"><g><path fill="none" stroke="none" d="M 10 0 L 90 0 Q 100 0 100 10 L 100 90 Q 100 100 90 100 L 10 100 Q 0 100 0 90 L 0 10 Q 0 0 10 0 Z"/><g transform="scale(0.6896551724137931,2.5)"><path fill="#ffffff" stroke="none" d="M 10 0 L 135 0 Q 145 0 145 10 L 145 30 Q 145 40 135 40 L 10 40 Q 0 40 0 30 L 0 10 Q 0 0 10 0 Z"/><path fill="none" stroke="#3e6617" d="M 10 0 M 10 0 L 135 0 Q 145 0 145 10 L 145 30 Q 145 40 135 40 L 10 40 Q 0 40 0 30 L 0 10 Q 0 0 10 0 Z" stroke-miterlimit="10" stroke-width="4"/></g></g></g></g></g><g transform="matrix(1,0,0,1,352,405)"><g transform="translate(14,0) matrix(1,0,0,1,0,0) translate(-14,0)"><g><rect fill="rgb(0,0,0)" stroke="none" x="0" y="0" width="142" height="16" fill-opacity="0"/></g></g><g transform="translate(14,0) matrix(1,0,0,1,0,0) translate(-14,0)"><g><rect fill="rgb(0,0,0)" stroke="none" x="0" y="0" width="142" height="16" fill-opacity="0"/></g></g><g transform="translate(14,0) matrix(1,0,0,1,0,0) translate(-14,0)"><g><rect fill="rgb(0,0,0)" stroke="none" x="14" y="0" width="114" height="16" fill-opacity="0"/></g><text fill="rgb(51, 102, 0)" stroke="none" font-family="Verdana" font-size="13px" font-style="normal" font-weight="bold" text-decoration="" line-height="16.5px" x="14" y="14">ContactAddress</text></g></g><g transform="translate(0,0) matrix(1,0,0,1,74.5,392.5)"><g><g transform="translate(0,0) scale(1.6,0.4)"><g><path fill="none" stroke="none" d="M 10 0 L 90 0 Q 100 0 100 10 L 100 90 Q 100 100 90 100 L 10 100 Q 0 100 0 90 L 0 10 Q 0 0 10 0 Z"/><g transform="scale(0.625,2.5)"><path fill="url(#DToFCCNXUqWn)" stroke="none" d="M 10 0 L 150 0 Q 160 0 160 10 L 160 30 Q 160 40 150 40 L 10 40 Q 0 40 0 30 L 0 10 Q 0 0 10 0 Z"/><path fill="url(#DToFCCNXUqWn)" stroke="#3e6617" d="M 10 0 M 10 0 L 150 0 Q 160 0 160 10 L 160 30 Q 160 40 150 40 L 10 40 Q 0 40 0 30 L 0 10 Q 0 0 10 0 Z" stroke-miterlimit="10" stroke-width="4"/></g></g></g></g></g><g transform="matrix(1,0,0,1,77,405)"><g transform="translate(35,0) matrix(1,0,0,1,0,0) translate(-35,0)"><g><rect fill="rgb(0,0,0)" stroke="none" x="0" y="0" width="157" height="16" fill-opacity="0"/></g></g><g transform="translate(35,0) matrix(1,0,0,1,0,0) translate(-35,0)"><g><rect fill="rgb(0,0,0)" stroke="none" x="0" y="0" width="157" height="16" fill-opacity="0"/></g></g><g transform="translate(35,0) matrix(1,0,0,1,0,0) translate(-35,0)"><g><rect fill="rgb(0,0,0)" stroke="none" x="35" y="0" width="87" height="16" fill-opacity="0"/></g><text fill="rgb(51, 102, 0)" stroke="none" font-family="Verdana" font-size="13px" font-style="normal" font-weight="bold" text-decoration="" line-height="16.5px" x="35" y="14">ContactRole</text></g></g><g transform="translate(0,0) matrix(1,0,0,1,142.5,471)"><g><g transform="translate(0,0) scale(0.9,0.2)"><g><path fill="none" stroke="none" d="M 10 0 L 90 0 Q 100 0 100 10 L 100 90 Q 100 100 90 100 L 10 100 Q 0 100 0 90 L 0 10 Q 0 0 10 0 Z"/><g transform="scale(1.1111111111111112,5)"><path fill="url(#IXtrdlHcBobg)" stroke="none" d="M 10 0 L 80 0 Q 90 0 90 10 L 90 10 Q 90 20 80 20 L 10 20 Q 0 20 0 10 L 0 10 Q 0 0 10 0 Z"/><path fill="url(#IXtrdlHcBobg)" stroke="#3e6617" d="M 10 0 M 10 0 L 80 0 Q 90 0 90 10 L 90 10 Q 90 20 80 20 L 10 20 Q 0 20 0 10 L 0 10 Q 0 0 10 0 Z" stroke-miterlimit="10" stroke-width="2"/></g></g></g></g></g><g transform="matrix(1,0,0,1,145,475)"><g transform="translate(10,0) matrix(1,0,0,1,0,0) translate(-10,0)"><g><rect fill="rgb(0,0,0)" stroke="none" x="0" y="0" width="87" height="12" fill-opacity="0"/></g></g><g transform="translate(10,0) matrix(1,0,0,1,0,0) translate(-10,0)"><g><rect fill="rgb(0,0,0)" stroke="none" x="0" y="0" width="87" height="12" fill-opacity="0"/></g></g><g transform="translate(10,0) matrix(1,0,0,1,0,0) translate(-10,0)"><g><rect fill="rgb(0,0,0)" stroke="none" x="10" y="0" width="67" height="12" fill-opacity="0"/></g><text fill="rgb(88, 133, 40)" stroke="none" font-family="Verdana" font-size="10px" font-style="normal" font-weight="bold" text-decoration="" line-height="12.5px" x="10" y="11">indexAction</text></g></g><g transform="matrix(1,0,0,1,116.8629150101524,428)"><g transform="translate(0,0)"><g transform="translate(-139.5,-503.5) translate(22.637084989847594,75.5) matrix(1,0,0,1,0,0)"><g><path fill="none" stroke="#3e6617" d="M 121.3629150101524 432.5 L 121.3629150101524 471 Q 121.3629150101524 481 131.3629150101524 481 L 142.5 481" stroke-miterlimit="10" stroke-width="2"/></g></g></g></g><g transform="matrix(1,0,0,1,150,60.5)"><g transform="translate(0,0)"><g transform="translate(-164.5,-92.5) translate(14.5,32) matrix(1,0,0,1,0,0)"><g><path fill="none" stroke="#3e6617" d="M 154.5 392.5 L 154.5 373.5 Q 154.5 363.5 164.5 363.5 L 409.5 363.5 Q 419.5 363.5 419.5 353.5 L 419.5 65" stroke-miterlimit="10" stroke-width="2"/></g></g></g></g><g transform="matrix(1,0,0,1,415,60.5)"><g transform="translate(0,0)"><g transform="translate(-647.5,-92.5) translate(232.5,32) matrix(1,0,0,1,0,0)"><g><path fill="none" stroke="#3e6617" d="M 667.5 392.5 L 667.5 371.75 Q 667.5 361.75 657.5 361.75 L 429.5 361.75 Q 419.5 361.75 419.5 351.75 L 419.5 65" stroke-miterlimit="10" stroke-width="2"/></g></g></g></g><g transform="matrix(1,0,0,1,414.955,60.5)"><g transform="translate(0,0)"><g transform="translate(-419.45,-92.5) translate(4.4950000000000045,32) matrix(1,0,0,1,0,0)"><g><path fill="none" stroke="#3e6617" d="M 419.455 392.5 L 419.4958778628678 293.3333345448013 Q 419.5 283.33333539440207 419.5 273.33333539440207 L 419.5 184.16666769720104 Q 419.5 174.16666769720104 419.5 164.16666769720104 L 419.5 65" stroke-miterlimit="10" stroke-width="2"/></g></g></g></g><g transform="translate(0,0) matrix(1,0,0,1,349.5,20)"><g><g transform="translate(0,0) scale(1.4,0.45)"><g><path fill="none" stroke="none" d="M 10 0 L 90 0 Q 100 0 100 10 L 100 90 Q 100 100 90 100 L 10 100 Q 0 100 0 90 L 0 10 Q 0 0 10 0 Z"/><g transform="scale(0.7142857142857143,2.2222222222222223)"><path fill="#3e6617" stroke="none" d="M 10 0 L 130 0 Q 140 0 140 10 L 140 35 Q 140 45 130 45 L 10 45 Q 0 45 0 35 L 0 10 Q 0 0 10 0 Z"/><path fill="none" stroke="rgb(0,0,0)" d="M 10 0 M 10 0 L 130 0 Q 140 0 140 10 L 140 35 Q 140 45 130 45 L 10 45 Q 0 45 0 35 L 0 10 Q 0 0 10 0 Z" stroke-opacity="0" stroke-miterlimit="10" stroke-width="0"/></g></g></g></g></g><g transform="matrix(1,0,0,1,352,32)"><g transform="translate(30,0) matrix(1,0,0,1,0,0) translate(-30,0)"><g><rect fill="rgb(0,0,0)" stroke="none" x="0" y="0" width="137" height="22" fill-opacity="0"/></g></g><g transform="translate(30,0) matrix(1,0,0,1,0,0) translate(-30,0)"><g><rect fill="rgb(0,0,0)" stroke="none" x="0" y="0" width="137" height="22" fill-opacity="0"/></g></g><g transform="translate(30,0) matrix(1,0,0,1,0,0) translate(-30,0)"><g><rect fill="rgb(0,0,0)" stroke="none" x="30" y="0" width="77" height="22" fill-opacity="0"/></g><text fill="rgb(255, 255, 255)" stroke="none" font-family="Verdana" font-size="18px" font-style="normal" font-weight="bold" text-decoration="" line-height="22px" x="30" y="18">Contact</text></g></g><g transform="translate(0,0) matrix(1,0,0,1,857.5,392.5)"><g><g transform="translate(0,0) scale(1.6,0.4)"><g><path fill="none" stroke="none" d="M 10 0 L 90 0 Q 100 0 100 10 L 100 90 Q 100 100 90 100 L 10 100 Q 0 100 0 90 L 0 10 Q 0 0 10 0 Z"/><g transform="scale(0.625,2.5)"><path fill="url(#oVfddytRiTut)" stroke="none" d="M 10 0 L 150 0 Q 160 0 160 10 L 160 30 Q 160 40 150 40 L 10 40 Q 0 40 0 30 L 0 10 Q 0 0 10 0 Z"/><path fill="url(#oVfddytRiTut)" stroke="#3e6617" d="M 10 0 M 10 0 L 150 0 Q 160 0 160 10 L 160 30 Q 160 40 150 40 L 10 40 Q 0 40 0 30 L 0 10 Q 0 0 10 0 Z" stroke-miterlimit="10" stroke-width="4"/></g></g></g></g></g><g transform="matrix(1,0,0,1,860,405)"><g transform="translate(29,0) matrix(1,0,0,1,0,0) translate(-29,0)"><g><rect fill="rgb(0,0,0)" stroke="none" x="0" y="0" width="157" height="16" fill-opacity="0"/></g></g><g transform="translate(29,0) matrix(1,0,0,1,0,0) translate(-29,0)"><g><rect fill="rgb(0,0,0)" stroke="none" x="0" y="0" width="157" height="16" fill-opacity="0"/></g></g><g transform="translate(29,0) matrix(1,0,0,1,0,0) translate(-29,0)"><g><rect fill="rgb(0,0,0)" stroke="none" x="29" y="0" width="99" height="16" fill-opacity="0"/></g><text fill="rgb(51, 102, 0)" stroke="none" font-family="Verdana" font-size="13px" font-style="normal" font-weight="bold" text-decoration="" line-height="16.5px" x="29" y="14">ContactRoute</text></g></g><g transform="matrix(1,0,0,1,899.8629150101524,428)"><g transform="translate(0,0)"><g transform="translate(-922.5,-487.5) translate(22.637084989847608,59.5) matrix(1,0,0,1,0,0)"><g><path fill="none" stroke="#3e6617" d="M 904.3629150101524 432.5 L 904.3629150101524 471 Q 904.3629150101524 481 914.3629150101524 481 L 942 481" stroke-miterlimit="10" stroke-width="2"/></g></g></g></g><g transform="matrix(1,0,0,1,899.8629150101524,428)"><g transform="translate(0,0)"><g transform="translate(-922.5,-513.5) translate(22.637084989847608,85.5) matrix(1,0,0,1,0,0)"><g><path fill="none" stroke="#3e6617" d="M 904.3629150101524 432.5 L 904.3629150101524 502 Q 904.3629150101524 512 914.3629150101524 512 L 942 512" stroke-miterlimit="10" stroke-width="2"/></g></g></g></g><g transform="translate(0,0) matrix(1,0,0,1,942,471)"><g><g transform="translate(0,0) scale(1,0.2)"><g><path fill="none" stroke="none" d="M 10 0 L 90 0 Q 100 0 100 10 L 100 90 Q 100 100 90 100 L 10 100 Q 0 100 0 90 L 0 10 Q 0 0 10 0 Z"/><g transform="scale(1,5)"><path fill="url(#aCffMRnKnaCh)" stroke="none" d="M 10 0 L 90 0 Q 100 0 100 10 L 100 10 Q 100 20 90 20 L 10 20 Q 0 20 0 10 L 0 10 Q 0 0 10 0 Z"/><path fill="url(#aCffMRnKnaCh)" stroke="#3e6617" d="M 10 0 M 10 0 L 90 0 Q 100 0 100 10 L 100 10 Q 100 20 90 20 L 10 20 Q 0 20 0 10 L 0 10 Q 0 0 10 0 Z" stroke-miterlimit="10" stroke-width="2"/></g></g></g></g></g><g transform="matrix(1,0,0,1,944,475)"><g transform="translate(61,0) matrix(1,0,0,1,0,0) translate(-61,0)"><g><rect fill="rgb(0,0,0)" stroke="none" x="0" y="0" width="97" height="12" fill-opacity="0"/></g></g><g transform="translate(61,0) matrix(1,0,0,1,0,0) translate(-61,0)"><g><rect fill="rgb(0,0,0)" stroke="none" x="0" y="0" width="97" height="12" fill-opacity="0"/></g></g><g transform="translate(61,0) matrix(1,0,0,1,0,0) translate(-61,0)"><g><rect fill="rgb(0,0,0)" stroke="none" x="15" y="0" width="31" height="12" fill-opacity="0"/></g><text fill="rgb(88, 133, 40)" stroke="none" font-family="Verdana" font-size="10px" font-style="normal" font-weight="bold" text-decoration="" line-height="12.5px" x="15" y="11">index</text></g><g transform="translate(61,0) matrix(1,0,0,1,0,0) translate(-61,0)"><g><rect fill="rgb(0,0,0)" stroke="none" x="46" y="0" width="36" height="12" fill-opacity="0"/></g><text fill="rgb(88, 133, 40)" stroke="none" font-family="Verdana" font-size="10px" font-style="normal" font-weight="bold" text-decoration="" line-height="12.5px" x="46" y="11">Action</text></g></g><g transform="translate(0,0) matrix(1,0,0,1,942,502)"><g><g transform="translate(0,0) scale(1,0.2)"><g><path fill="none" stroke="none" d="M 10 0 L 90 0 Q 100 0 100 10 L 100 90 Q 100 100 90 100 L 10 100 Q 0 100 0 90 L 0 10 Q 0 0 10 0 Z"/><g transform="scale(1,5)"><path fill="url(#XkxuMPaVTzEv)" stroke="none" d="M 10 0 L 90 0 Q 100 0 100 10 L 100 10 Q 100 20 90 20 L 10 20 Q 0 20 0 10 L 0 10 Q 0 0 10 0 Z"/><path fill="url(#XkxuMPaVTzEv)" stroke="#3e6617" d="M 10 0 M 10 0 L 90 0 Q 100 0 100 10 L 100 10 Q 100 20 90 20 L 10 20 Q 0 20 0 10 L 0 10 Q 0 0 10 0 Z" stroke-miterlimit="10" stroke-width="2"/></g></g></g></g></g><g transform="matrix(1,0,0,1,944,506)"><g transform="translate(13,0) matrix(1,0,0,1,0,0) translate(-13,0)"><g><rect fill="rgb(0,0,0)" stroke="none" x="0" y="0" width="97" height="12" fill-opacity="0"/></g></g><g transform="translate(13,0) matrix(1,0,0,1,0,0) translate(-13,0)"><g><rect fill="rgb(0,0,0)" stroke="none" x="0" y="0" width="97" height="12" fill-opacity="0"/></g></g><g transform="translate(13,0) matrix(1,0,0,1,0,0) translate(-13,0)"><g><rect fill="rgb(0,0,0)" stroke="none" x="13" y="0" width="71" height="12" fill-opacity="0"/></g><text fill="rgb(88, 133, 40)" stroke="none" font-family="Verdana" font-size="10px" font-style="normal" font-weight="bold" text-decoration="" line-height="12.5px" x="13" y="11">assignAction</text></g></g><g transform="translate(0,0) matrix(1,0,0,1,142.5,502)"><g><g transform="translate(0,0) scale(0.9,0.2)"><g><path fill="none" stroke="none" d="M 10 0 L 90 0 Q 100 0 100 10 L 100 90 Q 100 100 90 100 L 10 100 Q 0 100 0 90 L 0 10 Q 0 0 10 0 Z"/><g transform="scale(1.1111111111111112,5)"><path fill="url(#dJdRVqCINyUm)" stroke="none" d="M 10 0 L 80 0 Q 90 0 90 10 L 90 10 Q 90 20 80 20 L 10 20 Q 0 20 0 10 L 0 10 Q 0 0 10 0 Z"/><path fill="url(#dJdRVqCINyUm)" stroke="#3e6617" d="M 10 0 M 10 0 L 80 0 Q 90 0 90 10 L 90 10 Q 90 20 80 20 L 10 20 Q 0 20 0 10 L 0 10 Q 0 0 10 0 Z" stroke-miterlimit="10" stroke-width="2"/></g></g></g></g></g><g transform="matrix(1,0,0,1,145,506)"><g transform="translate(8,0) matrix(1,0,0,1,0,0) translate(-8,0)"><g><rect fill="rgb(0,0,0)" stroke="none" x="0" y="0" width="87" height="12" fill-opacity="0"/></g></g><g transform="translate(8,0) matrix(1,0,0,1,0,0) translate(-8,0)"><g><rect fill="rgb(0,0,0)" stroke="none" x="0" y="0" width="87" height="12" fill-opacity="0"/></g></g><g transform="translate(8,0) matrix(1,0,0,1,0,0) translate(-8,0)"><g><rect fill="rgb(0,0,0)" stroke="none" x="8" y="0" width="71" height="12" fill-opacity="0"/></g><text fill="rgb(88, 133, 40)" stroke="none" font-family="Verdana" font-size="10px" font-style="normal" font-weight="bold" text-decoration="" line-height="12.5px" x="8" y="11">assignAction</text></g></g><g transform="matrix(1,0,0,1,116.8629150101524,428)"><g transform="translate(0,0)"><g transform="translate(-149.5,-528.5) translate(32.637084989847594,100.5) matrix(1,0,0,1,0,0)"><g><path fill="none" stroke="#3e6617" d="M 121.3629150101524 432.5 L 121.3629150101524 502 Q 121.3629150101524 512 131.3629150101524 512 L 142.5 512" stroke-miterlimit="10" stroke-width="2"/></g></g></g></g><g transform="translate(0,0) matrix(1,0,0,1,655.3185424949238,473)"><g><g transform="translate(0,0) scale(0.92,0.2)"><g><path fill="none" stroke="none" d="M 10 0 L 90 0 Q 100 0 100 10 L 100 90 Q 100 100 90 100 L 10 100 Q 0 100 0 90 L 0 10 Q 0 0 10 0 Z"/><g transform="scale(1.0869565217391304,5)"><path fill="url(#kWCpTmrmLtfV)" stroke="none" d="M 10 0 L 82 0 Q 92 0 92 10 L 92 10 Q 92 20 82 20 L 10 20 Q 0 20 0 10 L 0 10 Q 0 0 10 0 Z"/><path fill="url(#kWCpTmrmLtfV)" stroke="#3e6617" d="M 10 0 M 10 0 L 82 0 Q 92 0 92 10 L 92 10 Q 92 20 82 20 L 10 20 Q 0 20 0 10 L 0 10 Q 0 0 10 0 Z" stroke-miterlimit="10" stroke-width="2"/></g></g></g></g></g><g transform="matrix(1,0,0,1,657,477)"><g transform="translate(11,0) matrix(1,0,0,1,0,0) translate(-11,0)"><g><rect fill="rgb(0,0,0)" stroke="none" x="0" y="0" width="89" height="12" fill-opacity="0"/></g></g><g transform="translate(11,0) matrix(1,0,0,1,0,0) translate(-11,0)"><g><rect fill="rgb(0,0,0)" stroke="none" x="0" y="0" width="89" height="12" fill-opacity="0"/></g></g><g transform="translate(11,0) matrix(1,0,0,1,0,0) translate(-11,0)"><g><rect fill="rgb(0,0,0)" stroke="none" x="11" y="0" width="67" height="12" fill-opacity="0"/></g><text fill="rgb(88, 133, 40)" stroke="none" font-family="Verdana" font-size="10px" font-style="normal" font-weight="bold" text-decoration="" line-height="12.5px" x="11" y="11">indexAction</text></g></g><g transform="matrix(1,0,0,1,629.6814575050762,440)"><g transform="translate(0,0)"><g transform="translate(-652.3185424949238,-515.5) translate(22.637084989847608,75.5) matrix(1,0,0,1,0,0)"><g><path fill="none" stroke="#3e6617" d="M 634.1814575050762 444.5 L 634.1814575050762 473 Q 634.1814575050762 483 644.1814575050762 483 L 655.3185424949238 483" stroke-miterlimit="10" stroke-width="2"/></g></g></g></g><g transform="translate(0,0) matrix(1,0,0,1,655.3185424949238,502)"><g><g transform="translate(0,0) scale(0.92,0.2)"><g><path fill="none" stroke="none" d="M 10 0 L 90 0 Q 100 0 100 10 L 100 90 Q 100 100 90 100 L 10 100 Q 0 100 0 90 L 0 10 Q 0 0 10 0 Z"/><g transform="scale(1.0869565217391304,5)"><path fill="url(#uOqawTIysvls)" stroke="none" d="M 10 0 L 82 0 Q 92 0 92 10 L 92 10 Q 92 20 82 20 L 10 20 Q 0 20 0 10 L 0 10 Q 0 0 10 0 Z"/><path fill="url(#uOqawTIysvls)" stroke="#3e6617" d="M 10 0 M 10 0 L 82 0 Q 92 0 92 10 L 92 10 Q 92 20 82 20 L 10 20 Q 0 20 0 10 L 0 10 Q 0 0 10 0 Z" stroke-miterlimit="10" stroke-width="2"/></g></g></g></g></g><g transform="matrix(1,0,0,1,657,506)"><g transform="translate(9,0) matrix(1,0,0,1,0,0) translate(-9,0)"><g><rect fill="rgb(0,0,0)" stroke="none" x="0" y="0" width="89" height="12" fill-opacity="0"/></g></g><g transform="translate(9,0) matrix(1,0,0,1,0,0) translate(-9,0)"><g><rect fill="rgb(0,0,0)" stroke="none" x="0" y="0" width="89" height="12" fill-opacity="0"/></g></g><g transform="translate(9,0) matrix(1,0,0,1,0,0) translate(-9,0)"><g><rect fill="rgb(0,0,0)" stroke="none" x="9" y="0" width="71" height="12" fill-opacity="0"/></g><text fill="rgb(88, 133, 40)" stroke="none" font-family="Verdana" font-size="10px" font-style="normal" font-weight="bold" text-decoration="" line-height="12.5px" x="9" y="11">assignAction</text></g></g><g transform="matrix(1,0,0,1,629.8629150101524,428)"><g transform="translate(0,0)"><g transform="translate(-662.3185424949238,-540.5) translate(32.45562748477141,112.5) matrix(1,0,0,1,0,0)"><g><path fill="none" stroke="#3e6617" d="M 634.3629150101524 432.5 L 634.3629150101524 502 Q 634.3629150101524 512 644.3629150101524 512 L 655.3185424949238 512" stroke-miterlimit="10" stroke-width="2"/></g></g></g></g><g transform="translate(0,0) matrix(1,0,0,1,409.5,476)"><g><g transform="translate(0,0) scale(0.95,0.2)"><g><path fill="none" stroke="none" d="M 10 0 L 90 0 Q 100 0 100 10 L 100 90 Q 100 100 90 100 L 10 100 Q 0 100 0 90 L 0 10 Q 0 0 10 0 Z"/><g transform="scale(1.0526315789473684,5)"><path fill="url(#ShFcXcLzHwTb)" stroke="none" d="M 10 0 L 85 0 Q 95 0 95 10 L 95 10 Q 95 20 85 20 L 10 20 Q 0 20 0 10 L 0 10 Q 0 0 10 0 Z"/><path fill="url(#ShFcXcLzHwTb)" stroke="#3e6617" d="M 10 0 M 10 0 L 85 0 Q 95 0 95 10 L 95 10 Q 95 20 85 20 L 10 20 Q 0 20 0 10 L 0 10 Q 0 0 10 0 Z" stroke-miterlimit="10" stroke-width="2"/></g></g></g></g></g><g transform="matrix(1,0,0,1,412,480)"><g transform="translate(11,0) matrix(1,0,0,1,0,0) translate(-11,0)"><g><rect fill="rgb(0,0,0)" stroke="none" x="0" y="0" width="92" height="12" fill-opacity="0"/></g></g><g transform="translate(11,0) matrix(1,0,0,1,0,0) translate(-11,0)"><g><rect fill="rgb(0,0,0)" stroke="none" x="0" y="0" width="92" height="12" fill-opacity="0"/></g></g><g transform="translate(11,0) matrix(1,0,0,1,0,0) translate(-11,0)"><g><rect fill="rgb(0,0,0)" stroke="none" x="11" y="0" width="70" height="12" fill-opacity="0"/></g><text fill="rgb(88, 133, 40)" stroke="none" font-family="Verdana" font-size="10px" font-style="normal" font-weight="bold" text-decoration="" line-height="12.5px" x="11" y="11">billingAction</text></g></g><g transform="translate(0,0) matrix(1,0,0,1,409.5,537)"><g><g transform="translate(0,0) scale(0.95,0.2)"><g><path fill="none" stroke="none" d="M 10 0 L 90 0 Q 100 0 100 10 L 100 90 Q 100 100 90 100 L 10 100 Q 0 100 0 90 L 0 10 Q 0 0 10 0 Z"/><g transform="scale(1.0526315789473684,5)"><path fill="url(#ZAqwMdyFWzHv)" stroke="none" d="M 10 0 L 85 0 Q 95 0 95 10 L 95 10 Q 95 20 85 20 L 10 20 Q 0 20 0 10 L 0 10 Q 0 0 10 0 Z"/><path fill="url(#ZAqwMdyFWzHv)" stroke="#3e6617" d="M 10 0 M 10 0 L 85 0 Q 95 0 95 10 L 95 10 Q 95 20 85 20 L 10 20 Q 0 20 0 10 L 0 10 Q 0 0 10 0 Z" stroke-miterlimit="10" stroke-width="2"/></g></g></g></g></g><g transform="matrix(1,0,0,1,412,541)"><g transform="translate(13,0) matrix(1,0,0,1,0,0) translate(-13,0)"><g><rect fill="rgb(0,0,0)" stroke="none" x="0" y="0" width="92" height="12" fill-opacity="0"/></g></g><g transform="translate(13,0) matrix(1,0,0,1,0,0) translate(-13,0)"><g><rect fill="rgb(0,0,0)" stroke="none" x="0" y="0" width="92" height="12" fill-opacity="0"/></g></g><g transform="translate(13,0) matrix(1,0,0,1,0,0) translate(-13,0)"><g><rect fill="rgb(0,0,0)" stroke="none" x="13" y="0" width="66" height="12" fill-opacity="0"/></g><text fill="rgb(88, 133, 40)" stroke="none" font-family="Verdana" font-size="10px" font-style="normal" font-weight="bold" text-decoration="" line-height="12.5px" x="13" y="11">indexAction</text></g></g><g transform="matrix(1,0,0,1,387.96951672795063,428)"><g transform="translate(0,0)"><g transform="translate(-396.5,-518.5) translate(8.530483272049366,90.5) matrix(1,0,0,1,0,0)"><g><path fill="none" stroke="#3e6617" d="M 392.46951672795063 432.5 L 392.46951672795063 476 Q 392.46951672795063 486 400.9847583639753 486 L 409.5 486" stroke-miterlimit="10" stroke-width="2"/></g></g></g></g><g transform="matrix(1,0,0,1,387.96951672795063,428)"><g transform="translate(0,0)"><g transform="translate(-396.5,-533.5) translate(8.530483272049366,105.5) matrix(1,0,0,1,0,0)"><g><path fill="none" stroke="#3e6617" d="M 392.46951672795063 432.5 L 392.46951672795063 537 Q 392.46951672795063 547 400.9847583639753 547 L 409.5 547" stroke-miterlimit="10" stroke-width="2"/></g></g></g></g><g transform="translate(0,0) matrix(1,0,0,1,409.5,565)"><g><g transform="translate(0,0) scale(0.95,0.2)"><g><path fill="none" stroke="none" d="M 10 0 L 90 0 Q 100 0 100 10 L 100 90 Q 100 100 90 100 L 10 100 Q 0 100 0 90 L 0 10 Q 0 0 10 0 Z"/><g transform="scale(1.0526315789473684,5)"><path fill="url(#FCmLTVSrCiNu)" stroke="none" d="M 10 0 L 85 0 Q 95 0 95 10 L 95 10 Q 95 20 85 20 L 10 20 Q 0 20 0 10 L 0 10 Q 0 0 10 0 Z"/><path fill="url(#FCmLTVSrCiNu)" stroke="#3e6617" d="M 10 0 M 10 0 L 85 0 Q 95 0 95 10 L 95 10 Q 95 20 85 20 L 10 20 Q 0 20 0 10 L 0 10 Q 0 0 10 0 Z" stroke-miterlimit="10" stroke-width="2"/></g></g></g></g></g><g transform="matrix(1,0,0,1,412,569)"><g transform="translate(10,0) matrix(1,0,0,1,0,0) translate(-10,0)"><g><rect fill="rgb(0,0,0)" stroke="none" x="0" y="0" width="92" height="12" fill-opacity="0"/></g></g><g transform="translate(10,0) matrix(1,0,0,1,0,0) translate(-10,0)"><g><rect fill="rgb(0,0,0)" stroke="none" x="0" y="0" width="92" height="12" fill-opacity="0"/></g></g><g transform="translate(10,0) matrix(1,0,0,1,0,0) translate(-10,0)"><g><rect fill="rgb(0,0,0)" stroke="none" x="10" y="0" width="72" height="12" fill-opacity="0"/></g><text fill="rgb(88, 133, 40)" stroke="none" font-family="Verdana" font-size="10px" font-style="normal" font-weight="bold" text-decoration="" line-height="12.5px" x="10" y="11">assignAction</text></g></g><g transform="matrix(1,0,0,1,387.96951672795063,428)"><g transform="translate(0,0)"><g transform="translate(-406.5,-543.5) translate(18.530483272049366,115.5) matrix(1,0,0,1,0,0)"><g><path fill="none" stroke="#3e6617" d="M 392.46951672795063 432.5 L 392.46951672795063 565 Q 392.46951672795063 575 400.9847583639753 575 L 409.5 575" stroke-miterlimit="10" stroke-width="2"/></g></g></g></g><g transform="translate(0,0) matrix(1,0,0,1,409.5,506)"><g><g transform="translate(0,0) scale(0.95,0.2)"><g><path fill="none" stroke="none" d="M 10 0 L 90 0 Q 100 0 100 10 L 100 90 Q 100 100 90 100 L 10 100 Q 0 100 0 90 L 0 10 Q 0 0 10 0 Z"/><g transform="scale(1.0526315789473684,5)"><path fill="url(#uWMsRuTtMvsU)" stroke="none" d="M 10 0 L 85 0 Q 95 0 95 10 L 95 10 Q 95 20 85 20 L 10 20 Q 0 20 0 10 L 0 10 Q 0 0 10 0 Z"/><path fill="url(#uWMsRuTtMvsU)" stroke="#3e6617" d="M 10 0 M 10 0 L 85 0 Q 95 0 95 10 L 95 10 Q 95 20 85 20 L 10 20 Q 0 20 0 10 L 0 10 Q 0 0 10 0 Z" stroke-miterlimit="10" stroke-width="2"/></g></g></g></g></g><g transform="matrix(1,0,0,1,412,510)"><g transform="translate(4,0) matrix(1,0,0,1,0,0) translate(-4,0)"><g><rect fill="rgb(0,0,0)" stroke="none" x="0" y="0" width="92" height="12" fill-opacity="0"/></g></g><g transform="translate(4,0) matrix(1,0,0,1,0,0) translate(-4,0)"><g><rect fill="rgb(0,0,0)" stroke="none" x="0" y="0" width="92" height="12" fill-opacity="0"/></g></g><g transform="translate(4,0) matrix(1,0,0,1,0,0) translate(-4,0)"><g><rect fill="rgb(0,0,0)" stroke="none" x="4" y="0" width="84" height="12" fill-opacity="0"/></g><text fill="rgb(88, 133, 40)" stroke="none" font-family="Verdana" font-size="10px" font-style="normal" font-weight="bold" text-decoration="" line-height="12.5px" x="4" y="11">shippingAction</text></g></g><g transform="matrix(1,0,0,1,415,60.5)"><g transform="translate(0,0)"><g transform="translate(-657.5,-102.5) translate(242.5,42) matrix(1,0,0,1,0,0)"><g><path fill="none" stroke="#3e6617" d="M 937.5 392.5 L 937.5 371.75 Q 937.5 361.75 927.5 361.75 L 429.5 361.75 Q 419.5 361.75 419.5 351.75 L 419.5 65" stroke-miterlimit="10" stroke-width="2"/></g></g></g></g><g transform="translate(0,0) matrix(1,0,0,1,462.5,105)"><g><g transform="translate(0,0) scale(0.95,0.2)"><g><path fill="none" stroke="none" d="M 10 0 L 90 0 Q 100 0 100 10 L 100 90 Q 100 100 90 100 L 10 100 Q 0 100 0 90 L 0 10 Q 0 0 10 0 Z"/><g transform="scale(1.0526315789473684,5)"><path fill="url(#psqyVChDmsOe)" stroke="none" d="M 10 0 L 85 0 Q 95 0 95 10 L 95 10 Q 95 20 85 20 L 10 20 Q 0 20 0 10 L 0 10 Q 0 0 10 0 Z"/><path fill="url(#psqyVChDmsOe)" stroke="#3e6617" d="M 10 0 M 10 0 L 85 0 Q 95 0 95 10 L 95 10 Q 95 20 85 20 L 10 20 Q 0 20 0 10 L 0 10 Q 0 0 10 0 Z" stroke-miterlimit="10" stroke-width="2"/></g></g></g></g></g><g transform="matrix(1,0,0,1,465,109)"><g transform="translate(13,0) matrix(1,0,0,1,0,0) translate(-13,0)"><g><rect fill="rgb(0,0,0)" stroke="none" x="0" y="0" width="92" height="12" fill-opacity="0"/></g></g><g transform="translate(13,0) matrix(1,0,0,1,0,0) translate(-13,0)"><g><rect fill="rgb(0,0,0)" stroke="none" x="0" y="0" width="92" height="12" fill-opacity="0"/></g></g><g transform="translate(13,0) matrix(1,0,0,1,0,0) translate(-13,0)"><g><rect fill="rgb(0,0,0)" stroke="none" x="13" y="0" width="66" height="12" fill-opacity="0"/></g><text fill="rgb(88, 133, 40)" stroke="none" font-family="Verdana" font-size="10px" font-style="normal" font-weight="bold" text-decoration="" line-height="12.5px" x="13" y="11">indexAction</text></g></g><g transform="translate(0,0) matrix(1,0,0,1,462.5,140)"><g><g transform="translate(0,0) scale(0.95,0.2)"><g><path fill="none" stroke="none" d="M 10 0 L 90 0 Q 100 0 100 10 L 100 90 Q 100 100 90 100 L 10 100 Q 0 100 0 90 L 0 10 Q 0 0 10 0 Z"/><g transform="scale(1.0526315789473684,5)"><path fill="url(#lKATxfZGlyFE)" stroke="none" d="M 10 0 L 85 0 Q 95 0 95 10 L 95 10 Q 95 20 85 20 L 10 20 Q 0 20 0 10 L 0 10 Q 0 0 10 0 Z"/><path fill="url(#lKATxfZGlyFE)" stroke="#3e6617" d="M 10 0 M 10 0 L 85 0 Q 95 0 95 10 L 95 10 Q 95 20 85 20 L 10 20 Q 0 20 0 10 L 0 10 Q 0 0 10 0 Z" stroke-miterlimit="10" stroke-width="2"/></g></g></g></g></g><g transform="matrix(1,0,0,1,465,144)"><g transform="translate(12,0) matrix(1,0,0,1,0,0) translate(-12,0)"><g><rect fill="rgb(0,0,0)" stroke="none" x="0" y="0" width="92" height="12" fill-opacity="0"/></g></g><g transform="translate(12,0) matrix(1,0,0,1,0,0) translate(-12,0)"><g><rect fill="rgb(0,0,0)" stroke="none" x="0" y="0" width="92" height="12" fill-opacity="0"/></g></g><g transform="translate(12,0) matrix(1,0,0,1,0,0) translate(-12,0)"><g><rect fill="rgb(0,0,0)" stroke="none" x="12" y="0" width="68" height="12" fill-opacity="0"/></g><text fill="rgb(88, 133, 40)" stroke="none" font-family="Verdana" font-size="10px" font-style="normal" font-weight="bold" text-decoration="" line-height="12.5px" x="12" y="11">detailAction</text></g></g><g transform="matrix(1,0,0,1,443.99494936611666,60.5)"><g transform="translate(0,0)"><g transform="translate(-459.5,-147.5) translate(15.505050633883343,87) matrix(1,0,0,1,0,0)"><g><path fill="none" stroke="#3e6617" d="M 448.49494936611666 65 L 448.49494936611666 105 Q 448.49494936611666 115 455.49747468305833 115 L 462.5 115" stroke-miterlimit="10" stroke-width="2"/></g></g></g></g><g transform="matrix(1,0,0,1,387.9695167279506,428)"><g transform="translate(0,0)"><g transform="translate(-1235.5,-574.5) translate(847.5304832720494,146.5) matrix(1,0,0,1,0,0)"><g><path fill="none" stroke="#3e6617" d="M 392.4695167279506 432.5 L 392.4695167279506 506 Q 392.4695167279506 516 400.9847583639753 516 L 409.5 516" stroke-miterlimit="10" stroke-width="2"/></g></g></g></g><g transform="translate(0,0) matrix(1,0,0,1,462.5,180)"><g><g transform="translate(0,0) scale(0.95,0.2)"><g><path fill="none" stroke="none" d="M 10 0 L 90 0 Q 100 0 100 10 L 100 90 Q 100 100 90 100 L 10 100 Q 0 100 0 90 L 0 10 Q 0 0 10 0 Z"/><g transform="scale(1.0526315789473684,5)"><path fill="url(#LHPTyBUzGUJV)" stroke="none" d="M 10 0 L 85 0 Q 95 0 95 10 L 95 10 Q 95 20 85 20 L 10 20 Q 0 20 0 10 L 0 10 Q 0 0 10 0 Z"/><path fill="url(#LHPTyBUzGUJV)" stroke="#3e6617" d="M 10 0 M 10 0 L 85 0 Q 95 0 95 10 L 95 10 Q 95 20 85 20 L 10 20 Q 0 20 0 10 L 0 10 Q 0 0 10 0 Z" stroke-miterlimit="10" stroke-width="2"/></g></g></g></g></g><g transform="matrix(1,0,0,1,465,184)"><g transform="translate(17,0) matrix(1,0,0,1,0,0) translate(-17,0)"><g><rect fill="rgb(0,0,0)" stroke="none" x="0" y="0" width="92" height="12" fill-opacity="0"/></g></g><g transform="translate(17,0) matrix(1,0,0,1,0,0) translate(-17,0)"><g><rect fill="rgb(0,0,0)" stroke="none" x="0" y="0" width="92" height="12" fill-opacity="0"/></g></g><g transform="translate(17,0) matrix(1,0,0,1,0,0) translate(-17,0)"><g><rect fill="rgb(0,0,0)" stroke="none" x="17" y="0" width="58" height="12" fill-opacity="0"/></g><text fill="rgb(88, 133, 40)" stroke="none" font-family="Verdana" font-size="10px" font-style="normal" font-weight="bold" text-decoration="" line-height="12.5px" x="17" y="11">editAction</text></g></g><g transform="matrix(1,0,0,1,443.99494936611666,60.5)"><g transform="translate(0,0)"><g transform="translate(-469.5,-172.5) translate(25.505050633883343,112) matrix(1,0,0,1,0,0)"><g><path fill="none" stroke="#3e6617" d="M 448.49494936611666 65 L 448.49494936611666 180 Q 448.49494936611666 190 455.49747468305833 190 L 462.5 190" stroke-miterlimit="10" stroke-width="2"/></g></g></g></g><g transform="translate(0,0) matrix(1,0,0,1,462.5,210.00000000000003)"><g><g transform="translate(0,0) scale(0.95,0.2)"><g><path fill="none" stroke="none" d="M 10 0 L 90 0 Q 100 0 100 10 L 100 90 Q 100 100 90 100 L 10 100 Q 0 100 0 90 L 0 10 Q 0 0 10 0 Z"/><g transform="scale(1.0526315789473684,5)"><path fill="url(#nzELmGDavcFw)" stroke="none" d="M 10 0 L 85 0 Q 95 0 95 10 L 95 10 Q 95 20 85 20 L 10 20 Q 0 20 0 10 L 0 10 Q 0 0 10 0 Z"/><path fill="url(#nzELmGDavcFw)" stroke="#3e6617" d="M 10 0 M 10 0 L 85 0 Q 95 0 95 10 L 95 10 Q 95 20 85 20 L 10 20 Q 0 20 0 10 L 0 10 Q 0 0 10 0 Z" stroke-miterlimit="10" stroke-width="2"/></g></g></g></g></g><g transform="matrix(1,0,0,1,465,214)"><g transform="translate(9,0) matrix(1,0,0,1,0,0) translate(-9,0)"><g><rect fill="rgb(0,0,0)" stroke="none" x="0" y="0" width="92" height="12" fill-opacity="0"/></g></g><g transform="translate(9,0) matrix(1,0,0,1,0,0) translate(-9,0)"><g><rect fill="rgb(0,0,0)" stroke="none" x="0" y="0" width="92" height="12" fill-opacity="0"/></g></g><g transform="translate(9,0) matrix(1,0,0,1,0,0) translate(-9,0)"><g><rect fill="rgb(0,0,0)" stroke="none" x="9" y="0" width="74" height="12" fill-opacity="0"/></g><text fill="rgb(88, 133, 40)" stroke="none" font-family="Verdana" font-size="10px" font-style="normal" font-weight="bold" text-decoration="" line-height="12.5px" x="9" y="11">updateAction</text></g></g><g transform="translate(0,0) matrix(1,0,0,1,462.5,240)"><g><g transform="translate(0,0) scale(0.95,0.2)"><g><path fill="none" stroke="none" d="M 10 0 L 90 0 Q 100 0 100 10 L 100 90 Q 100 100 90 100 L 10 100 Q 0 100 0 90 L 0 10 Q 0 0 10 0 Z"/><g transform="scale(1.0526315789473684,5)"><path fill="url(#ZOOPrTCohCZN)" stroke="none" d="M 10 0 L 85 0 Q 95 0 95 10 L 95 10 Q 95 20 85 20 L 10 20 Q 0 20 0 10 L 0 10 Q 0 0 10 0 Z"/><path fill="url(#ZOOPrTCohCZN)" stroke="#3e6617" d="M 10 0 M 10 0 L 85 0 Q 95 0 95 10 L 95 10 Q 95 20 85 20 L 10 20 Q 0 20 0 10 L 0 10 Q 0 0 10 0 Z" stroke-miterlimit="10" stroke-width="2"/></g></g></g></g></g><g transform="matrix(1,0,0,1,465,244)"><g transform="translate(7,0) matrix(1,0,0,1,0,0) translate(-7,0)"><g><rect fill="rgb(0,0,0)" stroke="none" x="0" y="0" width="92" height="12" fill-opacity="0"/></g></g><g transform="translate(7,0) matrix(1,0,0,1,0,0) translate(-7,0)"><g><rect fill="rgb(0,0,0)" stroke="none" x="0" y="0" width="92" height="12" fill-opacity="0"/></g></g><g transform="translate(7,0) matrix(1,0,0,1,0,0) translate(-7,0)"><g><rect fill="rgb(0,0,0)" stroke="none" x="7" y="0" width="78" height="12" fill-opacity="0"/></g><text fill="rgb(88, 133, 40)" stroke="none" font-family="Verdana" font-size="10px" font-style="normal" font-weight="bold" text-decoration="" line-height="12.5px" x="7" y="11">removeAction</text></g></g><g transform="translate(0,0) matrix(1,0,0,1,462.5,274)"><g><g transform="translate(0,0) scale(0.95,0.2)"><g><path fill="none" stroke="none" d="M 10 0 L 90 0 Q 100 0 100 10 L 100 90 Q 100 100 90 100 L 10 100 Q 0 100 0 90 L 0 10 Q 0 0 10 0 Z"/><g transform="scale(1.0526315789473684,5)"><path fill="url(#RcvMreQSLlFx)" stroke="none" d="M 10 0 L 85 0 Q 95 0 95 10 L 95 10 Q 95 20 85 20 L 10 20 Q 0 20 0 10 L 0 10 Q 0 0 10 0 Z"/><path fill="url(#RcvMreQSLlFx)" stroke="#3e6617" d="M 10 0 M 10 0 L 85 0 Q 95 0 95 10 L 95 10 Q 95 20 85 20 L 10 20 Q 0 20 0 10 L 0 10 Q 0 0 10 0 Z" stroke-miterlimit="10" stroke-width="2"/></g></g></g></g></g><g transform="matrix(1,0,0,1,465,278)"><g transform="translate(16,0) matrix(1,0,0,1,0,0) translate(-16,0)"><g><rect fill="rgb(0,0,0)" stroke="none" x="0" y="0" width="92" height="12" fill-opacity="0"/></g></g><g transform="translate(16,0) matrix(1,0,0,1,0,0) translate(-16,0)"><g><rect fill="rgb(0,0,0)" stroke="none" x="0" y="0" width="92" height="12" fill-opacity="0"/></g></g><g transform="translate(16,0) matrix(1,0,0,1,0,0) translate(-16,0)"><g><rect fill="rgb(0,0,0)" stroke="none" x="16" y="0" width="60" height="12" fill-opacity="0"/></g><text fill="rgb(88, 133, 40)" stroke="none" font-family="Verdana" font-size="10px" font-style="normal" font-weight="bold" text-decoration="" line-height="12.5px" x="16" y="11">newAction</text></g></g><g transform="translate(0,0) matrix(1,0,0,1,462.5,304)"><g><g transform="translate(0,0) scale(0.95,0.2)"><g><path fill="none" stroke="none" d="M 10 0 L 90 0 Q 100 0 100 10 L 100 90 Q 100 100 90 100 L 10 100 Q 0 100 0 90 L 0 10 Q 0 0 10 0 Z"/><g transform="scale(1.0526315789473684,5)"><path fill="url(#vwpBDISXnyDB)" stroke="none" d="M 10 0 L 85 0 Q 95 0 95 10 L 95 10 Q 95 20 85 20 L 10 20 Q 0 20 0 10 L 0 10 Q 0 0 10 0 Z"/><path fill="url(#vwpBDISXnyDB)" stroke="#3e6617" d="M 10 0 M 10 0 L 85 0 Q 95 0 95 10 L 95 10 Q 95 20 85 20 L 10 20 Q 0 20 0 10 L 0 10 Q 0 0 10 0 Z" stroke-miterlimit="10" stroke-width="2"/></g></g></g></g></g><g transform="matrix(1,0,0,1,465,308)"><g transform="translate(11,0) matrix(1,0,0,1,0,0) translate(-11,0)"><g><rect fill="rgb(0,0,0)" stroke="none" x="0" y="0" width="92" height="12" fill-opacity="0"/></g></g><g transform="translate(11,0) matrix(1,0,0,1,0,0) translate(-11,0)"><g><rect fill="rgb(0,0,0)" stroke="none" x="0" y="0" width="92" height="12" fill-opacity="0"/></g></g><g transform="translate(11,0) matrix(1,0,0,1,0,0) translate(-11,0)"><g><rect fill="rgb(0,0,0)" stroke="none" x="11" y="0" width="70" height="12" fill-opacity="0"/></g><text fill="rgb(88, 133, 40)" stroke="none" font-family="Verdana" font-size="10px" font-style="normal" font-weight="bold" text-decoration="" line-height="12.5px" x="11" y="11">createAction</text></g></g><g transform="matrix(1,0,0,1,443.99494936611666,60.5)"><g transform="translate(0,0)"><g transform="translate(-479.5,-182.5) translate(35.50505063388334,122) matrix(1,0,0,1,0,0)"><g><path fill="none" stroke="#3e6617" d="M 448.49494936611666 65 L 448.49494936611666 140 Q 448.49494936611666 150 455.49747468305833 150 L 462.5 150" stroke-miterlimit="10" stroke-width="2"/></g></g></g></g><g transform="matrix(1,0,0,1,443.99494936611666,60.5)"><g transform="translate(0,0)"><g transform="translate(-489.5,-192.5) translate(45.50505063388334,132) matrix(1,0,0,1,0,0)"><g><path fill="none" stroke="#3e6617" d="M 448.49494936611666 65 L 448.49494936611666 210.00000000000003 Q 448.49494936611666 220.00000000000003 455.49747468305833 220.00000000000003 L 462.5 220.00000000000003" stroke-miterlimit="10" stroke-width="2"/></g></g></g></g><g transform="matrix(1,0,0,1,443.99494936611666,60.5)"><g transform="translate(0,0)"><g transform="translate(-499.5,-202.5) translate(55.50505063388334,142) matrix(1,0,0,1,0,0)"><g><path fill="none" stroke="#3e6617" d="M 448.49494936611666 65 L 448.49494936611666 240 Q 448.49494936611666 250 455.49747468305833 250 L 462.5 250" stroke-miterlimit="10" stroke-width="2"/></g></g></g></g><g transform="matrix(1,0,0,1,443.99494936611666,60.5)"><g transform="translate(0,0)"><g transform="translate(-509.5,-212.5) translate(65.50505063388334,152) matrix(1,0,0,1,0,0)"><g><path fill="none" stroke="#3e6617" d="M 448.49494936611666 65 L 448.49494936611666 274 Q 448.49494936611666 284 455.49747468305833 284 L 462.5 284" stroke-miterlimit="10" stroke-width="2"/></g></g></g></g><g transform="matrix(1,0,0,1,443.99494936611666,60.5)"><g transform="translate(0,0)"><g transform="translate(-519.5,-222.5) translate(75.50505063388334,162) matrix(1,0,0,1,0,0)"><g><path fill="none" stroke="#3e6617" d="M 448.49494936611666 65 L 448.49494936611666 304 Q 448.49494936611666 314 455.49747468305833 314 L 462.5 314" stroke-miterlimit="10" stroke-width="2"/></g></g></g></g><g transform="translate(0,0) matrix(1,0,0,1,1080,10)"><g transform="translate(4,4) scale(1.0074074074074073,1.0555555555555556)"><g><g transform="translate(0,0) scale(1.35,0.18)"><g><path fill="#000000" stroke="none" d="M 0 0 L 100 0 Q 100 0 100 0 L 100 100 Q 100 100 100 100 L 0 100 Q 0 100 0 100 L 0 0 Q 0 0 0 0 Z" opacity="0.294117647"/><g transform="scale(0.7407407407407407,5.555555555555555)"><path fill="none" stroke="none" d="M 0 0 L 135 0 Q 135 0 135 0 L 135 18 Q 135 18 135 18 L 0 18 Q 0 18 0 18 L 0 0 Q 0 0 0 0 Z"/><path fill="none" stroke="rgb(0,0,0)" d="M 0 0 M 0 0 L 135 0 Q 135 0 135 0 L 135 18 Q 135 18 135 18 L 0 18 Q 0 18 0 18 L 0 0 Q 0 0 0 0 Z" stroke-opacity="0" stroke-miterlimit="10" stroke-width="2" opacity="0.294117647"/></g></g></g></g></g><g><g transform="translate(0,0) scale(1.35,0.18)"><g><path fill="#FFFFFF" stroke="none" d="M 0 0 L 100 0 Q 100 0 100 0 L 100 100 Q 100 100 100 100 L 0 100 Q 0 100 0 100 L 0 0 Q 0 0 0 0 Z"/><g transform="scale(0.7407407407407407,5.555555555555555)"><path fill="none" stroke="none" d="M 0 0 L 135 0 Q 135 0 135 0 L 135 18 Q 135 18 135 18 L 0 18 Q 0 18 0 18 L 0 0 Q 0 0 0 0 Z"/><path fill="none" stroke="#000000" d="M 0 0 M 0 0 L 135 0 Q 135 0 135 0 L 135 18 Q 135 18 135 18 L 0 18 Q 0 18 0 18 L 0 0 Q 0 0 0 0 Z" stroke-miterlimit="10" stroke-width="2"/></g></g></g></g></g><g transform="matrix(1,0,0,1,1082,12)"><g transform="translate(64,0) matrix(1,0,0,1,0,0) translate(-64,0)"><g><rect fill="rgb(0,0,0)" stroke="none" x="0" y="0" width="132" height="18" fill-opacity="0"/></g></g><g transform="translate(64,0) matrix(1,0,0,1,0,0) translate(-64,0)"><g><rect fill="rgb(0,0,0)" stroke="none" x="0" y="0" width="132" height="14" fill-opacity="0"/></g></g><g transform="translate(64,0) matrix(1,0,0,1,0,0) translate(-64,0)"><g><rect fill="rgb(0,0,0)" stroke="none" x="64" y="0" width="4" height="14" fill-opacity="0"/></g></g></g><g transform="translate(0,0) matrix(1,0,0,1,1080,28)"><g transform="translate(4,4) scale(1.0055555555555555,1.0212765957446808)"><g><g transform="translate(0,0) scale(1.8,0.47)"><g><path fill="#000000" stroke="none" d="M 0 0 L 100 0 Q 100 0 100 0 L 100 100 Q 100 100 100 100 L 0 100 Q 0 100 0 100 L 0 0 Q 0 0 0 0 Z" opacity="0.294117647"/><g transform="scale(0.5555555555555556,2.127659574468085)"><path fill="none" stroke="none" d="M 0 0 L 180 0 Q 180 0 180 0 L 180 47 Q 180 47 180 47 L 0 47 Q 0 47 0 47 L 0 0 Q 0 0 0 0 Z"/><path fill="none" stroke="rgb(0,0,0)" d="M 0 0 M 0 0 L 180 0 Q 180 0 180 0 L 180 47 Q 180 47 180 47 L 0 47 Q 0 47 0 47 L 0 0 Q 0 0 0 0 Z" stroke-opacity="0" stroke-miterlimit="10" stroke-width="2" opacity="0.294117647"/></g></g></g></g></g><g><g transform="translate(0,0) scale(1.8,0.47)"><g><path fill="#FFFFFF" stroke="none" d="M 0 0 L 100 0 Q 100 0 100 0 L 100 100 Q 100 100 100 100 L 0 100 Q 0 100 0 100 L 0 0 Q 0 0 0 0 Z"/><g transform="scale(0.5555555555555556,2.127659574468085)"><path fill="none" stroke="none" d="M 0 0 L 180 0 Q 180 0 180 0 L 180 47 Q 180 47 180 47 L 0 47 Q 0 47 0 47 L 0 0 Q 0 0 0 0 Z"/><path fill="none" stroke="#000000" d="M 0 0 M 0 0 L 180 0 Q 180 0 180 0 L 180 47 Q 180 47 180 47 L 0 47 Q 0 47 0 47 L 0 0 Q 0 0 0 0 Z" stroke-miterlimit="10" stroke-width="2"/></g></g></g></g></g><g transform="matrix(1,0,0,1,1088,36)"><g transform="translate(60,0) matrix(1,0,0,1,0,0) translate(-60,0)"><g><rect fill="rgb(0,0,0)" stroke="none" x="0" y="0" width="165" height="30" fill-opacity="0"/></g></g><g transform="translate(60,0) matrix(1,0,0,1,0,0) translate(-60,0)"><g><rect fill="rgb(0,0,0)" stroke="none" x="0" y="0" width="165" height="14" fill-opacity="0"/></g></g><g transform="translate(60,0) matrix(1,0,0,1,0,0) translate(-60,0)"><g><rect fill="rgb(0,0,0)" stroke="none" x="60" y="0" width="45" height="14" fill-opacity="0"/></g><text fill="rgb(0, 0, 0)" stroke="none" font-family="Arial" font-size="12px" font-style="normal" font-weight="bold" text-decoration="" line-height="14px" x="60" y="11">Contact</text></g></g><g transform="translate(0,0) matrix(1,0,0,1,600,630)"><g transform="translate(4,4) scale(1.0074074074074073,1.0555555555555556)"><g><g transform="translate(0,0) scale(1.35,0.18)"><g><path fill="#000000" stroke="none" d="M 0 0 L 100 0 Q 100 0 100 0 L 100 100 Q 100 100 100 100 L 0 100 Q 0 100 0 100 L 0 0 Q 0 0 0 0 Z" opacity="0.294117647"/><g transform="scale(0.7407407407407407,5.555555555555555)"><path fill="none" stroke="none" d="M 0 0 L 135 0 Q 135 0 135 0 L 135 18 Q 135 18 135 18 L 0 18 Q 0 18 0 18 L 0 0 Q 0 0 0 0 Z"/><path fill="none" stroke="rgb(0,0,0)" d="M 0 0 M 0 0 L 135 0 Q 135 0 135 0 L 135 18 Q 135 18 135 18 L 0 18 Q 0 18 0 18 L 0 0 Q 0 0 0 0 Z" stroke-opacity="0" stroke-miterlimit="10" stroke-width="2" opacity="0.294117647"/></g></g></g></g></g><g><g transform="translate(0,0) scale(1.35,0.18)"><g><path fill="#FFFFFF" stroke="none" d="M 0 0 L 100 0 Q 100 0 100 0 L 100 100 Q 100 100 100 100 L 0 100 Q 0 100 0 100 L 0 0 Q 0 0 0 0 Z"/><g transform="scale(0.7407407407407407,5.555555555555555)"><path fill="none" stroke="none" d="M 0 0 L 135 0 Q 135 0 135 0 L 135 18 Q 135 18 135 18 L 0 18 Q 0 18 0 18 L 0 0 Q 0 0 0 0 Z"/><path fill="none" stroke="#000000" d="M 0 0 M 0 0 L 135 0 Q 135 0 135 0 L 135 18 Q 135 18 135 18 L 0 18 Q 0 18 0 18 L 0 0 Q 0 0 0 0 Z" stroke-miterlimit="10" stroke-width="2"/></g></g></g></g></g><g transform="matrix(1,0,0,1,602,632)"><g transform="translate(64,0) matrix(1,0,0,1,0,0) translate(-64,0)"><g><rect fill="rgb(0,0,0)" stroke="none" x="0" y="0" width="132" height="18" fill-opacity="0"/></g></g><g transform="translate(64,0) matrix(1,0,0,1,0,0) translate(-64,0)"><g><rect fill="rgb(0,0,0)" stroke="none" x="0" y="0" width="132" height="14" fill-opacity="0"/></g></g><g transform="translate(64,0) matrix(1,0,0,1,0,0) translate(-64,0)"><g><rect fill="rgb(0,0,0)" stroke="none" x="64" y="0" width="4" height="14" fill-opacity="0"/></g></g></g><g transform="translate(0,0) matrix(1,0,0,1,600,648)"><g transform="translate(4,4) scale(1.0055555555555555,1.0212765957446808)"><g><g transform="translate(0,0) scale(1.8,0.47)"><g><path fill="#000000" stroke="none" d="M 0 0 L 100 0 Q 100 0 100 0 L 100 100 Q 100 100 100 100 L 0 100 Q 0 100 0 100 L 0 0 Q 0 0 0 0 Z" opacity="0.294117647"/><g transform="scale(0.5555555555555556,2.127659574468085)"><path fill="none" stroke="none" d="M 0 0 L 180 0 Q 180 0 180 0 L 180 47 Q 180 47 180 47 L 0 47 Q 0 47 0 47 L 0 0 Q 0 0 0 0 Z"/><path fill="none" stroke="rgb(0,0,0)" d="M 0 0 M 0 0 L 180 0 Q 180 0 180 0 L 180 47 Q 180 47 180 47 L 0 47 Q 0 47 0 47 L 0 0 Q 0 0 0 0 Z" stroke-opacity="0" stroke-miterlimit="10" stroke-width="2" opacity="0.294117647"/></g></g></g></g></g><g><g transform="translate(0,0) scale(1.8,0.47)"><g><path fill="#FFFFFF" stroke="none" d="M 0 0 L 100 0 Q 100 0 100 0 L 100 100 Q 100 100 100 100 L 0 100 Q 0 100 0 100 L 0 0 Q 0 0 0 0 Z"/><g transform="scale(0.5555555555555556,2.127659574468085)"><path fill="none" stroke="none" d="M 0 0 L 180 0 Q 180 0 180 0 L 180 47 Q 180 47 180 47 L 0 47 Q 0 47 0 47 L 0 0 Q 0 0 0 0 Z"/><path fill="none" stroke="#000000" d="M 0 0 M 0 0 L 180 0 Q 180 0 180 0 L 180 47 Q 180 47 180 47 L 0 47 Q 0 47 0 47 L 0 0 Q 0 0 0 0 Z" stroke-miterlimit="10" stroke-width="2"/></g></g></g></g></g><g transform="matrix(1,0,0,1,608,656)"><g transform="translate(11,0) matrix(1,0,0,1,0,0) translate(-11,0)"><g><rect fill="rgb(0,0,0)" stroke="none" x="0" y="0" width="165" height="30" fill-opacity="0"/></g></g><g transform="translate(11,0) matrix(1,0,0,1,0,0) translate(-11,0)"><g><rect fill="rgb(0,0,0)" stroke="none" x="0" y="0" width="165" height="14" fill-opacity="0"/></g></g><g transform="translate(11,0) matrix(1,0,0,1,0,0) translate(-11,0)"><g><rect fill="rgb(0,0,0)" stroke="none" x="11" y="0" width="143" height="14" fill-opacity="0"/></g><text fill="rgb(0, 0, 0)" stroke="none" font-family="Arial" font-size="12px" font-style="normal" font-weight="bold" text-decoration="" line-height="14px" x="11" y="11">ContingentGroupContact</text></g></g><g transform="translate(0,0) matrix(1,0,0,1,64.5,630)"><g transform="translate(4,4) scale(1.0074074074074073,1.0555555555555556)"><g><g transform="translate(0,0) scale(1.35,0.18)"><g><path fill="#000000" stroke="none" d="M 0 0 L 100 0 Q 100 0 100 0 L 100 100 Q 100 100 100 100 L 0 100 Q 0 100 0 100 L 0 0 Q 0 0 0 0 Z" opacity="0.294117647"/><g transform="scale(0.7407407407407407,5.555555555555555)"><path fill="none" stroke="none" d="M 0 0 L 135 0 Q 135 0 135 0 L 135 18 Q 135 18 135 18 L 0 18 Q 0 18 0 18 L 0 0 Q 0 0 0 0 Z"/><path fill="none" stroke="rgb(0,0,0)" d="M 0 0 M 0 0 L 135 0 Q 135 0 135 0 L 135 18 Q 135 18 135 18 L 0 18 Q 0 18 0 18 L 0 0 Q 0 0 0 0 Z" stroke-opacity="0" stroke-miterlimit="10" stroke-width="2" opacity="0.294117647"/></g></g></g></g></g><g><g transform="translate(0,0) scale(1.35,0.18)"><g><path fill="#FFFFFF" stroke="none" d="M 0 0 L 100 0 Q 100 0 100 0 L 100 100 Q 100 100 100 100 L 0 100 Q 0 100 0 100 L 0 0 Q 0 0 0 0 Z"/><g transform="scale(0.7407407407407407,5.555555555555555)"><path fill="none" stroke="none" d="M 0 0 L 135 0 Q 135 0 135 0 L 135 18 Q 135 18 135 18 L 0 18 Q 0 18 0 18 L 0 0 Q 0 0 0 0 Z"/><path fill="none" stroke="#000000" d="M 0 0 M 0 0 L 135 0 Q 135 0 135 0 L 135 18 Q 135 18 135 18 L 0 18 Q 0 18 0 18 L 0 0 Q 0 0 0 0 Z" stroke-miterlimit="10" stroke-width="2"/></g></g></g></g></g><g transform="matrix(1,0,0,1,67,632)"><g transform="translate(64,0) matrix(1,0,0,1,0,0) translate(-64,0)"><g><rect fill="rgb(0,0,0)" stroke="none" x="0" y="0" width="132" height="18" fill-opacity="0"/></g></g><g transform="translate(64,0) matrix(1,0,0,1,0,0) translate(-64,0)"><g><rect fill="rgb(0,0,0)" stroke="none" x="0" y="0" width="132" height="14" fill-opacity="0"/></g></g><g transform="translate(64,0) matrix(1,0,0,1,0,0) translate(-64,0)"><g><rect fill="rgb(0,0,0)" stroke="none" x="64" y="0" width="4" height="14" fill-opacity="0"/></g></g></g><g transform="translate(0,0) matrix(1,0,0,1,64.5,648)"><g transform="translate(4,4) scale(1.0055555555555555,1.0212765957446808)"><g><g transform="translate(0,0) scale(1.8,0.47)"><g><path fill="#000000" stroke="none" d="M 0 0 L 100 0 Q 100 0 100 0 L 100 100 Q 100 100 100 100 L 0 100 Q 0 100 0 100 L 0 0 Q 0 0 0 0 Z" opacity="0.294117647"/><g transform="scale(0.5555555555555556,2.127659574468085)"><path fill="none" stroke="none" d="M 0 0 L 180 0 Q 180 0 180 0 L 180 47 Q 180 47 180 47 L 0 47 Q 0 47 0 47 L 0 0 Q 0 0 0 0 Z"/><path fill="none" stroke="rgb(0,0,0)" d="M 0 0 M 0 0 L 180 0 Q 180 0 180 0 L 180 47 Q 180 47 180 47 L 0 47 Q 0 47 0 47 L 0 0 Q 0 0 0 0 Z" stroke-opacity="0" stroke-miterlimit="10" stroke-width="2" opacity="0.294117647"/></g></g></g></g></g><g><g transform="translate(0,0) scale(1.8,0.47)"><g><path fill="#FFFFFF" stroke="none" d="M 0 0 L 100 0 Q 100 0 100 0 L 100 100 Q 100 100 100 100 L 0 100 Q 0 100 0 100 L 0 0 Q 0 0 0 0 Z"/><g transform="scale(0.5555555555555556,2.127659574468085)"><path fill="none" stroke="none" d="M 0 0 L 180 0 Q 180 0 180 0 L 180 47 Q 180 47 180 47 L 0 47 Q 0 47 0 47 L 0 0 Q 0 0 0 0 Z"/><path fill="none" stroke="#000000" d="M 0 0 M 0 0 L 180 0 Q 180 0 180 0 L 180 47 Q 180 47 180 47 L 0 47 Q 0 47 0 47 L 0 0 Q 0 0 0 0 Z" stroke-miterlimit="10" stroke-width="2"/></g></g></g></g></g><g transform="matrix(1,0,0,1,73,656)"><g transform="translate(47,0) matrix(1,0,0,1,0,0) translate(-47,0)"><g><rect fill="rgb(0,0,0)" stroke="none" x="0" y="0" width="165" height="30" fill-opacity="0"/></g></g><g transform="translate(47,0) matrix(1,0,0,1,0,0) translate(-47,0)"><g><rect fill="rgb(0,0,0)" stroke="none" x="0" y="0" width="165" height="14" fill-opacity="0"/></g></g><g transform="translate(47,0) matrix(1,0,0,1,0,0) translate(-47,0)"><g><rect fill="rgb(0,0,0)" stroke="none" x="47" y="0" width="71" height="14" fill-opacity="0"/></g><text fill="rgb(0, 0, 0)" stroke="none" font-family="Arial" font-size="12px" font-style="normal" font-weight="bold" text-decoration="" line-height="14px" x="47" y="11">RoleContact</text></g></g><g transform="translate(0,0) matrix(1,0,0,1,350,630)"><g transform="translate(4,4) scale(1.0074074074074073,1.0555555555555556)"><g><g transform="translate(0,0) scale(1.35,0.18)"><g><path fill="#000000" stroke="none" d="M 0 0 L 100 0 Q 100 0 100 0 L 100 100 Q 100 100 100 100 L 0 100 Q 0 100 0 100 L 0 0 Q 0 0 0 0 Z" opacity="0.294117647"/><g transform="scale(0.7407407407407407,5.555555555555555)"><path fill="none" stroke="none" d="M 0 0 L 135 0 Q 135 0 135 0 L 135 18 Q 135 18 135 18 L 0 18 Q 0 18 0 18 L 0 0 Q 0 0 0 0 Z"/><path fill="none" stroke="rgb(0,0,0)" d="M 0 0 M 0 0 L 135 0 Q 135 0 135 0 L 135 18 Q 135 18 135 18 L 0 18 Q 0 18 0 18 L 0 0 Q 0 0 0 0 Z" stroke-opacity="0" stroke-miterlimit="10" stroke-width="2" opacity="0.294117647"/></g></g></g></g></g><g><g transform="translate(0,0) scale(1.35,0.18)"><g><path fill="#FFFFFF" stroke="none" d="M 0 0 L 100 0 Q 100 0 100 0 L 100 100 Q 100 100 100 100 L 0 100 Q 0 100 0 100 L 0 0 Q 0 0 0 0 Z"/><g transform="scale(0.7407407407407407,5.555555555555555)"><path fill="none" stroke="none" d="M 0 0 L 135 0 Q 135 0 135 0 L 135 18 Q 135 18 135 18 L 0 18 Q 0 18 0 18 L 0 0 Q 0 0 0 0 Z"/><path fill="none" stroke="#000000" d="M 0 0 M 0 0 L 135 0 Q 135 0 135 0 L 135 18 Q 135 18 135 18 L 0 18 Q 0 18 0 18 L 0 0 Q 0 0 0 0 Z" stroke-miterlimit="10" stroke-width="2"/></g></g></g></g></g><g transform="matrix(1,0,0,1,352,632)"><g transform="translate(64,0) matrix(1,0,0,1,0,0) translate(-64,0)"><g><rect fill="rgb(0,0,0)" stroke="none" x="0" y="0" width="132" height="18" fill-opacity="0"/></g></g><g transform="translate(64,0) matrix(1,0,0,1,0,0) translate(-64,0)"><g><rect fill="rgb(0,0,0)" stroke="none" x="0" y="0" width="132" height="14" fill-opacity="0"/></g></g><g transform="translate(64,0) matrix(1,0,0,1,0,0) translate(-64,0)"><g><rect fill="rgb(0,0,0)" stroke="none" x="64" y="0" width="4" height="14" fill-opacity="0"/></g></g></g><g transform="translate(0,0) matrix(1,0,0,1,350,648)"><g transform="translate(4,4) scale(1.0055555555555555,1.0212765957446808)"><g><g transform="translate(0,0) scale(1.8,0.47)"><g><path fill="#000000" stroke="none" d="M 0 0 L 100 0 Q 100 0 100 0 L 100 100 Q 100 100 100 100 L 0 100 Q 0 100 0 100 L 0 0 Q 0 0 0 0 Z" opacity="0.294117647"/><g transform="scale(0.5555555555555556,2.127659574468085)"><path fill="none" stroke="none" d="M 0 0 L 180 0 Q 180 0 180 0 L 180 47 Q 180 47 180 47 L 0 47 Q 0 47 0 47 L 0 0 Q 0 0 0 0 Z"/><path fill="none" stroke="rgb(0,0,0)" d="M 0 0 M 0 0 L 180 0 Q 180 0 180 0 L 180 47 Q 180 47 180 47 L 0 47 Q 0 47 0 47 L 0 0 Q 0 0 0 0 Z" stroke-opacity="0" stroke-miterlimit="10" stroke-width="2" opacity="0.294117647"/></g></g></g></g></g><g><g transform="translate(0,0) scale(1.8,0.47)"><g><path fill="#FFFFFF" stroke="none" d="M 0 0 L 100 0 Q 100 0 100 0 L 100 100 Q 100 100 100 100 L 0 100 Q 0 100 0 100 L 0 0 Q 0 0 0 0 Z"/><g transform="scale(0.5555555555555556,2.127659574468085)"><path fill="none" stroke="none" d="M 0 0 L 180 0 Q 180 0 180 0 L 180 47 Q 180 47 180 47 L 0 47 Q 0 47 0 47 L 0 0 Q 0 0 0 0 Z"/><path fill="none" stroke="#000000" d="M 0 0 M 0 0 L 180 0 Q 180 0 180 0 L 180 47 Q 180 47 180 47 L 0 47 Q 0 47 0 47 L 0 0 Q 0 0 0 0 Z" stroke-miterlimit="10" stroke-width="2"/></g></g></g></g></g><g transform="matrix(1,0,0,1,358,656)"><g transform="translate(58,0) matrix(1,0,0,1,0,0) translate(-58,0)"><g><rect fill="rgb(0,0,0)" stroke="none" x="0" y="0" width="165" height="30" fill-opacity="0"/></g></g><g transform="translate(58,0) matrix(1,0,0,1,0,0) translate(-58,0)"><g><rect fill="rgb(0,0,0)" stroke="none" x="0" y="0" width="165" height="14" fill-opacity="0"/></g></g><g transform="translate(58,0) matrix(1,0,0,1,0,0) translate(-58,0)"><g><rect fill="rgb(0,0,0)" stroke="none" x="58" y="0" width="49" height="14" fill-opacity="0"/></g><text fill="rgb(0, 0, 0)" stroke="none" font-family="Arial" font-size="12px" font-style="normal" font-weight="bold" text-decoration="" line-height="14px" x="58" y="11">Address</text></g></g><g transform="translate(0,0) matrix(1,0,0,1,862,630)"><g transform="translate(4,4) scale(1.0074074074074073,1.0555555555555556)"><g><g transform="translate(0,0) scale(1.35,0.18)"><g><path fill="#000000" stroke="none" d="M 0 0 L 100 0 Q 100 0 100 0 L 100 100 Q 100 100 100 100 L 0 100 Q 0 100 0 100 L 0 0 Q 0 0 0 0 Z" opacity="0.294117647"/><g transform="scale(0.7407407407407407,5.555555555555555)"><path fill="none" stroke="none" d="M 0 0 L 135 0 Q 135 0 135 0 L 135 18 Q 135 18 135 18 L 0 18 Q 0 18 0 18 L 0 0 Q 0 0 0 0 Z"/><path fill="none" stroke="rgb(0,0,0)" d="M 0 0 M 0 0 L 135 0 Q 135 0 135 0 L 135 18 Q 135 18 135 18 L 0 18 Q 0 18 0 18 L 0 0 Q 0 0 0 0 Z" stroke-opacity="0" stroke-miterlimit="10" stroke-width="2" opacity="0.294117647"/></g></g></g></g></g><g><g transform="translate(0,0) scale(1.35,0.18)"><g><path fill="#FFFFFF" stroke="none" d="M 0 0 L 100 0 Q 100 0 100 0 L 100 100 Q 100 100 100 100 L 0 100 Q 0 100 0 100 L 0 0 Q 0 0 0 0 Z"/><g transform="scale(0.7407407407407407,5.555555555555555)"><path fill="none" stroke="none" d="M 0 0 L 135 0 Q 135 0 135 0 L 135 18 Q 135 18 135 18 L 0 18 Q 0 18 0 18 L 0 0 Q 0 0 0 0 Z"/><path fill="none" stroke="#000000" d="M 0 0 M 0 0 L 135 0 Q 135 0 135 0 L 135 18 Q 135 18 135 18 L 0 18 Q 0 18 0 18 L 0 0 Q 0 0 0 0 Z" stroke-miterlimit="10" stroke-width="2"/></g></g></g></g></g><g transform="matrix(1,0,0,1,864,632)"><g transform="translate(64,0) matrix(1,0,0,1,0,0) translate(-64,0)"><g><rect fill="rgb(0,0,0)" stroke="none" x="0" y="0" width="132" height="18" fill-opacity="0"/></g></g><g transform="translate(64,0) matrix(1,0,0,1,0,0) translate(-64,0)"><g><rect fill="rgb(0,0,0)" stroke="none" x="0" y="0" width="132" height="14" fill-opacity="0"/></g></g><g transform="translate(64,0) matrix(1,0,0,1,0,0) translate(-64,0)"><g><rect fill="rgb(0,0,0)" stroke="none" x="64" y="0" width="4" height="14" fill-opacity="0"/></g></g></g><g transform="translate(0,0) matrix(1,0,0,1,862,648)"><g transform="translate(4,4) scale(1.0055555555555555,1.0212765957446808)"><g><g transform="translate(0,0) scale(1.8,0.47)"><g><path fill="#000000" stroke="none" d="M 0 0 L 100 0 Q 100 0 100 0 L 100 100 Q 100 100 100 100 L 0 100 Q 0 100 0 100 L 0 0 Q 0 0 0 0 Z" opacity="0.294117647"/><g transform="scale(0.5555555555555556,2.127659574468085)"><path fill="none" stroke="none" d="M 0 0 L 180 0 Q 180 0 180 0 L 180 47 Q 180 47 180 47 L 0 47 Q 0 47 0 47 L 0 0 Q 0 0 0 0 Z"/><path fill="none" stroke="rgb(0,0,0)" d="M 0 0 M 0 0 L 180 0 Q 180 0 180 0 L 180 47 Q 180 47 180 47 L 0 47 Q 0 47 0 47 L 0 0 Q 0 0 0 0 Z" stroke-opacity="0" stroke-miterlimit="10" stroke-width="2" opacity="0.294117647"/></g></g></g></g></g><g><g transform="translate(0,0) scale(1.8,0.47)"><g><path fill="#FFFFFF" stroke="none" d="M 0 0 L 100 0 Q 100 0 100 0 L 100 100 Q 100 100 100 100 L 0 100 Q 0 100 0 100 L 0 0 Q 0 0 0 0 Z"/><g transform="scale(0.5555555555555556,2.127659574468085)"><path fill="none" stroke="none" d="M 0 0 L 180 0 Q 180 0 180 0 L 180 47 Q 180 47 180 47 L 0 47 Q 0 47 0 47 L 0 0 Q 0 0 0 0 Z"/><path fill="none" stroke="#000000" d="M 0 0 M 0 0 L 180 0 Q 180 0 180 0 L 180 47 Q 180 47 180 47 L 0 47 Q 0 47 0 47 L 0 0 Q 0 0 0 0 Z" stroke-miterlimit="10" stroke-width="2"/></g></g></g></g></g><g transform="matrix(1,0,0,1,870,656)"><g transform="translate(56,0) matrix(1,0,0,1,0,0) translate(-56,0)"><g><rect fill="rgb(0,0,0)" stroke="none" x="0" y="0" width="165" height="30" fill-opacity="0"/></g></g><g transform="translate(56,0) matrix(1,0,0,1,0,0) translate(-56,0)"><g><rect fill="rgb(0,0,0)" stroke="none" x="0" y="0" width="165" height="14" fill-opacity="0"/></g></g><g transform="translate(56,0) matrix(1,0,0,1,0,0) translate(-56,0)"><g><rect fill="rgb(0,0,0)" stroke="none" x="56" y="0" width="53" height="14" fill-opacity="0"/></g><text fill="rgb(0, 0, 0)" stroke="none" font-family="Arial" font-size="12px" font-style="normal" font-weight="bold" text-decoration="" line-height="14px" x="56" y="11">AclRoute</text></g></g><g transform="matrix(1,0,0,1,20.5,416.7842712474619)"><g transform="translate(0,0)"><g transform="translate(-86,-786) translate(65.5,369.2157287525381) matrix(1,0,0,1,0,0)"><g><path fill="none" stroke="#000000" d="M 64.5 662.5 L 24.5 662.5 L 24.5 420.7842712474619 L 74.5 420.7842712474619" stroke-miterlimit="10"/></g></g></g></g><g transform="matrix(1,0,0,1,306,416.7842712474619)"><g transform="translate(0,0)"><g transform="translate(-331,-767) translate(25,350.2157287525381) matrix(1,0,0,1,0,0)"><g><path fill="none" stroke="#000000" d="M 350 420.7842712474619 L 310 420.7842712474619 L 310 662.5 L 350 662.5" stroke-miterlimit="10"/></g></g></g></g><g transform="matrix(1,0,0,1,543.5,416.7842712474619)"><g transform="translate(0,0)"><g transform="translate(-566,-750) translate(22.5,333.2157287525381) matrix(1,0,0,1,0,0)"><g><path fill="none" stroke="#000000" d="M 587.5 420.7842712474619 L 547.5 420.7842712474619 L 547.5 662.5 L 600 662.5" stroke-miterlimit="10"/></g></g></g></g><g transform="matrix(1,0,0,1,813.5,416.7842712474619)"><g transform="translate(0,0)"><g transform="translate(-1223,-584) translate(409.5,167.2157287525381) matrix(1,0,0,1,0,0)"><g><path fill="none" stroke="#000000" d="M 857.5 420.7842712474619 L 817.5 420.7842712474619 L 817.5 662.5 L 862 662.5" stroke-miterlimit="10"/></g></g></g></g><g transform="matrix(1,0,0,1,485.5,38.5)"><g transform="translate(0,0)"><g transform="translate(-1348,-258) translate(862.5,219.5) matrix(1,0,0,1,0,0)"><g><path fill="none" stroke="#000000" d="M 489.5 42.5 L 686.3333333333333 42.5 L 883.1666666666666 42.5 L 1080 42.5" stroke-miterlimit="10"/></g></g></g></g></g></svg>