<?xml version="1.0" encoding="UTF-8"?>
<svg style="background:#FFFFFF" version="1.1" viewBox="0 0 364 129" xmlns="http://www.w3.org/2000/svg">
<title>WurmDev</title>
<g fill="none" fill-rule="evenodd">
<g transform="translate(3 2)">
<g transform="translate(0 10)">
<path d="m62.937 111.53c33.709 0 61.036-8.8035 61.036-19.663 0-10.86-27.327-21.025-61.036-21.025-33.709 0-61.036 10.165-61.036 21.025 0 10.86 27.327 19.663 61.036 19.663z" fill="#189EFF" fill-opacity=".18"/>
<path d="m287.65 111.53c33.709 0 61.036-8.8035 61.036-19.663 0-10.86-27.327-21.025-61.036-21.025s-61.036 10.165-61.036 21.025c0 10.86 27.327 19.663 61.036 19.663z" fill="#189EFF" fill-opacity=".18"/>
<path d="m72.758 139.28c-4.554 12.528-18.342 18.97-30.797 14.389-12.455-4.5807-18.859-18.45-14.305-30.977 29.093-80.031 80.246-122.57 150.87-122.57 70.779 0 121.32 42.739 148.89 122.98 4.3313 12.607-2.3182 26.359-14.852 30.716s-26.206-2.3318-30.537-14.939c-21.316-62.047-54.903-90.449-103.5-90.449-48.746 0-83.141 28.603-105.77 90.854z" fill="#fff" fill-rule="nonzero" stroke="#0049FF" stroke-width="8"/>
<path d="m172.84 46.289l-3.1899-43.489c10.293-1.0399 23.704-0.18409 40.232 2.5673l-10.859 42.995c-4.4661-1.1869-8.924-1.878-13.374-2.0733s-8.7194-0.19532-12.809 0z" fill="#0049FF" fill-opacity=".42"/>
<path d="m224.93 56.769l17.455-40.073c15.166 8.3162 26.875 16.986 35.127 26.01l-34.278 27.153c-1.8842-1.975-4.5077-4.1816-7.8708-6.6197-3.363-2.4381-6.8408-4.595-10.433-6.4706z" fill="#189EFF" fill-opacity=".31"/>
<polygon points="286.12 80.599 296.51 74.431 305.18 93.208 297.76 96.521" fill="#fff"/>
<path d="m44.1 91.54c3.7415-7.4272 7.2767-13.753 10.606-18.977 3.3288-5.224 7.212-10.573 11.649-16.047 25.284 17.331 37.038 25.425 35.262 24.281-4.1114 5.4222-6.9727 9.3362-8.5837 11.742-1.9546 2.919-4.2905 6.6385-7.0078 11.159l-41.926-12.158z" fill="#0049FF" fill-opacity=".36"/>
<path d="m257.92 84.057c14.431-4.8434 26.71-12.29 36.837-22.339 6.0146 8.9871 9.9503 15.286 11.807 18.897 6.9596 13.534 11.572 23.875 13.553 30.135-30.876 4.723-46.315 7.0846-46.315 7.0846-1.8878-7.1232-4.4394-13.486-7.655-19.089-3.2156-5.6026-5.9578-10.499-8.2268-14.688z" fill="#FFDB47"/>
<path d="m120.64 63.827l-26.209-34.579c9.7546-7.8947 22.542-14.561 38.363-20l10.847 42.871c-4.191 1.5257-8.1792 3.252-11.965 5.1789-3.7854 1.9269-7.4639 4.1031-11.035 6.5287z" fill="#FFDB47"/>
<path d="m64.188 130.27c7.283-15.253 11.581-24.248 12.893-26.986 21.294-44.418 59.538-64.266 97.901-65.702 41.962-1.571 73.676 15.474 95.144 51.136 3.7023 5.8525 7.985 14.951 12.848 27.294" opacity=".42125" stroke="#189EFF" stroke-opacity=".28" stroke-width="19"/>
<g transform="translate(0 82.522)" fill="#fff">
<path d="m1.9364 7.4254c-0.023754 0.22662-0.035728 0.45363-0.035728 0.68094 0 10.86 27.327 19.663 61.036 19.663 33.709 0 61.036-8.8035 61.036-19.663 0-0.22731-0.011973-0.45432-0.035727-0.68094h0.035727v70.279h-122.07v-70.279h0.035728z"/>
<path d="m226.65 7.4254c-0.023754 0.22662-0.035728 0.45363-0.035728 0.68094 0 10.86 27.327 19.663 61.036 19.663s61.036-8.8035 61.036-19.663c0-0.22731-0.011973-0.45432-0.035727-0.68094h0.035727v70.279h-122.07v-70.279h0.035728z"/>
</g>
</g>
<circle cx="310" cy="9" r="9" fill="#0049FF" fill-opacity=".51" opacity=".15483"/>
<circle cx="333" cy="36" r="14" fill="#92B1FF" opacity=".24921"/>
<path d="m223.33 66.283l18.575-42.283" stroke="#0049FF" stroke-width="8"/>
<path d="m243.67 81.821l35.442-28.821" stroke="#0049FF" stroke-width="8"/>
<path d="m200.16 59.526l11.944-45.526" stroke="#0049FF" stroke-width="8"/>
<path d="m146.15 63.358l-12.155-45.358" stroke="#0049FF" stroke-width="8"/>
<path d="m121 76l-28-36" stroke="#0049FF" stroke-width="8"/>
<path d="m171 58l-3-47" stroke="#0049FF" stroke-width="8"/>
<path d="m258.02 96c0.62888 0 13.288-8 37.978-24-25.947 16-38.607 24-37.978 24z" stroke="#0049FF" stroke-width="8"/>
<path d="m104.76 89.112l-37.236-25.092" stroke="#0049FF" stroke-width="8"/>
<path d="m87 115l-45-13" stroke="#0049FF" stroke-width="8"/>
</g>
</g>
</svg>
