<?xml version="1.0" encoding="utf-8"?>
<!-- Generator: Adobe Illustrator 21.1.0, SVG Export Plug-In . SVG Version: 6.00 Build 0)  -->
<svg version="1.1" id="Ebene_1" xmlns="http://www.w3.org/2000/svg" xmlns:xlink="http://www.w3.org/1999/xlink" x="0px" y="0px"
	 viewBox="0 0 31 31" style="enable-background:new 0 0 31 31;" xml:space="preserve">
<style type="text/css">
	.st0{opacity:0.3;fill:#FFFFFF;}
	.st1{fill:#FFFFFF;}
</style>
<path class="st0" d="M27,8.9c0.6,0,1,0.4,1,1V27c0,0.6-0.4,1-1,1H9.9c-0.6,0-1-0.4-1-1V9.9c0-0.6,0.4-1,1-1H27 M27,5.9H9.9
	c-2.2,0-4,1.8-4,4V27c0,2.2,1.8,4,4,4H27c2.2,0,4-1.8,4-4V9.9C31,7.7,29.2,5.9,27,5.9L27,5.9z"/>
<path class="st1" d="M21.1,3c0.6,0,1,0.4,1,1v17.1c0,0.6-0.4,1-1,1H4c-0.6,0-1-0.4-1-1V4c0-0.6,0.4-1,1-1H21.1 M21.1,0H4
	C1.8,0,0,1.8,0,4v17.1c0,2.2,1.8,4,4,4h17.1c2.2,0,4-1.8,4-4V4C25.1,1.8,23.3,0,21.1,0L21.1,0z"/>
</svg>
