<?xml version="1.0" encoding="utf-8"?>
<!-- Generator: Adobe Illustrator 21.1.0, SVG Export Plug-In . SVG Version: 6.00 Build 0)  -->
<svg version="1.1" id="Ebene_1" xmlns="http://www.w3.org/2000/svg" xmlns:xlink="http://www.w3.org/1999/xlink" x="0px" y="0px"
	 viewBox="0 0 30.3 30.3" style="enable-background:new 0 0 30.3 30.3;" xml:space="preserve">
<style type="text/css">
	.st0{fill:#DCD9EE;}
	.st1{fill:#4836A3;}
</style>
<g>
	<g>
		<path class="st0" d="M17.8,9.3c4.7,0,8.5,3.8,8.5,8.5s-3.8,8.5-8.5,8.5s-8.5-3.8-8.5-8.5S13.1,9.3,17.8,9.3 M17.8,5.3
			c-6.9,0-12.5,5.6-12.5,12.5s5.6,12.5,12.5,12.5s12.5-5.6,12.5-12.5S24.7,5.3,17.8,5.3L17.8,5.3z"/>
	</g>
</g>
<g>
	<g>
		<path class="st1" d="M12.5,4c4.7,0,8.5,3.8,8.5,8.5S17.2,21,12.5,21S4,17.2,4,12.5S7.8,4,12.5,4 M12.5,0C5.6,0,0,5.6,0,12.5
			S5.6,25,12.5,25S25,19.4,25,12.5S19.4,0,12.5,0L12.5,0z"/>
	</g>
</g>
</svg>
