<?xml version="1.0" encoding="utf-8"?>
<!-- Generator: Adobe Illustrator 21.1.0, SVG Export Plug-In . SVG Version: 6.00 Build 0)  -->
<svg version="1.1" id="Ebene_1" xmlns="http://www.w3.org/2000/svg" xmlns:xlink="http://www.w3.org/1999/xlink" x="0px" y="0px"
	 viewBox="0 0 28.6 32.3" style="enable-background:new 0 0 28.6 32.3;" xml:space="preserve">
<style type="text/css">
	.st0{opacity:0.3;fill:#FFFFFF;}
	.st1{fill:#FFFFFF;}
</style>
<path class="st0" d="M9.3,8.4c0.2,0,0.4,0.1,0.5,0.2l15.4,11.6c0.4,0.3,0.4,0.7,0.4,0.9c0,0.2-0.1,0.6-0.6,0.7L6.4,29.2
	c-0.1,0-0.2,0.1-0.4,0.1c-0.3,0-0.5-0.1-0.7-0.3c-0.2-0.2-0.2-0.5-0.2-0.7l3.2-19C8.5,8.5,9,8.4,9.3,8.4 M9.3,5.4
	c-1.8,0-3.6,1.3-3.9,3.3l-3.2,19c-0.4,2.5,1.6,4.6,3.9,4.6c0.5,0,1-0.1,1.5-0.3l18.6-7.4c2.8-1.1,3.4-4.9,0.9-6.8L11.6,6.2
	C10.9,5.6,10.1,5.4,9.3,5.4L9.3,5.4z"/>
<path class="st1" d="M7.2,3c0.2,0,0.4,0.1,0.5,0.2l15.4,11.6c0.4,0.3,0.4,0.7,0.4,0.9c0,0.2-0.1,0.6-0.6,0.7L4.3,23.8
	c-0.1,0-0.2,0.1-0.4,0.1c-0.3,0-0.5-0.1-0.7-0.3C3,23.3,3,23.1,3,22.8l3.2-19C6.3,3.2,6.9,3,7.2,3 M7.2,0C5.3,0,3.6,1.3,3.3,3.3
	l-3.2,19c-0.4,2.5,1.6,4.6,3.9,4.6c0.5,0,1-0.1,1.5-0.3L24,19.2c2.8-1.1,3.4-4.9,0.9-6.8L9.5,0.8C8.8,0.3,8,0,7.2,0L7.2,0z"/>
</svg>
