<?xml version="1.0" encoding="utf-8"?>
<!-- Generator: Adobe Illustrator 21.1.0, SVG Export Plug-In . SVG Version: 6.00 Build 0)  -->
<svg version="1.1" id="Ebene_1" xmlns="http://www.w3.org/2000/svg" xmlns:xlink="http://www.w3.org/1999/xlink" x="0px" y="0px"
	 viewBox="0 0 29.2 34.1" style="enable-background:new 0 0 29.2 34.1;" xml:space="preserve">
<style type="text/css">
	.st0{fill:#FCD4E0;}
	.st1{fill:#F21458;}
</style>
<g>
	<path class="st0" d="M10,11.3l15.2,11.5L6.8,30.1L10,11.3 M10,7.2c-1.9,0-3.6,1.3-3.9,3.3l-3.2,19c-0.4,2.5,1.6,4.6,3.9,4.6
		c0.5,0,1-0.1,1.5-0.3l18.5-7.4c2.8-1.1,3.4-4.9,0.9-6.8L12.3,8C11.6,7.5,10.8,7.2,10,7.2L10,7.2z"/>
</g>
<g>
	<path class="st1" d="M7.2,4.1l15.2,11.5L4,22.9L7.2,4.1 M7.2,0C5.3,0,3.6,1.3,3.3,3.3l-3.2,19c-0.4,2.5,1.6,4.6,3.9,4.6
		c0.5,0,1-0.1,1.5-0.3L24,19.2c2.8-1.1,3.4-4.9,0.9-6.8L9.5,0.8C8.8,0.3,8,0,7.2,0L7.2,0z"/>
</g>
</svg>
