<?xml version="1.0" encoding="utf-8"?>
<!-- Generator: Adobe Illustrator 22.0.1, SVG Export Plug-In . SVG Version: 6.00 Build 0)  -->
<svg version="1.1" id="Ebene_1" xmlns="http://www.w3.org/2000/svg" xmlns:xlink="http://www.w3.org/1999/xlink" x="0px" y="0px"
	 viewBox="0 0 31 31" style="enable-background:new 0 0 31 31;" xml:space="preserve">
<style type="text/css">
	.st0{opacity:0.3;fill:#FFFFFF;}
	.st1{fill:#FFFFFF;}
</style>
<path class="st0" d="M27,5.9H9.9c-2.2,0-4,1.8-4,4V27c0,2.2,1.8,4,4,4H27c2.2,0,4-1.8,4-4V9.9C31,7.7,29.2,5.9,27,5.9z M9.9,8.9H27
	c0.6,0,1,0.4,1,1v4.1H8.9V9.9C8.9,9.3,9.3,8.9,9.9,8.9z M27,28H9.9c-0.6,0-1-0.4-1-1V16.9H28V27C28,27.6,27.6,28,27,28z"/>
<path class="st1" d="M21.1,0H4C1.8,0,0,1.8,0,4v17.1c0,2.2,1.8,4,4,4h17.1c2.2,0,4-1.8,4-4V4C25.1,1.8,23.3,0,21.1,0z M4,3h17.1
	c0.6,0,1,0.4,1,1v4.1H3V4C3,3.4,3.4,3,4,3z M21.1,22.1H4c-0.6,0-1-0.4-1-1v-10h19.1v10C22.1,21.7,21.7,22.1,21.1,22.1z"/>
</svg>
