<?xml version="1.0" encoding="utf-8"?>
<!-- Generator: Adobe Illustrator 21.1.0, SVG Export Plug-In . SVG Version: 6.00 Build 0)  -->
<svg version="1.1" id="Ebene_1" xmlns="http://www.w3.org/2000/svg" xmlns:xlink="http://www.w3.org/1999/xlink" x="0px" y="0px"
	 viewBox="0 0 34.4 17" style="enable-background:new 0 0 34.4 17;" xml:space="preserve">
<style type="text/css">
	.st0{fill:#FFFFFF;}
	.st1{opacity:0.3;fill:#FFFFFF;}
</style>
<path class="st0" d="M1.5,13.9c-0.2,0-0.5-0.1-0.7-0.2c-0.7-0.4-1-1.3-0.7-2c0.1-0.2,2.8-5.4,7.8-7c2.7-0.9,5.6-0.6,8.5,0.9
	c7.7,4,12.2-4.5,12.4-4.8c0.4-0.7,1.3-1,2-0.6c0.7,0.4,1,1.3,0.6,2c-0.1,0.1-1.5,2.9-4.2,5c-2.6,2.1-6.8,3.9-12.3,1.1
	c-2.2-1.1-4.3-1.4-6.2-0.8c-3.9,1.2-6,5.5-6,5.5C2.6,13.6,2,13.9,1.5,13.9z"/>
<path class="st1" d="M23.2,17c-1.7,0-3.5-0.4-5.4-1.4c-0.7-0.4-1-1.3-0.6-2c0.4-0.7,1.3-1,2-0.6c7.7,4,12.2-4.5,12.4-4.8
	c0.4-0.7,1.3-1,2-0.6c0.7,0.4,1,1.3,0.6,2C32.7,12.5,28.7,17,23.2,17z"/>
</svg>
