<?xml version="1.0" encoding="utf-8"?>
<!-- Generator: Adobe Illustrator 21.1.0, SVG Export Plug-In . SVG Version: 6.00 Build 0)  -->
<svg version="1.1" id="Ebene_1" xmlns="http://www.w3.org/2000/svg" xmlns:xlink="http://www.w3.org/1999/xlink" x="0px" y="0px"
	 viewBox="0 0 35.4 30" style="enable-background:new 0 0 35.4 30;" xml:space="preserve">
<style type="text/css">
	.st0{fill:#F4B62E;}
	.st1{fill:#FDF1D9;}
</style>
<path class="st0" d="M2,20.9c-0.3,0-0.6-0.1-0.9-0.2c-1-0.5-1.4-1.7-0.9-2.7c0.1-0.2,2.9-5.6,8.1-7.3c2.9-0.9,5.8-0.6,8.9,1
	c3,1.6,5.8,1.4,8.4-0.7c2.1-1.7,3.3-3.9,3.3-3.9c0.5-1,1.7-1.4,2.7-0.8c1,0.5,1.4,1.7,0.9,2.7c-0.1,0.1-1.6,3-4.3,5.2
	c-2.7,2.2-7.1,4.1-12.8,1.2c-2.1-1.1-4-1.3-5.8-0.7c-3.6,1.2-5.7,5.2-5.7,5.3C3.4,20.5,2.7,20.9,2,20.9z"/>
<path class="st1" d="M23.7,24c-1.8,0-3.7-0.4-5.7-1.5c-1-0.5-1.4-1.7-0.9-2.7c0.5-1,1.7-1.4,2.7-0.9c3,1.6,5.8,1.3,8.4-0.7
	c2.1-1.7,3.3-3.9,3.3-3.9c0.5-1,1.7-1.4,2.7-0.8c1,0.5,1.4,1.7,0.9,2.7C33.5,19.3,29.4,24,23.7,24z"/>
</svg>
